<?xml version="1.0" encoding="UTF-8"?>
<svg id="Calque_2" data-name="Calque 2" xmlns="http://www.w3.org/2000/svg" viewBox="0 0 4167.7 3194.47">
  <defs>
    <style>
      .cls-1 {
        fill: #ffd56c;
      }

      .cls-2 {
        fill: #fbb5b5;
      }

      .cls-3 {
        fill: #66a967;
      }

      .cls-4 {
        fill: #f39d40;
      }

      .cls-5 {
        fill: #ff4d4d;
      }

      .cls-6 {
        fill: #e3f7fc;
      }

      .cls-7 {
        fill: #fff;
      }

      .cls-8 {
        fill: #56b9e1;
      }

      .cls-9 {
        fill: #e95eaa;
      }
    </style>
  </defs>
  <g id="Layer_1" data-name="Layer 1">
    <g>
      <path class="cls-9" d="M2340.75,725.1h-587.23l-54.95,355.42,1054.27,385.25,192.72-106.49,71.76-68.15c68.32-64.88,66.63-174.29-3.67-237.03l-243.64-217.44-429.26-111.55Z"/>
      <path class="cls-8" d="M1267.89,793.1s-419.27,257.09-215.8,755.03l870.42-243.82,95.7-358.99-168.54-1.89-65.25-126.35-516.53-23.98Z"/>
      <g>
        <g>
          <path class="cls-5" d="M2122.91,1117.46c-912.61,0-1652.43,739.82-1652.43,1652.43h321.31c0-735.16,595.96-1331.12,1331.12-1331.12s1331.12,595.96,1331.12,1331.12h321.31c0-912.61-739.82-1652.43-1652.43-1652.43Z"/>
          <path class="cls-1" d="M2122.91,1438.76c-735.16,0-1331.12,595.96-1331.12,1331.12h309.83c0-564.04,457.25-1021.29,1021.29-1021.29s1021.29,457.25,1021.29,1021.29h309.83c0-735.16-595.96-1331.12-1331.12-1331.12Z"/>
          <path class="cls-3" d="M2122.91,1748.6c-564.04,0-1021.29,457.25-1021.29,1021.29h309.83c0-392.93,318.53-711.46,711.46-711.46s711.46,318.53,711.46,711.46h309.83c0-564.04-457.25-1021.29-1021.29-1021.29Z"/>
        </g>
        <path class="cls-6" d="M1365.55,2528.91c-104.18,0-197.17,47.89-258.19,122.84-61.02-74.95-154.01-122.84-258.19-122.84s-197.17,47.89-258.19,122.84c-61.02-74.95-154.01-122.84-258.19-122.84-183.79,0-332.78,148.99-332.78,332.78s148.99,332.78,332.78,332.78c104.18,0,197.17-47.89,258.19-122.84,61.02,74.95,154.01,122.84,258.19,122.84s197.17-47.89,258.19-122.84c61.02,74.95,154.01,122.84,258.19,122.84,183.79,0,332.78-148.99,332.78-332.78s-148.99-332.78-332.78-332.78Z"/>
        <path class="cls-6" d="M3834.91,2528.91c-104.18,0-197.17,47.89-258.19,122.84-61.02-74.95-154.01-122.84-258.19-122.84s-197.17,47.89-258.19,122.84c-61.02-74.95-154.01-122.84-258.19-122.84-183.79,0-332.78,148.99-332.78,332.78s148.99,332.78,332.78,332.78c104.18,0,197.17-47.89,258.19-122.84,61.02,74.95,154.01,122.84,258.19,122.84s197.17-47.89,258.19-122.84c61.02,74.95,154.01,122.84,258.19,122.84,183.79,0,332.78-148.99,332.78-332.78s-148.99-332.78-332.78-332.78Z"/>
      </g>
      <g>
        <g>
          <circle cx="2243.83" cy="580.4" r="95.23" transform="translate(246.7969 1756.6245) rotate(-45)"/>
          <circle cx="2093.66" cy="597.72" r="95.23" transform="translate(190.564 1655.507) rotate(-45)"/>
          <circle cx="1938.56" cy="614.81" r="95.23" transform="translate(133.0546 1550.8426) rotate(-45)"/>
        </g>
        <g>
          <circle cx="3182.91" cy="947.85" r="95.23" transform="translate(262.0255 2528.2772) rotate(-45)"/>
          <circle cx="3062.05" cy="857.04" r="95.23" transform="translate(290.8328 2416.219) rotate(-45)"/>
          <circle cx="2937.78" cy="762.69" r="95.23" transform="translate(321.1554 2300.7092) rotate(-45)"/>
        </g>
        <circle class="cls-2" cx="2986.08" cy="686.34" r="132.92" transform="translate(389.2833 2312.4991) rotate(-45)"/>
        <circle class="cls-2" cx="2246.97" cy="470.69" r="132.92" transform="translate(325.2955 1726.7054) rotate(-45)"/>
        <g>
          <path d="M2305.28,304.77c11.35-14.19,23.8-27.78,37.37-40.63,109.88-104.1,263.63-133.11,397.95-88.78,60.32,19.91,116.72,54.6,163.47,103.94,61.23,64.63,96.48,144.43,106.12,226.54,3.14,26.73,3.54,53.7,1.26,80.47l-742.06-228.21c10.39-18.51,22.33-36.36,35.9-53.33Z"/>
          <path class="cls-2" d="M3011.44,586.31c-7.98,93.59-48.98,184.73-122.54,254.41-159.22,150.84-410.57,144.06-561.42-15.16-46.75-49.34-78.34-107.54-94.96-168.84-26.98-99.51-14.45-207.22,36.86-298.62l742.06,228.21Z"/>
        </g>
        <g>
          <g>
            <path class="cls-7" d="M2571.86,577.7c-11.65,41.35-40.98,70.63-70.4,73.44,7.52,12.15,17.92,20.86,30.66,24.44,37.03,10.43,79.8-26.36,95.52-82.17,15.72-55.81-1.55-109.51-38.59-119.94-12.74-3.59-26.15-1.59-38.91,4.85,23.64,17.75,33.37,58.04,21.72,99.39Z"/>
            <path d="M2493.53,555.63c-10.31,36.62-6.43,72.32,7.93,95.5,29.43-2.8,58.75-32.09,70.4-73.44,11.65-41.35,1.92-81.64-21.72-99.39-24.34,12.28-46.29,40.71-56.61,77.32Z"/>
          </g>
          <g>
            <path class="cls-7" d="M2680.99,608.44c-11.65,41.35-40.98,70.63-70.4,73.44,7.52,12.15,17.92,20.86,30.66,24.44,37.03,10.43,79.8-26.36,95.52-82.17,15.72-55.81-1.55-109.51-38.59-119.94-12.74-3.59-26.15-1.59-38.91,4.85,23.64,17.75,33.37,58.04,21.72,99.39Z"/>
            <path d="M2602.66,586.37c-10.31,36.62-6.43,72.32,7.93,95.5,29.43-2.8,58.75-32.09,70.4-73.44,11.65-41.35,1.92-81.64-21.72-99.39-24.34,12.28-46.29,40.71-56.61,77.32Z"/>
          </g>
        </g>
        <path d="M2626.72,714.34c-12.23,21.64-37.79,33.39-63.08,27.06-24.44-6.11-41.16-27.24-42.8-51.09l105.88,24.02Z"/>
      </g>
      <g>
        <circle cx="1105.15" cy="304.13" r="162.73" transform="translate(108.64 870.54) rotate(-45)"/>
        <circle cx="1028.63" cy="102.68" r="102.67" transform="translate(228.67 757.42) rotate(-45)"/>
        <g>
          <path class="cls-2" d="M1878.78,685.76c14.98-66.3,12.41-132.46-4.62-193.66-33.24-119.45-121.61-219.93-242.35-265.38l-503.25,532.97c49.27,110.51,148.24,197.21,275.34,225.92,213.93,48.33,426.55-85.91,474.88-299.85Z"/>
          <path d="M1578.93,210.88c-147.64-33.36-294.63,20.25-387.45,126.98-41.68,47.93-72.45,106.56-87.43,172.86-19.62,86.84-9.15,173.45,24.51,248.96l503.25-532.97c-17.01-6.4-34.65-11.72-52.88-15.84Z"/>
        </g>
        <g>
          <g>
            <path class="cls-7" d="M1592.33,598.42c-.7,42.95,19.01,79.42,46.39,90.54-10.69,9.48-23.15,14.84-36.38,14.63-38.47-.62-68.89-48.13-67.95-106.1.94-57.98,32.89-104.47,71.35-103.85,13.23.21,25.51,5.97,35.89,15.8-27.73,10.23-48.61,46.03-49.3,88.99Z"/>
            <path d="M1673.69,599.74c-.62,38.04-14.58,71.13-34.97,89.22-27.39-11.12-47.09-47.58-46.39-90.54.7-42.95,21.57-78.76,49.3-88.99,19.8,18.74,32.68,52.27,32.07,90.31Z"/>
          </g>
          <g>
            <path class="cls-7" d="M1478.96,596.58c-.7,42.95,19.01,79.42,46.39,90.54-10.69,9.48-23.15,14.84-36.38,14.63-38.47-.62-68.89-48.13-67.95-106.1.94-57.98,32.89-104.47,71.35-103.85,13.23.21,25.51,5.97,35.89,15.8-27.73,10.23-48.61,46.03-49.3,88.99Z"/>
            <path d="M1560.33,597.9c-.62,38.04-14.58,71.13-34.97,89.22-27.39-11.12-47.09-47.58-46.39-90.54.7-42.95,21.57-78.76,49.3-88.99,19.8,18.74,32.68,52.27,32.06,90.31Z"/>
          </g>
        </g>
        <circle class="cls-2" cx="1185.05" cy="673.16" r="132.92" transform="translate(-128.8985 1035.122) rotate(-45)"/>
        <path d="M1481.07,265.98l40.45,151.21,202.41-16.59-2.89-55.63,23.84,49.47,87.47.2s-40.75-170.6-253.42-183.76l-97.86,55.11Z"/>
        <path d="M1510.52,799.17c-48.48,0-73.58-41.32-73.88-41.83-1.71-2.9-.75-6.64,2.15-8.35,2.9-1.71,6.63-.75,8.35,2.14,1.31,2.19,32.35,52.7,93.71,30.04,3.16-1.17,6.67.45,7.83,3.61,1.17,3.16-.45,6.67-3.61,7.83-12.59,4.65-24.11,6.57-34.55,6.57Z"/>
      </g>
      <path class="cls-2" d="M1632.56,1255.45l-.23-2.29c-10.36-104.76-103.35-181.51-208.17-171.81h-.03c-106.83,9.88-184.69,105.6-172.62,212.2l.26,2.29c11.73,103.54,104.1,178.69,207.87,169.1h0c105.77-9.77,183.37-103.78,172.92-209.49Z"/>
      <path class="cls-2" d="M2182.01,1118.36l-.23-2.29c-10.36-104.76-103.35-181.51-208.17-171.81h-.03c-106.83,9.88-184.69,105.6-172.62,212.2l.26,2.29c11.73,103.54,104.1,178.69,207.87,169.1h0c105.77-9.77,183.37-103.78,172.92-209.49Z"/>
      <path class="cls-2" d="M3007.62,1198.46l-.23-2.29c-10.36-104.76-103.35-181.51-208.17-171.81h-.03c-106.83,9.88-184.69,105.6-172.62,212.2l.26,2.29c11.73,103.54,104.1,178.69,207.87,169.1h0c105.77-9.77,183.37-103.78,172.92-209.49Z"/>
      <polygon class="cls-8" points="1041.38 1520.53 1441.89 1465.75 1424.16 1081.34 1128.56 1136.05 1041.38 1520.53"/>
      <path d="M1185.05,1112.37c-3.12,0-5.78-2.38-6.07-5.55-.3-3.35,2.17-6.32,5.52-6.62l204.54-18.54c3.35-.3,6.32,2.17,6.62,5.52.3,3.35-2.17,6.32-5.52,6.62l-204.54,18.54c-.19.02-.37.02-.56.02Z"/>
      <path d="M2193.67,1067.39c-.23,0-.46-.01-.69-.04-3.35-.38-5.75-3.4-5.37-6.75l25.35-223.47c.38-3.35,3.42-5.76,6.75-5.37,3.35.38,5.75,3.4,5.37,6.75l-25.35,223.47c-.35,3.11-2.99,5.41-6.05,5.41Z"/>
      <path class="cls-8" d="M3552.95,1454.92l26.38-73.09,75.16-19.71c33.44-8.77,42.31-52.08,15.01-73.29l-61.36-47.67,4.48-77.57c2-34.52-36.45-56.34-65.06-36.93l-64.3,43.63-72.39-28.24c-32.21-12.56-64.84,17.26-55.22,50.47l21.62,74.64-49.23,60.12c-21.9,26.75-3.62,67,30.93,68.12l77.66,2.5,41.97,65.4c18.67,29.1,62.6,24.15,74.34-8.37Z"/>
      <path class="cls-4" d="M753.72,1214.65l-50.91-2.44-26.85-43.32c-11.95-19.28-40.81-16.48-48.84,4.73l-18.05,47.67-49.5,12.15c-22.02,5.41-28.29,33.72-10.6,47.91l39.76,31.9-3.74,50.83c-1.66,22.62,23.33,37.32,42.29,24.89l42.62-27.95,47.19,19.26c21,8.57,42.71-10.65,36.74-32.53l-13.41-49.17,32.9-38.93c14.64-17.32,3.06-43.91-19.59-44.99Z"/>
      <path class="cls-9" d="M3890.17,1839.21l-7.83-53.33,39.49-36.68c17.57-16.32,8.8-45.71-14.84-49.73l-53.14-9.03-22.69-48.9c-10.09-21.76-40.75-22.49-51.88-1.25l-25.01,47.75-53.51,6.47c-23.81,2.88-33.99,31.81-17.22,48.96l37.68,38.54-10.39,52.89c-4.62,23.53,19.75,42.15,41.24,31.5l48.3-23.93,47.09,26.22c20.95,11.67,46.19-5.76,42.71-29.48Z"/>
      <path class="cls-9" d="M513.77,1819.28l-46.27-52.54,17.04-67.9c7.58-30.21-22.77-56.01-51.36-43.65l-64.27,27.77-59.31-37.19c-26.39-16.55-60.3,4.35-57.38,35.36l6.56,69.7-53.7,44.92c-23.89,19.98-14.5,58.69,15.9,65.5l68.32,15.3,26.12,64.95c11.62,28.9,51.34,31.93,67.21,5.12l35.67-60.24,69.85-4.77c31.08-2.12,46.23-38.96,25.64-62.34Z"/>
    </g>
  </g>
</svg>