<?xml version="1.0" encoding="UTF-8"?>
<svg id="Calque_2" data-name="Calque 2" xmlns="http://www.w3.org/2000/svg" viewBox="0 0 676.42 1663.99">
  <defs>
    <style>
      .cls-1 {
        fill: #fff;
      }

      .cls-2 {
        fill: #e8959d;
      }

      .cls-3 {
        fill: #e8acb5;
      }

      .cls-4 {
        fill: #5c93e5;
      }

      .cls-5 {
        fill: #355377;
      }

      .cls-6 {
        fill: #9b4b35;
      }
    </style>
  </defs>
  <g id="Layer_1" data-name="Layer 1">
    <g>
      <g>
        <polygon class="cls-3" points="377.32 1116.78 104.59 1148.33 104.59 1503.32 377.32 1509.09 377.32 1116.78"/>
        <path class="cls-4" d="M104.59,1503.32l-70.7,84.81c-25.11,30.12-3.69,75.86,35.52,75.86h248.64c32.73,0,59.27-26.54,59.27-59.27v-95.63l-272.73-5.77Z"/>
      </g>
      <g>
        <polygon class="cls-3" points="237.27 1116.78 510 1148.33 510 1503.32 237.27 1509.09 237.27 1116.78"/>
        <path class="cls-4" d="M510,1503.32l70.7,84.81c25.11,30.12,3.69,75.86-35.52,75.86h-248.64c-32.73,0-59.27-26.54-59.27-59.27l-132.68-101.4h405.41Z"/>
      </g>
      <path class="cls-5" d="M105.01,957.3c-9.27,79.18-11.35,181.41-8.39,265.26h426.55s-4.78-194.82-24.16-265.26H105.01Z"/>
      <g>
        <path class="cls-1" d="M597.27,787.3c0-66.99-30.72-129.47-81.73-166.19l-67.39-48.53H167.28l-51.28,24.77c-63.84,30.83-105.87,99.23-108.01,175.81l-.71,25.33h63.11l75.41,219.06h340.72l57.94-219.06h52.82v-11.18Z"/>
        <g>
          <path class="cls-4" d="M501.85,611.25H92.22c-14.16,9.82-26.88,21.64-37.88,35.06h489.48c-8.55-9.33-17.99-17.8-28.28-25.2l-13.7-9.86Z"/>
          <path class="cls-4" d="M13.69,729.45h575.73c-3.37-12.15-7.77-23.89-13.16-35.06H25.25c-4.82,11.21-8.71,22.94-11.57,35.06Z"/>
          <path class="cls-4" d="M7.27,798.48h63.11l4.86,14.11h465.48l3.73-14.11h52.82v-11.18c0-3.27-.09-6.52-.24-9.77H7.86l-.59,20.95Z"/>
          <polygon class="cls-4" points="103.86 895.74 518.73 895.74 528 860.67 91.79 860.67 103.86 895.74"/>
          <polygon class="cls-4" points="132.48 978.88 496.74 978.88 506.01 943.82 120.41 943.82 132.48 978.88"/>
        </g>
        <g>
          <path class="cls-6" d="M649.55,98.21c-3.84-7.48-8.37-14.43-13.5-20.82-.17-.23-.27-.36-.27-.36h-.02c-31.57-39.09-85.12-56.68-135.69-40.08-65.31,21.44-100.88,91.77-79.44,157.09,21.44,65.32,91.77,100.88,157.09,79.44,37.96-12.46,65.85-41.45,78.36-76.37,4.03,15.62,5.74,33.16,5.57,52.26,31.32-58.15,5.81-119.72-12.09-151.16Z"/>
          <path class="cls-6" d="M92.22,6.24c-24.4,8.01-44.64,22.84-59.32,41.69l1.72-38.88c-69.32,83.88-13.14,174.59-13.14,174.59v-.07c28.04,52.12,90.18,78.3,148.37,59.2,65.32-21.44,100.88-91.77,79.44-157.09S157.53-15.2,92.22,6.24Z"/>
          <g>
            <path class="cls-6" d="M577.85,346.03c-.66-8.34-1.67-16.71-3.07-25.09-1.15-6.86-2.53-13.73-4.2-20.59-4.13-17-9.69-33.27-16.52-48.73-30.05-68.01-84.7-120.18-150.43-148.23-55.12-23.53-118.02-30.11-180.74-14.88-47.88,11.63-90.03,34.61-124.29,65.38C56.8,191.44,26.77,240.6,12.41,294.92l220.36-139.27s168.78,181.54,345.08,190.39Z"/>
            <path class="cls-3" d="M232.77,155.65L12.41,294.92c-1.95,7.37-3.62,14.84-4.98,22.39-2.23,12.33-3.67,24.87-4.25,37.55-1.24,26.71,1.25,54.05,7.88,81.35,3.2,13.16,7.25,25.89,12.09,38.15,34.35,86.99,108.21,149.88,195.17,172.59,44.55,11.63,92.54,12.73,140.43,1.1,105.37-25.58,182.97-106.13,209.79-203.77,8.62-31.4,11.97-64.56,9.32-98.24-176.3-8.85-345.08-190.39-345.08-190.39Z"/>
          </g>
          <g>
            <path class="cls-1" d="M243.03,391.14c6.45,30.47-2.51,59.14-20.46,70.86,8.92,5.27,18.53,7.35,27.91,5.37,27.29-5.78,42.35-43.8,33.64-84.92-8.71-41.12-37.88-69.78-65.17-64-9.38,1.99-17.32,7.79-23.35,16.22,21.15,3.43,40.97,26.02,47.42,56.49Z"/>
            <path d="M185.31,403.36c5.71,26.98,20.24,48.59,37.25,58.64,17.95-11.71,26.91-40.39,20.46-70.86-6.45-30.47-26.27-53.05-47.42-56.49-11.49,16.08-16.01,41.72-10.3,68.7Z"/>
          </g>
          <g>
            <path class="cls-1" d="M333.85,373.22c6.45,30.47-2.51,59.14-20.46,70.85,8.92,5.27,18.53,7.35,27.91,5.37,27.29-5.78,42.35-43.8,33.64-84.92-8.71-41.12-37.88-69.78-65.17-64-9.38,1.99-17.32,7.79-23.35,16.22,21.15,3.43,40.97,26.02,47.42,56.49Z"/>
            <path d="M276.14,385.43c5.71,26.98,20.24,48.59,37.25,58.64,17.95-11.71,26.91-40.39,20.46-70.85-6.45-30.47-26.27-53.05-47.42-56.49-11.49,16.08-16.01,41.72-10.3,68.7Z"/>
          </g>
          <circle class="cls-2" cx="430.09" cy="443.89" r="40.36" transform="translate(-138.42 686.4) rotate(-69.01)"/>
          <circle class="cls-2" cx="147.52" cy="482.34" r="40.36" transform="translate(-355.66 447.26) rotate(-69.01)"/>
          <path class="cls-6" d="M223.6,127.71s-89.2,43.44,14.45,142.37l-5.6-66.36s15.7,65.12,104.18,41.94l4.89-71.56-117.92-46.39Z"/>
          <circle class="cls-3" cx="572.84" cy="358.95" r="93.17" transform="translate(-86.03 510.19) rotate(-45)"/>
          <path d="M57.24,204.43c-.62,0-1.25-.13-1.85-.41-2.22-1.02-3.18-3.65-2.16-5.86.46-1,11.64-24.9,39.36-51.3,25.49-24.28,70.38-55.26,139.52-64.91,2.42-.35,4.65,1.35,4.99,3.77.34,2.42-1.35,4.65-3.77,4.99-66.61,9.31-109.82,39-134.34,62.27-26.62,25.27-37.62,48.66-37.73,48.89-.75,1.61-2.35,2.57-4.02,2.57Z"/>
          <path d="M554.07,256.05c-1.75,0-3.41-1.05-4.1-2.78-38.41-95.74-106.08-123.84-106.76-124.11-2.26-.91-3.37-3.48-2.46-5.74.91-2.26,3.47-3.37,5.74-2.47,2.91,1.16,71.78,29.56,111.69,129.03.91,2.27-.19,4.84-2.46,5.75-.54.22-1.1.32-1.64.32Z"/>
          <circle cx="307.5" cy="493.1" r="17.43" transform="translate(-258.61 361.86) rotate(-45)"/>
        </g>
        <g>
          <path class="cls-3" d="M256.15,635.46h0c43.57,2.38,78.11,41.22,79.25,89.12l2.77,44.57c.41,17.12-3.56,34.03-11.46,48.8l-94.55,176.85c-21.69,40.56-61.31,65.47-104.13,65.47h0c-66.69,0-120.76-59.39-120.76-132.65v-129.14h81.7l89.26-114.26c15.13-31.51,45.52-50.54,77.92-48.77Z"/>
          <path class="cls-3" d="M348.39,635.46h0c-43.57,2.38-78.11,41.22-79.25,89.12l-2.77,44.57c-.41,17.12,3.56,34.03,11.46,48.8l94.55,176.85c21.69,40.56,61.31,65.47,104.13,65.47h0c66.69,0,120.76-59.39,120.76-132.65v-129.14h-81.7l-89.26-114.26c-15.13-31.51-45.52-50.54-77.92-48.77Z"/>
          <path d="M167.27,711.47c-.64,0-1.29-.14-1.91-.44-2.2-1.06-3.13-3.7-2.07-5.9l10.96-22.82c15.85-33,48.07-53.14,82.15-51.27,16.56.9,32.35,6.82,45.88,17.16,13.53-10.34,29.31-16.26,45.88-17.16,34.07-1.86,66.3,18.27,82.15,51.27,1.06,2.2.13,4.84-2.07,5.9-2.2,1.05-4.84.13-5.9-2.07-14.29-29.77-43.22-47.88-73.69-46.27-15.82.86-30.88,6.88-43.53,17.39-1.64,1.36-4.01,1.36-5.65,0-12.66-10.51-27.71-16.52-43.53-17.39-30.47-1.62-59.4,16.5-73.69,46.27l-10.96,22.82c-.76,1.58-2.34,2.51-3.99,2.51Z"/>
          <path d="M49.3,883.78c-.71,0-1.44-.17-2.11-.54-2.15-1.17-2.94-3.85-1.78-6l36.58-67.36c1.17-2.15,3.85-2.94,5.99-1.78,2.15,1.17,2.94,3.85,1.78,6l-36.58,67.36c-.8,1.48-2.32,2.31-3.89,2.31Z"/>
          <path d="M563.25,892.6c-1.55,0-3.05-.81-3.86-2.26l-42.83-76.18c-1.2-2.13-.44-4.82,1.69-6.02,2.12-1.19,4.82-.44,6.02,1.69l42.83,76.18c1.2,2.13.44,4.82-1.69,6.02-.68.38-1.43.57-2.16.57Z"/>
          <path d="M301.81,825.95h-.01c-2.44,0-4.42-1.99-4.41-4.43l.46-167.67c0-2.44,1.98-4.41,4.42-4.41h.01c2.44,0,4.42,1.99,4.41,4.43l-.46,167.67c0,2.44-1.98,4.41-4.42,4.41Z"/>
        </g>
      </g>
      <path d="M348.06,1134.02c-.11,0-.22,0-.33-.01l-92.5-6.92c-2.43-.18-4.26-2.3-4.08-4.74.18-2.43,2.29-4.25,4.74-4.08l92.5,6.92c2.43.18,4.26,2.3,4.08,4.74-.17,2.32-2.11,4.09-4.4,4.09Z"/>
      <path d="M296.79,1647.16c-2.44,0-4.42-1.98-4.42-4.42v-516.61c0-2.44,1.98-4.42,4.42-4.42s4.42,1.98,4.42,4.42v516.61c0,2.44-1.98,4.42-4.42,4.42Z"/>
    </g>
  </g>
</svg>