<?xml version="1.0" encoding="UTF-8"?>
<svg id="Calque_2" data-name="Calque 2" xmlns="http://www.w3.org/2000/svg" viewBox="0 0 1473.4 1380.98">
  <defs>
    <style>
      .cls-1 {
        fill: #fff;
      }

      .cls-2 {
        fill: #e8959d;
      }

      .cls-3 {
        fill: #e8acb5;
      }

      .cls-4 {
        fill: #5c93e5;
      }

      .cls-5 {
        fill: #355377;
      }

      .cls-6 {
        fill: #9b4b35;
      }
    </style>
  </defs>
  <g id="Layer_1" data-name="Layer 1">
    <g>
      <g>
        <path class="cls-4" d="M193.04,849.47l-153.7-70.76c-21.83-10.05-45.22,10.56-38,33.48l79.3,251.67c10.49,33.28,41.35,55.92,76.25,55.92h81.51c-16.54-38.99-42.83-104.19-59.28-161.21-25.45-88.21,13.92-109.1,13.92-109.1Z"/>
        <path class="cls-3" d="M595.37,849.47H193.04s-39.37,20.89-13.92,109.1c16.45,57.02,42.74,122.23,59.28,161.21h487.01l-130.03-270.31Z"/>
      </g>
      <path class="cls-5" d="M1025.36,871.49l93.3,45.06c52.46,44.33,67.82,119.3,35.79,180.05-42.91,81.41-108.07,131.91-199.15,146.39-37.38,5.94-75.6-3.31-106.58-25.05l-89.08-57.64-343.73-101.81,19.76-167.6,589.69-19.4Z"/>
      <path class="cls-3" d="M452.72,741.83l-159.35,456.05-93.03,28.18c-28.91,8.76-28.05,49.99,1.21,57.53l242.24,62.41c32.32,8.33,65.6-9.62,76.4-41.21l172.07-503.36-239.53-59.6Z"/>
      <path class="cls-3" d="M580.74,774.78l-159.35,456.05-93.03,28.18c-28.91,8.76-28.05,49.99,1.21,57.53l242.24,62.41c32.32,8.33,65.6-9.62,76.4-41.21l172.07-503.36-239.53-59.6Z"/>
      <path class="cls-1" d="M515.4,540.02l-105.83,302.19,125.81,62.4,6.93-19.83,227.76,92.09-23.22,72.31c115.75-36.85,192.93-71.72,278.52-177.68l-141.83-310.35-368.13-21.12Z"/>
      <g>
        <path class="cls-3" d="M1142.58,981.51c-60.34-33.43-135.82-20.46-181.53,31.21h0c-61.76,69.81-43.89,178.72,36.95,225.13l182.21,104.6,105.4-282.72-143.02-78.22Z"/>
        <path class="cls-4" d="M1470.78,1245.01l-69.9-238.43c-8.87-30.25-48.54-37.28-67.26-11.91l-48.02,65.07-105.4,282.72,51.04,29.3c16.46,9.45,36.25,11.18,54.1,4.72l145.42-52.58c32.08-11.6,49.61-46.15,40.01-78.89Z"/>
      </g>
      <path d="M322.69,1118.37c-.48,0-.98-.08-1.46-.25-2.3-.81-3.52-3.33-2.71-5.63l88.36-252.87c.81-2.3,3.33-3.52,5.63-2.71,2.3.81,3.52,3.33,2.71,5.63l-88.36,252.87c-.64,1.82-2.35,2.96-4.17,2.96Z"/>
      <path d="M307.78,1298.31c-2.05,0-3.9-1.44-4.33-3.53-3.17-15.37,3.93-34.04,23.62-40l90.88-27.53,107.83-308.59c.81-2.3,3.33-3.52,5.63-2.71,2.3.81,3.52,3.33,2.71,5.63l-108.57,310.71c-.47,1.33-1.54,2.36-2.89,2.77l-93.03,28.18c-14.62,4.43-19.88,18.32-17.52,29.76.49,2.39-1.05,4.73-3.44,5.22-.3.06-.6.09-.9.09Z"/>
      <g>
        <polygon class="cls-4" points="917.9 636.34 481.67 636.34 469.39 671.4 933.92 671.4 917.9 636.34"/>
        <polygon class="cls-4" points="440.27 754.54 971.92 754.54 955.9 719.48 452.55 719.48 440.27 754.54"/>
        <polygon class="cls-4" points="411.15 837.69 1009.92 837.69 993.89 802.62 423.43 802.62 411.15 837.69"/>
        <path class="cls-4" d="M631.48,920.83h349.62c10.77-10.68,21.54-22.32,32.42-35.06h-468.76l86.72,35.06Z"/>
        <polygon class="cls-4" points="541.96 885.76 497.39 885.76 535.38 904.6 541.96 885.76"/>
        <path class="cls-4" d="M770.07,976.87l-8.71,27.11h103.38c20.63-10.16,40.24-21.59,59.35-35.06h-173.7l19.68,7.96Z"/>
      </g>
      <path d="M756.79,1024.52c-.47,0-.96-.08-1.43-.24-2.31-.79-3.54-3.3-2.75-5.61l63.49-185.72c.79-2.31,3.31-3.54,5.61-2.75,2.31.79,3.54,3.3,2.75,5.61l-63.49,185.72c-.63,1.84-2.35,2.99-4.18,2.99Z"/>
      <g>
        <path class="cls-6" d="M1086.4,276.51c-1.32-8.3-3.46-16.32-6.33-23.99-.09-.27-.15-.43-.15-.43h-.02c-17.8-47-63.2-80.41-116.42-80.41-68.74,0-124.47,55.73-124.47,124.47s55.73,124.47,124.47,124.47c39.96,0,75.49-18.85,98.27-48.12-1.04,16.1-4.89,33.3-11.01,51.39,47.89-45.48,42.86-111.93,35.66-147.39Z"/>
        <path class="cls-6" d="M585.56,15.29c-25.68,0-49.54,7.78-69.36,21.11l13.76-36.4c-92.02,58.07-66.94,161.79-66.94,161.79l.03-.07c10.38,58.27,61.25,102.52,122.5,102.52,68.74,0,124.47-55.73,124.47-124.47s-55.73-124.47-124.47-124.47Z"/>
        <g>
          <path class="cls-6" d="M940.98,489.6c1.98-8.13,3.63-16.39,4.91-24.79,1.05-6.88,1.88-13.83,2.44-20.88,1.38-17.44,1.17-34.63-.5-51.45-7.33-73.99-42.99-140.6-96.69-187.76-45.03-39.54-102.75-65.42-167.08-70.51-49.12-3.89-96.33,4.8-138.48,23.35-51.43,22.64-95.3,59.98-125.88,107.11l252.81-63.59s103.74,225.13,268.48,288.52Z"/>
          <path class="cls-3" d="M672.5,201.08l-252.81,63.59c-4.15,6.4-8.07,12.97-11.72,19.72-5.96,11.02-11.24,22.48-15.75,34.35-9.51,25-15.67,51.74-17.89,79.75-1.07,13.5-1.18,26.86-.41,40.01,5.5,93.36,56.06,176.15,131.61,224.85,38.7,24.95,83.96,40.96,133.08,44.85,108.09,8.56,206.95-43.76,262.88-128.17,17.99-27.14,31.51-57.61,39.49-90.43-164.74-63.39-268.48-288.52-268.48-288.52Z"/>
        </g>
        <g>
          <path class="cls-1" d="M608.89,428.57c-3.37,30.96-20.84,55.41-41.54,60.94,6.83,7.79,15.31,12.76,24.85,13.8,27.73,3.02,53.9-28.4,58.45-70.19s-14.23-78.11-41.96-81.14c-9.54-1.04-18.89,2-27.24,8.13,19.03,9.86,30.81,37.5,27.43,68.46Z"/>
          <path d="M550.24,422.18c-2.99,27.42,4.07,52.48,17.11,67.33,20.7-5.53,38.16-29.98,41.54-60.94,3.37-30.96-8.41-58.6-27.43-68.46-15.93,11.69-28.22,34.65-31.21,62.06Z"/>
        </g>
        <g>
          <path class="cls-1" d="M698.57,439.84c-3.37,30.96-20.84,55.41-41.54,60.94,6.83,7.79,15.31,12.76,24.85,13.8,27.73,3.02,53.9-28.4,58.45-70.19,4.55-41.79-14.23-78.11-41.96-81.14-9.54-1.04-18.89,2-27.24,8.13,19.03,9.86,30.81,37.5,27.43,68.46Z"/>
          <path d="M639.92,433.45c-2.99,27.42,4.07,52.48,17.11,67.33,20.7-5.53,38.16-29.98,41.54-60.94,3.37-30.96-8.41-58.6-27.43-68.46-15.93,11.69-28.22,34.65-31.21,62.06Z"/>
        </g>
        <path d="M634,558.98c-2.03,0-4.07-.16-6.12-.49-16.67-2.67-29.61-15.67-32.21-32.34-.38-2.41,1.28-4.67,3.69-5.05,2.41-.38,4.67,1.27,5.05,3.69,2,12.87,12,22.91,24.87,24.97,13.27,2.13,26.43-4.91,32.01-17.12,1.01-2.22,3.63-3.2,5.86-2.19,2.22,1.01,3.2,3.64,2.19,5.86-6.36,13.93-20.34,22.67-35.33,22.67Z"/>
        <circle class="cls-2" cx="770.07" cy="536.49" r="40.36" transform="translate(-54.06 985.52) rotate(-63.45)"/>
        <circle class="cls-2" cx="489.6" cy="484.89" r="40.36" transform="translate(-86.16 863.46) rotate(-78.05)"/>
        <path class="cls-6" d="M672.5,171.68s-98.3,13.45-30.68,139.78l15.38-64.8s-5.4,66.77,85.9,72.34l26.96-66.46-97.57-80.86Z"/>
        <circle class="cls-3" cx="932.19" cy="500.31" r="93.17" transform="translate(-80.74 805.69) rotate(-45)"/>
        <path d="M491.89,192.9c-1.08,0-2.16-.39-3.01-1.19-1.79-1.66-1.89-4.46-.23-6.24.75-.81,18.83-20.02,53.4-36.47,31.79-15.12,84.11-30.55,152.81-18.16,2.4.43,4,2.73,3.57,5.13-.43,2.4-2.73,4-5.13,3.57-66.19-11.93-116.51,2.8-147.06,17.26-33.18,15.7-50.92,34.5-51.1,34.69-.87.93-2.05,1.41-3.24,1.41Z"/>
        <path d="M947.82,396.9c-2.31,0-4.26-1.8-4.41-4.14-3.46-53.8-20.33-92.04-33.86-114.64-14.67-24.51-28.72-36.45-28.86-36.57-1.87-1.57-2.11-4.36-.55-6.23,1.57-1.87,4.35-2.12,6.22-.55,2.4,2.01,58.98,50.47,65.87,157.43.16,2.44-1.69,4.54-4.13,4.7-.1,0-.19,0-.29,0Z"/>
      </g>
      <path d="M563.71,791.96c-1.44,0-2.85-.7-3.7-1.99l-21.74-33c-1.34-2.04-.78-4.78,1.26-6.12,2.04-1.35,4.78-.78,6.12,1.26l21.74,33c1.34,2.04.78,4.78-1.26,6.12-.75.49-1.59.73-2.43.73Z"/>
      <path d="M541.97,875.91c-.47,0-.94-.07-1.41-.23-2.31-.78-3.56-3.28-2.78-5.6l37.55-111.88c.78-2.31,3.28-3.56,5.6-2.78,2.31.78,3.56,3.28,2.78,5.6l-37.55,111.88c-.62,1.85-2.34,3.02-4.19,3.02Z"/>
    </g>
  </g>
</svg>