<?xml version="1.0" encoding="UTF-8"?>
<svg id="Calque_2" data-name="Calque 2" xmlns="http://www.w3.org/2000/svg" viewBox="0 0 1345.02 1399.47">
  <defs>
    <style>
      .cls-1 {
        fill: #6a71d3;
      }

      .cls-2 {
        fill: #cc71cc;
      }

      .cls-3 {
        fill: #3a3030;
      }

      .cls-4 {
        fill: #a8694e;
      }

      .cls-5 {
        fill: #35201c;
      }

      .cls-6 {
        fill: #fff;
      }

      .cls-7 {
        fill: #514242;
      }

      .cls-8 {
        fill: #8e5132;
      }
    </style>
  </defs>
  <g id="Layer_1" data-name="Layer 1">
    <g>
      <g>
        <path class="cls-7" d="M705.85,454.01C383.78,547.51,93.05,550.47.04,468.98c.21,6.72,1.21,13.29,3.07,19.68,35.44,122.08,363.87,134.04,733.58,26.71,369.7-107.33,640.67-293.3,605.23-415.38-4.57-15.73-14.01-29.63-27.77-41.68,3.72,121.66-257.95,293.99-608.29,395.7Z"/>
        <path class="cls-3" d="M608.33,73.28C257.99,174.99-3.68,347.33.04,468.98c93.01,81.49,383.74,78.52,705.81-14.98,350.34-101.71,612.01-274.04,608.29-395.7-93.01-81.49-383.74-78.52-705.81,14.98Z"/>
      </g>
      <g>
        <path class="cls-1" d="M896.97,272.01c-12.4-76.27-35.98-169.61-60.86-251.08-72.45,12.12-149.17,29.53-227.78,52.35-81.07,23.54-157.39,50.86-226.78,80.45,20.71,62.97,63.54,187.46,94.42,238.27l420.99-120Z"/>
        <g>
          <path class="cls-6" d="M422.77,603.58c20.4,71.57,72.26,128.98,137.94,152.68l86.79,31.33,300.11-85.55,47.25-42.08c58.83-52.39,82.89-138.27,61.86-220.74l-6.96-27.28-67.43,19.22-147.29-211.1-364.06,103.77,4.81,251.71-56.44,16.09,3.41,11.95Z"/>
          <g>
            <path class="cls-2" d="M578.35,762.63l437.68-124.76c12.14-14.8,22.13-31.31,29.79-49l-523,149.08c11.98,7.36,24.65,13.53,37.89,18.31l17.64,6.37Z"/>
            <path class="cls-2" d="M1063.94,487.65l-615.16,175.35c7.3,11.96,15.58,23.16,24.74,33.46l588.74-167.82c1.74-13.44,2.32-27.16,1.68-40.99Z"/>
            <path class="cls-2" d="M1049.77,411.93l-67.43,19.22-9.49-13.6-497.36,141.77.31,16.22-56.44,16.09,3.41,11.95c1,3.49,2.09,6.94,3.23,10.37l629.52-179.44-5.75-22.57Z"/>
            <polygon class="cls-2" points="916.95 337.43 473.66 463.79 474.43 504.08 940.52 371.22 916.95 337.43"/>
            <polygon class="cls-2" points="861.05 257.31 471.84 368.26 472.61 408.55 884.62 291.1 861.05 257.31"/>
          </g>
          <g>
            <path class="cls-5" d="M576.78,1355.79c6.38,6.82,13.34,12.87,20.76,18.14.26.19.4.3.4.3h.03c45.63,32.15,108.21,34.63,157.18,1.49,63.26-42.8,79.84-128.78,37.04-192.04-42.8-63.26-128.78-79.84-192.04-37.04-36.77,24.88-57.73,64.35-60.46,105.46-9.06-15.46-16.23-33.69-21.87-54.14-15.75,71.67,30.25,129.69,58.96,157.83Z"/>
            <path class="cls-5" d="M1200.3,1284.31c23.63-15.99,40.74-38,50.68-62.61l10,42.06c48.52-110.73-39.14-190.55-39.14-190.55v.08c-45.81-47.16-120.18-56.2-176.54-18.06-63.26,42.8-79.84,128.78-37.04,192.04,42.8,63.26,128.78,79.84,192.04,37.04Z"/>
            <g>
              <path class="cls-5" d="M577.91,1069.15c3.24,8.71,6.87,17.34,10.92,25.87,3.32,6.98,6.88,13.9,10.76,20.73,9.59,16.91,20.49,32.6,32.49,47.03,52.82,63.52,127.1,102.61,205.88,112.57,66.06,8.35,135.28-3.78,197.65-39.15,47.62-27.01,85.65-64.4,112.88-107.71,33.23-52.85,50.34-114.53,49.15-176.94l-193.03,215.92s-235.63-142.57-426.7-98.33Z"/>
              <path class="cls-8" d="M1004.61,1167.48l193.03-215.92c-.16-8.47-.65-16.96-1.5-25.44-1.38-13.85-3.66-27.69-6.89-41.42-6.82-28.92-17.8-57.37-33.2-84.52-7.42-13.09-15.64-25.46-24.54-37.08-63.2-82.49-161.27-127.19-261.11-124.96-51.15,1.14-102.76,14.58-150.38,41.59-104.8,59.43-163.18,169.12-162.09,281.62.35,36.17,6.88,72.63,19.97,107.81,191.07-44.24,426.7,98.33,426.7,98.33Z"/>
            </g>
            <g>
              <path class="cls-6" d="M921.93,918.98c-16.17-30.59-15.33-63.96.28-81.94-11.14-2.91-22.04-2.21-31.46,2.77-27.4,14.48-31.91,59.69-10.08,100.98,21.83,41.29,61.73,63.02,89.13,48.54,9.42-4.98,16.14-13.6,20.01-24.44-23.65,2.77-51.7-15.32-67.87-45.91Z"/>
              <path d="M979.88,888.35c-14.32-27.09-36.42-45.76-57.67-51.31-15.61,17.98-16.45,51.35-.28,81.94,16.17,30.59,44.22,48.69,67.87,45.91,7.38-20.68,4.4-49.46-9.92-76.55Z"/>
            </g>
            <g>
              <path class="cls-6" d="M830.35,965.79c-16.17-30.59-15.33-63.96.28-81.94-11.14-2.91-22.04-2.21-31.46,2.77-27.4,14.48-31.91,59.69-10.08,100.98,21.83,41.29,61.73,63.02,89.13,48.54,9.42-4.98,16.14-13.6,20.01-24.44-23.65,2.77-51.7-15.32-67.87-45.91Z"/>
              <path d="M888.29,935.16c-14.32-27.09-36.42-45.76-57.67-51.31-15.61,17.98-16.45,51.35-.28,81.94,16.17,30.59,44.22,48.69,67.87,45.91,7.38-20.68,4.4-49.46-9.92-76.55Z"/>
            </g>
            <circle class="cls-4" cx="706" cy="919.6" r="44.84" transform="translate(-272.5366 1541.3342) rotate(-84.9167)"/>
            <circle class="cls-4" cx="996.21" cy="792.44" r="44.84" transform="translate(-62.97 86.37) rotate(-4.81)"/>
            <path class="cls-5" d="M1022.92,1194.54s82.08-73.59-58.8-147.72l26.19,69.2s-36.6-64.8-124.09-13.08l16.57,77.94,140.13,13.65Z"/>
            <circle class="cls-8" cx="579.34" cy="1053.83" r="103.51"/>
            <path d="M1177.31,1061.9c.66-.19,1.37-.24,2.1-.13,2.68.42,4.51,2.92,4.1,5.6-.19,1.21-4.86,30.15-26.43,66.8-19.84,33.71-58.37,80.48-129.31,111.86-2.47,1.09-5.38-.02-6.48-2.51-1.1-2.48.02-5.38,2.5-6.48,68.34-30.23,105.47-75.12,124.58-107.45,20.75-35.1,25.38-63.45,25.43-63.73.31-1.95,1.73-3.46,3.51-3.97Z"/>
            <path d="M630.74,1158.06c1.87-.53,3.97.08,5.23,1.72,70.2,90.6,151.06,100.01,151.87,100.09,2.7.28,4.66,2.69,4.38,5.39-.28,2.7-2.68,4.66-5.38,4.38-3.47-.35-85.7-9.72-158.63-103.85-1.66-2.14-1.27-5.23.87-6.89.51-.4,1.07-.68,1.66-.84Z"/>
            <circle cx="821.99" cy="829.67" r="19.36" transform="translate(-302.6603 1144.5994) rotate(-60.9101)"/>
          </g>
          <g>
            <path class="cls-8" d="M833.49,661.93h0c-47.27,10.73-96.01-20.25-111.82-71.08l-16.54-46.78c-5.65-18.17-6.56-37.45-2.62-55.63l47.17-217.76c10.82-49.94,45.56-88.63,91.32-101.67h0c71.26-20.31,147.12,26.68,169.43,104.95l39.33,137.99-87.3,24.88-60.57,149.27c-6.57,38.28-33.25,67.86-68.4,75.84Z"/>
            <path class="cls-8" d="M734.94,690.02h0c45.83-15.81,70.9-67.83,57.54-119.36l-10.61-48.47c-4.78-18.42-14.17-35.28-27.11-48.66l-154.89-160.17c-35.53-36.73-85.45-51.29-131.2-38.24h0c-71.26,20.31-110.94,100.24-88.63,178.51l39.33,137.99,87.3-24.88,130.17,94.9c25.77,29.06,64.03,40.13,98.11,28.38Z"/>
            <path d="M905.31,553.64c.69-.2,1.43-.24,2.17-.12,2.67.46,4.47,3,4.01,5.67l-4.76,27.72c-6.88,40.09-35.22,71.4-72.16,79.8-17.98,4.08-36.65,2.57-54.25-4.37-11.3,15.17-26.37,26.3-43.79,32.31-35.8,12.35-76.4.68-103.39-29.76-1.8-2.03-1.61-5.13.42-6.93,2.03-1.8,5.13-1.61,6.93.42,24.34,27.45,60.79,38.04,92.83,26.99,16.64-5.74,30.9-16.75,41.22-31.84,1.34-1.95,3.87-2.68,6.04-1.72,16.73,7.38,34.64,9.22,51.81,5.32,33.09-7.49,58.44-35.72,64.65-71.88l4.76-27.72c.33-1.92,1.74-3.39,3.5-3.89Z"/>
            <path d="M978.89,333.6c.76-.22,1.59-.25,2.41-.07,2.65.59,4.31,3.22,3.72,5.87l-18.57,83.11c-.59,2.65-3.22,4.32-5.87,3.72-2.65-.59-4.31-3.22-3.72-5.86l18.57-83.11c.41-1.82,1.78-3.18,3.45-3.66Z"/>
            <path d="M427.05,480.71c1.65-.47,3.5-.06,4.81,1.23l68.96,68.35c1.93,1.91,1.94,5.02.03,6.95-1.91,1.92-5.02,1.94-6.95.03l-68.96-68.35c-1.93-1.91-1.94-5.02-.03-6.95.61-.62,1.35-1.04,2.14-1.27Z"/>
            <path d="M726.69,472.3s0,0,.01,0c2.61-.74,5.33.78,6.06,3.39l50.57,179.29c.73,2.61-.78,5.32-3.38,6.06,0,0,0,0-.01,0-2.61.74-5.33-.78-6.06-3.39l-50.57-179.29c-.73-2.61.78-5.32,3.38-6.06Z"/>
          </g>
        </g>
        <path d="M583.45,157.21c.12-.03.24-.06.36-.09l100.95-20.78c2.66-.55,5.25,1.16,5.8,3.82.55,2.66-1.17,5.26-3.82,5.8l-100.95,20.78c-2.66.55-5.25-1.16-5.8-3.82-.52-2.53,1.01-5.01,3.46-5.71Z"/>
        <path d="M628.33,106.89c2.61-.74,5.33.77,6.07,3.38l10.95,38.41c.74,2.61-.77,5.33-3.38,6.07-2.61.74-5.33-.77-6.07-3.38l-10.95-38.41c-.74-2.61.77-5.33,3.38-6.07Z"/>
      </g>
    </g>
  </g>
</svg>