<?xml version="1.0" encoding="UTF-8"?>
<svg id="Calque_2" data-name="Calque 2" xmlns="http://www.w3.org/2000/svg" viewBox="0 0 1672.62 1534.33">
  <defs>
    <style>
      .cls-1 {
        fill: #6a71d3;
      }

      .cls-2 {
        fill: #cc71cc;
      }

      .cls-3 {
        fill: #3a3030;
      }

      .cls-4 {
        fill: #a8694e;
      }

      .cls-5 {
        fill: #35201c;
      }

      .cls-6 {
        fill: #fff;
      }

      .cls-7 {
        fill: #514242;
      }

      .cls-8 {
        fill: #8e5132;
      }
    </style>
  </defs>
  <g id="Layer_1" data-name="Layer 1">
    <g>
      <g>
        <path class="cls-7" d="M971.33,1098.26c332.08-46.82,620.28-8.47,700.78,85.4.75-6.68.69-13.33-.24-19.92-17.75-125.88-341.15-184.35-722.35-130.61-381.2,53.74-675.83,199.35-658.08,325.23,2.29,16.22,9.66,31.32,21.57,45.2,13.6-120.95,297.09-254.38,658.32-305.31Z"/>
        <path class="cls-3" d="M1013.79,1488.97c361.24-50.93,644.73-184.36,658.32-305.31-80.5-93.87-368.7-132.22-700.78-85.4-361.24,50.93-644.73,184.36-658.32,305.31,80.5,93.87,368.7,132.22,700.78,85.4Z"/>
      </g>
      <g>
        <g>
          <path class="cls-2" d="M214.47,943.8l-170.77-78.62c-24.25-11.16-50.24,11.74-42.22,37.2l88.11,279.62c11.65,36.98,45.94,62.13,84.72,62.13h90.56c-18.37-43.31-47.58-115.76-65.86-179.11-28.27-98,15.47-121.22,15.47-121.22Z"/>
          <path class="cls-8" d="M661.48,943.8H214.47s-43.74,23.21-15.47,121.22c18.28,63.35,47.49,135.8,65.86,179.11h541.09l-144.47-300.33Z"/>
        </g>
        <path class="cls-1" d="M1139.23,968.27l103.66,50.06c58.28,49.25,75.35,132.54,39.77,200.05-47.68,90.45-120.07,146.56-221.26,162.65-41.53,6.6-83.99-3.68-118.42-27.84l-98.97-64.05-381.9-113.11,21.95-186.21,655.17-21.56Z"/>
        <path class="cls-8" d="M502.99,824.21l-177.05,506.69-103.36,31.31c-32.12,9.73-31.16,55.54,1.34,63.91l269.14,69.34c35.91,9.25,72.89-10.69,84.88-45.78l191.18-559.25-266.13-66.22Z"/>
        <path class="cls-8" d="M645.24,860.82l-177.05,506.69-103.36,31.31c-32.12,9.73-31.16,55.54,1.34,63.91l269.14,69.34c35.91,9.25,72.89-10.69,84.89-45.78l191.18-559.25-266.13-66.22Z"/>
        <path class="cls-6" d="M572.64,599.99l-117.58,335.74,139.78,69.32,7.7-22.03,253.05,102.32-25.8,80.34c128.6-40.94,214.35-79.68,309.45-197.41l-157.58-344.82-409.01-23.46Z"/>
        <g>
          <path class="cls-8" d="M1269.46,1090.51c-67.05-37.15-150.9-22.73-201.69,34.67h0c-68.62,77.56-48.76,198.57,41.05,250.13l202.44,116.22,117.1-314.11-158.91-86.91Z"/>
          <path class="cls-2" d="M1634.1,1383.26l-77.66-264.91c-9.85-33.61-53.93-41.42-74.72-13.23l-53.35,72.29-117.1,314.11,56.71,32.55c18.29,10.5,40.28,12.42,60.11,5.25l161.57-58.42c35.64-12.89,55.11-51.28,44.45-87.65Z"/>
        </g>
        <path d="M358.52,1242.56c-.54,0-1.08-.09-1.62-.28-2.56-.9-3.91-3.7-3.02-6.26l98.17-280.95c.9-2.56,3.69-3.91,6.26-3.02,2.56.89,3.91,3.7,3.02,6.26l-98.17,280.95c-.71,2.03-2.61,3.29-4.64,3.29Z"/>
        <path d="M341.96,1442.49c-2.28,0-4.33-1.6-4.81-3.92-3.52-17.07,4.37-37.82,26.24-44.45l100.97-30.59,119.8-342.85c.9-2.56,3.7-3.91,6.26-3.02,2.56.89,3.91,3.7,3.02,6.26l-120.62,345.21c-.52,1.48-1.71,2.63-3.21,3.08l-103.36,31.31c-16.24,4.92-22.09,20.36-19.47,33.06.55,2.66-1.16,5.25-3.82,5.8-.33.07-.67.1-1,.1Z"/>
        <g>
          <polygon class="cls-2" points="1019.83 707 535.16 707 521.52 745.96 1037.63 745.96 1019.83 707"/>
          <polygon class="cls-2" points="489.16 838.33 1079.85 838.33 1062.05 799.38 502.81 799.38 489.16 838.33"/>
          <polygon class="cls-2" points="456.81 930.71 1122.07 930.71 1104.26 891.75 470.46 891.75 456.81 930.71"/>
          <path class="cls-2" d="M701.61,1023.09h388.44c11.97-11.87,23.94-24.79,36.02-38.96h-520.81l96.35,38.96Z"/>
          <polygon class="cls-2" points="602.15 984.13 552.63 984.13 594.83 1005.06 602.15 984.13"/>
          <path class="cls-2" d="M855.58,1085.34l-9.67,30.12h114.86c22.92-11.29,44.71-23.98,65.94-38.96h-192.99l21.87,8.84Z"/>
        </g>
        <path d="M840.82,1138.3c-.53,0-1.06-.09-1.59-.27-2.57-.88-3.94-3.67-3.06-6.24l70.54-206.34c.88-2.57,3.67-3.94,6.24-3.06,2.57.88,3.94,3.67,3.06,6.24l-70.54,206.34c-.7,2.04-2.61,3.32-4.65,3.32Z"/>
        <g>
          <path class="cls-5" d="M1207.05,307.21c-1.46-9.22-3.84-18.14-7.03-26.66-.1-.3-.17-.47-.17-.47h-.02c-19.78-52.21-70.21-89.34-129.34-89.34-76.38,0-138.3,61.92-138.3,138.3s61.92,138.3,138.3,138.3c44.39,0,83.87-20.94,109.18-53.46-1.16,17.89-5.44,37-12.23,57.09,53.21-50.53,47.62-124.36,39.62-163.75Z"/>
          <path class="cls-5" d="M650.58,16.99c-28.53,0-55.04,8.65-77.06,23.45l15.29-40.44c-102.24,64.52-74.37,179.75-74.37,179.75l.03-.07c11.53,64.74,68.06,113.9,136.11,113.9,76.38,0,138.3-61.92,138.3-138.3s-61.92-138.3-138.3-138.3Z"/>
          <g>
            <path class="cls-5" d="M1045.48,543.97c2.2-9.03,4.03-18.21,5.45-27.55,1.16-7.64,2.09-15.37,2.71-23.19,1.53-19.38,1.3-38.48-.55-57.16-8.15-82.21-47.76-156.21-107.43-208.61-50.03-43.93-114.16-72.68-185.64-78.34-54.57-4.32-107.03,5.34-153.85,25.94-57.14,25.15-105.88,66.64-139.86,119l280.88-70.66s115.26,250.13,298.3,320.56Z"/>
            <path class="cls-8" d="M747.18,223.41l-280.88,70.66c-4.61,7.11-8.96,14.41-13.02,21.91-6.62,12.25-12.49,24.98-17.5,38.16-10.56,27.77-17.41,57.49-19.87,88.61-1.19,15-1.32,29.85-.46,44.46,6.11,103.73,62.29,195.71,146.22,249.82,43,27.72,93.28,45.51,147.86,49.83,120.1,9.51,229.93-48.62,292.07-142.4,19.98-30.16,35.01-64.01,43.88-100.48-183.04-70.43-298.3-320.56-298.3-320.56Z"/>
          </g>
          <g>
            <path class="cls-6" d="M676.5,476.17c-3.75,34.4-23.15,61.56-46.15,67.71,7.59,8.65,17.01,14.18,27.61,15.34,30.81,3.36,59.88-31.56,64.94-77.99,5.06-46.43-15.81-86.79-46.61-90.15-10.59-1.15-20.99,2.22-30.26,9.03,21.14,10.95,34.23,41.66,30.48,76.06Z"/>
            <path d="M611.34,469.06c-3.32,30.46,4.52,58.31,19.01,74.81,23-6.14,42.4-33.31,46.15-67.71,3.75-34.4-9.34-65.1-30.48-76.06-17.7,12.99-31.36,38.5-34.68,68.96Z"/>
          </g>
          <g>
            <path class="cls-6" d="M776.14,488.69c-3.75,34.4-23.15,61.56-46.15,67.71,7.59,8.65,17.01,14.18,27.61,15.34,30.81,3.36,59.88-31.56,64.94-77.99,5.06-46.43-15.81-86.79-46.61-90.15-10.59-1.15-20.98,2.22-30.26,9.03,21.14,10.95,34.23,41.66,30.48,76.06Z"/>
            <path d="M710.98,481.59c-3.32,30.46,4.52,58.31,19.01,74.81,23-6.14,42.4-33.31,46.15-67.71,3.75-34.4-9.34-65.1-30.48-76.06-17.7,12.99-31.36,38.5-34.68,68.96Z"/>
          </g>
          <path d="M704.41,621.06c-2.25,0-4.52-.18-6.8-.54-18.52-2.97-32.9-17.41-35.78-35.93-.42-2.68,1.42-5.19,4.1-5.61,2.67-.42,5.19,1.42,5.61,4.1,2.23,14.3,13.33,25.45,27.63,27.74,14.74,2.36,29.37-5.46,35.56-19.02,1.13-2.47,4.04-3.56,6.51-2.43,2.47,1.13,3.56,4.04,2.43,6.51-7.07,15.48-22.6,25.19-39.25,25.19Z"/>
          <circle class="cls-4" cx="855.58" cy="596.06" r="44.84" transform="translate(-170.88 779.57) rotate(-45)"/>
          <circle class="cls-4" cx="543.97" cy="538.73" r="44.84" transform="translate(-217.28 620.22) rotate(-50.83)"/>
          <path class="cls-5" d="M747.18,190.74s-109.22,14.95-34.08,155.3l17.09-71.99s-6,74.18,95.44,80.38l29.95-73.84-108.4-89.84Z"/>
          <circle class="cls-8" cx="1035.71" cy="555.87" r="103.51" transform="translate(-89.71 895.17) rotate(-45)"/>
          <path d="M546.51,214.32c-1.2,0-2.4-.44-3.35-1.32-1.98-1.85-2.1-4.95-.25-6.94.84-.9,20.92-22.25,59.33-40.52,35.32-16.8,93.45-33.94,169.78-20.18,2.67.48,4.44,3.04,3.96,5.7-.48,2.67-3.04,4.45-5.7,3.96-73.54-13.26-129.45,3.11-163.39,19.18-36.86,17.45-56.58,38.33-56.77,38.54-.97,1.04-2.28,1.56-3.6,1.56Z"/>
          <path d="M1053.08,440.98c-2.57,0-4.73-2-4.9-4.6-3.85-59.77-22.58-102.26-37.62-127.38-16.31-27.23-31.91-40.5-32.07-40.63-2.07-1.74-2.35-4.84-.61-6.92,1.74-2.08,4.83-2.35,6.91-.62,2.67,2.23,65.53,56.08,73.19,174.91.17,2.71-1.88,5.04-4.59,5.22-.11,0-.21.01-.32.01Z"/>
        </g>
        <path d="M626.31,879.91c-1.6,0-3.16-.78-4.11-2.21l-24.16-36.66c-1.49-2.27-.87-5.31,1.4-6.8,2.27-1.49,5.31-.87,6.8,1.4l24.16,36.66c1.49,2.27.87,5.31-1.4,6.8-.83.55-1.77.81-2.7.81Z"/>
        <path d="M602.15,973.18c-.52,0-1.04-.08-1.56-.26-2.57-.86-3.96-3.65-3.09-6.22l41.72-124.31c.86-2.57,3.65-3.95,6.22-3.09,2.57.86,3.96,3.65,3.09,6.22l-41.72,124.31c-.69,2.05-2.6,3.35-4.66,3.35Z"/>
      </g>
    </g>
  </g>
</svg>