<?xml version="1.0" encoding="UTF-8"?>
<svg id="Calque_2" data-name="Calque 2" xmlns="http://www.w3.org/2000/svg" viewBox="0 0 4587.38 2434.24">
  <defs>
    <style>
      .cls-1 {
        fill: #a3522f;
      }

      .cls-2 {
        fill: #846d55;
      }

      .cls-3 {
        fill: #c1bf9a;
      }

      .cls-4 {
        fill: #e2b73b;
      }

      .cls-5 {
        fill: #755436;
      }

      .cls-6 {
        fill: #b58f3c;
      }

      .cls-7 {
        fill: #c1a368;
      }

      .cls-8 {
        fill: #87542a;
      }

      .cls-9 {
        fill: #e0a961;
      }

      .cls-10 {
        fill: #564031;
      }

      .cls-11 {
        fill: #e0704c;
      }

      .cls-12 {
        fill: #f4eddc;
      }

      .cls-13 {
        fill: #fff;
      }

      .cls-14 {
        fill: #c48953;
      }

      .cls-15 {
        fill: #d89e60;
      }

      .cls-16 {
        fill: #3a3333;
      }

      .cls-17 {
        fill: #e8959d;
      }

      .cls-18 {
        fill: #6db1c6;
      }

      .cls-19 {
        fill: #43959b;
      }

      .cls-20 {
        fill: #f6e8dd;
      }

      .cls-21 {
        fill: #e8c09c;
      }

      .cls-22 {
        fill: #e8acb5;
      }

      .cls-23 {
        fill: #af7e54;
      }

      .cls-24 {
        fill: #a37b45;
      }
    </style>
  </defs>
  <g id="Layer_1" data-name="Layer 1">
    <g>
      <ellipse class="cls-12" cx="2327.27" cy="1823.68" rx="2260.1" ry="610.55"/>
      <g>
        <g>
          <path class="cls-14" d="M2776.03,1776.95c-47.37,0-85.77,38.4-85.77,85.77s38.4,85.77,85.77,85.77h163.41v-171.53h-163.41Z"/>
          <circle class="cls-21" cx="2939.44" cy="1862.72" r="85.77" transform="translate(-456.2016 2624.0731) rotate(-45)"/>
        </g>
        <g>
          <g>
            <g>
              <g>
                <rect class="cls-14" x="1195.22" y="1835.03" width="202.34" height="145.38"/>
                <rect class="cls-21" x="1397.56" y="1835.03" width="133.68" height="145.38"/>
              </g>
              <g>
                <rect class="cls-14" x="1251.84" y="1689.65" width="202.34" height="145.38"/>
                <rect class="cls-21" x="1454.18" y="1689.65" width="133.68" height="145.38"/>
              </g>
              <g>
                <rect class="cls-14" x="1224.82" y="1467.55" width="172.44" height="222.09"/>
                <rect class="cls-21" x="1322.03" y="1467.55" width="127.42" height="222.09"/>
              </g>
            </g>
            <path class="cls-23" d="M1296.39,1694.87h-29.18c-2.88,0-5.22-2.34-5.22-5.22s2.34-5.22,5.22-5.22h29.18c2.88,0,5.22,2.34,5.22,5.22s-2.34,5.22-5.22,5.22Z"/>
            <path class="cls-23" d="M1373.74,1840.25h-111.17c-2.88,0-5.22-2.34-5.22-5.22s2.34-5.22,5.22-5.22h111.17c2.88,0,5.22,2.34,5.22,5.22s-2.34,5.22-5.22,5.22Z"/>
          </g>
          <g>
            <path class="cls-11" d="M377.69,1374.87l-31.27-53.85,132.09-226.14c49.27-84.36,154.75-117.21,243.21-75.77l85.73,40.17c71.94,33.71,107.36,115.84,82.5,191.29l-73.96,224.46-438.3-100.17Z"/>
            <g>
              <g>
                <g>
                  <path class="cls-22" d="M1266.3,951.45c28.27-72.09,31.24-152.37,7.84-226.74l-662.72,137.9c6.86,65.76,32.89,130.21,78.89,184.43,121.53,143.25,336.17,160.86,479.42,39.33,44.39-37.66,76.71-84.27,96.57-134.92Z"/>
                  <path d="M1237.1,645.02c-8.34-13.14-17.68-25.87-28.04-38.07-83.87-98.86-212.08-137.87-330.57-112.62-53.21,11.34-104.46,35.62-148.86,73.28-58.15,49.33-95.59,114-111.43,183.01-8.42,36.66-10.7,74.53-6.79,111.99l662.72-137.9c-8.69-27.62-21-54.43-37.04-79.69Z"/>
                </g>
                <path class="cls-5" d="M1100.98,1123.57c-.94,0-1.88-.25-2.74-.78-20.52-12.66-30.14-37.65-23.4-60.77.81-2.77,3.71-4.36,6.48-3.55,2.77.81,4.36,3.71,3.55,6.48-5.43,18.62,2.32,38.75,18.86,48.96,2.46,1.51,3.22,4.73,1.7,7.19-.99,1.6-2.7,2.48-4.45,2.48Z"/>
                <circle class="cls-17" cx="1006.57" cy="960.18" r="47.68" transform="translate(-384.14 992.98) rotate(-45)"/>
                <circle class="cls-22" cx="1185.98" cy="1045.95" r="47.3" transform="translate(-392.2316 1144.9628) rotate(-45)"/>
                <g>
                  <path class="cls-13" d="M1155.2,962.68c-18.39,31.87-18.81,67.37-2.93,87.09-11.95,2.65-23.51,1.48-33.32-4.18-28.54-16.47-31.56-64.69-6.74-107.71,24.82-43.02,68.08-64.54,96.62-48.07,9.82,5.66,16.61,15.08,20.3,26.76-25.02-3.88-55.54,14.25-73.93,46.12Z"/>
                  <path class="cls-5" d="M1215.57,997.52c-16.28,28.22-40.5,47.19-63.3,52.25-15.88-19.72-15.46-55.21,2.93-87.09,18.39-31.87,48.91-50,73.93-46.12,7.03,22.27,2.73,52.73-13.56,80.95Z"/>
                </g>
                <path class="cls-2" d="M968.77,798.99c-106.69-70.49-128.7-51.18-187.37,162.51,0,0-225.55-17.58-269.87-207.37l56.83-97.69-76.72,59.34-30.51-101.33s281.95-290.13,562.07-194.06c293.93,100.81,263.97,364.23,263.97,364.23,0,0-129.03,139.49-318.4,14.36Z"/>
                <circle class="cls-22" cx="842.9" cy="855.8" r="138.08" transform="translate(-358.27 846.68) rotate(-45)"/>
              </g>
              <path class="cls-18" d="M1006.29,854.5h0c15.53,2.81,30.4-7.5,33.21-23.03l11.5-63.46c2.81-15.53-7.5-30.4-23.03-33.21h0c-15.53-2.81-30.4,7.5-33.21,23.03l-11.5,63.46c-2.81,15.53,7.5,30.4,23.03,33.21Z"/>
              <path class="cls-18" d="M1084.99,873.35h0c15.53,2.81,30.4-7.5,33.21-23.03l11.5-63.46c2.81-15.53-7.5-30.4-23.03-33.21h0c-15.53-2.81-30.4,7.5-33.21,23.03l-11.5,63.46c-2.81,15.53,7.5,30.4,23.03,33.21Z"/>
            </g>
            <g>
              <path class="cls-11" d="M297.69,1660.31L12.79,1913.61c-26.03,23.15-9.66,66.2,25.17,66.2h332.41l50.84.07v-319.57h-123.53Z"/>
              <polygon class="cls-22" points="577.94 1660.31 421.21 1660.31 421.21 1979.88 577.94 1980.41 577.94 1660.31"/>
            </g>
            <path class="cls-18" d="M577.94,1979.81h93.5c32.4,0,89.8.07,151.87.16,125.38.18,209.63-128.51,159.31-243.35l-139.72-254.64-465.21-107.11-58.22,149.48c-25.47,65.4,22.77,135.96,92.96,135.96h165.52v319.5Z"/>
            <g>
              <path class="cls-11" d="M952.56,1350.81l-138.06-176.42c-47.41-60.58-134.95-71.26-195.53-23.86-60.58,47.41-71.26,134.95-23.86,195.53l175.02,223.66c23.59,30.15,58.56,49.26,96.68,52.84l191.36,17.96,29.42-277.04-135.03-12.68Z"/>
              <path class="cls-22" d="M1174.77,1371.67l-87.18-8.18-29.42,277.04,90.56,8.5c4.43.42,8.82.62,13.18.62,71.05,0,131.74-54.12,138.51-126.28,7.19-76.59-49.07-144.51-125.66-151.7Z"/>
            </g>
            <path class="cls-1" d="M655,1423.8c-1.64,0-3.25-.77-4.27-2.21l-83.73-118.64c-1.66-2.36-1.1-5.62,1.26-7.28,2.36-1.66,5.62-1.1,7.28,1.26l83.73,118.64c1.66,2.36,1.1,5.62-1.26,7.28-.92.65-1.97.96-3.01.96Z"/>
            <path class="cls-19" d="M716.4,1654.87h-116.38c-2.88,0-5.22-2.34-5.22-5.22s2.34-5.22,5.22-5.22h116.38c2.88,0,5.22,2.34,5.22,5.22s-2.34,5.22-5.22,5.22Z"/>
          </g>
        </g>
        <g>
          <g>
            <path class="cls-8" d="M3627.09,1019.21l-144.02-102.54c-62.67-44.62-149.64-29.98-194.25,32.68-44.62,62.67-29.98,149.64,32.68,194.25l207.18,147.51c23.96,17.06,52.27,25.82,80.8,25.82,18.22,0,36.54-3.57,53.86-10.84l121.53-50.97-107.7-256.92-50.08,21Z"/>
            <path class="cls-20" d="M4043.74,995.5c-29.76-70.94-111.38-104.32-182.32-74.57l-184.25,77.28,107.7,256.92,184.3-77.3c70.94-29.75,104.33-111.38,74.57-182.32Z"/>
          </g>
          <path class="cls-20" d="M4028.14,913.23h94.51c142.93,0,258.98,116.04,258.98,258.98v353.48h-612.46v-353.48c0-142.93,116.04-258.98,258.98-258.98Z"/>
          <path class="cls-18" d="M4263.97,1831.01l103.5-168.73c19.02-31.01,29.09-66.68,29.09-103.05v-144.58l-250.28-160.02-121.68-162.65h-165.6l-99.97,162.65v381.85l504.93,194.54Z"/>
          <g>
            <circle class="cls-8" cx="3342.05" cy="1009.83" r="157.14" transform="translate(264.8082 2658.9602) rotate(-45)"/>
            <g>
              <path class="cls-14" d="M3255.87,802.24c-47.32-2.1-87.38,34.57-89.48,81.89-2.09,47.32,34.57,87.38,81.89,89.48l163.25,7.23,7.59-171.37-163.25-7.23Z"/>
              <circle class="cls-21" cx="3415.32" cy="895.16" r="85.77" transform="translate(367.3543 2677.1823) rotate(-45)"/>
            </g>
          </g>
          <g>
            <path class="cls-11" d="M3299.07,1871.99h-191.07v-514.22s225.81-6.95,265.76,190.2l-74.69,324.02Z"/>
            <polygon class="cls-8" points="3480.4 1871.99 3299.07 1871.99 3373.75 1543.53 3480.4 1543.53 3480.4 1871.99"/>
            <rect class="cls-18" x="3470.31" y="1491.65" width="516.06" height="380.34"/>
          </g>
          <g>
            <g>
              <path class="cls-14" d="M3334.34,1725.51c-2.07-.12-4.15-.19-6.24-.19-57.21,0-103.59,46.38-103.59,103.59h274.69v-103.4h-164.85Z"/>
              <path class="cls-21" d="M3402.29,1828.91c0-57.21,46.38-103.59,103.59-103.59s103.59,46.38,103.59,103.59"/>
            </g>
            <g>
              <path class="cls-14" d="M3326.45,1828.91v145.38h48.41c0-43.88,35.57-79.45,79.45-79.45s79.45,35.57,79.45,79.45h48.41v-145.38h-255.71Z"/>
              <rect class="cls-14" x="3237.64" y="1828.91" width="133.96" height="145.38"/>
              <path class="cls-21" d="M3371.59,1828.91v145.38h48.41c0-43.88,35.57-79.45,79.45-79.45s79.45,35.57,79.45,79.45h48.41v-145.38h-255.71Z"/>
            </g>
            <path class="cls-23" d="M3351.61,1834.13h-96.11c-2.89,0-5.22-2.34-5.22-5.22s2.34-5.22,5.22-5.22h96.11c2.89,0,5.22,2.34,5.22,5.22s-2.34,5.22-5.22,5.22Z"/>
            <path class="cls-15" d="M3582.16,1834.13h-155.09c-2.89,0-5.22-2.34-5.22-5.22s2.34-5.22,5.22-5.22h155.09c2.89,0,5.22,2.34,5.22,5.22s-2.34,5.22-5.22,5.22Z"/>
          </g>
          <rect class="cls-18" x="3833.57" y="932.61" width="81.73" height="231.54"/>
          <rect class="cls-18" x="4004.95" y="932.61" width="81.73" height="231.54"/>
          <g>
            <g>
              <g>
                <g>
                  <path class="cls-8" d="M3653.38,822.75c-26.7-51.73-38.82-107.14-37.88-161.54,1.83-106.18,53.44-208.51,143.74-272.2l531.99,333.42c-17.04,102.22-80.41,195.41-179.59,246.59-166.94,86.15-372.1,20.66-458.25-146.28Z"/>
                  <path class="cls-16" d="M3799.67,364.5c115.2-59.45,248.61-46.67,348.54,21.81,44.88,30.76,83.01,72.74,109.71,124.47,34.97,67.76,44.95,141.82,33.31,211.66l-531.99-333.42c12.72-8.97,26.2-17.18,40.43-24.52Z"/>
                </g>
                <g>
                  <g>
                    <path class="cls-13" d="M3869.82,676.94c4.86,36.47-8.28,69.45-30.47,81.63,10.04,7,21.17,10.33,32.4,8.83,32.66-4.35,53.82-47.79,47.26-97.02-6.56-49.23-38.36-85.61-71.02-81.26-11.23,1.5-21.11,7.62-28.96,17.01,24.61,5.95,45.92,34.33,50.78,70.81Z"/>
                    <path class="cls-16" d="M3800.73,686.15c4.3,32.3,19.47,59.06,38.62,72.43,22.19-12.18,35.33-45.16,30.47-81.63-4.86-36.47-26.18-64.86-50.78-70.81-14.98,17.91-22.61,47.71-18.3,80.01Z"/>
                  </g>
                  <g>
                    <path class="cls-13" d="M3966.08,664.12c4.86,36.47-8.28,69.45-30.47,81.63,10.04,7,21.17,10.33,32.4,8.83,32.66-4.35,53.82-47.79,47.26-97.02-6.56-49.23-38.36-85.61-71.02-81.26-11.23,1.5-21.11,7.62-28.96,17.01,24.61,5.95,45.92,34.33,50.78,70.81Z"/>
                    <path class="cls-16" d="M3896.99,673.32c4.3,32.3,19.47,59.06,38.62,72.43,22.19-12.18,35.33-45.16,30.47-81.63-4.86-36.47-26.17-64.86-50.78-70.81-14.98,17.91-22.61,47.71-18.3,80.01Z"/>
                  </g>
                </g>
                <path class="cls-16" d="M3882.95,798.29c9.37,18.2,29.69,29.15,50.98,25.67,22.03-3.6,38.16-21.51,40.44-42.68"/>
              </g>
              <circle class="cls-24" cx="4080.1" cy="751.43" r="47.68" transform="translate(663.6958 3105.1557) rotate(-45)"/>
              <circle class="cls-24" cx="3769.17" cy="790.02" r="47.68" transform="translate(545.3316 2896.5949) rotate(-45)"/>
            </g>
            <circle class="cls-8" cx="4264.49" cy="687.37" r="110.08"/>
            <path class="cls-11" d="M3636.85,537.37l640.56,7.99s-18.19-263.75-319.5-264.2c-301.31-.45-321.06,256.21-321.06,256.21Z"/>
            <path class="cls-11" d="M3794.88,490.31l-260.47-3.15c-13.7-.17-24.93,10.82-25.08,24.52h0c-.14,13.75,10.94,24.99,24.69,25.04l299.55,1.09-38.69-47.5Z"/>
            <path class="cls-1" d="M3979.36,495.76h-.04l-303.46-2.42c-2.88-.02-5.2-2.38-5.18-5.26.02-2.87,2.36-5.18,5.22-5.18h.04l303.46,2.42c2.88.02,5.2,2.38,5.18,5.26-.02,2.87-2.36,5.18-5.22,5.18Z"/>
            <path class="cls-1" d="M4179.53,504.01c-2.35,0-4.48-1.59-5.07-3.98-20.04-81.45-73.66-135.14-74.2-135.68-2.05-2.03-2.07-5.33-.05-7.39,2.03-2.05,5.33-2.08,7.38-.05,2.29,2.25,56.23,56.19,77,140.62.69,2.8-1.02,5.63-3.82,6.32-.42.1-.84.15-1.25.15Z"/>
            <circle class="cls-11" cx="3954.44" cy="285.35" r="30.91" transform="translate(2864.869 4097.4156) rotate(-78.1761)"/>
          </g>
          <g>
            <path class="cls-8" d="M3929.97,1271.95l-263.62,113.59c-70.65,30.44-103.24,112.39-72.8,183.04,22.7,52.68,74.04,84.2,127.99,84.2,18.39,0,37.09-3.67,55.05-11.41l295-127.11c20.61-8.88,38.78-22.62,52.94-40.03l100.41-123.45-207.29-186.64-87.68,107.8Z"/>
            <path class="cls-20" d="M4274.1,1069.59c-59.68-48.54-147.41-39.51-195.95,20.17l-60.5,74.39,207.29,186.64,69.33-85.25c48.54-59.68,39.51-147.41-20.17-195.95Z"/>
          </g>
          <g>
            <path class="cls-8" d="M4153.89,2018.6l110.08-187.59v-106.59c0-81.19-65.82-147.01-147.01-147.01h-130.6l167.52,441.19Z"/>
            <path class="cls-11" d="M3979.54,1513.46h0c96.22,0,174.35,78.12,174.35,174.35v330.79h-348.69v-330.79c0-96.22,78.12-174.35,174.35-174.35Z"/>
            <path class="cls-1" d="M4115.37,1992.56c-2.89,0-5.22-2.34-5.22-5.22v-299.53c0-61.97-33.84-118.91-88.3-148.6-2.53-1.38-3.47-4.55-2.09-7.09,1.38-2.53,4.55-3.47,7.09-2.09,57.83,31.52,93.75,91.97,93.75,157.77v299.53c0,2.89-2.34,5.22-5.22,5.22Z"/>
            <path class="cls-1" d="M4045.81,1636.48h-179.92c-2.89,0-5.22-2.34-5.22-5.22s2.34-5.22,5.22-5.22h179.92c2.89,0,5.22,2.34,5.22,5.22s-2.34,5.22-5.22,5.22Z"/>
            <path class="cls-1" d="M4045.81,1712.98h-179.92c-2.89,0-5.22-2.34-5.22-5.22s2.34-5.22,5.22-5.22h179.92c2.89,0,5.22,2.34,5.22,5.22s-2.34,5.22-5.22,5.22Z"/>
            <path class="cls-1" d="M4045.81,1789.48h-179.92c-2.89,0-5.22-2.34-5.22-5.22s2.34-5.22,5.22-5.22h179.92c2.89,0,5.22,2.34,5.22,5.22s-2.34,5.22-5.22,5.22Z"/>
            <path class="cls-1" d="M4045.81,1865.98h-179.92c-2.89,0-5.22-2.34-5.22-5.22s2.34-5.22,5.22-5.22h179.92c2.89,0,5.22,2.34,5.22,5.22s-2.34,5.22-5.22,5.22Z"/>
            <path class="cls-1" d="M4045.81,1942.48h-179.92c-2.89,0-5.22-2.34-5.22-5.22s2.34-5.22,5.22-5.22h179.92c2.89,0,5.22,2.34,5.22,5.22s-2.34,5.22-5.22,5.22Z"/>
          </g>
          <path class="cls-3" d="M4264.48,1308.83c-1.06,0-2.14-.32-3.06-.99-2.34-1.69-2.86-4.96-1.16-7.29l61.02-84.14c1.69-2.34,4.96-2.86,7.29-1.16,2.34,1.69,2.86,4.96,1.16,7.29l-61.02,84.14c-1.02,1.41-2.62,2.16-4.23,2.16Z"/>
        </g>
        <g>
          <path class="cls-7" d="M2756.83,1003.72c-9.03,0-18.14-.88-27.22-2.69l-349.93-69.67c-75.45-15.02-124.43-88.36-109.41-163.81,15.02-75.45,88.36-124.43,163.81-109.41l255.6,50.89,136.61-218.55c40.77-65.23,126.71-85.06,191.94-44.28,65.23,40.77,85.06,126.71,44.28,191.94l-187.59,300.11c-25.77,41.23-70.72,65.47-118.09,65.47Z"/>
          <path class="cls-7" d="M1817.39,1081.85c-34.3-8.14-65.41-29.21-85.54-60.99l-158.12-249.55c-41.17-64.98-21.87-151.04,43.11-192.21,64.98-41.17,151.04-21.87,192.21,43.11l91.92,145.07,124.43-59.52c69.39-33.19,152.56-3.85,185.76,65.55,33.2,69.4,3.85,152.56-65.55,185.76l-236,112.89c-29.71,14.21-62.19,17.01-92.22,9.88Z"/>
          <polygon class="cls-4" points="2573.63 1295.26 2092.3 1268.42 2085.76 1008.4 2003.97 1039.69 1891.53 752.4 2120.18 655.8 2537.14 660.91 2703.22 687.37 2675.64 1003.72 2573.63 1000.78 2573.63 1295.26"/>
          <circle class="cls-7" cx="2964.55" cy="534.08" r="157.14" transform="translate(490.6428 2252.6801) rotate(-45)"/>
          <circle class="cls-7" cx="1678.18" cy="703.73" r="157.14" transform="translate(-6.0841 1392.774) rotate(-45)"/>
          <g>
            <path class="cls-14" d="M2858.53,331.17v145.38h48.41c0-43.88,35.57-79.45,79.45-79.45s79.45,35.57,79.45,79.45h48.41v-145.38h-255.71Z"/>
            <rect class="cls-14" x="2769.71" y="331.17" width="133.96" height="145.38"/>
            <path class="cls-21" d="M2903.67,331.17v145.38h48.41c0-43.88,35.57-79.45,79.45-79.45s79.45,35.57,79.45,79.45h48.41v-145.38h-255.71Z"/>
          </g>
          <g>
            <polygon class="cls-14" points="1723.33 640.25 1572.06 762.58 1803.56 817.48 1799.76 658.38 1723.33 640.25"/>
            <polygon class="cls-21" points="1799.76 658.38 1648.49 780.7 1879.99 835.61 1799.76 658.38"/>
          </g>
          <g>
            <path class="cls-18" d="M2519.68,1545.74l-606.67-8.36c-109.24-1.51-196.57-91.28-195.06-200.52h0c1.51-109.24,91.28-196.57,200.52-195.06l606.67,8.36-5.45,395.58Z"/>
            <g>
              <path class="cls-4" d="M2481.34,1134.6c-116.45-1.6-212.15,91.49-213.76,207.94h0c-1.61,116.45,91.49,212.15,207.94,213.76l53.9.74,6.38-421.69-54.46-.75Z"/>
              <polygon class="cls-4" points="2595.15 1136.17 2535.8 1135.35 2529.43 1557.04 2589.33 1557.87 2595.15 1136.17"/>
            </g>
          </g>
          <g>
            <path class="cls-18" d="M2080.95,1192.63l597.49-105.44c107.58-18.99,210.19,52.84,229.17,160.42h0c18.99,107.58-52.84,210.19-160.42,229.17l-597.49,105.44-68.75-389.6Z"/>
            <g>
              <polygon class="cls-4" points="2010.26 1193.76 2083.55 1609.08 2138.68 1599.35 2067.87 1183.59 2010.26 1193.76"/>
              <path class="cls-4" d="M2366.65,1344.99h0c-20.24-114.69-129.62-191.25-244.31-171.02l-54.48,9.61,70.81,415.76,56.96-10.05c114.69-20.24,191.25-129.62,171.02-244.31Z"/>
            </g>
            <path class="cls-6" d="M2132.63,1569.11c-2.5,0-4.71-1.8-5.14-4.35l-58.17-341.52c-.48-2.84,1.43-5.54,4.27-6.03,2.86-.49,5.54,1.43,6.03,4.27l58.17,341.52c.48,2.84-1.43,5.54-4.27,6.03-.3.05-.59.07-.88.07Z"/>
          </g>
          <g>
            <circle class="cls-20" cx="2263.77" cy="755.01" r="75.17"/>
            <circle class="cls-20" cx="2389.41" cy="755.01" r="75.17"/>
          </g>
          <g>
            <g>
              <circle class="cls-10" cx="2056.95" cy="155.39" r="130.8" transform="translate(492.5888 1499.9967) rotate(-45)"/>
              <circle class="cls-10" cx="2589.91" cy="130.83" r="130.8" transform="translate(666.0546 1869.665) rotate(-45)"/>
              <g>
                <g>
                  <path class="cls-10" d="M2474.05,296.31l-211.71-18.76,4.44-62.74-263.61,136.95c1.48-8.08,3.22-16.17,5.31-24.26,5.17-20.01,12.02-39.14,20.36-57.28,36.67-79.83,102.13-140.51,180.27-172.52,65.52-26.84,139.95-33.53,213.78-14.46,56.37,14.56,105.76,42.44,145.7,79.38,55.36,51.2,92.52,119.83,104.9,194.62l-198.51-126.36-.92,65.43Z"/>
                  <path class="cls-7" d="M2266.78,214.82l-4.44,62.74,211.71,18.76.92-65.43,198.51,126.36c2.42,14.61,3.9,29.44,4.38,44.43,1,31.58-2.41,63.83-10.71,95.97-4,15.5-9.02,30.46-14.94,44.86-42.08,102.18-130.42,175.2-233.55,200.52-52.84,12.98-109.55,13.44-165.92-1.12-124.04-32.04-214.33-128.53-244.32-244.34-12.03-46.46-14.34-96.03-5.25-145.8l263.61-136.95Z"/>
                </g>
                <g>
                  <path class="cls-13" d="M2386.25,440.3c-8.15,35.88,1.95,69.91,22.95,84.06-10.63,6.07-22.02,8.37-33.07,5.86-32.13-7.29-49.27-52.47-38.28-100.9,10.99-48.43,45.96-81.78,78.09-74.49,11.05,2.51,20.33,9.5,27.3,19.56-25.05,3.69-48.85,30.03-56.99,65.91Z"/>
                  <path class="cls-10" d="M2454.23,455.73c-7.21,31.78-24.74,57.06-45.02,68.63-21-14.14-31.09-48.17-22.95-84.06,8.15-35.88,31.94-62.22,56.99-65.91,13.3,19.19,18.19,49.57,10.98,81.34Z"/>
                </g>
                <path class="cls-10" d="M2372.21,555.07c-9.57,18.1-30,28.83-51.26,25.12-21.99-3.84-37.92-21.92-39.98-43.11l91.23,17.99Z"/>
                <path class="cls-10" d="M2263.72,450.75c-2.16,0-4.17-1.35-4.93-3.5-.95-2.72.48-5.7,3.2-6.66l43.25-15.17-40.16-25.9c-2.42-1.56-3.12-4.8-1.56-7.22,1.56-2.42,4.8-3.12,7.22-1.56l49.14,31.68c1.68,1.08,2.59,3.02,2.36,5-.23,1.98-1.58,3.66-3.46,4.32l-53.32,18.7c-.57.2-1.16.3-1.73.3Z"/>
                <circle class="cls-9" cx="2171.99" cy="499.5" r="47.68" transform="translate(579.2047 2058.3718) rotate(-57.3347)"/>
                <circle class="cls-9" cx="2505.15" cy="549.8" r="47.68" transform="translate(-59.61 558.24) rotate(-12.57)"/>
              </g>
            </g>
            <circle class="cls-7" cx="2004.82" cy="396.7" r="110.08" transform="translate(306.6902 1533.811) rotate(-45)"/>
          </g>
          <g>
            <circle class="cls-20" cx="2341.21" cy="888.82" r="12.08" transform="translate(938.2613 2963.1941) rotate(-76.7174)"/>
            <circle class="cls-20" cx="2341.21" cy="960.17" r="12.08" transform="translate(868.8292 3018.1439) rotate(-76.7174)"/>
            <circle class="cls-20" cx="2341.21" cy="1031.51" r="12.08" transform="translate(799.3972 3073.0936) rotate(-76.7174)"/>
            <circle class="cls-20" cx="2341.21" cy="1102.85" r="12.08" transform="translate(729.9652 3128.0434) rotate(-76.7174)"/>
          </g>
          <path class="cls-6" d="M2081.44,988.13c-2.58,0-4.82-1.91-5.17-4.53l-22.7-169.4c-.38-2.86,1.62-5.49,4.48-5.87,2.87-.37,5.49,1.62,5.87,4.48l22.7,169.4c.38,2.86-1.62,5.49-4.48,5.87-.24.03-.47.05-.7.05Z"/>
          <path class="cls-6" d="M2577.98,985.01c-.21,0-.42-.01-.63-.04-2.86-.35-4.9-2.95-4.56-5.81l17.17-142.06c.35-2.86,2.92-4.9,5.81-4.56,2.86.35,4.9,2.95,4.56,5.81l-17.17,142.06c-.32,2.65-2.57,4.6-5.18,4.6Z"/>
        </g>
        <g>
          <path class="cls-14" d="M1924.17,1725.32v145.38h48.41c0-43.88,35.57-79.45,79.45-79.45s79.45,35.57,79.45,79.45h48.41v-145.38h-255.71Z"/>
          <rect class="cls-14" x="1835.36" y="1725.32" width="133.96" height="145.38"/>
          <path class="cls-21" d="M1969.31,1725.32v145.38h48.41c0-43.88,35.57-79.45,79.45-79.45s79.45,35.57,79.45,79.45h48.41v-145.38h-255.71Z"/>
        </g>
        <g>
          <g>
            <g>
              <rect class="cls-14" x="2416.29" y="1685.63" width="202.34" height="145.38"/>
              <rect class="cls-21" x="2618.62" y="1685.63" width="133.68" height="145.38"/>
            </g>
            <g>
              <rect class="cls-14" x="2472.91" y="1831.01" width="202.34" height="145.38"/>
              <rect class="cls-21" x="2675.24" y="1831.01" width="133.68" height="145.38"/>
            </g>
          </g>
          <path class="cls-23" d="M2588.98,1834.13h-84.53c-2.89,0-5.22-2.34-5.22-5.22s2.34-5.22,5.22-5.22h84.53c2.89,0,5.22,2.34,5.22,5.22s-2.34,5.22-5.22,5.22Z"/>
          <path class="cls-15" d="M2734.88,1834.13h-49.42c-2.89,0-5.22-2.34-5.22-5.22s2.34-5.22,5.22-5.22h49.42c2.89,0,5.22,2.34,5.22,5.22s-2.34,5.22-5.22,5.22Z"/>
        </g>
      </g>
    </g>
  </g>
</svg>