<?xml version="1.0" encoding="UTF-8"?>
<svg id="Calque_2" data-name="Calque 2" xmlns="http://www.w3.org/2000/svg" viewBox="0 0 1163.32 1823.78">
  <defs>
    <style>
      .cls-1 {
        fill: #fff;
      }

      .cls-2 {
        fill: #e8959d;
      }

      .cls-3 {
        fill: #e8acb5;
      }

      .cls-4 {
        fill: #5c93e5;
      }

      .cls-5 {
        fill: #355377;
      }

      .cls-6 {
        fill: #9b4b35;
      }
    </style>
  </defs>
  <g id="Layer_1" data-name="Layer 1">
    <g>
      <g>
        <path class="cls-4" d="M492.73,1374.44c-31.95,44.98-23.06,107.11,20.22,141.33l183.48,145.08c26.64,21.07,65.79,1.69,65.19-32.27l-2.83-160.61-244.39-124.05-21.68,30.53Z"/>
        <path class="cls-3" d="M907.9,1137.78l-149.11-210.46-339.51,25.69,195.43,249.65-100.31,141.25,244.39,124.05,147.97-201.24c28.12-38.25,28.58-90.21,1.14-128.94Z"/>
      </g>
      <g>
        <path class="cls-4" d="M253.06,1582.83c-41.94-12.9-110.42-154.39-133.36-204.1l-36.51,60.65c-20.61,34.24-22.7,76.52-5.57,112.63l120.75,254.44c11.92,25.13,48.55,22.3,56.48-4.36l69.58-233.94s-20.41,30.36-71.37,14.68Z"/>
        <path class="cls-3" d="M359.92,979.74l-240.22,398.99c22.94,49.71,91.42,191.2,133.36,204.1,50.97,15.68,71.37-14.68,71.37-14.68l367.33-620.56-331.85,32.15Z"/>
      </g>
      <path class="cls-3" d="M630.02,510.65l260.58-70.84,42.25-195.36c16.32-59.51,75.95-96.2,136.42-83.95h0c65.45,13.26,106.65,78.41,90.57,143.22l-45.89,234.65c-11.93,48.1-48.43,86.28-95.94,100.38l-336.09,99.71-51.9-227.81Z"/>
      <polygon class="cls-5" points="758.79 927.31 822.4 1017.1 589.23 1204.51 570.66 1173.33 549.64 1205.48 276.87 1094.74 375.12 947.6 758.79 927.31"/>
      <path class="cls-3" d="M377.19,605.45l-229.79,452.1-88.02,43.68c-56.72,28.15-76.66,99.17-42.86,152.72h0c27.99,44.35,84.02,61.83,132.26,41.26l69.2-29.51,2.01,22.23c2.19,24.33,22.59,42.96,47.01,42.96h0c24,0,44.18-18.01,46.9-41.86l10.16-89.23,255.41-496.67-202.26-97.69Z"/>
      <path class="cls-1" d="M897.92,704.76l-69.77-260.11-417.55,122.43c-36.24,10.63-66.26,36.14-82.6,70.19l-51.13,106.57,217.91,114.21-48.83,94.96,312.84-25.69,27.96-174.2,111.18-48.36Z"/>
      <g>
        <polygon class="cls-4" points="847.21 515.69 585.85 515.69 466.26 550.76 856.61 550.76 847.21 515.69"/>
        <path class="cls-4" d="M329.61,633.9h549.3l-9.41-35.06-494.3-1.42c-16.33-.05-31.32,9.03-38.86,23.52l-6.74,12.96Z"/>
        <polygon class="cls-4" points="289.73 717.04 869.68 717.04 897.92 704.76 891.81 681.98 306.55 681.98 289.73 717.04"/>
        <polygon class="cls-4" points="384.38 800.18 779.19 800.18 784.82 765.12 317.48 765.12 384.38 800.18"/>
        <polygon class="cls-4" points="494.79 858.05 481.79 883.33 765.85 883.33 771.48 848.26 476.11 848.26 494.79 858.05"/>
      </g>
      <path d="M266.98,1335.32c-26.89,0-49-20.2-51.41-46.98l-1.46-16.18-20.9,8.91c-2.25.95-4.84-.09-5.8-2.33-.96-2.25.09-4.84,2.33-5.8l26.49-11.29c1.3-.56,2.79-.45,4,.27,1.21.73,2.01,1.99,2.13,3.4l2.01,22.23c2,22.2,20.32,38.94,42.61,38.94s40.04-16.31,42.51-37.94l10.16-89.23c.06-.53.22-1.05.46-1.52l29.62-57.61c1.12-2.17,3.78-3.02,5.95-1.91,2.17,1.12,3.03,3.78,1.91,5.95l-29.25,56.89-10.07,88.42c-2.97,26.1-25.02,45.78-51.29,45.78Z"/>
      <path d="M514.51,852.68c-.64,0-1.29-.14-1.9-.43-2.2-1.05-3.14-3.69-2.09-5.89l44.17-92.69c1.05-2.2,3.69-3.14,5.89-2.09,2.2,1.05,3.14,3.69,2.09,5.89l-44.17,92.69c-.76,1.59-2.34,2.52-3.99,2.52Z"/>
      <g>
        <g>
          <path class="cls-6" d="M1021.22,98.21c-3.84-7.48-8.37-14.43-13.5-20.82-.17-.23-.28-.36-.28-.36h-.02c-31.57-39.09-85.12-56.68-135.69-40.08-65.32,21.44-100.88,91.77-79.44,157.09,21.44,65.32,91.77,100.88,157.09,79.44,37.96-12.46,65.85-41.45,78.36-76.37,4.03,15.62,5.74,33.16,5.57,52.26,31.32-58.15,5.81-119.72-12.09-151.16Z"/>
          <path class="cls-6" d="M463.89,6.24c-24.4,8.01-44.64,22.84-59.32,41.69l1.72-38.88c-69.32,83.88-13.14,174.59-13.14,174.59v-.07c28.04,52.12,90.18,78.3,148.37,59.2,65.32-21.44,100.88-91.77,79.44-157.09S529.2-15.2,463.89,6.24Z"/>
          <g>
            <path class="cls-6" d="M949.53,346.03c-.66-8.34-1.67-16.71-3.07-25.09-1.15-6.86-2.53-13.73-4.2-20.59-4.13-17-9.69-33.27-16.52-48.73-30.05-68.01-84.7-120.18-150.43-148.23-55.12-23.53-118.02-30.11-180.74-14.88-47.88,11.63-90.03,34.61-124.29,65.38-41.81,37.55-71.83,86.71-86.19,141.03l220.36-139.27s168.78,181.54,345.08,190.39Z"/>
            <path class="cls-3" d="M604.45,155.65l-220.36,139.27c-1.95,7.37-3.62,14.84-4.98,22.39-2.23,12.33-3.67,24.87-4.25,37.55-1.24,26.71,1.25,54.05,7.88,81.35,3.2,13.16,7.25,25.89,12.09,38.15,34.35,86.99,108.21,149.88,195.17,172.59,44.55,11.63,92.54,12.73,140.43,1.1,105.37-25.58,182.97-106.13,209.79-203.77,8.62-31.4,11.97-64.56,9.32-98.24-176.3-8.85-345.08-190.39-345.08-190.39Z"/>
          </g>
          <g>
            <path class="cls-1" d="M621.16,391.14c6.45,30.47-2.51,59.14-20.46,70.85,8.92,5.27,18.53,7.35,27.91,5.37,27.29-5.78,42.35-43.8,33.64-84.92-8.71-41.12-37.88-69.78-65.17-64-9.38,1.99-17.32,7.79-23.35,16.22,21.15,3.43,40.97,26.02,47.42,56.49Z"/>
            <path d="M563.45,403.36c5.71,26.98,20.24,48.59,37.25,58.64,17.95-11.71,26.91-40.39,20.46-70.85-6.45-30.47-26.27-53.05-47.42-56.49-11.49,16.08-16.01,41.72-10.3,68.7Z"/>
          </g>
          <path d="M631.63,488.44c7.87,15.44,25.03,24.77,43.07,21.89,18.66-2.98,32.37-18.08,34.36-35.99l-77.43,14.1Z"/>
          <path d="M724.8,401.49c-.51,0-1.02-.09-1.52-.27l-44.89-16.48c-1.58-.58-2.7-2.02-2.87-3.7-.17-1.68.62-3.31,2.06-4.21l41.97-26.2c2.07-1.29,4.8-.66,6.09,1.41,1.29,2.07.66,4.8-1.41,6.09l-34.31,21.42,36.41,13.37c2.29.84,3.47,3.38,2.63,5.67-.66,1.79-2.35,2.9-4.15,2.9Z"/>
          <circle class="cls-2" cx="801.76" cy="443.89" r="40.36" transform="translate(100.0998 1033.3992) rotate(-69.0066)"/>
          <circle class="cls-2" cx="519.19" cy="482.34" r="40.36" transform="translate(-117.14 794.26) rotate(-69.01)"/>
          <path class="cls-6" d="M595.27,127.71s-89.2,43.44,14.45,142.37l-5.6-66.36s15.7,65.12,104.18,41.94l4.89-71.56-117.92-46.39Z"/>
          <circle class="cls-3" cx="944.51" cy="358.95" r="93.17"/>
          <path d="M428.91,204.43c-.62,0-1.25-.13-1.85-.41-2.22-1.02-3.18-3.65-2.16-5.86.46-1,11.64-24.9,39.36-51.3,25.49-24.28,70.38-55.26,139.52-64.91,2.42-.35,4.65,1.35,4.99,3.77.34,2.42-1.35,4.65-3.77,4.99-66.61,9.31-109.82,39-134.34,62.27-26.62,25.27-37.62,48.66-37.73,48.89-.75,1.61-2.35,2.57-4.02,2.57Z"/>
          <path d="M925.74,256.05c-1.75,0-3.41-1.05-4.1-2.78-38.41-95.74-106.08-123.84-106.76-124.11-2.26-.91-3.37-3.48-2.46-5.75.91-2.27,3.47-3.36,5.74-2.47,2.91,1.16,71.78,29.56,111.69,129.03.91,2.27-.19,4.84-2.46,5.75-.54.22-1.1.32-1.64.32Z"/>
        </g>
        <path d="M858.73,583.4c-1.18,0-2.36-.47-3.23-1.4-1.67-1.78-1.57-4.58.21-6.25,36.5-34.07,63.48-77.34,78.04-125.14.6-1.97,2.48-3.26,4.54-3.12,14.42,1.03,29.05-1.56,42.32-7.46,21.66-9.65,38.26-27.14,46.75-49.28,8.49-22.13,7.86-46.25-1.79-67.9-5.8-13.03-14.73-24.56-25.83-33.36-1.91-1.52-2.23-4.3-.72-6.21,1.52-1.91,4.3-2.24,6.21-.72,12.21,9.68,22.03,22.37,28.41,36.69,10.6,23.81,11.3,50.33,1.96,74.67-9.34,24.34-27.6,43.58-51.41,54.18-13.51,6.02-28.31,8.89-43.03,8.39-15.23,47.97-42.65,91.38-79.44,125.72-.85.79-1.94,1.19-3.02,1.19Z"/>
      </g>
      <path d="M790.16,742.89c-.3,0-.6-.03-.91-.09-2.39-.5-3.93-2.84-3.43-5.23l11.76-56.49c.5-2.39,2.84-3.92,5.23-3.43,2.39.5,3.93,2.84,3.43,5.23l-11.76,56.49c-.43,2.09-2.27,3.52-4.32,3.52Z"/>
      <path d="M579.45,1162.04c-.68,0-1.37-.16-2.02-.49-2.17-1.12-3.02-3.78-1.91-5.96l30.36-58.95c1.12-2.17,3.79-3.02,5.95-1.91,2.17,1.12,3.02,3.78,1.91,5.96l-30.36,58.95c-.78,1.52-2.33,2.4-3.93,2.4Z"/>
    </g>
  </g>
</svg>