<?xml version="1.0" encoding="UTF-8"?>
<svg id="Calque_2" data-name="Calque 2" xmlns="http://www.w3.org/2000/svg" viewBox="0 0 1340.48 1822.07">
  <defs>
    <style>
      .cls-1 {
        fill: #fff;
      }

      .cls-2 {
        fill: #e8959d;
      }

      .cls-3 {
        fill: #e8acb5;
      }

      .cls-4 {
        fill: #5c93e5;
      }

      .cls-5 {
        fill: #355377;
      }

      .cls-6 {
        fill: #9b4b35;
      }
    </style>
  </defs>
  <g id="Layer_1" data-name="Layer 1">
    <g>
      <g>
        <path class="cls-3" d="M353.34,1624.92c-23.72-21.2-74.53-132.39-104.18-200.3l248.32-439.41,278.73,66.69-322.81,603.62s-65.45.34-100.07-30.6Z"/>
        <path class="cls-4" d="M249.16,1424.63c29.64,67.91,80.46,179.1,104.18,200.3,34.62,30.94,100.07,30.6,100.07,30.6l-39.27,147.75c-6.11,23.01-37.73,25.59-47.5,3.88l-134.62-299.21c-8.34-18.54-7.36-39.95,2.64-57.66l14.5-25.67Z"/>
      </g>
      <g>
        <path class="cls-3" d="M599.48,1229.43l-94.32-45.94,214.97-194.98,149.47,101.52c60.44,41.05,72.35,125.26,25.66,181.47l-126.58,152.37-220.66-139.34,51.46-55.09Z"/>
        <path class="cls-4" d="M483.18,1353.94l64.84-69.42,220.66,139.34-4.65,161.12c-.94,32.63-39.38,49.5-64.03,28.1l-212.93-184.82c-22.12-19.2-23.88-52.92-3.89-74.32Z"/>
      </g>
      <path class="cls-3" d="M803.26,655.36l258.13,51.8,112.44-71.83c46.74-29.86,108.48-19.59,143.04,23.79h0c38.87,48.79,28.6,120.24-22.43,156.12l-129.83,91.26c-37.13,26.1-83.19,36.18-127.83,27.97l-310.91-57.19,77.4-221.91Z"/>
      <path class="cls-3" d="M381.04,669.94l-212.13,87.08c-27.83,11.43-51.7,30.78-68.62,55.65l-80.24,117.92c-38.6,56.73-19.57,134.4,40.88,166.85h0c52.47,28.17,117.74,11.86,150.8-37.66l72.17-108.11,237.31-86.87-140.17-194.85Z"/>
      <polygon class="cls-1" points="283.36 697.11 538.74 592.76 785.18 617.77 955.32 677.15 874.56 926.25 785.18 912.72 748.82 1000.39 346.45 1000.39 373.87 900.51 283.36 697.11"/>
      <g>
        <polygon class="cls-4" points="770.67 616.3 785.18 617.77 879.49 650.69 396.96 650.69 481.12 616.3 770.67 616.3"/>
        <polygon class="cls-4" points="937.46 732.23 298.99 732.23 283.69 697.84 948.61 697.84 937.46 732.23"/>
        <polygon class="cls-4" points="911.03 813.77 335.27 813.77 319.97 779.38 922.18 779.38 911.03 813.77"/>
        <polygon class="cls-4" points="884.59 895.31 371.56 895.31 356.25 860.92 895.74 860.92 884.59 895.31"/>
        <polygon class="cls-4" points="758.58 976.85 352.91 976.85 362.35 942.46 772.84 942.46 758.58 976.85"/>
      </g>
      <g>
        <path class="cls-6" d="M261.96,276.51c1.32-8.3,3.46-16.32,6.33-23.99.09-.27.15-.43.15-.43h.02c17.8-47,63.2-80.41,116.42-80.41,68.74,0,124.47,55.73,124.47,124.47s-55.73,124.47-124.47,124.47c-39.96,0-75.49-18.85-98.27-48.12,1.04,16.1,4.89,33.3,11.01,51.39-47.89-45.48-42.86-111.93-35.66-147.39Z"/>
        <path class="cls-6" d="M762.81,15.29c25.68,0,49.54,7.78,69.36,21.11l-13.76-36.4c92.02,58.07,66.94,161.79,66.94,161.79l-.03-.07c-10.38,58.27-61.25,102.52-122.5,102.52-68.74,0-124.47-55.73-124.47-124.47s55.73-124.47,124.47-124.47Z"/>
        <g>
          <path class="cls-6" d="M407.38,489.6c-1.98-8.13-3.63-16.39-4.91-24.79-1.05-6.88-1.88-13.83-2.44-20.88-1.38-17.44-1.17-34.63.5-51.45,7.33-73.99,42.99-140.6,96.69-187.76,45.03-39.54,102.75-65.42,167.08-70.51,49.12-3.89,96.33,4.8,138.48,23.35,51.43,22.64,95.3,59.98,125.88,107.11l-252.81-63.59s-103.74,225.13-268.48,288.52Z"/>
          <path class="cls-3" d="M675.87,201.08l252.81,63.59c4.15,6.4,8.07,12.97,11.72,19.72,5.96,11.02,11.24,22.48,15.75,34.35,9.51,25,15.67,51.74,17.89,79.75,1.07,13.5,1.18,26.86.41,40.01-5.5,93.36-56.06,176.15-131.61,224.85-38.7,24.95-83.96,40.96-133.08,44.85-108.09,8.56-206.95-43.76-262.88-128.17-17.99-27.14-31.51-57.61-39.49-90.43,164.74-63.4,268.48-288.52,268.48-288.52Z"/>
        </g>
        <g>
          <path class="cls-1" d="M733.43,430.04c3.37,30.96,20.84,55.41,41.54,60.94-6.83,7.79-15.31,12.76-24.85,13.8-27.73,3.02-53.9-28.4-58.45-70.19-4.56-41.79,14.23-78.11,41.96-81.14,9.54-1.04,18.89,2,27.24,8.13-19.03,9.86-30.81,37.5-27.43,68.46Z"/>
          <path d="M792.08,423.65c2.99,27.42-4.07,52.48-17.11,67.33-20.7-5.53-38.16-29.98-41.54-60.94-3.37-30.96,8.41-58.6,27.43-68.46,15.93,11.69,28.22,34.65,31.21,62.06Z"/>
        </g>
        <path d="M753.83,525.75c-2.66,17.12-16.06,31.34-34.09,34.23-18.66,2.99-36.39-7.08-43.87-23.47l77.97-10.76Z"/>
        <path d="M636.82,472.42c-1.31,0-2.6-.57-3.47-1.68-1.51-1.92-1.19-4.7.73-6.21l30.42-24.06-39.28-9.65c-2.37-.58-3.82-2.98-3.24-5.35.58-2.37,2.97-3.83,5.35-3.24l48.05,11.81c1.64.4,2.91,1.7,3.27,3.35.36,1.65-.25,3.36-1.58,4.41l-37.51,29.67c-.81.64-1.78.95-2.74.95Z"/>
        <circle class="cls-2" cx="578.3" cy="536.49" r="40.36" transform="translate(-148.27 229.34) rotate(-19.94)"/>
        <circle class="cls-2" cx="858.77" cy="484.89" r="40.36" transform="translate(-109.59 298.14) rotate(-18.53)"/>
        <path class="cls-6" d="M675.87,171.68s98.3,13.45,30.68,139.78l-15.38-64.8s5.4,66.77-85.9,72.34l-26.96-66.46,97.57-80.86Z"/>
        <circle class="cls-3" cx="416.18" cy="500.31" r="93.17" transform="translate(-231.88 440.82) rotate(-45)"/>
        <path d="M856.48,192.9c-1.19,0-2.37-.47-3.24-1.41-.32-.34-18.06-19.04-51.1-34.68-30.56-14.46-80.88-29.2-147.06-17.26-2.4.44-4.7-1.16-5.13-3.57-.43-2.4,1.16-4.7,3.57-5.13,68.7-12.39,121.02,3.04,152.81,18.16,34.57,16.44,52.64,35.66,53.4,36.47,1.66,1.79,1.56,4.59-.23,6.25-.85.79-1.93,1.18-3.01,1.18Z"/>
        <path d="M400.54,396.9c-.1,0-.19,0-.29,0-2.44-.16-4.28-2.26-4.13-4.7,6.89-106.96,63.47-155.42,65.87-157.43,1.87-1.57,4.66-1.32,6.23.56,1.56,1.87,1.32,4.66-.55,6.22h0c-.56.47-56.09,48.27-62.72,151.22-.15,2.34-2.1,4.14-4.41,4.14Z"/>
      </g>
      <path class="cls-5" d="M747.74,1000.09l84.83,57.17-239.63,188.51h-134.2s-198.13-24.12-112.29-245.38l401.29-.3Z"/>
      <path d="M500.37,1339.96c-1.08,0-2.16-.39-3.02-1.19-1.78-1.67-1.88-4.46-.21-6.25l76.33-81.72c1.67-1.78,4.46-1.88,6.25-.21,1.78,1.67,1.88,4.46.21,6.25l-76.33,81.72c-.87.93-2.05,1.4-3.23,1.4Z"/>
      <path d="M444.77,1094.45c-1.9,0-3.66-1.24-4.23-3.15-.7-2.34.63-4.8,2.97-5.5,52.33-15.67,45.77-60.33,45.47-62.23-.39-2.41,1.24-4.68,3.65-5.07,2.41-.39,4.68,1.23,5.07,3.63.09.54,8.27,54.19-51.65,72.14-.42.13-.85.19-1.27.19Z"/>
      <path d="M785.18,899.73c-.58,0-1.17-.11-1.73-.36-2.25-.96-3.29-3.56-2.33-5.8l42.87-100.47c.96-2.25,3.56-3.29,5.8-2.33,2.25.96,3.29,3.56,2.33,5.8l-42.87,100.47c-.72,1.68-2.35,2.69-4.07,2.69Z"/>
      <path d="M396.96,912.98c-1.88,0-3.62-1.21-4.22-3.09-.73-2.33.56-4.81,2.89-5.55l99.47-31.35c2.33-.73,4.81.56,5.55,2.89.73,2.33-.56,4.81-2.89,5.55l-99.47,31.35c-.44.14-.89.21-1.33.21Z"/>
    </g>
  </g>
</svg>