<?xml version="1.0" encoding="UTF-8"?>
<svg id="Calque_2" data-name="Calque 2" xmlns="http://www.w3.org/2000/svg" viewBox="0 0 1570.51 1904.76">
  <defs>
    <style>
      .cls-1 {
        fill: #6a71d3;
      }

      .cls-2 {
        fill: #cc71cc;
      }

      .cls-3 {
        fill: #3a3030;
      }

      .cls-4 {
        fill: #a8694e;
      }

      .cls-5 {
        fill: #35201c;
      }

      .cls-6 {
        fill: #fff;
      }

      .cls-7 {
        fill: #514242;
      }

      .cls-8 {
        fill: #8e5132;
      }
    </style>
  </defs>
  <g id="Layer_1" data-name="Layer 1">
    <g>
      <g>
        <path class="cls-7" d="M719.97,1403.76c304.72,140.04,526.51,328.03,543.52,450.52,4.24-5.22,7.78-10.84,10.56-16.89,53.08-115.51-187.45-339.46-537.25-500.21C387.01,1176.43,60.41,1139.75,7.33,1255.25c-6.84,14.88-8.79,31.57-6.28,49.69,76.8-94.43,387.43-53.52,718.91,98.81Z"/>
        <path class="cls-3" d="M544.58,1755.46c331.48,152.33,642.12,193.24,718.91,98.81-17.01-122.49-238.8-310.48-543.52-450.52C388.49,1251.42,77.85,1210.52,1.05,1304.94c17.01,122.49,238.8,310.48,543.52,450.52Z"/>
      </g>
      <g>
        <g>
          <path class="cls-2" d="M825.44,1527.07c-35.49,49.98-25.62,119,22.47,157.02l203.86,161.19c29.6,23.41,73.1,1.87,72.43-35.86l-3.15-178.45-271.52-137.83-24.09,33.92Z"/>
          <path class="cls-8" d="M1286.72,1264.13l-165.67-233.84-377.21,28.55,217.14,277.38-111.45,156.94,271.52,137.83,164.41-223.59c31.25-42.49,31.75-100.22,1.26-143.26Z"/>
        </g>
        <g>
          <path class="cls-2" d="M559.16,1758.6c-46.6-14.34-122.68-171.54-148.17-226.77l-40.57,67.38c-10.29,17.09-16.41,35.99-18.32,55.25,58.99,35.24,123.61,69.34,192.48,101,26.73,12.28,53.32,23.83,79.66,34.65l14.22-47.82s-22.68,33.73-79.3,16.31Z"/>
          <path class="cls-8" d="M559.16,1758.6c56.62,17.42,79.3-16.31,79.3-16.31l408.13-689.47-368.7,35.72-266.9,443.29c25.49,55.23,101.57,212.43,148.17,226.77Z"/>
        </g>
        <path class="cls-8" d="M977.99,567.36l289.51-78.7,46.94-217.05c18.13-66.11,84.38-106.88,151.57-93.27h0c72.72,14.73,118.49,87.11,100.62,159.13l-50.98,260.7c-13.26,53.44-53.81,95.86-106.59,111.52l-373.42,110.78-57.66-253.11Z"/>
        <polygon class="cls-1" points="1121.05 1030.29 1191.73 1130.04 932.67 1338.27 912.04 1303.62 888.67 1339.35 585.62 1216.31 694.78 1052.83 1121.05 1030.29"/>
        <path class="cls-8" d="M697.08,672.68l-255.31,502.3-97.8,48.53c-63.02,31.27-85.17,110.18-47.62,169.68h0c31.09,49.27,93.35,68.69,146.94,45.84l76.88-32.78,2.23,24.7c2.44,27.03,25.09,47.73,52.23,47.73h0c26.67,0,49.09-20.01,52.11-46.51l11.29-99.13,283.78-551.83-224.72-108.53Z"/>
        <path class="cls-6" d="M1275.64,783.02l-77.52-289-463.92,136.03c-40.26,11.81-73.62,40.15-91.77,77.98l-56.81,118.41,242.11,126.89-54.25,105.5,347.58-28.55,31.06-193.54,123.52-53.73Z"/>
        <g>
          <polygon class="cls-2" points="1219.29 572.96 928.91 572.96 796.04 611.92 1229.74 611.92 1219.29 572.96"/>
          <path class="cls-2" d="M644.22,704.29h610.3l-10.45-38.96-549.19-1.58c-18.15-.05-34.8,10.03-43.17,26.13l-7.49,14.4Z"/>
          <polygon class="cls-2" points="599.9 796.67 1244.26 796.67 1275.64 783.02 1268.85 757.71 618.59 757.71 599.9 796.67"/>
          <polygon class="cls-2" points="705.07 889.04 1143.72 889.04 1149.97 850.08 630.73 850.08 705.07 889.04"/>
          <polygon class="cls-2" points="827.73 953.33 813.29 981.42 1128.9 981.42 1135.15 942.46 806.99 942.46 827.73 953.33"/>
        </g>
        <path d="M574.63,1483.6c-29.88,0-54.44-22.44-57.12-52.2l-1.62-17.98-23.22,9.9c-2.5,1.06-5.38-.1-6.45-2.59-1.06-2.5.1-5.38,2.59-6.45l29.43-12.55c1.44-.62,3.1-.5,4.45.3,1.35.81,2.23,2.21,2.37,3.77l2.23,24.7c2.22,24.66,22.58,43.26,47.34,43.26s44.49-18.12,47.23-42.15l11.29-99.14c.07-.59.24-1.16.51-1.69l32.91-64c1.24-2.41,4.19-3.36,6.61-2.12,2.41,1.24,3.36,4.2,2.12,6.61l-32.5,63.21-11.18,98.24c-3.3,29-27.8,50.87-56.99,50.87Z"/>
        <path d="M849.64,947.37c-.71,0-1.43-.15-2.11-.48-2.45-1.17-3.49-4.1-2.32-6.55l49.07-102.99c1.17-2.45,4.1-3.49,6.55-2.32,2.45,1.17,3.49,4.1,2.32,6.55l-49.07,102.99c-.84,1.77-2.6,2.8-4.44,2.8Z"/>
        <g>
          <g>
            <path class="cls-5" d="M1412.63,109.12c-4.27-8.31-9.3-16.04-14.99-23.14-.19-.25-.31-.4-.31-.4h-.03c-35.07-43.43-94.57-62.97-150.75-44.53-72.57,23.82-112.08,101.96-88.26,174.53,23.82,72.57,101.96,112.08,174.53,88.26,42.18-13.85,73.16-46.06,87.06-84.85,4.48,17.36,6.37,36.85,6.19,58.06,34.79-64.6,6.46-133.01-13.43-167.94Z"/>
            <path class="cls-5" d="M793.41,6.94c-27.11,8.9-49.6,25.38-65.9,46.32l1.91-43.19c-77.02,93.19-14.59,193.98-14.59,193.98v-.08c31.15,57.91,100.19,86.99,164.85,65.77,72.57-23.82,112.08-101.96,88.26-174.53-23.82-72.57-101.96-112.08-174.53-88.26Z"/>
            <g>
              <path class="cls-5" d="M1332.97,384.46c-.73-9.26-1.85-18.56-3.41-27.87-1.28-7.62-2.81-15.25-4.66-22.88-4.59-18.89-10.77-36.97-18.36-54.14-33.38-75.57-94.1-133.52-167.14-164.69-61.24-26.14-131.13-33.45-200.81-16.53-53.2,12.92-100.02,38.45-138.09,72.64-46.45,41.72-79.81,96.34-95.77,156.69l244.83-154.74s187.53,201.7,383.4,211.53Z"/>
              <path class="cls-8" d="M949.57,172.93l-244.83,154.74c-2.17,8.19-4.02,16.49-5.53,24.88-2.47,13.7-4.08,27.63-4.73,41.72-1.37,29.68,1.39,60.05,8.75,90.38,3.55,14.63,8.06,28.77,13.43,42.38,38.16,96.65,120.22,166.52,216.85,191.75,49.5,12.93,102.82,14.14,156.02,1.23,117.07-28.43,203.29-117.91,233.09-226.4,9.58-34.88,13.3-71.73,10.35-109.15-195.88-9.83-383.4-211.53-383.4-211.53Z"/>
            </g>
            <g>
              <path class="cls-6" d="M968.14,434.58c7.17,33.85-2.79,65.71-22.73,78.72,9.91,5.85,20.59,8.17,31.01,5.96,30.32-6.42,47.05-48.66,37.38-94.35-9.67-45.69-42.09-77.53-72.41-71.11-10.43,2.21-19.25,8.65-25.94,18.02,23.5,3.82,45.52,28.91,52.68,62.76Z"/>
              <path d="M904.02,448.15c6.35,29.98,22.48,53.99,41.39,65.15,19.94-13.01,29.9-44.87,22.73-78.72-7.17-33.85-29.18-58.94-52.68-62.76-12.77,17.87-17.79,46.36-11.44,76.33Z"/>
            </g>
            <path d="M979.78,542.68c8.75,17.15,27.81,27.52,47.85,24.32,20.73-3.31,35.96-20.09,38.18-39.98l-86.03,15.66Z"/>
            <path d="M1083.29,446.08c-.56,0-1.13-.1-1.69-.3l-49.88-18.31c-1.76-.65-3-2.24-3.19-4.11-.19-1.87.69-3.68,2.28-4.67l46.64-29.11c2.3-1.43,5.33-.73,6.77,1.57,1.44,2.3.74,5.33-1.57,6.77l-38.12,23.8,40.46,14.85c2.55.94,3.85,3.76,2.92,6.3-.73,1.99-2.61,3.22-4.61,3.22Z"/>
            <circle class="cls-4" cx="1168.8" cy="493.18" r="44.84" transform="translate(289.6211 1407.7057) rotate(-69.0066)"/>
            <circle class="cls-4" cx="854.84" cy="535.9" r="44.84" transform="translate(2.544 1075.8459) rotate(-64.4384)"/>
            <path class="cls-5" d="M939.38,141.89s-99.11,48.27,16.05,158.18l-6.22-73.73s17.44,72.35,115.75,46.6l5.43-79.5-131.02-51.54Z"/>
            <circle class="cls-8" cx="1327.4" cy="398.81" r="103.51" transform="translate(106.7854 1055.4197) rotate(-45)"/>
            <path d="M754.54,227.13c-.69,0-1.39-.15-2.05-.45-2.46-1.14-3.54-4.05-2.4-6.51.51-1.12,12.94-27.66,43.73-57,28.32-26.98,78.2-61.39,155.02-72.12,2.67-.37,5.17,1.5,5.54,4.19.38,2.69-1.5,5.17-4.18,5.54-74.01,10.34-122.02,43.33-149.26,69.18-29.58,28.07-41.8,54.06-41.92,54.32-.83,1.79-2.61,2.85-4.46,2.85Z"/>
            <path d="M1306.54,284.48c-1.95,0-3.79-1.17-4.56-3.08-42.67-106.37-117.86-137.59-118.61-137.89-2.52-1.01-3.74-3.87-2.73-6.38,1.01-2.52,3.86-3.74,6.38-2.74,3.24,1.29,79.75,32.84,124.09,143.36,1.01,2.52-.21,5.38-2.73,6.39-.6.24-1.22.35-1.83.35Z"/>
          </g>
          <path d="M1232.09,648.18c-1.31,0-2.63-.52-3.59-1.56-1.85-1.98-1.74-5.09.24-6.94,40.55-37.85,70.53-85.93,86.7-139.04.67-2.19,2.74-3.63,5.05-3.47,16.02,1.14,32.28-1.73,47.02-8.29,24.06-10.72,42.51-30.16,51.94-54.75,9.44-24.59,8.73-51.38-1.98-75.44-6.54-14.68-16.19-27.15-28.7-37.07-2.12-1.69-2.48-4.78-.8-6.9,1.69-2.13,4.77-2.48,6.9-.8,13.57,10.76,24.48,24.85,31.57,40.77,11.78,26.46,12.56,55.92,2.18,82.96-10.38,27.04-30.66,48.42-57.12,60.2-15.01,6.68-31.45,9.88-47.81,9.32-16.92,53.3-47.38,101.53-88.26,139.68-.95.88-2.15,1.32-3.35,1.32Z"/>
        </g>
        <path d="M1155.9,825.39c-.33,0-.67-.03-1.01-.1-2.66-.55-4.36-3.15-3.81-5.81l13.07-62.77c.55-2.66,3.14-4.37,5.81-3.81,2.66.55,4.36,3.15,3.81,5.81l-13.07,62.77c-.48,2.32-2.53,3.91-4.8,3.91Z"/>
        <path d="M921.8,1291.08c-.76,0-1.53-.18-2.24-.55-2.41-1.24-3.36-4.2-2.12-6.62l33.73-65.5c1.24-2.41,4.21-3.36,6.62-2.12,2.41,1.24,3.36,4.2,2.12,6.62l-33.73,65.5c-.87,1.69-2.59,2.66-4.37,2.66Z"/>
      </g>
    </g>
  </g>
</svg>