<?xml version="1.0" encoding="UTF-8"?>
<svg id="Calque_2" data-name="Calque 2" xmlns="http://www.w3.org/2000/svg" viewBox="0 0 1411.96 2144.11">
  <defs>
    <style>
      .cls-1 {
        fill: #6a71d3;
      }

      .cls-2 {
        fill: #cc71cc;
      }

      .cls-3 {
        fill: #3a3030;
      }

      .cls-4 {
        fill: #a8694e;
      }

      .cls-5 {
        fill: #35201c;
      }

      .cls-6 {
        fill: #fff;
      }

      .cls-7 {
        fill: #514242;
      }

      .cls-8 {
        fill: #8e5132;
      }
    </style>
  </defs>
  <g id="Layer_1" data-name="Layer 1">
    <g>
      <g>
        <path class="cls-7" d="M974.12,1413.95c84.43-324.56,230.62-575.88,348.22-614.11-5.88-3.26-12.04-5.76-18.48-7.44-123.03-32-301.32,244.08-398.24,616.64-96.92,372.57-75.75,700.53,47.27,732.54,15.85,4.12,32.63,3.12,50.02-2.54-106.43-59.05-120.63-372.04-28.79-725.1Z"/>
        <path class="cls-3" d="M1351.13,1524.94c91.84-353.06,77.64-666.06-28.79-725.1-117.61,38.23-263.79,289.55-348.22,614.11-91.84,353.06-77.64,666.06,28.79,725.1,117.61-38.23,263.79-289.55,348.22-614.11Z"/>
      </g>
      <g>
        <g>
          <path class="cls-8" d="M1096.76,1805.37c26.35-23.55,82.81-147.09,115.74-222.54l-275.89-488.21-309.69,74.1,358.65,670.65s72.72.38,111.18-34Z"/>
          <path class="cls-2" d="M1212.51,1582.83c-32.94,75.45-89.39,198.99-115.74,222.54-38.46,34.37-111.18,34-111.18,34l43.63,164.16c6.79,25.56,41.92,28.43,52.77,4.31l149.57-332.43c9.27-20.6,8.18-44.39-2.93-64.06l-16.11-28.52Z"/>
        </g>
        <g>
          <path class="cls-8" d="M823.28,1365.95l104.79-51.05-238.84-216.63-166.07,112.79c-67.16,45.61-80.39,139.17-28.51,201.62l140.63,169.29,245.16-154.81-57.17-61.21Z"/>
          <path class="cls-2" d="M952.5,1504.29l-72.04-77.13-245.16,154.81,5.17,179.01c1.05,36.25,43.75,55,71.14,31.22l236.57-205.34c24.57-21.33,26.54-58.79,4.32-82.57Z"/>
        </g>
        <path class="cls-8" d="M596.87,728.13l-286.8,57.55-124.92-79.8c-51.93-33.17-120.53-21.76-158.92,26.43h0c-43.18,54.21-31.78,133.6,24.92,173.45l144.25,101.39c41.25,29,92.43,40.19,142.03,31.07l345.44-63.55-85.99-246.56Z"/>
        <path class="cls-8" d="M1396.26,929.88l-18.35-26.96c-18.81-27.64-45.32-49.14-76.24-61.83l-235.69-96.75-155.74,216.49,263.67,96.52,80.18,120.12c33.36,49.97,96.24,69.5,151.17,49.22,11.41-117.72,8.16-220.54-9-296.81Z"/>
        <polygon class="cls-6" points="1174.51 774.52 890.77 658.58 616.97 686.38 427.93 752.35 517.66 1029.11 616.97 1014.07 657.36 1111.48 1104.42 1111.48 1073.95 1000.51 1174.51 774.52"/>
        <g>
          <polygon class="cls-2" points="633.09 684.74 616.97 686.38 512.18 722.95 1048.3 722.95 954.79 684.74 633.09 684.74"/>
          <polygon class="cls-2" points="447.77 813.54 1157.15 813.54 1174.15 775.34 435.38 775.34 447.77 813.54"/>
          <polygon class="cls-2" points="477.14 904.14 1116.83 904.14 1133.83 865.93 464.75 865.93 477.14 904.14"/>
          <polygon class="cls-2" points="506.51 994.73 1076.52 994.73 1093.52 956.52 494.13 956.52 506.51 994.73"/>
          <polygon class="cls-2" points="646.51 1085.32 1097.23 1085.32 1086.74 1047.12 630.67 1047.12 646.51 1085.32"/>
        </g>
        <g>
          <path class="cls-5" d="M1198.28,307.21c-1.46-9.22-3.84-18.14-7.03-26.66-.1-.3-.17-.47-.17-.47h-.02c-19.78-52.21-70.21-89.34-129.34-89.34-76.38,0-138.3,61.92-138.3,138.3s61.92,138.3,138.3,138.3c44.39,0,83.87-20.94,109.18-53.46-1.16,17.89-5.44,37-12.23,57.09,53.21-50.53,47.62-124.36,39.62-163.75Z"/>
          <path class="cls-5" d="M641.82,16.99c-28.53,0-55.04,8.65-77.06,23.45l15.29-40.44c-102.24,64.52-74.37,179.75-74.37,179.75l.03-.07c11.53,64.74,68.06,113.9,136.11,113.9,76.38,0,138.3-61.92,138.3-138.3s-61.92-138.3-138.3-138.3Z"/>
          <g>
            <path class="cls-5" d="M1036.72,543.97c2.2-9.03,4.03-18.21,5.45-27.55,1.16-7.64,2.09-15.37,2.71-23.19,1.53-19.38,1.3-38.48-.55-57.16-8.15-82.21-47.76-156.21-107.43-208.61-50.03-43.93-114.16-72.68-185.64-78.34-54.57-4.32-107.03,5.34-153.85,25.94-57.14,25.15-105.88,66.64-139.86,119l280.88-70.65s115.26,250.13,298.3,320.56Z"/>
            <path class="cls-8" d="M738.42,223.41l-280.88,70.65c-4.61,7.11-8.96,14.41-13.02,21.91-6.62,12.25-12.49,24.98-17.5,38.16-10.56,27.77-17.41,57.49-19.87,88.61-1.19,15-1.32,29.85-.46,44.46,6.11,103.73,62.29,195.71,146.22,249.82,43,27.72,93.28,45.51,147.86,49.83,120.1,9.51,229.93-48.62,292.07-142.4,19.98-30.16,35.01-64.01,43.88-100.48-183.04-70.43-298.3-320.56-298.3-320.56Z"/>
          </g>
          <g>
            <path class="cls-6" d="M674.46,477.8c-3.75,34.4-23.15,61.56-46.15,67.71,7.59,8.65,17.01,14.18,27.61,15.34,30.81,3.36,59.88-31.56,64.94-77.99,5.06-46.43-15.81-86.79-46.61-90.15-10.59-1.15-20.98,2.22-30.26,9.03,21.14,10.95,34.23,41.66,30.48,76.06Z"/>
            <path d="M609.3,470.7c-3.32,30.46,4.52,58.31,19.01,74.81,23-6.14,42.4-33.31,46.15-67.71,3.75-34.4-9.34-65.1-30.48-76.06-17.7,12.99-31.36,38.5-34.68,68.96Z"/>
          </g>
          <path d="M651.79,584.14c2.96,19.02,17.84,34.82,37.88,38.03,20.73,3.32,40.43-7.87,48.75-26.08l-86.62-11.95Z"/>
          <path d="M781.8,524.89c-1.07,0-2.14-.35-3.04-1.06l-41.68-32.96c-1.47-1.16-2.15-3.06-1.75-4.9.4-1.83,1.81-3.28,3.63-3.73l53.39-13.12c2.63-.64,5.29.97,5.94,3.6.65,2.63-.96,5.29-3.6,5.94l-43.64,10.72,33.8,26.73c2.13,1.68,2.49,4.77.81,6.9-.97,1.23-2.41,1.87-3.86,1.87Z"/>
          <circle class="cls-4" cx="846.82" cy="596.06" r="44.84" transform="translate(-23.229 1157.6729) rotate(-67.9829)"/>
          <circle class="cls-4" cx="535.21" cy="538.73" r="44.84" transform="translate(-124.74 914.44) rotate(-74.84)"/>
          <path class="cls-5" d="M738.42,190.74s-109.22,14.95-34.08,155.3l17.09-71.99s-6,74.18,95.44,80.38l29.95-73.84-108.4-89.84Z"/>
          <circle class="cls-8" cx="1026.95" cy="555.87" r="103.51" transform="translate(-92.27 888.97) rotate(-45)"/>
          <path d="M537.75,214.32c-1.2,0-2.4-.44-3.35-1.32-1.98-1.85-2.1-4.95-.25-6.94.84-.9,20.92-22.25,59.32-40.52,35.32-16.8,93.44-33.94,169.78-20.18,2.67.48,4.44,3.04,3.96,5.71-.48,2.67-3.04,4.45-5.7,3.96-73.54-13.26-129.45,3.11-163.39,19.18-36.86,17.45-56.58,38.33-56.77,38.54-.97,1.04-2.28,1.56-3.6,1.56Z"/>
          <path d="M1044.32,440.98c-2.57,0-4.73-2-4.9-4.6-3.85-59.78-22.58-102.26-37.62-127.38-16.31-27.23-31.91-40.5-32.07-40.63-2.07-1.74-2.35-4.84-.61-6.92,1.74-2.08,4.83-2.35,6.91-.62,2.67,2.23,65.53,56.08,73.19,174.91.17,2.71-1.88,5.04-4.59,5.22-.11,0-.21.01-.32.01Z"/>
        </g>
        <path class="cls-1" d="M658.56,1111.15l-94.25,63.52,266.24,209.44h149.1s220.13-26.8,124.76-272.63l-445.85-.33Z"/>
        <path d="M933.4,1488.76c-1.31,0-2.62-.52-3.59-1.56l-84.81-90.79c-1.85-1.98-1.75-5.09.24-6.94,1.98-1.85,5.09-1.75,6.94.24l84.81,90.79c1.85,1.98,1.75,5.09-.24,6.94-.95.88-2.15,1.32-3.35,1.32Z"/>
        <path d="M995.18,1215.98c-.47,0-.94-.07-1.41-.21-66.58-19.94-57.49-79.55-57.39-80.14.44-2.68,2.97-4.5,5.65-4.04,2.67.44,4.48,2.97,4.04,5.64-.35,2.2-7.56,51.74,50.51,69.13,2.6.78,4.07,3.52,3.3,6.11-.64,2.13-2.59,3.5-4.7,3.5Z"/>
        <path d="M616.97,999.64c-1.91,0-3.72-1.12-4.52-2.99l-47.63-111.63c-1.06-2.5.1-5.38,2.59-6.45,2.49-1.06,5.38.1,6.45,2.59l47.63,111.63c1.06,2.5-.1,5.38-2.59,6.45-.63.27-1.28.39-1.93.39Z"/>
        <path d="M1048.3,1014.36c-.49,0-.99-.07-1.48-.23l-110.51-34.84c-2.59-.82-4.02-3.57-3.21-6.16.82-2.59,3.58-4.02,6.16-3.21l110.51,34.84c2.59.82,4.02,3.57,3.21,6.16-.66,2.09-2.6,3.44-4.68,3.44Z"/>
      </g>
    </g>
  </g>
</svg>