<?xml version="1.0" encoding="UTF-8"?>
<svg id="Calque_2" data-name="Calque 2" xmlns="http://www.w3.org/2000/svg" viewBox="0 0 4483.33 2130.07">
  <defs>
    <style>
      .cls-1 {
        fill: #ff9797;
      }

      .cls-2 {
        fill: #56bae2;
      }

      .cls-3 {
        fill: #fcb6b6;
      }

      .cls-4 {
        fill: #f7d247;
      }

      .cls-5 {
        fill: #ea5eab;
      }

      .cls-6 {
        fill: #fbebdf;
      }

      .cls-7 {
        fill: #ff743e;
      }
    </style>
  </defs>
  <g id="Layer_1" data-name="Layer 1">
    <g>
      <g>
        <path class="cls-3" d="M2135.32,1065.55l-139.63,147.24-420.1-391.5c-40.66-38.56-42.36-102.77-3.81-143.43h0c38.56-40.66,102.77-42.36,143.43-3.81l420.1,391.5Z"/>
        <polygon class="cls-6" points="1958.79 1339.5 1947.9 998.85 2305 1040.38 2303.22 1319.84 1958.79 1339.5"/>
        <g>
          <path class="cls-4" d="M1859.16,619.46h-109.82l104.44-33.94-16.53-50.89-104.44,33.94,88.84-64.55-31.45-43.29-88.84,64.55,64.55-88.84-43.29-31.45-64.55,88.84,33.94-104.44-50.89-16.53-33.94,104.44v-109.82h-53.5v109.82l-33.93-104.44-50.89,16.53,33.94,104.44-64.55-88.84-43.29,31.45,64.55,88.84-88.84-64.55-31.45,43.29,88.84,64.55-104.44-33.93-16.53,50.89,104.44,33.94h-109.82v53.5h109.81l-104.44,33.93,16.53,50.89,104.44-33.94-88.85,64.55,31.45,43.29,88.84-64.55-64.55,88.84,43.29,31.45,64.55-88.84-33.93,104.44,50.89,16.53,33.94-104.44v109.82h53.5v-109.81l33.93,104.44,50.89-16.53-33.94-104.44,64.55,88.84,43.29-31.45-64.55-88.84,88.85,64.55,31.45-43.29-88.84-64.55,104.44,33.93,16.53-50.89-104.44-33.94h109.82v-53.5Z"/>
          <path d="M1469.23,740.96c-1.28,0-2.54-.61-3.32-1.75-1.25-1.83-.78-4.33,1.05-5.58l53.4-36.47c1.83-1.25,4.33-.78,5.58,1.05,1.25,1.83.78,4.33-1.05,5.58l-53.4,36.47c-.69.47-1.48.7-2.26.7Z"/>
          <path d="M1580.44,777.86c-.06,0-.12,0-.18,0-2.22-.1-3.93-1.97-3.84-4.19l2.75-62.95c.1-2.22,1.98-3.92,4.19-3.84,2.22.1,3.93,1.97,3.84,4.19l-2.75,62.95c-.09,2.16-1.87,3.84-4.01,3.84Z"/>
          <path d="M1656.28,736.08c-1,0-1.99-.37-2.77-1.11l-28-26.7c-1.6-1.53-1.66-4.07-.14-5.68,1.53-1.6,4.07-1.66,5.68-.14l28,26.7c1.6,1.53,1.66,4.07.14,5.68-.79.83-1.85,1.24-2.91,1.24Z"/>
          <path d="M1615.42,632.72c-2.09,0-3.85-1.61-4-3.72-.16-2.21,1.5-4.13,3.71-4.3l53.73-3.91c2.23-.16,4.14,1.5,4.3,3.71.16,2.21-1.5,4.13-3.71,4.3l-53.73,3.91c-.1,0-.2.01-.3.01Z"/>
          <path d="M1632.03,584.02c-1.11,0-2.21-.46-3.01-1.35-1.47-1.66-1.32-4.2.34-5.67l49.98-44.28c1.66-1.47,4.19-1.32,5.67.34,1.47,1.66,1.32,4.2-.34,5.67l-49.98,44.28c-.76.68-1.71,1.01-2.66,1.01Z"/>
          <path d="M1595.56,548.2c-.19,0-.38-.01-.57-.04-2.19-.31-3.72-2.35-3.41-4.54l5.21-36.47c.31-2.19,2.35-3.71,4.54-3.41,2.19.31,3.72,2.35,3.41,4.54l-5.21,36.47c-.29,2-2,3.45-3.97,3.45Z"/>
          <path d="M1569.84,593.14c-1.36,0-2.68-.69-3.44-1.94l-33.86-56c-1.15-1.9-.54-4.37,1.36-5.51,1.9-1.15,4.37-.54,5.51,1.36l33.86,56c1.15,1.9.54,4.37-1.36,5.51-.65.39-1.37.58-2.07.58Z"/>
          <path d="M1492.01,595.09c-.84,0-1.69-.26-2.42-.81l-29.3-22.14c-1.77-1.34-2.12-3.85-.78-5.62,1.34-1.77,3.85-2.12,5.62-.78l29.3,22.14c1.77,1.34,2.12,3.85.78,5.62-.79,1.04-1.99,1.59-3.21,1.59Z"/>
          <path d="M1539.23,650.23h-65.12c-2.22,0-4.01-1.8-4.01-4.01s1.8-4.01,4.01-4.01h65.12c2.22,0,4.01,1.8,4.01,4.01s-1.8,4.01-4.01,4.01Z"/>
          <path d="M1438.61,692.12c-1.64,0-3.17-1.01-3.77-2.63-.76-2.08.3-4.39,2.39-5.15l35.49-13.02c2.08-.76,4.39.31,5.15,2.39.76,2.08-.3,4.39-2.39,5.15l-35.49,13.02c-.46.17-.92.25-1.38.25Z"/>
          <path d="M1708.62,674.21c-.15,0-.31,0-.47-.03l-50.8-5.86c-2.2-.25-3.78-2.25-3.53-4.45.25-2.2,2.26-3.79,4.45-3.53l50.8,5.86c2.2.25,3.78,2.25,3.53,4.45-.24,2.05-1.97,3.56-3.98,3.56Z"/>
        </g>
        <g>
          <g>
            <polygon class="cls-3" points="2180.2 1601.75 1952.5 1601.75 1917.75 1744.15 2145.45 1744.15 2180.2 1601.75"/>
            <polygon class="cls-6" points="1917.75 1744.15 1860.62 1978.21 2088.32 1978.21 2145.45 1744.15 1917.75 1744.15"/>
          </g>
          <path class="cls-7" d="M1693.7,2129.33h364.34l30.29-151.11h-243.51c-83.46,0-151.11,67.65-151.11,151.11h0Z"/>
          <polygon class="cls-7" points="1840.54 1992.9 1860.96 1931.49 1906.9 1936.83 1927.32 1998.24 1840.54 1992.9"/>
        </g>
        <g>
          <g>
            <path class="cls-3" d="M2230.66,1483.81l-240.31,94.34,71.4,198.76c39.16,80.1,127.38,85.48,168.91,84.18l33.65-276.7-33.65-100.58Z"/>
            <path class="cls-6" d="M2537.45,1656.13l-137.95-177.07-135.19,105.32-33.65,276.7c28.66-.9,57.28-10.57,81.56-29.49l225.23-175.47Z"/>
          </g>
          <path class="cls-7" d="M2706.25,1626.95l-289.64-199.06-97.6,113.81,177.3,125.18c69,46.95,162.99,29.07,209.94-39.93h0Z"/>
          <polygon class="cls-7" points="2532.42 1677.08 2480.99 1716.37 2446.02 1686.11 2463.68 1623.86 2532.42 1677.08"/>
        </g>
        <path class="cls-2" d="M1958.79,1339.5l-47.09,333.02s352.61,133.24,534.32-146.21l-61.96-60.45c-4.48-64.03-34.03-117.56-80.83-146.03l-344.44,19.67Z"/>
        <polygon class="cls-2" points="1959.18 1351.98 1978.39 1169.18 2166.75 1180.11 2206.22 1335.86 1959.18 1351.98"/>
        <polygon class="cls-2" points="2169.28 1258.41 2098.82 1228.29 2160.24 1009.28 2230.7 1039.4 2169.28 1258.41"/>
        <polygon class="cls-2" points="2049.14 1260.16 1989.87 1277.23 1951.55 1016.13 2010.81 999.05 2049.14 1260.16"/>
        <g>
          <g>
            <g>
              <circle cx="2413.54" cy="759.36" r="100.53" transform="translate(169.9637 1929.0405) rotate(-45)"/>
              <circle cx="2049.76" cy="570.14" r="100.53" transform="translate(197.2109 1616.3881) rotate(-45)"/>
              <g>
                <g>
                  <path d="M2077.13,722.96l153.71,55.28,17.16-45.19,139.63,180.63c1.58-6.12,2.97-12.32,4.13-18.63,2.86-15.63,4.25-31.18,4.3-46.52.2-67.52-25.86-130.98-70.02-178.53-37.03-39.88-86.78-68.57-144.43-79.11-44.01-8.04-87.46-4.55-127.25,8.32-55.14,17.83-103.22,53.7-136,101.87l179.25-24.04-20.48,45.93Z"/>
                  <path class="cls-3" d="M2248.01,733.05l-17.16,45.19-153.71-55.28,20.48-45.93-179.25,24.04c-6.4,9.41-12.23,19.27-17.4,29.58-10.89,21.7-18.93,45.3-23.52,70.39-2.21,12.1-3.55,24.16-4.06,36.11-3.64,84.85,34.39,164.3,98.14,215.26,32.66,26.11,72.06,44.75,116.08,52.79,96.86,17.7,190.98-20.44,249.3-91.52,23.4-28.52,41.01-62.34,50.74-99.99l-139.63-180.63Z"/>
                </g>
                <g>
                  <path class="cls-6" d="M2091.87,851.74c-5.91,27.66-23.93,48.13-43.15,51.22,5.46,7.66,12.65,12.94,21.17,14.76,24.77,5.29,51.31-20.68,59.28-58.01,7.97-37.33-5.65-71.88-30.41-77.17-8.52-1.82-17.25.06-25.36,4.83,16.28,10.66,24.37,36.72,18.47,64.37Z"/>
                  <path d="M2039.49,840.55c-5.23,24.49-1.17,47.78,9.24,62.4,19.21-3.08,37.24-23.56,43.15-51.22,5.91-27.66-2.19-53.71-18.47-64.37-15.47,9.09-28.69,28.7-33.92,53.19Z"/>
                </g>
                <path d="M2064.61,936.31c.83,15.71,11.62,29.79,27.64,34.07,16.58,4.42,33.53-3.04,41.8-17.16l-69.44-16.91Z"/>
                <path d="M2175.65,898.96c-1.01,0-2.02-.38-2.8-1.13l-31.15-30.26c-1.1-1.07-1.49-2.67-1.02-4.13.48-1.46,1.74-2.52,3.26-2.73l44.5-6.23c2.19-.31,4.22,1.22,4.53,3.42.31,2.2-1.22,4.22-3.42,4.53l-36.37,5.09,25.26,24.54c1.59,1.54,1.63,4.09.08,5.68-.79.81-1.83,1.22-2.88,1.22Z"/>
                <circle class="cls-1" cx="2222.19" cy="962.21" r="36.65" transform="translate(775.1726 2903.8848) rotate(-76.7175)"/>
                <circle class="cls-1" cx="1973.59" cy="889.71" r="36.65"/>
              </g>
            </g>
            <circle class="cls-3" cx="2371.98" cy="944.49" r="84.6" transform="translate(1059.7423 3134.551) rotate(-80.7825)"/>
          </g>
          <path d="M1944.49,1031.5c-1.07,0-2.13-.42-2.92-1.26-48.93-51.92-75.24-122.36-72.19-193.27.09-2.22,1.99-3.93,4.18-3.84,2.22.09,3.93,1.97,3.84,4.18-2.95,68.75,22.57,137.06,70.01,187.41,1.52,1.61,1.45,4.15-.17,5.67-.78.73-1.77,1.09-2.75,1.09Z"/>
        </g>
        <g>
          <path class="cls-3" d="M2194.9,1192.34h0c-30.05-46.88-16.69-109.23,29.93-139.68l396.56-259.05c47.18-30.24,109.93-16.5,140.17,30.67h0c30.23,47.18,16.5,109.93-30.67,140.17l-395.08,258.08c-47.2,30.83-110.48,17.27-140.9-30.19Z"/>
          <g>
            <path class="cls-4" d="M2712.25,1094.7l26.31-106.62,7.92,109.53,53.36-3.86-7.92-109.53,41.38,101.72,49.56-20.16-41.38-101.72,70.79,83.96,40.9-34.49-70.79-83.96,93.27,57.97,28.25-45.44-93.27-57.97,106.62,26.31,12.82-51.95-106.62-26.31,109.53-7.92-3.86-53.36-109.53,7.92,101.72-41.38-20.16-49.56-101.72,41.38,83.96-70.79-34.49-40.9-83.96,70.79,57.97-93.27-45.44-28.25-57.97,93.27,26.31-106.62-51.95-12.82-26.31,106.62-7.92-109.53-53.36,3.86,7.92,109.53-41.38-101.73-49.56,20.16,41.38,101.72-70.79-83.96-40.9,34.49,70.79,83.95-93.27-57.97-28.25,45.44,93.27,57.97-106.62-26.31-12.82,51.95,106.62,26.31-109.53,7.92,3.86,53.36,109.53-7.92-101.72,41.38,20.16,49.56,101.72-41.38-83.96,70.79,34.49,40.9,83.96-70.79-57.97,93.27,45.44,28.25,57.97-93.27-26.31,106.62,51.95,12.82Z"/>
            <path d="M2714.23,752.57c-1.63,0-3.16-1-3.76-2.61l-22.61-60.58c-.77-2.08.28-4.39,2.36-5.16,2.07-.77,4.39.28,5.16,2.36l22.61,60.58c.78,2.08-.28,4.39-2.36,5.16-.46.17-.94.25-1.4.25Z"/>
            <path d="M2689.61,808.88c-.37,0-.76-.05-1.13-.16l-60.46-17.75c-2.13-.62-3.35-2.86-2.72-4.98.63-2.13,2.86-3.35,4.98-2.72l60.46,17.75c2.13.62,3.35,2.86,2.72,4.98-.51,1.75-2.11,2.88-3.85,2.88Z"/>
            <path d="M2651.55,874.77c-1.33,0-2.62-.66-3.39-1.86-1.19-1.87-.64-4.35,1.23-5.54l32.63-20.79c1.87-1.19,4.35-.64,5.54,1.23,1.19,1.87.64,4.35-1.23,5.54l-32.63,20.79c-.67.43-1.42.63-2.15.63Z"/>
            <path d="M2752.61,912.96c-.22,0-.45-.02-.68-.06-2.18-.37-3.65-2.45-3.28-4.63l9.08-53.1c.37-2.19,2.45-3.65,4.63-3.28,2.18.37,3.65,2.45,3.28,4.63l-9.08,53.1c-.33,1.96-2.03,3.34-3.95,3.34Z"/>
            <path d="M2836,946.79c-1.45,0-2.84-.78-3.56-2.15l-31.02-59.14c-1.03-1.96-.27-4.39,1.69-5.42,1.97-1.03,4.39-.27,5.42,1.69l31.02,59.14c1.03,1.96.27,4.39-1.69,5.42-.6.31-1.23.46-1.86.46Z"/>
            <path d="M2882.65,874.63c-.5,0-1.01-.09-1.5-.29l-34.16-13.8c-2.06-.83-3.05-3.17-2.22-5.23.83-2.06,3.16-3.05,5.23-2.22l34.16,13.8c2.06.83,3.05,3.17,2.22,5.23-.63,1.56-2.14,2.51-3.72,2.51Z"/>
            <path d="M2811.03,825.09c-1.71,0-3.3-1.1-3.83-2.82-.66-2.12.52-4.37,2.64-5.03l62.49-19.46c2.11-.66,4.37.52,5.03,2.64.66,2.12-.52,4.37-2.64,5.03l-62.49,19.46c-.4.12-.8.18-1.19.18Z"/>
            <path d="M2827.79,749.07c-1.17,0-2.33-.51-3.12-1.48-1.4-1.72-1.13-4.25.59-5.65l28.52-23.15c1.72-1.4,4.25-1.14,5.65.59,1.4,1.72,1.13,4.25-.59,5.65l-28.52,23.15c-.74.6-1.64.9-2.53.9Z"/>
            <path d="M2762.94,781.7c-.32,0-.64-.04-.96-.12-2.15-.53-3.47-2.71-2.94-4.86l15.6-63.22c.53-2.15,2.71-3.47,4.86-2.94,2.15.53,3.47,2.71,2.94,4.86l-15.6,63.22c-.45,1.83-2.09,3.05-3.9,3.05Z"/>
            <path d="M2750.51,711.56c-2.02,0-3.76-1.52-3.99-3.58l-4.14-37.58c-.24-2.2,1.35-4.19,3.55-4.43,2.18-.24,4.19,1.35,4.43,3.55l4.14,37.58c.24,2.2-1.35,4.19-3.55,4.43-.15.02-.3.02-.44.02Z"/>
            <path d="M2699.07,940.4c-.47,0-.94-.08-1.4-.25-2.08-.77-3.13-3.09-2.36-5.16l17.86-47.91c.77-2.08,3.09-3.13,5.16-2.36,2.08.77,3.13,3.09,2.36,5.16l-17.86,47.91c-.6,1.62-2.13,2.61-3.76,2.61Z"/>
          </g>
          <path d="M2194.91,1196.35c-1.32,0-2.62-.65-3.38-1.85-31.11-48.54-17.15-113.68,31.12-145.21l221.2-144.5c1.85-1.21,4.34-.69,5.56,1.17,1.21,1.86.69,4.34-1.17,5.56l-221.2,144.5c-44.59,29.13-57.49,89.31-28.75,134.15,1.2,1.87.65,4.35-1.21,5.55-.67.43-1.42.64-2.16.64Z"/>
        </g>
        <path d="M2070.81,1347.66c-1.84,0-3.71-.07-5.61-.22-18.37-1.4-32.93-8.9-43.29-22.28-11.33-14.64-17.39-35.8-18.02-62.91-.46-19.94,2.28-35.48,2.39-36.13.36-2,2.14-3.41,4.17-3.3l120.15,6.67c1.99.11,3.6,1.67,3.78,3.65.06.69,1.47,17.11-.76,37.49-3.05,27.74-11.12,48.42-23.99,61.45-10.21,10.34-23.25,15.56-38.82,15.56ZM2013.67,1231.04c-1.81,13.38-6.58,61.86,14.61,89.21,8.91,11.5,21.54,17.95,37.54,19.17,15.6,1.2,28.42-3.17,38.1-12.97,24.07-24.36,23.36-75.41,22.7-89.14l-112.94-6.28Z"/>
        <path d="M2305,1544.57c-1.1,0-2.2-.45-3-1.34-1.48-1.65-1.33-4.19.33-5.67l63.66-56.74c1.66-1.48,4.19-1.33,5.67.33,1.48,1.65,1.33,4.19-.33,5.67l-63.66,56.74c-.77.68-1.72,1.02-2.67,1.02Z"/>
      </g>
      <g>
        <path class="cls-3" d="M945.12,1319.84l230.62,123.99c58.4,31.4,130.85,17.19,173.06-33.94h0c42.94-52.01,42.36-127.34-1.38-178.69l-83.24-97.7-319.06,186.34Z"/>
        <path class="cls-3" d="M655.19,1314.87l-203.83,67.43c-71.94,23.8-149.38-16.21-171.6-88.65l-42.42-138.32c-15.98-52.11,10.78-107.76,61.47-127.8h0c55.77-22.05,118.62,7.27,137.55,64.17l13.68,41.1,205.14-65.66v247.73Z"/>
        <polygon class="cls-6" points="551.76 1452.41 619.91 1066.2 969.29 1097.62 981.36 1470.24 551.76 1452.41"/>
        <g>
          <polygon class="cls-3" points="548.83 1601.75 511.46 1803.73 725.2 1846.79 762.89 1643.1 762.64 1601.75 548.83 1601.75"/>
          <polygon class="cls-6" points="473.14 2010.85 694.85 2010.85 725.2 1846.79 511.46 1803.73 473.14 2010.85"/>
          <polygon class="cls-3" points="984.35 1601.75 770.54 1601.75 762.89 1643.1 764.22 1859.16 985.93 1859.16 984.35 1601.75"/>
          <polygon class="cls-6" points="764.22 1859.16 765.59 2083.44 987.3 2083.44 985.93 1859.16 764.22 1859.16"/>
          <polygon class="cls-6" points="762.64 1601.75 762.89 1643.1 770.54 1601.75 762.64 1601.75"/>
        </g>
        <path class="cls-7" d="M881.99,1970.91h0c72.73,0,131.78,59.05,131.78,131.78v26.63h-263.57v-26.63c0-72.73,59.05-131.78,131.78-131.78Z"/>
        <path class="cls-7" d="M694.85,2010.85v118.48h-329.72s-14.07-104.63,119.91-182.78l209.81,64.3Z"/>
        <polygon class="cls-2" points="981.36 1470.24 919.55 1467.68 905.6 1226 655.84 1221.37 624.79 1455.44 551.76 1452.41 505.72 1685.14 750.2 1732.79 999.92 1723 981.36 1470.24"/>
        <path d="M770.54,1617.54c-.33,0-.67-.04-1.01-.13l-45.34-11.77c-2.15-.56-3.43-2.75-2.88-4.89.56-2.15,2.75-3.44,4.89-2.88l45.34,11.77c2.15.56,3.43,2.75,2.88,4.89-.47,1.81-2.1,3.01-3.88,3.01Z"/>
        <path d="M750.21,1728.29c-.07,0-.15,0-.22,0-2.21-.12-3.91-2.01-3.79-4.23l6.27-114.4c.12-2.21,1.99-3.97,4.23-3.79,2.21.12,3.91,2.01,3.79,4.23l-6.27,114.4c-.12,2.14-1.89,3.79-4.01,3.79Z"/>
        <polygon class="cls-2" points="719.51 1240.63 710.44 1081.83 646.1 1080.72 652.5 1246.59 719.51 1240.63"/>
        <polygon class="cls-2" points="843.66 1092 843.66 1237.15 905.6 1226 927.52 1092 843.66 1092"/>
        <g>
          <g>
            <g>
              <g>
                <path class="cls-3" d="M1044.93,932.49c11.58-43.22,11.62-86.81,2.02-127.5-18.74-79.44-74.24-147.84-152.47-180.89l-344.95,337.42c29.52,73.98,92.35,133.59,175.2,155.8,139.46,37.38,282.81-45.36,320.19-184.82Z"/>
                <path d="M860.11,612.29c-96.24-25.8-194.33,5.62-258.17,73.4-28.67,30.44-50.44,68.2-62.02,111.42-15.17,56.61-10.55,113.85,9.62,164.39l344.95-337.42c-11.02-4.66-22.49-8.61-34.37-11.8Z"/>
              </g>
              <g>
                <g>
                  <path class="cls-6" d="M858.54,858.4c2.32,28.18,17.58,50.8,36.24,56.32-6.39,6.9-14.21,11.22-22.89,11.93-25.24,2.08-48.24-27.08-51.37-65.12-3.13-38.04,14.8-70.56,40.04-72.64,8.68-.71,17.1,2.27,24.53,8.03-17.51,8.49-28.87,33.29-26.55,61.48Z"/>
                  <path d="M911.93,854.01c2.05,24.96-4.96,47.54-17.15,60.71-18.66-5.52-33.92-28.13-36.24-56.32-2.32-28.18,9.05-52.99,26.55-61.48,14.18,11,24.78,32.13,26.84,57.09Z"/>
                </g>
                <g>
                  <path class="cls-6" d="M784.16,864.52c2.32,28.18,17.58,50.8,36.24,56.32-6.39,6.9-14.21,11.22-22.89,11.93-25.24,2.07-48.24-27.08-51.37-65.12-3.13-38.04,14.8-70.56,40.04-72.64,8.68-.71,17.1,2.27,24.53,8.03-17.51,8.49-28.87,33.29-26.55,61.48Z"/>
                  <path d="M837.55,860.13c2.05,24.96-4.96,47.54-17.15,60.71-18.66-5.52-33.92-28.13-36.24-56.32-2.32-28.19,9.05-52.99,26.55-61.48,14.18,11,24.78,32.13,26.84,57.09Z"/>
                </g>
              </g>
              <path d="M832.5,983.36c-17.65,0-33.58-11.36-39.2-28.23-.7-2.1.44-4.38,2.54-5.08,2.11-.7,4.38.44,5.08,2.54,4.71,14.15,18.43,23.49,33.33,22.69,14.46-.76,26.69-10.66,30.42-24.64.57-2.14,2.77-3.42,4.91-2.84,2.14.57,3.41,2.77,2.84,4.91-4.63,17.35-19.81,29.65-37.76,30.59-.72.04-1.45.06-2.16.06Z"/>
            </g>
            <circle cx="766.26" cy="660.01" r="73.68" transform="translate(-242.26 735.14) rotate(-45)"/>
            <circle cx="844.26" cy="608.97" r="73.68" transform="translate(149.1811 1383.8804) rotate(-83.9115)"/>
            <circle class="cls-1" cx="712.82" cy="948.74" r="36.65" transform="translate(-237.88 238.54) rotate(-16.32)"/>
            <circle class="cls-1" cx="952.63" cy="926.85" r="36.65" transform="translate(-376.36 945.08) rotate(-45)"/>
          </g>
          <circle class="cls-3" cx="563.88" cy="930.8" r="84.6" transform="translate(-493.02 671.35) rotate(-45)"/>
        </g>
        <g>
          <path class="cls-4" d="M1389.84,1165.57h-109.82l104.44-33.93-16.53-50.89-104.44,33.94,88.84-64.55-31.45-43.29-88.84,64.55,64.55-88.84-43.29-31.45-64.55,88.84,33.94-104.44-50.89-16.53-33.94,104.44v-109.82h-53.5v109.82l-33.93-104.44-50.89,16.53,33.94,104.44-64.55-88.84-43.29,31.45,64.55,88.84-88.84-64.55-31.45,43.29,88.84,64.55-104.44-33.93-16.53,50.89,104.44,33.94h-109.82v53.5h109.81l-104.44,33.93,16.53,50.89,104.44-33.94-88.85,64.55,31.45,43.29,88.84-64.55-64.55,88.84,43.29,31.45,64.55-88.84-33.93,104.44,50.89,16.53,33.94-104.44v109.82h53.5v-109.81l33.93,104.44,50.89-16.53-33.94-104.44,64.55,88.84,43.29-31.45-64.55-88.84,88.85,64.55,31.45-43.29-88.84-64.55,104.44,33.94,16.53-50.89-104.44-33.94h109.82v-53.5Z"/>
          <path d="M999.91,1287.07c-1.28,0-2.54-.61-3.32-1.75-1.25-1.83-.78-4.33,1.05-5.58l53.4-36.47c1.83-1.25,4.33-.78,5.58,1.05,1.25,1.83.78,4.33-1.05,5.58l-53.4,36.47c-.69.47-1.48.7-2.26.7Z"/>
          <path d="M1111.12,1323.97c-.06,0-.12,0-.18,0-2.22-.1-3.93-1.97-3.84-4.19l2.75-62.95c.1-2.22,1.99-3.94,4.19-3.84,2.22.1,3.93,1.97,3.84,4.19l-2.75,62.95c-.09,2.15-1.87,3.84-4.01,3.84Z"/>
          <path d="M1186.96,1282.19c-1,0-1.99-.37-2.77-1.11l-28-26.7c-1.6-1.53-1.66-4.07-.14-5.68,1.53-1.6,4.07-1.66,5.68-.13l28,26.7c1.6,1.53,1.66,4.07.14,5.68-.79.83-1.85,1.24-2.91,1.24Z"/>
          <path d="M1146.1,1178.83c-2.09,0-3.85-1.61-4-3.72-.16-2.21,1.5-4.13,3.71-4.3l53.73-3.91c2.23-.14,4.13,1.5,4.3,3.71.16,2.21-1.5,4.13-3.71,4.3l-53.73,3.91c-.1,0-.2.01-.3.01Z"/>
          <path d="M1162.71,1130.13c-1.11,0-2.21-.46-3.01-1.35-1.47-1.66-1.32-4.2.34-5.67l49.98-44.28c1.66-1.47,4.19-1.32,5.67.34,1.47,1.66,1.32,4.2-.34,5.67l-49.98,44.28c-.76.68-1.71,1.01-2.66,1.01Z"/>
          <path d="M1126.24,1094.31c-.19,0-.38-.01-.57-.04-2.19-.31-3.72-2.35-3.41-4.54l5.21-36.47c.31-2.19,2.35-3.72,4.54-3.41,2.19.31,3.72,2.35,3.41,4.54l-5.21,36.47c-.29,2-2,3.45-3.97,3.45Z"/>
          <path d="M1100.52,1139.25c-1.36,0-2.68-.69-3.44-1.94l-33.86-56c-1.15-1.9-.54-4.37,1.36-5.51,1.9-1.15,4.37-.54,5.51,1.36l33.86,56c1.15,1.9.54,4.37-1.36,5.51-.65.39-1.37.58-2.07.58Z"/>
          <path d="M1022.69,1141.2c-.84,0-1.69-.26-2.42-.81l-29.3-22.14c-1.77-1.34-2.12-3.85-.78-5.62,1.34-1.77,3.85-2.12,5.62-.78l29.3,22.14c1.77,1.34,2.12,3.85.78,5.62-.79,1.04-1.99,1.59-3.21,1.59Z"/>
          <path d="M1069.91,1196.33h-65.12c-2.22,0-4.01-1.8-4.01-4.01s1.8-4.01,4.01-4.01h65.12c2.22,0,4.01,1.8,4.01,4.01s-1.8,4.01-4.01,4.01Z"/>
          <path d="M969.3,1238.23c-1.64,0-3.17-1.01-3.77-2.63-.76-2.08.3-4.39,2.39-5.15l35.49-13.02c2.08-.76,4.39.3,5.15,2.39.76,2.08-.3,4.39-2.39,5.15l-35.49,13.02c-.46.17-.92.25-1.38.25Z"/>
          <path d="M1239.3,1220.32c-.15,0-.31,0-.47-.03l-50.79-5.86c-2.2-.25-3.78-2.25-3.53-4.45.25-2.2,2.26-3.78,4.45-3.53l50.79,5.86c2.2.25,3.78,2.25,3.53,4.45-.24,2.05-1.97,3.55-3.98,3.55Z"/>
        </g>
        <g>
          <path class="cls-4" d="M557.44,958.63h-109.82l104.44-33.93-16.53-50.89-104.44,33.94,88.84-64.55-31.45-43.29-88.84,64.55,64.55-88.84-43.29-31.45-64.55,88.84,33.94-104.44-50.89-16.53-33.94,104.44v-109.82h-53.5v109.82l-33.93-104.44-50.89,16.53,33.94,104.44-64.55-88.84-43.29,31.45,64.55,88.84-88.84-64.55-31.45,43.29,88.84,64.55-104.44-33.93-16.53,50.89,104.44,33.94H0v53.5h109.81l-104.44,33.93,16.53,50.89,104.44-33.94-88.85,64.55,31.45,43.29,88.84-64.55-64.55,88.84,43.29,31.45,64.55-88.84-33.93,104.44,50.89,16.53,33.94-104.44v109.82h53.5v-109.81l33.93,104.44,50.89-16.53-33.94-104.44,64.55,88.84,43.29-31.45-64.55-88.84,88.85,64.55,31.45-43.29-88.84-64.55,104.44,33.93,16.53-50.89-104.44-33.94h109.82v-53.5Z"/>
          <path d="M167.51,1080.14c-1.28,0-2.54-.61-3.32-1.75-1.25-1.83-.78-4.33,1.05-5.58l53.4-36.47c1.83-1.25,4.33-.78,5.58,1.05,1.25,1.83.78,4.33-1.05,5.58l-53.4,36.47c-.69.47-1.48.7-2.26.7Z"/>
          <path d="M278.72,1117.04c-.06,0-.12,0-.18,0-2.21-.1-3.93-1.97-3.84-4.19l2.75-62.95c.1-2.22,2-3.92,4.19-3.84,2.21.1,3.93,1.97,3.84,4.19l-2.75,62.95c-.09,2.15-1.87,3.84-4.01,3.84Z"/>
          <path d="M354.57,1075.25c-1,0-1.99-.37-2.77-1.11l-28-26.7c-1.6-1.53-1.66-4.07-.14-5.68,1.53-1.6,4.07-1.66,5.68-.14l28,26.7c1.6,1.53,1.66,4.07.14,5.68-.79.83-1.85,1.24-2.91,1.24Z"/>
          <path d="M313.7,971.89c-2.08,0-3.85-1.61-4-3.72-.16-2.21,1.5-4.13,3.71-4.3l53.73-3.91c2.24-.16,4.13,1.5,4.3,3.71.16,2.21-1.5,4.13-3.71,4.3l-53.73,3.91c-.1,0-.2.01-.3.01Z"/>
          <path d="M330.31,923.19c-1.11,0-2.21-.46-3.01-1.35-1.47-1.66-1.32-4.2.34-5.67l49.98-44.28c1.66-1.47,4.2-1.32,5.67.34,1.47,1.66,1.32,4.2-.34,5.67l-49.98,44.28c-.76.68-1.71,1.01-2.66,1.01Z"/>
          <path d="M293.85,887.38c-.19,0-.38-.01-.57-.04-2.19-.31-3.72-2.35-3.41-4.54l5.21-36.47c.31-2.19,2.35-3.72,4.54-3.41,2.19.31,3.72,2.35,3.41,4.54l-5.21,36.47c-.29,2-2,3.45-3.97,3.45Z"/>
          <path d="M268.12,932.31c-1.36,0-2.68-.69-3.44-1.94l-33.86-56c-1.15-1.9-.54-4.37,1.36-5.51,1.9-1.15,4.37-.54,5.51,1.36l33.86,56c1.15,1.9.54,4.37-1.36,5.51-.65.39-1.37.58-2.07.58Z"/>
          <path d="M190.3,934.26c-.84,0-1.69-.26-2.42-.81l-29.3-22.14c-1.77-1.34-2.12-3.85-.78-5.62,1.34-1.77,3.85-2.12,5.62-.78l29.3,22.14c1.77,1.34,2.12,3.85.78,5.62-.79,1.04-1.99,1.59-3.21,1.59Z"/>
          <path d="M237.51,989.4h-65.12c-2.22,0-4.01-1.8-4.01-4.01s1.8-4.01,4.01-4.01h65.12c2.22,0,4.01,1.8,4.01,4.01s-1.8,4.01-4.01,4.01Z"/>
          <path d="M136.9,1031.3c-1.64,0-3.17-1.01-3.77-2.63-.76-2.08.3-4.39,2.39-5.15l35.49-13.02c2.09-.76,4.39.31,5.15,2.39.76,2.08-.3,4.39-2.39,5.15l-35.49,13.02c-.46.17-.92.25-1.38.25Z"/>
          <path d="M406.9,1013.39c-.15,0-.31,0-.47-.03l-50.79-5.86c-2.2-.25-3.78-2.25-3.53-4.45.25-2.2,2.25-3.78,4.45-3.53l50.79,5.86c2.2.25,3.78,2.25,3.53,4.45-.24,2.05-1.97,3.56-3.98,3.56Z"/>
        </g>
      </g>
      <g>
        <path class="cls-3" d="M3496.35,1035.93l-227.16,178.83c-46.05,36.25-59.15,100.47-30.98,151.86h0c23.92,43.63,72.3,67.96,121.59,61.14l207.39-28.71-70.85-363.11Z"/>
        <g>
          <path class="cls-3" d="M3730.27,1221.29h0c-43.31-35-50.31-98.38-15.68-141.99l294.54-370.97c35.22-43.58,99.1-50.35,142.68-15.13h0c43.58,35.22,50.35,99.1,15.13,142.68l-293.44,369.58c-35.06,44.15-99.38,51.26-143.23,15.82Z"/>
          <g>
            <path class="cls-4" d="M4252.07,886.18l-8.68-109.47,42.08,101.43,49.42-20.5-42.08-101.43,71.37,83.46,40.66-34.77-71.37-83.46,93.67,57.32,27.93-45.64-93.67-57.32,106.8,25.57,12.46-52.03-106.8-25.57,109.47-8.68-4.23-53.34-109.47,8.68,101.43-42.08-20.5-49.42-101.43,42.08,83.46-71.37-34.77-40.66-83.46,71.37,57.32-93.67-45.64-27.93-57.32,93.67,25.57-106.8-52.03-12.46-25.57,106.8-8.68-109.47-53.34,4.23,8.68,109.47-42.08-101.43-49.42,20.5,42.08,101.44-71.37-83.47-40.66,34.77,71.37,83.46-93.67-57.32-27.93,45.64,93.66,57.32-106.79-25.57-12.46,52.03,106.8,25.57-109.47,8.68,4.23,53.34,109.47-8.68-101.43,42.08,20.5,49.42,101.43-42.08-83.46,71.37,34.77,40.66,83.46-71.37-57.33,93.67,45.64,27.93,57.32-93.67-25.57,106.8,52.03,12.46,25.57-106.8,8.68,109.47,53.34-4.23Z"/>
            <path d="M4144.7,561.11c-1.17,0-2.34-.51-3.13-1.5l-40.57-50.35c-1.39-1.73-1.12-4.25.61-5.64,1.73-1.39,4.25-1.12,5.65.61l40.57,50.35c1.39,1.73,1.12,4.25-.61,5.64-.74.6-1.63.89-2.52.89Z"/>
            <path d="M4076.13,624.55c-2.15,0-3.93-1.7-4.01-3.87-.08-2.22,1.65-4.08,3.87-4.15l62.97-2.24c2.23-.08,4.08,1.65,4.15,3.87.08,2.22-1.65,4.08-3.87,4.15l-62.97,2.24s-.1,0-.15,0Z"/>
            <path d="M4123.78,696.86c-.89,0-1.79-.29-2.53-.9-1.72-1.4-1.98-3.93-.58-5.65l24.4-30.03c1.4-1.72,3.93-1.98,5.65-.58,1.72,1.4,1.98,3.93.58,5.65l-24.4,30.03c-.79.98-1.95,1.48-3.12,1.48Z"/>
            <path d="M4231.72,701.2c-1.95,0-3.66-1.42-3.96-3.41l-8.14-53.25c-.33-2.19,1.17-4.24,3.36-4.58,2.18-.34,4.24,1.17,4.57,3.36l8.14,53.25c.33,2.19-1.17,4.24-3.36,4.58-.21.03-.41.05-.61.05Z"/>
            <path d="M4321.54,706.98c-1,0-2.01-.37-2.78-1.12l-48.09-46.32c-1.6-1.54-1.65-4.08-.11-5.68,1.54-1.6,4.08-1.64,5.68-.11l48.09,46.32c1.6,1.54,1.65,4.08.11,5.68-.79.82-1.84,1.23-2.89,1.23Z"/>
            <path d="M4343.04,623.78c-.08,0-.17,0-.26,0l-36.77-2.31c-2.21-.14-3.89-2.05-3.75-4.26.14-2.21,2.03-3.9,4.26-3.76l36.77,2.31c2.21.14,3.89,2.05,3.75,4.26-.13,2.13-1.9,3.76-4,3.76Z"/>
            <path d="M4259.45,599.38c-1.25,0-2.48-.58-3.26-1.67-1.29-1.8-.88-4.31.92-5.6l53.15-38.18c1.8-1.29,4.31-.88,5.6.92,1.29,1.8.88,4.31-.92,5.6l-53.15,38.18c-.71.51-1.53.75-2.34.75Z"/>
            <path d="M4251.34,521.96c-.74,0-1.49-.2-2.15-.63-1.87-1.19-2.42-3.67-1.23-5.54l19.76-30.96c1.19-1.87,3.67-2.42,5.54-1.23,1.87,1.19,2.42,3.67,1.23,5.54l-19.76,30.96c-.77,1.2-2.06,1.86-3.39,1.86Z"/>
            <path d="M4200.11,573.38c-2.07,0-3.83-1.6-4-3.7l-5.15-64.92c-.18-2.21,1.47-4.14,3.68-4.32,2.24-.17,4.15,1.48,4.32,3.68l5.15,64.92c.18,2.21-1.47,4.14-3.68,4.32-.11,0-.22.01-.32.01Z"/>
            <path d="M4166.19,510.74c-1.52,0-2.97-.87-3.65-2.34l-15.79-34.35c-.93-2.01-.04-4.4,1.97-5.32,2.02-.93,4.4-.04,5.32,1.97l15.79,34.35c.93,2.01.04,4.4-1.97,5.32-.54.25-1.11.37-1.67.37Z"/>
            <path d="M4189.59,744.13s-.1,0-.15,0c-2.22-.08-3.95-1.94-3.87-4.16l1.83-51.1c.08-2.22,1.88-3.98,4.16-3.87,2.22.08,3.95,1.94,3.87,4.16l-1.83,51.1c-.08,2.17-1.86,3.87-4.01,3.87Z"/>
          </g>
        </g>
        <polygon class="cls-6" points="3897.09 1458.67 3856.15 979.86 3496.35 1035.93 3446.17 1457.51 3897.09 1458.67"/>
        <polygon class="cls-6" points="3361 2010.85 3582.71 2010.85 3613.06 1846.79 3399.32 1803.73 3361 2010.85"/>
        <polygon class="cls-3" points="3650.5 1601.75 3436.69 1601.75 3399.32 1803.73 3613.06 1846.79 3650.75 1643.1 3658.4 1601.75 3650.5 1601.75"/>
        <path class="cls-7" d="M3582.71,2010.85v118.48h-329.72s-14.07-104.63,119.91-182.78l209.81,64.3Z"/>
        <polygon class="cls-6" points="3979.52 2011.59 3757.81 2011.59 3727.46 1847.53 3941.2 1804.47 3979.52 2011.59"/>
        <polygon class="cls-3" points="3690.02 1602.5 3903.83 1602.5 3941.2 1804.47 3727.46 1847.53 3689.77 1643.84 3682.12 1602.5 3690.02 1602.5"/>
        <path class="cls-7" d="M3757.81,2011.59v118.48h329.72s14.07-104.63-119.91-182.78l-209.81,64.3Z"/>
        <polygon class="cls-2" points="3446.17 1457.51 3414.45 1655.08 3658.4 1669.89 3669.25 1625.4 3682.12 1669.89 3922.89 1655.65 3897.09 1458.67 3446.17 1457.51"/>
        <polygon class="cls-2" points="3853.49 1479.07 3810.71 1212.79 3529.41 1212.79 3495.62 1496.74 3853.49 1479.07"/>
        <polygon class="cls-2" points="3730.66 1235.72 3738.38 1039.27 3820.85 1035.93 3810.71 1212.79 3730.66 1235.72"/>
        <polygon class="cls-2" points="3528.07 1254.22 3535.79 1057.77 3618.25 1054.43 3608.11 1231.29 3528.07 1254.22"/>
        <g>
          <g>
            <g>
              <g>
                <g>
                  <path class="cls-3" d="M3396.77,916.61c-11.58-43.22-11.62-86.81-2.02-127.5,18.74-79.44,74.24-147.84,152.47-180.89l344.95,337.42c-29.52,73.98-92.35,133.59-175.2,155.8-139.46,37.38-282.81-45.36-320.19-184.82Z"/>
                  <path d="M3581.59,596.42c96.24-25.8,194.33,5.62,258.17,73.4,28.67,30.44,50.44,68.2,62.02,111.42,15.17,56.61,10.55,113.85-9.62,164.39l-344.95-337.42c11.02-4.66,22.49-8.61,34.37-11.8Z"/>
                </g>
                <g>
                  <g>
                    <path class="cls-6" d="M3583.16,842.53c-2.32,28.18-17.58,50.8-36.24,56.32,6.39,6.9,14.21,11.22,22.89,11.93,25.24,2.08,48.24-27.08,51.37-65.12,3.13-38.04-14.8-70.56-40.04-72.64-8.68-.71-17.1,2.27-24.53,8.03,17.51,8.49,28.87,33.29,26.55,61.48Z"/>
                    <path d="M3529.77,838.14c-2.05,24.96,4.96,47.54,17.15,60.71,18.66-5.52,33.92-28.13,36.24-56.32,2.32-28.19-9.05-52.99-26.55-61.48-14.18,11-24.78,32.13-26.84,57.09Z"/>
                  </g>
                  <g>
                    <path class="cls-6" d="M3657.54,848.64c-2.32,28.18-17.58,50.8-36.24,56.32,6.39,6.9,14.21,11.22,22.89,11.93,25.24,2.08,48.24-27.08,51.37-65.12s-14.8-70.56-40.04-72.64c-8.68-.71-17.1,2.27-24.53,8.03,17.51,8.49,28.87,33.29,26.55,61.48Z"/>
                    <path d="M3604.15,844.25c-2.05,24.96,4.96,47.54,17.15,60.71,18.66-5.52,33.92-28.13,36.24-56.32,2.32-28.19-9.05-52.99-26.55-61.48-14.18,11-24.78,32.13-26.84,57.09Z"/>
                  </g>
                </g>
                <path d="M3573.16,935.8c4.06,15.2,17.53,26.75,34.09,27.62,17.13.9,32.17-9.91,37.35-25.43"/>
              </g>
              <circle class="cls-1" cx="3728.88" cy="932.86" r="36.65" transform="translate(432.5308 2909.945) rotate(-45)"/>
              <circle class="cls-1" cx="3489.07" cy="910.98" r="36.65" transform="translate(-116.63 861.75) rotate(-13.85)"/>
            </g>
            <circle class="cls-3" cx="3877.82" cy="914.92" r="84.6"/>
            <path class="cls-7" d="M3431.04,699.6l479.72,110.79s29.49-201.04-196.71-250.67-283.01,139.87-283.01,139.87Z"/>
            <path class="cls-7" d="M3557.41,690.12l-195.08-44.98c-10.26-2.37-20.49,4.04-22.84,14.31h0c-2.36,10.3,4.12,20.55,14.44,22.84l224.77,49.83-21.28-42Z"/>
            <path d="M3695.91,724.49c-.29,0-.59-.03-.89-.1l-227.49-51.46c-2.16-.49-3.52-2.64-3.03-4.8.49-2.16,2.65-3.52,4.8-3.03l227.49,51.46c2.16.49,3.52,2.64,3.03,4.8-.42,1.86-2.08,3.13-3.91,3.13Z"/>
            <path d="M3844.88,763.42c-2.17,0-3.95-1.73-4.01-3.91-1.73-64.44-33.21-113.54-33.52-114.02-1.21-1.86-.68-4.34,1.17-5.55,1.85-1.21,4.34-.69,5.55,1.17,1.35,2.07,33.03,51.4,34.82,118.19.06,2.22-1.69,4.06-3.91,4.12-.04,0-.07,0-.11,0Z"/>
            <circle class="cls-7" cx="3710.77" cy="562.3" r="23.76" transform="translate(689.25 2788.6025) rotate(-45)"/>
          </g>
          <path d="M3877.82,1003.54c-6.01,0-12.02-.61-17.85-1.8-2.17-.44-3.57-2.57-3.13-4.74.44-2.17,2.56-3.57,4.74-3.13,5.31,1.09,10.77,1.64,16.24,1.64,44.44,0,80.59-36.15,80.59-80.59,0-31.08-17.37-58.86-45.33-72.49-1.99-.97-2.82-3.37-1.85-5.37.97-1.99,3.38-2.82,5.37-1.85,30.74,14.98,49.84,45.52,49.84,79.7,0,48.86-39.75,88.62-88.62,88.62Z"/>
        </g>
        <g>
          <path class="cls-4" d="M3512.93,1205.52h-109.82l104.44-33.93-16.53-50.89-104.44,33.94,88.84-64.55-31.45-43.29-88.84,64.55,64.55-88.84-43.29-31.45-64.55,88.84,33.94-104.44-50.89-16.53-33.94,104.44v-109.82h-53.5v109.82l-33.93-104.44-50.89,16.53,33.94,104.44-64.55-88.84-43.29,31.45,64.55,88.84-88.84-64.55-31.45,43.29,88.84,64.55-104.44-33.93-16.53,50.89,104.44,33.94h-109.82v53.5h109.82l-104.44,33.93,16.53,50.89,104.44-33.94-88.85,64.55,31.45,43.29,88.84-64.55-64.55,88.84,43.29,31.45,64.55-88.84-33.93,104.44,50.89,16.53,33.94-104.44v109.82h53.5v-109.81l33.93,104.44,50.89-16.53-33.94-104.44,64.55,88.84,43.29-31.45-64.55-88.84,88.85,64.55,31.45-43.29-88.84-64.55,104.44,33.93,16.53-50.89-104.44-33.94h109.82v-53.5Z"/>
          <path d="M3123,1327.02c-1.28,0-2.54-.61-3.32-1.75-1.25-1.83-.78-4.33,1.05-5.58l53.4-36.47c1.83-1.25,4.33-.78,5.58,1.05,1.25,1.83.78,4.33-1.05,5.58l-53.4,36.47c-.69.47-1.48.7-2.26.7Z"/>
          <path d="M3234.22,1363.92c-.06,0-.12,0-.18,0-2.22-.1-3.93-1.97-3.84-4.19l2.75-62.95c.1-2.21,1.97-3.92,4.19-3.84,2.22.1,3.93,1.97,3.84,4.19l-2.75,62.95c-.09,2.15-1.87,3.84-4.01,3.84Z"/>
          <path d="M3310.06,1322.14c-1,0-1.99-.37-2.77-1.11l-28-26.7c-1.6-1.53-1.66-4.07-.13-5.68,1.53-1.6,4.07-1.66,5.68-.13l28,26.7c1.6,1.53,1.66,4.07.13,5.68-.79.83-1.85,1.24-2.91,1.24Z"/>
          <path d="M3269.19,1218.78c-2.08,0-3.85-1.61-4-3.72-.16-2.21,1.5-4.13,3.71-4.3l53.73-3.91c2.22-.14,4.13,1.5,4.3,3.71.16,2.21-1.5,4.13-3.71,4.3l-53.73,3.91c-.1,0-.2.01-.3.01Z"/>
          <path d="M3285.8,1170.08c-1.11,0-2.21-.46-3.01-1.35-1.47-1.66-1.32-4.2.34-5.67l49.98-44.28c1.66-1.47,4.2-1.32,5.67.34,1.47,1.66,1.32,4.2-.34,5.67l-49.98,44.28c-.76.68-1.71,1.01-2.66,1.01Z"/>
          <path d="M3249.34,1134.26c-.19,0-.38-.01-.57-.04-2.2-.31-3.72-2.35-3.41-4.54l5.21-36.47c.31-2.2,2.36-3.72,4.54-3.41,2.2.31,3.72,2.35,3.41,4.54l-5.21,36.47c-.29,2-2,3.45-3.97,3.45Z"/>
          <path d="M3223.61,1179.19c-1.36,0-2.68-.69-3.44-1.94l-33.86-56c-1.15-1.9-.54-4.37,1.36-5.51,1.9-1.15,4.36-.54,5.51,1.36l33.86,56c1.15,1.9.54,4.37-1.36,5.51-.65.39-1.37.58-2.07.58Z"/>
          <path d="M3145.79,1181.15c-.84,0-1.69-.26-2.42-.81l-29.3-22.14c-1.77-1.34-2.12-3.85-.78-5.62,1.34-1.77,3.85-2.12,5.62-.78l29.3,22.14c1.77,1.34,2.12,3.85.78,5.62-.79,1.04-1.99,1.59-3.21,1.59Z"/>
          <path d="M3193,1236.28h-65.12c-2.22,0-4.01-1.8-4.01-4.01s1.8-4.01,4.01-4.01h65.12c2.22,0,4.01,1.8,4.01,4.01s-1.8,4.01-4.01,4.01Z"/>
          <path d="M3092.39,1278.18c-1.64,0-3.17-1.01-3.77-2.63-.76-2.08.3-4.39,2.39-5.15l35.49-13.02c2.08-.76,4.39.3,5.15,2.39.76,2.08-.3,4.39-2.39,5.15l-35.49,13.02c-.46.17-.92.25-1.38.25Z"/>
          <path d="M3362.39,1260.27c-.15,0-.31,0-.47-.03l-50.79-5.86c-2.2-.25-3.78-2.25-3.53-4.45.25-2.2,2.25-3.78,4.45-3.53l50.79,5.86c2.2.25,3.78,2.25,3.53,4.45-.24,2.05-1.97,3.55-3.98,3.55Z"/>
        </g>
        <path d="M3671.05,1397.73c-.42,0-.83,0-1.25-.01-17.43-.31-32.34-6.77-44.31-19.22-14.46-15.04-24.42-38.33-29.6-69.21-3.81-22.77-3.47-40.95-3.46-41.72.05-2.18,1.83-3.93,4.01-3.93h146.85c2.18,0,3.97,1.75,4.01,3.93.02.79.36,19.52-3.51,42.78-5.26,31.56-15.38,55.05-30.09,69.8-11.63,11.67-25.97,17.58-42.65,17.58ZM3600.48,1271.67c.27,15.46,3.2,72.58,30.81,101.27,10.44,10.85,23.44,16.48,38.65,16.75,14.88.26,27.75-4.85,38.07-15.2,28.07-28.16,30.99-87.08,31.25-102.83h-138.78Z"/>
        <path d="M3671.63,1621.55c-.27,0-.54-.03-.82-.08-2.17-.45-3.57-2.57-3.12-4.74l10.49-50.73c.45-2.17,2.57-3.58,4.74-3.12,2.17.45,3.57,2.57,3.12,4.74l-10.49,50.73c-.39,1.9-2.06,3.2-3.93,3.2Z"/>
      </g>
      <polygon class="cls-7" points="1026.6 344.42 1008.04 395.15 1053.9 413.84 1069.91 379.13 1026.6 344.42"/>
      <polygon class="cls-7" points="2928.29 309.71 2909.73 360.44 2955.59 379.13 2971.6 344.42 2928.29 309.71"/>
      <polygon class="cls-7" points="3654.87 340.39 3662.36 393.88 3711.63 388.79 3709.41 350.63 3654.87 340.39"/>
      <polygon class="cls-7" points="2550.35 44.26 2503.38 17.57 2477.37 59.72 2508.96 81.24 2550.35 44.26"/>
      <polygon class="cls-2" points="655.19 367.13 599.17 379.13 599.17 424.52 676.17 424.52 655.19 367.13"/>
      <polygon class="cls-2" points="1874.61 123.53 1855.37 69.57 1810.38 75.53 1820.48 151.86 1874.61 123.53"/>
      <polygon class="cls-2" points="2584.22 386.46 2535.49 356.34 2504.07 389.1 2559.65 442.4 2584.22 386.46"/>
      <polygon class="cls-2" points="3396.17 109.15 3391.45 52.06 3346.43 46.25 3336.57 122.61 3396.17 109.15"/>
      <polygon class="cls-5" points="1162.87 0 1128.84 17.57 1158.96 69.57 1188.5 49.41 1162.87 0"/>
      <polygon class="cls-5" points="1964.28 250.11 1957.04 287.71 2016.52 296.22 2018.95 260.54 1964.28 250.11"/>
      <polygon class="cls-5" points="2840.46 86.26 2854.04 122.06 2909.13 98.06 2892.46 66.43 2840.46 86.26"/>
    </g>
  </g>
</svg>