<?xml version="1.0" encoding="UTF-8"?>
<svg id="Calque_2" data-name="Calque 2" xmlns="http://www.w3.org/2000/svg" viewBox="0 0 1544 1283.34">
  <defs>
    <style>
      .cls-1 {
        fill: #a4d348;
      }

      .cls-2 {
        fill: #b57480;
      }

      .cls-3 {
        fill: #4a5696;
      }

      .cls-4 {
        fill: #3a3030;
      }

      .cls-5 {
        fill: #fff;
      }

      .cls-6 {
        fill: #514242;
      }

      .cls-7 {
        fill: #ce8292;
      }
    </style>
  </defs>
  <g id="Layer_1" data-name="Layer 1">
    <g>
      <g>
        <path class="cls-6" d="M756.47,844.8c-371.42,3.47-680.76,92.99-753.44,209.08-1.92-7.2-2.95-14.48-3.02-21.86-1.32-140.79,343.25-258.15,769.61-262.14,426.36-3.99,773.06,106.91,774.38,247.7.17,18.14-5.42,35.89-16.17,53.06-34.83-130.23-367.32-229.62-771.36-225.85Z"/>
        <path class="cls-4" d="M774.38,1279.73c-404.04,3.78-736.53-95.61-771.36-225.85,72.69-116.09,382.02-205.6,753.44-209.08,404.04-3.78,736.53,95.61,771.36,225.85-72.69,116.09-382.02,205.6-753.44,209.08Z"/>
      </g>
      <g>
        <path class="cls-3" d="M1076.39,1230.87l1.76,25.48c-93.16,14.08-195.84,22.37-303.77,23.38-79.21.74-155.67-2.49-227.68-9.13l1.44-39.73h528.25Z"/>
        <path class="cls-2" d="M819.93,58.88h0c-51.55,65.12-42.71,159.27,20.06,213.65l153.79,123.21-209.15,297.64,308.26,146.68,231.21-361.44c49.42-81.5,31.87-186.89-41.29-247.98l-241.32-194.25c-66.99-56.3-167.25-46.13-221.56,22.48Z"/>
        <polygon class="cls-1" points="1064.96 656.85 1076.39 1230.87 540.61 1230.87 567.81 684.68 1064.96 656.85"/>
        <polygon class="cls-1" points="1047.7 995.49 1224.89 713.94 980.68 580.38 913.65 664.08 1047.7 995.49"/>
        <polygon class="cls-1" points="547.35 680.8 391.92 850.95 652.76 1106.04 862.29 827.43 547.35 680.8"/>
        <path class="cls-2" d="M177.83,1080.35l214.09-229.39,171.3,165.07-1.01,28.24c45.26,19.21,75.75,63.89,75.75,114.48v.81c0,68.37-55.42,123.79-123.79,123.79h-247.25c-66.85,0-121.05-54.2-121.05-121.05h0c0-30.35,11.4-59.6,31.95-81.94Z"/>
        <path d="M321.36,1026.45h193.58c3,0,5.44-2.44,5.44-5.44s-2.44-5.44-5.44-5.44h-193.58c-3,0-5.44,2.44-5.44,5.44s2.44,5.44,5.44,5.44Z"/>
        <path d="M583.69,990.27c3,0,5.44-2.44,5.44-5.44v-72.36c0-3.01-2.44-5.44-5.44-5.44s-5.44,2.43-5.44,5.44v72.36c0,3.01,2.44,5.44,5.44,5.44Z"/>
        <path d="M1050.72,934.19c3,0,5.44-2.44,5.44-5.44v-108.75c0-3.01-2.44-5.44-5.44-5.44s-5.44,2.44-5.44,5.44v108.75c0,3.01,2.44,5.44,5.44,5.44Z"/>
        <polygon class="cls-5" points="905.71 737.16 862.29 995.49 807.08 744.21 905.71 737.16"/>
        <g>
          <g>
            <g>
              <g>
                <path d="M474.72,612.59c-4.95-9.02-9.56-18.31-13.77-27.89-3.45-7.84-6.66-15.83-9.58-24.02-7.23-20.28-12.48-40.78-15.89-61.29-14.99-90.26,6.04-180.82,54.74-254.06,40.84-61.41,101.12-110.64,175.93-137.3,57.12-20.35,115.99-25.15,172.01-16.61,68.36,10.42,132.44,40.74,183.88,86.94l-320.74,5.42s-51.15,300.72-226.58,428.81Z"/>
                <path class="cls-2" d="M701.3,183.78l320.74-5.42c6.98,6.27,13.74,12.83,20.24,19.68,10.61,11.19,20.56,23.11,29.72,35.77,19.3,26.65,35.19,56.46,46.8,89.03,5.6,15.7,10.01,31.54,13.31,47.41,23.37,112.69-10.18,227.26-84.34,309.32-37.99,42.04-86.63,75.56-143.75,95.92-125.69,44.79-259.9,14.29-353.4-68.08-30.06-26.49-55.89-58.36-75.89-94.8,175.43-128.09,226.58-428.81,226.58-428.81Z"/>
              </g>
              <g>
                <path class="cls-5" d="M841.94,434.7c16.27,34.7,46.34,56.21,72.65,54.4-4.85,11.79-12.74,20.96-23.43,25.97-31.08,14.57-74.07-11.59-96.02-58.43-21.96-46.84-14.56-96.61,16.51-111.18,10.69-5.01,22.79-5.2,34.95-1.39-18.22,19.06-20.93,55.93-4.66,90.64Z"/>
                <path d="M907.68,403.88c14.4,30.73,16.18,62.72,6.91,85.21-26.31,1.81-56.38-19.69-72.65-54.4-16.27-34.7-13.56-71.57,4.66-90.64,23.21,7.27,46.67,29.09,61.07,59.82Z"/>
              </g>
              <g>
                <path class="cls-5" d="M743.29,479.3c16.27,34.7,46.34,56.21,72.65,54.4-4.85,11.79-12.74,20.96-23.43,25.97-31.08,14.57-74.07-11.59-96.02-58.43-21.96-46.84-14.56-96.61,16.51-111.18,10.69-5.01,22.79-5.2,34.95-1.39-18.22,19.06-20.93,55.93-4.66,90.64Z"/>
                <path d="M809.02,448.48c14.4,30.73,16.18,62.72,6.91,85.21-26.31,1.81-56.38-19.69-72.65-54.4-16.27-34.7-13.56-71.57,4.66-90.64,23.21,7.27,46.67,29.09,61.07,59.82Z"/>
              </g>
              <circle class="cls-7" cx="692.81" cy="613.55" r="49.66" transform="translate(-230.92 669.59) rotate(-45)"/>
              <circle class="cls-7" cx="1009.52" cy="462.4" r="49.66" transform="translate(221.8413 1245.0303) rotate(-69.4252)"/>
              <path d="M691.88,148.85s121.11-15.5,81.22,156.25l-39.03-72.06s27.8,77.6-78.89,113.47l-53.32-70.33,90.03-127.33Z"/>
              <path d="M859.69,599.17c7.49,14.12,20.75,21.76,29.62,17.06,8.87-4.7,9.99-19.96,2.5-34.09-7.49-14.12-20.75-21.76-29.62-17.06-8.87,4.7-9.99,19.96-2.5,34.09Z"/>
            </g>
            <circle class="cls-2" cx="488.6" cy="622.5" r="114.65" transform="translate(-297.06 527.82) rotate(-45)"/>
          </g>
          <path d="M1102.52,604.46c1.9,0,3.74-.99,4.74-2.76,1.54-2.71,37.63-67.4,37.45-148.76-.05-22.92-.92-53.16-7.28-83.8-3.37-16.25-7.92-32.44-13.51-48.13-11.53-32.37-27.52-62.78-47.52-90.39-9.15-12.64-19.31-24.86-30.18-36.32-2.07-2.18-5.51-2.27-7.69-.2-2.18,2.07-2.27,5.51-.2,7.69,10.55,11.12,20.39,22.96,29.26,35.21,19.39,26.77,34.89,56.27,46.08,87.66,5.42,15.22,9.83,30.93,13.1,46.69,6.16,29.68,7,59.21,7.05,81.62.17,78.37-35.68,142.73-36.04,143.38-1.48,2.61-.56,5.93,2.06,7.41.85.48,1.77.71,2.67.71Z"/>
        </g>
        <path d="M741.82,898.86c1.06,0,2.12-.31,3.04-.93l65.26-43.89c2.49-1.68,3.15-5.06,1.48-7.55-1.68-2.49-5.06-3.16-7.55-1.48l-57.62,38.75-6.32-71.29c-.26-2.99-2.92-5.18-5.9-4.94-2.99.27-5.2,2.91-4.94,5.9l7.13,80.46c.17,1.92,1.34,3.6,3.08,4.43.74.35,1.55.53,2.34.53Z"/>
        <path d="M959.85,879.81c.97,0,1.95-.26,2.82-.78,1.77-1.07,2.78-3.04,2.61-5.1l-7.1-86.44c-.25-2.99-2.88-5.21-5.87-4.98-2.99.25-5.22,2.87-4.98,5.87l6.21,75.55-44.91-28.46c-2.54-1.61-5.9-.85-7.51,1.68-1.61,2.54-.85,5.9,1.68,7.51l54.14,34.3c.89.56,1.9.84,2.91.84Z"/>
      </g>
    </g>
  </g>
</svg>