<?xml version="1.0" encoding="UTF-8"?>
<svg id="Calque_2" data-name="Calque 2" xmlns="http://www.w3.org/2000/svg" viewBox="0 0 1205.4 2198.04">
  <defs>
    <style>
      .cls-1 {
        fill: #2ebca1;
      }

      .cls-2 {
        fill: #fff;
      }

      .cls-3 {
        fill: #e8959d;
      }

      .cls-4 {
        fill: #e8acb5;
      }

      .cls-5 {
        fill: #7c5a48;
      }

      .cls-6 {
        fill: #efe7ce;
      }
    </style>
  </defs>
  <g id="Layer_1" data-name="Layer 1">
    <g>
      <path class="cls-4" d="M372.52,870.51L16.74,207.23C-21.11,136.65,7.5,48.75,79.65,13.98h0c69.19-33.34,152.34-5.04,186.81,63.6l334.16,665.35-228.09,127.58Z"/>
      <path class="cls-1" d="M451.93,644.65l-178.19,90.08,89.1,175.83,82.15,319.93,439.68-19.24,134.21-224.19-40.44-123.75c-18.19-55.65-63.45-98.22-120.11-112.96l-406.38-105.7Z"/>
      <g>
        <path class="cls-4" d="M797.02,1304.15l-41.41-108.42-310.63,34.75,83.42,328.91c24.63,97.1,132.44,146.86,222.31,102.6l233.42-114.95-11.33-288.94-175.78,46.05Z"/>
        <path class="cls-1" d="M1194.66,1562.56l-116.41-332.07-105.45,27.62,11.33,288.94,157.26,65.73c32.01,13.38,64.74-17.48,53.26-50.22Z"/>
      </g>
      <g>
        <path class="cls-4" d="M1055.38,1582.34l-84.4-279.77-304.8,13.22,104.26,408.64c9.65,37.8,28.43,72.66,54.71,101.5l59.77,65.6c55.46-8.63,152.89-59.84,170.47-309.2Z"/>
        <path class="cls-1" d="M1187.53,1750.25l-27.53-34.98c-7.01,55.84-28.26,209.79-54.01,248.41-31.62,47.43-103.9,56.47-103.9,56.47l84.29,160.15c14.87,28.26,57.17,21.25,62.13-10.3l55.88-355.22c3.61-22.92-2.5-46.31-16.85-64.54Z"/>
        <path class="cls-6" d="M1105.99,1963.68c25.75-38.63,47.01-192.58,54.01-248.41l-104.63-132.93c-17.58,249.35-115.01,300.56-170.47,309.2l117.18,128.62s72.28-9.04,103.9-56.47Z"/>
      </g>
      <path class="cls-5" d="M444.98,1230.48l83.42,328.91,516.08-122.38-20.08-51.89c3.8-149.81-59.64-199.48-110.4-233.43l-469.02,78.79Z"/>
      <g>
        <path class="cls-4" d="M915.64,985.53l-4.21-10.73c-28.15-71.81-107.34-109.29-180.71-85.53h0c-77.89,25.22-119.76,109.6-92.74,186.88l56.04,160.28c32.94,94.22,133.28,146.79,229.5,120.22h0c100.65-27.79,159.9-131.7,132.56-232.48l-37.2-137.12-103.23-1.53Z"/>
        <path d="M967.87,1144.56c-2.13,0-4.11-1.34-4.83-3.47l-37.27-110.35c-.9-2.67.53-5.56,3.2-6.46s5.56.53,6.46,3.2l37.27,110.35c.9,2.67-.53,5.56-3.2,6.46-.54.18-1.09.27-1.63.27Z"/>
      </g>
      <path d="M744.73,1628.82c-2.32,0-4.42-1.6-4.96-3.96l-47.69-208.83-64.63-32.8c-2.51-1.27-3.51-4.34-2.24-6.85,1.27-2.51,4.34-3.52,6.85-2.24l66.76,33.88c1.35.68,2.32,1.93,2.66,3.41l48.22,211.15c.63,2.74-1.09,5.47-3.83,6.1-.38.09-.76.13-1.14.13Z"/>
      <polygon class="cls-2" points="561.65 771.11 607.36 923.57 653.3 771.11 561.65 771.11"/>
      <g>
        <g>
          <g>
            <g>
              <path d="M981.02,547.24c2.28-9.36,4.18-18.89,5.65-28.57,1.21-7.92,2.17-15.94,2.81-24.05,1.59-20.09,1.35-39.91-.57-59.28-8.45-85.26-49.53-162.01-111.42-216.35-51.89-45.56-118.39-75.38-192.52-81.25-56.6-4.48-111,5.53-159.56,26.91-59.26,26.08-109.81,69.11-145.05,123.41l291.3-73.28s119.54,259.41,309.36,332.45Z"/>
              <path class="cls-4" d="M671.66,214.79l-291.3,73.28c-4.78,7.37-9.3,14.95-13.5,22.72-6.87,12.7-12.95,25.91-18.15,39.58-10.95,28.8-18.06,59.62-20.61,91.89-1.23,15.56-1.36,30.95-.47,46.11,6.34,107.58,64.6,202.97,151.65,259.09,44.6,28.75,96.74,47.2,153.34,51.68,124.55,9.86,238.46-50.43,302.91-147.69,20.72-31.27,36.31-66.38,45.51-104.2-189.83-73.05-309.36-332.45-309.36-332.45Z"/>
            </g>
            <g>
              <path class="cls-2" d="M605.66,475.91c-6.25,35.34-28.19,62.11-52.42,66.88,7.26,9.47,16.63,15.85,27.51,17.77,31.65,5.6,64.14-28.53,72.57-76.23,8.43-47.7-10.38-90.9-42.03-96.49-10.88-1.92-21.87.85-31.94,7.26,21.12,12.79,32.55,45.47,26.3,80.81Z"/>
              <path d="M538.72,464.08c-5.53,31.29.66,60.65,14.52,78.72,24.23-4.77,46.17-31.55,52.42-66.88,6.25-35.34-5.18-68.01-26.3-80.81-19.21,12.23-35.1,37.68-40.63,68.97Z"/>
            </g>
            <g>
              <path class="cls-2" d="M705.72,492.19c-6.25,35.34-28.19,62.11-52.42,66.88,7.26,9.47,16.63,15.85,27.51,17.77,31.65,5.6,64.14-28.53,72.57-76.23,8.43-47.7-10.38-90.9-42.03-96.49-10.88-1.92-21.87.85-31.94,7.26,21.12,12.79,32.55,45.47,26.3,80.81Z"/>
              <path d="M638.78,480.35c-5.53,31.29.66,60.65,14.52,78.72,24.23-4.77,46.17-31.55,52.42-66.88,6.25-35.34-5.18-68.01-26.3-80.81-19.21,12.23-35.1,37.68-40.63,68.97Z"/>
            </g>
            <circle class="cls-3" cx="784.08" cy="601.26" r="46.5" transform="translate(101.0833 1315.2696) rotate(-83.7538)"/>
            <circle class="cls-3" cx="460.91" cy="541.81" r="46.5" transform="translate(-234.53 392.28) rotate(-37.48)"/>
            <path d="M671.66,180.91s-113.27,15.5-35.35,161.06l17.72-74.66s-6.22,76.94,98.98,83.36l31.07-76.58-112.43-93.17Z"/>
            <path d="M657.1,592.05c-4.16,22.26-25.57,36.93-47.83,32.77-22.26-4.16-36.93-25.57-32.77-47.83"/>
          </g>
          <circle class="cls-4" cx="970.89" cy="559.57" r="107.35" transform="translate(-111.31 850.42) rotate(-45)"/>
        </g>
        <path d="M384.14,659.57c-1.63,0-3.24-.78-4.22-2.23-33.99-50.11-53.84-108.43-57.39-168.68-.91-15.51-.75-31.26.48-46.81,2.54-32.07,9.58-63.46,20.93-93.3,5.19-13.65,11.39-27.17,18.43-40.19,1.34-2.47,4.43-3.4,6.9-2.06,2.48,1.34,3.4,4.43,2.06,6.9-6.83,12.62-12.84,25.73-17.87,38.97-11,28.93-17.83,59.38-20.3,90.49-1.19,15.09-1.35,30.36-.46,45.4,3.44,58.41,22.68,114.97,55.65,163.56,1.58,2.33.97,5.5-1.35,7.08-.88.6-1.87.88-2.86.88Z"/>
      </g>
      <path d="M507.41,852.43c-1.28,0-2.52-.48-3.48-1.37-1.27-1.19-1.85-2.95-1.53-4.66l11.33-60.42c.52-2.76,3.18-4.59,5.94-4.07,2.77.52,4.59,3.18,4.07,5.94l-9.85,52.54,38.07-9.85c2.72-.71,5.5.93,6.21,3.65.7,2.72-.93,5.5-3.65,6.21l-45.83,11.86c-.42.11-.85.16-1.28.16Z"/>
      <path d="M704.35,860.9c-.51,0-1.02-.08-1.51-.23l-47.25-14.68c-2.69-.84-4.19-3.69-3.35-6.38.83-2.68,3.69-4.19,6.38-3.35l41.16,12.79,2.57-32.33c.22-2.8,2.66-4.92,5.48-4.67,2.81.22,4.9,2.68,4.67,5.48l-3.07,38.68c-.12,1.54-.94,2.95-2.22,3.82-.85.58-1.85.88-2.86.88Z"/>
      <path d="M1039.36,2065.9c-2.43,0-4.58-1.75-5.01-4.22-.48-2.77,1.37-5.41,4.15-5.89l51.95-9.04c2.76-.48,5.41,1.37,5.89,4.15.48,2.77-1.37,5.41-4.15,5.89l-51.95,9.04c-.3.05-.59.08-.88.08Z"/>
      <path d="M1055.37,2106.37c-2.43,0-4.58-1.75-5.01-4.22-.48-2.77,1.37-5.41,4.15-5.89l51.95-9.04c2.77-.48,5.41,1.37,5.89,4.15.48,2.77-1.37,5.41-4.15,5.89l-51.95,9.04c-.3.05-.59.08-.88.08Z"/>
      <path d="M1081.36,1602.15c-.19,0-.38,0-.57-.03-2.8-.31-4.81-2.83-4.5-5.62l3.55-32.03c.31-2.8,2.82-4.82,5.62-4.5,2.8.31,4.81,2.83,4.5,5.62l-3.55,32.03c-.29,2.61-2.49,4.53-5.06,4.53Z"/>
    </g>
  </g>
</svg>