<?xml version="1.0" encoding="UTF-8"?>
<svg id="Calque_2" data-name="Calque 2" xmlns="http://www.w3.org/2000/svg" viewBox="0 0 1641.96 1852.78">
  <defs>
    <style>
      .cls-1 {
        fill: #2ebca1;
      }

      .cls-2 {
        fill: #fff;
      }

      .cls-3 {
        fill: #e8959d;
      }

      .cls-4 {
        fill: #e8acb5;
      }

      .cls-5 {
        fill: #7c5a48;
      }

      .cls-6 {
        fill: #efe7ce;
      }
    </style>
  </defs>
  <g id="Layer_1" data-name="Layer 1">
    <g>
      <path class="cls-4" d="M1010.79,811.72l282.88,137.58c61.94,30.12,136.62,7.77,171.82-51.43l157.08-264.15c42.71-71.82,12.13-164.82-64.87-197.29h0c-64.12-27.03-138.33-1.99-172.95,58.37l-92.24,160.77-157.73-77.61-123.99,233.77Z"/>
      <path class="cls-1" d="M635.49,527.82l-101.16,508.92,453.1,57.01,148.4-344.59c25.21-105.15-52.44-206.94-160.51-210.42l-339.83-10.93Z"/>
      <path class="cls-4" d="M521.22,571.28L124.66,849.21l-103.34,173.03c-48.04,80.44-11.57,184.75,76.13,217.72h0c72.44,27.24,153.72-4.99,187.81-74.47l67.12-136.78,298.8-216.1-129.95-241.33Z"/>
      <path class="cls-1" d="M867.58,527.82l-132.39-9.62c-94.52-6.87-188.74,16.81-268.78,67.55l-154.68,98.05,196.7,241.79,248.99-176.43,110.16-221.35Z"/>
      <path class="cls-1" d="M1042.91,873.53l132.13,36.91,106.77-277.46h0c-62.73-56.51-143.43-88.99-227.82-91.71l-103.84-3.34,92.76,335.59Z"/>
      <path d="M576.02,882.81c-1.6,0-3.17-.75-4.16-2.15-1.63-2.3-1.08-5.48,1.21-7.1l75.15-53.25c2.3-1.63,5.47-1.08,7.1,1.21,1.63,2.3,1.08,5.48-1.21,7.1l-75.15,53.25c-.89.63-1.92.94-2.94.94Z"/>
      <path d="M1083.73,875.24c-.67,0-1.36-.13-2.01-.42-2.58-1.11-3.78-4.11-2.66-6.69l52.1-120.98c1.11-2.58,4.11-3.78,6.69-2.66,2.58,1.11,3.78,4.11,2.66,6.69l-52.1,120.98c-.83,1.93-2.71,3.08-4.68,3.08Z"/>
      <g>
        <path class="cls-4" d="M1224.25,1400.68c-13.18-21.14-30.05-39.74-49.8-54.92l-262.01-201.37-216.54,221.96,267.51,214.94,22.2,32.88,261.86-176.23-23.23-37.26Z"/>
        <polygon class="cls-6" points="1247.48 1437.94 985.61 1614.17 1087.83 1765.54 1334.37 1577.31 1247.48 1437.94"/>
        <path class="cls-1" d="M1472.45,1597.07l-138.08-19.76-246.54,188.23,39.61,58.65c19.95,29.54,59.99,37.46,89.68,17.74l270.11-179.37c27.5-18.26,17.89-60.82-14.79-65.49Z"/>
      </g>
      <g>
        <path class="cls-1" d="M309.53,1274.02c-28.19-12.37-61.17-4-80.06,20.3l-175.99,226.51c-13.53,17.41.34,42.57,22.29,40.42l149.69-14.64,165.14-237.03-81.06-35.57Z"/>
        <polygon class="cls-6" points="390.59 1309.59 225.45 1546.62 406.04 1626.59 482.94 1350.11 390.59 1309.59"/>
        <path class="cls-4" d="M636.53,1192.01l-153.59,158.11-76.9,276.48,33.87,15c82.06,36.34,178.17,16,238.48-50.47l210.45-231.97-252.31-167.14Z"/>
      </g>
      <path class="cls-5" d="M988.05,1150.63l-.62-56.87-453.1-57.01c-113.46,126.47-62.41,287.06,18.92,344.9l288.73,119.57,227.65-251.61-81.58-98.98Z"/>
      <polygon class="cls-2" points="887.77 612.12 896.59 849.24 965.32 598.57 887.77 612.12"/>
      <g>
        <g>
          <g>
            <path d="M635.12,342.35c-.3-9.63-.19-19.34.37-29.12.46-8,1.17-16.04,2.22-24.12,2.59-19.99,6.92-39.33,12.8-57.89,25.87-81.68,81.91-148.29,153.68-188.68C864.36,8.67,935.59-6.77,1009.34,2.79c56.3,7.3,107.46,28.33,150.57,59.27,52.6,37.76,93.17,90.29,116.45,150.7l-269.9-131.84s-170.51,229.14-371.33,261.42Z"/>
            <path class="cls-4" d="M1006.46,80.92l269.9,131.84c3.16,8.2,6.01,16.54,8.52,25.02,4.1,13.84,7.33,28.02,9.59,42.47,4.77,30.44,5.36,62.07,1.2,94.17-2.01,15.48-5.06,30.57-9.06,45.21-28.41,103.95-105.11,185.27-201.87,222.2-49.57,18.92-104.4,26.21-160.71,18.91-123.91-16.07-222.91-98.57-265.89-207.04-13.82-34.88-21.82-72.45-23.01-111.35,200.82-32.28,371.33-261.42,371.33-261.42Z"/>
          </g>
          <g>
            <path class="cls-2" d="M1017.12,350.05c-1.18,35.87,14.76,66.59,37.48,76.27-9.06,7.77-19.54,12.07-30.59,11.71-32.12-1.06-56.87-41.16-55.27-89.57,1.59-48.41,28.93-86.8,61.05-85.74,11.05.36,21.22,5.35,29.75,13.7-23.31,8.16-41.24,37.77-42.42,73.63Z"/>
            <path d="M1085.06,352.29c-1.05,31.76-13.17,59.21-30.46,74.03-22.72-9.67-38.66-40.4-37.48-76.27,1.18-35.87,19.11-65.48,42.42-73.63,16.27,15.93,26.57,44.11,25.52,75.87Z"/>
          </g>
          <path d="M981.93,486.18c-3.63,0-7.3-.38-10.95-1.15-11.45-2.42-21.51-8.4-29.08-17.29-1.82-2.14-1.56-5.36.58-7.18,2.14-1.82,5.36-1.57,7.18.58,6.1,7.16,14.2,11.98,23.42,13.92,14.36,3.03,29.02-1.49,39.21-12.08,1.95-2.03,5.18-2.09,7.2-.14,2.03,1.95,2.09,5.17.14,7.2-10.05,10.45-23.61,16.14-37.7,16.14Z"/>
          <circle class="cls-3" cx="816.67" cy="435.86" r="46.5" transform="translate(28 920.56) rotate(-59.66)"/>
          <circle class="cls-3" cx="1145.15" cy="444.41" r="46.5" transform="translate(-76.38 573.72) rotate(-27.25)"/>
          <path d="M1013.45,47.77s107.63,38.55,1.34,164.89l-1.93-76.72s-9.8,76.56-114.06,61.13l-14.59-81.35,129.24-67.95Z"/>
          <path d="M894.66,387.44c-2.07,0-4.02-1.27-4.78-3.33-.98-2.64.37-5.57,3.01-6.55l50.24-18.59-43.64-30.94c-2.3-1.63-2.84-4.81-1.21-7.1,1.63-2.3,4.81-2.84,7.1-1.21l51.52,36.52c1.54,1.09,2.35,2.95,2.1,4.82-.25,1.87-1.51,3.46-3.28,4.11l-59.3,21.94c-.58.22-1.18.32-1.77.32Z"/>
        </g>
        <circle class="cls-4" cx="642.49" cy="356.51" r="107.35" transform="translate(-63.91 558.73) rotate(-45)"/>
      </g>
      <path d="M793.56,726.41c-1.17,0-2.33-.4-3.26-1.18-1.43-1.19-2.1-3.05-1.75-4.87l13.9-72.69c.53-2.76,3.2-4.58,5.96-4.05,2.76.53,4.58,3.2,4.05,5.96l-12.16,63.63,61.03-23.84c2.62-1.02,5.57.27,6.6,2.89,1.02,2.62-.27,5.58-2.89,6.6l-69.62,27.19c-.6.23-1.23.35-1.85.35Z"/>
      <path d="M1003.9,737.48c-.89,0-1.78-.23-2.57-.7l-48.24-28.25c-2.43-1.42-3.24-4.54-1.82-6.97,1.42-2.43,4.54-3.25,6.97-1.82l41.72,24.43,5.8-39.93c.4-2.79,2.99-4.72,5.77-4.31,2.78.4,4.71,2.99,4.31,5.77l-6.89,47.41c-.24,1.68-1.31,3.12-2.83,3.86-.7.34-1.45.5-2.21.5Z"/>
      <path d="M135.2,1566.48c-2.81,0-5.09-2.28-5.09-5.09v-29.4c0-2.81,2.28-5.09,5.09-5.09s5.09,2.28,5.09,5.09v29.4c0,2.81-2.28,5.09-5.09,5.09Z"/>
      <path d="M173.04,1561.39c-2.81,0-5.09-2.28-5.09-5.09v-29.4c0-2.81,2.28-5.09,5.09-5.09s5.09,2.28,5.09,5.09v29.4c0,2.81-2.28,5.09-5.09,5.09Z"/>
      <path d="M1350.37,1609.95c-1.2,0-2.4-.42-3.37-1.27-2.11-1.86-2.31-5.08-.45-7.19l24.28-27.54c1.86-2.11,5.08-2.31,7.19-.45,2.11,1.86,2.31,5.08.45,7.19l-24.28,27.54c-1.01,1.14-2.41,1.72-3.82,1.72Z"/>
      <path d="M1386.45,1615.32c-1.2,0-2.4-.42-3.37-1.27-2.11-1.86-2.31-5.08-.45-7.19l24.28-27.54c1.86-2.11,5.08-2.31,7.19-.45,2.11,1.86,2.31,5.08.45,7.19l-24.28,27.54c-1.01,1.14-2.41,1.72-3.82,1.72Z"/>
    </g>
  </g>
</svg>