<?xml version="1.0" encoding="UTF-8"?>
<svg id="Calque_2" data-name="Calque 2" xmlns="http://www.w3.org/2000/svg" viewBox="0 0 3263.75 3860.44">
  <defs>
    <style>
      .cls-1 {
        fill: #f77f7f;
      }

      .cls-2 {
        fill: #fb5f2c;
      }

      .cls-3 {
        fill: #fff;
      }

      .cls-4 {
        fill: #86e0ef;
      }
    </style>
  </defs>
  <g id="Layer_1" data-name="Layer 1">
    <g>
      <g>
        <circle cx="750.3" cy="1226.05" r="150.1" transform="translate(-647.19 889.64) rotate(-45)"/>
        <circle cx="631.42" cy="1071.69" r="135.46"/>
        <circle cx="644.06" cy="1442.67" r="164.32" transform="translate(-831.48 877.96) rotate(-45)"/>
        <path class="cls-1" d="M314.91,2845.75l-186.75-166.48c-63.87-56.69-78.28-151.99-31.56-223.48,5.63-8.61,12.07-16.82,19.33-24.52l333.28-353.66,237.56,223.87-248.01,263.17,130.96,114.8-51.26,363.15c-94.26,41.45-231.45-47.21-203.55-196.86Z"/>
        <g>
          <path class="cls-2" d="M490.32,3541.06h364.45v255.34H274.23v-39.25c0-119.27,96.83-216.1,216.1-216.1Z"/>
          <polygon class="cls-1" points="557.8 2866.96 490.59 3541.06 854.77 3541.06 921.99 2866.96 557.8 2866.96"/>
          <path d="M490.59,3547c-.72,0-1.45-.13-2.14-.4-4.84-1.87-47.37-18.95-50.71-42.62-1.29-9.11,3.03-17.5,12.83-24.94,9.49-7.2,18.12-8.93,25.66-5.12,9.36,4.73,15.38,17.41,18.41,38.76,2.07,14.62,1.9,27.91,1.89,28.46-.03,1.94-1.01,3.74-2.61,4.83-.99.67-2.15,1.02-3.32,1.02ZM468.02,3483.87c-2.78,0-6.23,1.55-10.28,4.62-9.22,7-8.49,12.13-8.25,13.82,1.5,10.66,19.85,22.53,35.03,29.68-.82-19.5-5.04-43.12-13.66-47.48-.85-.43-1.8-.65-2.84-.65Z"/>
          <path d="M424.33,3620.4c-1.42,0-2.84-.5-3.97-1.53-2.43-2.2-2.62-5.95-.43-8.38l55.85-61.87-63.97,6.84c-3.25.31-6.18-2.01-6.53-5.27-.35-3.26,2.01-6.18,5.27-6.53l79.42-8.49c2.44-.25,4.8,1.01,5.92,3.21,1.12,2.19.77,4.85-.88,6.67l-66.26,73.4c-1.17,1.3-2.79,1.96-4.41,1.96Z"/>
          <polygon class="cls-3" points="854.77 3860.44 767.3 3860.44 714.73 3828.42 667.3 3860.44 274.23 3860.44 274.23 3796.41 854.77 3796.41 854.77 3860.44"/>
        </g>
        <g>
          <path class="cls-2" d="M1058.72,3541.06h568.24v255.34h-352.14c-119.27,0-216.1-96.83-216.1-216.1v-39.25h0Z" transform="translate(2685.6858 7337.4729) rotate(-180)"/>
          <polygon class="cls-1" points="1224.44 2866.96 1410.61 3541.06 1058.72 3541.06 872.56 2866.96 1224.44 2866.96"/>
          <path d="M1410.61,3547c-1.17,0-2.33-.34-3.32-1.02-1.61-1.09-2.58-2.89-2.61-4.83,0-.56-.18-13.84,1.89-28.46,3.03-21.35,9.05-34.03,18.41-38.76,7.54-3.82,16.17-2.09,25.66,5.12,9.8,7.44,14.11,15.83,12.83,24.94-3.35,23.68-45.87,40.75-50.71,42.62-.69.27-1.42.4-2.14.4ZM1433.17,3483.87c-1.04,0-1.99.22-2.84.65-8.62,4.35-12.84,27.97-13.66,47.48,15.18-7.15,33.53-19.02,35.03-29.68.24-1.69.96-6.82-8.25-13.82-4.05-3.08-7.49-4.62-10.28-4.62Z"/>
          <path d="M1476.87,3620.4c-1.62,0-3.24-.66-4.41-1.96l-66.26-73.4c-1.65-1.83-2-4.48-.88-6.67,1.12-2.19,3.48-3.46,5.92-3.21l79.42,8.49c3.26.35,5.62,3.27,5.27,6.53s-3.29,5.58-6.53,5.27l-63.97-6.84,55.85,61.87c2.2,2.43,2,6.18-.43,8.38-1.13,1.03-2.56,1.53-3.97,1.53Z"/>
          <polygon class="cls-3" points="1058.72 3860.44 1133.89 3860.44 1186.46 3828.42 1233.89 3860.44 1626.96 3860.44 1626.96 3796.41 1058.72 3796.41 1058.72 3860.44"/>
        </g>
        <polygon class="cls-4" points="504.17 3204.01 901.08 3195.53 916.44 3072.22 948.02 3190.63 1342.84 3130.11 1208.53 2738.89 526.98 2816.96 504.17 3204.01"/>
        <polygon class="cls-1" points="526.98 2816.96 569.71 2679.47 518.46 2365.66 1045.52 2284.74 1116.01 2590.65 1208.53 2738.89 526.98 2816.96"/>
        <path class="cls-1" d="M1035.17,1261.59c-60.08-67.19-163.26-72.95-230.46-12.87h0c-67.19,60.09-72.95,163.26-12.87,230.46l181.8,222.07-186.91,478.75,304.07,118.71,218.25-559.03c25.51-65.35,12.12-139.49-34.64-191.78l-239.25-286.31Z"/>
        <polygon class="cls-3" points="528.95 2620.26 1151.34 2555.6 1115.12 2262.18 1249.76 1975.94 931.33 1820.49 771.7 2014.36 449.21 2077.62 213.17 2316.32 491.48 2555.6 518.46 2525.52 528.95 2620.26"/>
        <g>
          <g>
            <g>
              <g>
                <path class="cls-1" d="M348.18,2167.56c-54.66-37.26-96.73-86.07-125.21-140.94-55.59-107.09-59.36-237.26-3.56-349.74l711.93,45.5c38.25,111.37,25.32,238.76-46.11,343.54-120.23,176.37-360.67,221.87-537.04,101.64Z"/>
                <path d="M246.54,1630.52c82.97-121.71,223.19-181.08,360.09-166.69,61.48,6.46,122.29,27.79,176.95,65.05,71.59,48.8,121.61,117.41,147.75,193.5l-711.93-45.5c7.86-15.84,16.89-31.34,27.14-46.36Z"/>
              </g>
              <g>
                <path class="cls-3" d="M505.52,1887.43c13.88,39.44,6.94,79.17-14.92,97.88,12.79,5.46,25.94,6.56,38.09,2.29,35.32-12.43,48.76-65.66,30.02-118.89-18.74-53.23-62.56-86.3-97.88-73.87-12.15,4.28-21.7,13.38-28.26,25.65,28.75.89,59.06,27.51,72.94,66.95Z"/>
                <path d="M430.82,1913.73c12.29,34.92,35.38,61.17,59.79,71.58,21.85-18.71,28.8-58.44,14.92-97.88-13.88-39.44-44.19-66.05-72.94-66.95-12.5,23.4-14.05,58.32-1.76,93.25Z"/>
              </g>
              <g>
                <path class="cls-3" d="M626.74,1849.7c13.88,39.44,6.94,79.17-14.92,97.88,12.79,5.46,25.94,6.56,38.09,2.29,35.32-12.43,48.76-65.66,30.02-118.89-18.74-53.23-62.56-86.3-97.88-73.87-12.15,4.28-21.7,13.38-28.26,25.65,28.75.89,59.06,27.51,72.94,66.95Z"/>
                <path d="M552.04,1875.99c12.29,34.92,35.38,61.17,59.79,71.58,21.85-18.71,28.8-58.44,14.92-97.88-13.88-39.44-44.19-66.05-72.94-66.95-12.5,23.4-14.05,58.32-1.76,93.25Z"/>
              </g>
              <path d="M594.23,2032.47c-17.6,0-34.92-6.55-48.2-18.79-2.41-2.22-2.56-5.98-.34-8.39,2.22-2.41,5.98-2.56,8.39-.34,15.46,14.25,37.51,19.24,57.55,13.01,20.04-6.23,35.37-22.84,40.03-43.34.73-3.2,3.91-5.2,7.1-4.47,3.2.73,5.2,3.91,4.47,7.1-5.59,24.62-24.01,44.56-48.08,52.05-6.85,2.13-13.91,3.17-20.91,3.17Z"/>
            </g>
            <g>
              <circle cx="236.1" cy="1687.66" r="88.64" transform="translate(-1124.1994 661.2532) rotate(-45)"/>
              <circle cx="328.91" cy="1691.99" r="88.64" transform="translate(-1100.084 728.144) rotate(-45)"/>
              <circle cx="421.71" cy="1696.33" r="88.64" transform="translate(-1075.9685 795.0347) rotate(-45)"/>
            </g>
          </g>
          <circle class="cls-1" cx="901.08" cy="1751.95" r="129.36" transform="translate(-974.8971 1150.2945) rotate(-45)"/>
        </g>
        <path d="M536.05,2793.71c-.73,0-1.48-.14-2.2-.42-3.04-1.22-4.53-4.67-3.32-7.71l28.45-71.36c1.21-3.04,4.66-4.52,7.71-3.32,3.04,1.22,4.53,4.67,3.32,7.71l-28.45,71.36c-.93,2.32-3.16,3.74-5.51,3.74Z"/>
        <path d="M1002.89,1837.75c-1.28,0-2.57-.41-3.66-1.26-2.58-2.02-3.03-5.75-1.01-8.33,31.37-40.02,35.12-94.29,9.55-138.26-16.58-28.5-43.26-48.83-75.13-57.26-3.17-.84-5.06-4.09-4.22-7.26.84-3.17,4.08-5.06,7.26-4.22,34.94,9.24,64.19,31.53,82.36,62.77,28.03,48.19,23.93,107.68-10.47,151.55-1.17,1.49-2.91,2.27-4.67,2.27Z"/>
        <path d="M404.61,2556.79h-88.81c-3.28,0-5.93-2.66-5.93-5.93s2.66-5.94,5.93-5.94h88.81c3.28,0,5.93,2.66,5.93,5.94s-2.66,5.93-5.93,5.93Z"/>
        <path d="M512.69,2503.83c-2.82,0-5.31-2.01-5.83-4.88l-22.11-122.37c-.58-3.22,1.56-6.31,4.79-6.9,3.23-.58,6.31,1.56,6.9,4.79l22.11,122.37c.58,3.22-1.56,6.31-4.79,6.9-.36.06-.71.1-1.06.1Z"/>
        <path d="M863.49,2715.01c-.79,0-1.59-.16-2.36-.49-3.01-1.3-4.39-4.8-3.08-7.81,10.93-25.19-6.56-41.92-7.31-42.62-2.39-2.23-2.54-5.98-.32-8.38,2.22-2.4,5.94-2.57,8.35-.36,8.54,7.81,21.66,29.59,10.16,56.08-.97,2.24-3.15,3.57-5.45,3.57Z"/>
      </g>
      <g>
        <path class="cls-1" d="M1951.7,2845.75l-186.75-166.48c-63.87-56.69-78.28-151.99-31.56-223.48,5.63-8.61,12.07-16.82,19.33-24.52l333.28-353.66,237.56,223.87-248.01,263.17,130.96,114.8-51.26,363.15c-94.26,41.45-231.45-47.21-203.55-196.86Z"/>
        <g>
          <path class="cls-4" d="M2127.11,3541.06h364.45v255.34h-580.55v-39.25c0-119.27,96.83-216.1,216.1-216.1Z"/>
          <g>
            <polygon class="cls-3" points="2127.37 3541.06 2491.56 3541.06 2511.29 3343.22 2147.1 3343.22 2127.37 3541.06"/>
            <polygon class="cls-1" points="2194.59 2866.96 2147.1 3343.22 2511.29 3343.22 2558.78 2866.96 2194.59 2866.96"/>
          </g>
          <path d="M2127.37,3547c-.72,0-1.45-.13-2.14-.4-4.84-1.87-47.37-18.95-50.71-42.62-1.29-9.11,3.03-17.5,12.83-24.94,9.49-7.2,18.12-8.93,25.66-5.12,9.36,4.73,15.38,17.41,18.41,38.76,2.07,14.62,1.9,27.91,1.89,28.46-.03,1.94-1.01,3.74-2.62,4.83-.99.67-2.15,1.02-3.32,1.02ZM2104.81,3483.87c-2.78,0-6.23,1.55-10.28,4.62-9.22,7-8.49,12.13-8.26,13.82,1.5,10.66,19.85,22.53,35.03,29.68-.82-19.5-5.04-43.12-13.66-47.48-.85-.43-1.8-.65-2.84-.65Z"/>
          <path d="M2061.11,3620.4c-1.42,0-2.84-.5-3.97-1.53-2.43-2.2-2.63-5.95-.43-8.38l55.85-61.87-63.97,6.84c-3.26.33-6.18-2.01-6.53-5.27-.35-3.26,2.01-6.18,5.27-6.53l79.42-8.49c2.47-.25,4.8,1.01,5.92,3.21,1.12,2.19.77,4.85-.88,6.67l-66.26,73.4c-1.17,1.3-2.79,1.96-4.41,1.96Z"/>
          <polygon class="cls-3" points="2491.56 3860.44 2404.09 3860.44 2351.52 3828.42 2304.09 3860.44 1911.02 3860.44 1911.02 3796.41 2491.56 3796.41 2491.56 3860.44"/>
        </g>
        <g>
          <path class="cls-4" d="M2695.51,3541.06h568.24v255.34h-352.14c-119.27,0-216.1-96.83-216.1-216.1v-39.25h0Z" transform="translate(5959.2632 7337.4729) rotate(-180)"/>
          <g>
            <polygon class="cls-3" points="3047.39 3541.06 2977.65 3288.52 2639.55 3338.42 2695.51 3541.06 3047.39 3541.06"/>
            <polygon class="cls-1" points="2861.23 2866.96 2509.35 2866.96 2639.55 3338.42 2977.65 3288.52 2861.23 2866.96"/>
          </g>
          <path d="M3047.39,3547c-1.17,0-2.33-.34-3.32-1.02-1.61-1.09-2.59-2.89-2.62-4.83,0-.56-.18-13.84,1.89-28.46,3.03-21.35,9.05-34.03,18.41-38.76,7.54-3.82,16.17-2.09,25.66,5.12,9.8,7.44,14.11,15.83,12.83,24.94-3.35,23.68-45.87,40.75-50.71,42.62-.69.27-1.42.4-2.14.4ZM3069.96,3483.87c-1.04,0-1.99.22-2.84.65-8.61,4.35-12.84,27.97-13.66,47.48,15.18-7.15,33.53-19.02,35.03-29.68.24-1.69.96-6.82-8.25-13.82-4.05-3.08-7.49-4.62-10.28-4.62Z"/>
          <path d="M3113.66,3620.4c-1.62,0-3.24-.66-4.41-1.96l-66.26-73.4c-1.65-1.83-2-4.48-.88-6.67,1.12-2.19,3.48-3.45,5.92-3.21l79.42,8.49c3.26.35,5.62,3.27,5.27,6.53-.35,3.26-3.27,5.6-6.53,5.27l-63.97-6.84,55.85,61.87c2.2,2.43,2.01,6.18-.43,8.38-1.13,1.03-2.56,1.53-3.97,1.53Z"/>
          <polygon class="cls-3" points="2695.51 3860.44 2770.68 3860.44 2823.25 3828.42 2870.68 3860.44 3263.75 3860.44 3263.75 3796.41 2695.51 3796.41 2695.51 3860.44"/>
        </g>
        <polygon class="cls-4" points="2140.96 3204.01 2537.87 3195.53 2553.23 3072.22 2584.81 3190.63 2979.63 3130.11 2845.32 2738.89 2163.77 2816.96 2140.96 3204.01"/>
        <path class="cls-1" d="M2671.96,1261.59c-60.08-67.19-163.26-72.95-230.46-12.87h0c-67.19,60.09-72.96,163.26-12.87,230.46l181.8,222.07-186.91,478.75,304.07,118.71,218.25-559.03c25.51-65.35,12.12-139.49-34.64-191.78l-239.25-286.31Z"/>
        <path class="cls-3" d="M2161.49,2855.51l700.85-67.05c26.43-33.18,27.39-68.55-2.58-106.57l-107.85-419.71,134.64-286.25-318.44-155.45-159.63,193.87-322.48,63.26-288.68,276.3,278.22,210.74,51.83-25.45,13.59,229.17c-11.73,32.21-9.77,62.09,20.53,87.13Z"/>
        <g>
          <g>
            <g>
              <g>
                <path class="cls-1" d="M1984.96,2167.56c-54.66-37.26-96.73-86.07-125.21-140.94-55.59-107.09-59.36-237.26-3.56-349.74l711.93,45.5c38.25,111.37,25.32,238.76-46.11,343.54-120.23,176.37-360.67,221.87-537.04,101.64Z"/>
                <path d="M1883.33,1630.52c82.97-121.71,223.19-181.08,360.09-166.69,61.48,6.46,122.29,27.79,176.95,65.05,71.59,48.8,121.61,117.41,147.75,193.5l-711.93-45.5c7.86-15.84,16.89-31.34,27.14-46.36Z"/>
              </g>
              <g>
                <path class="cls-3" d="M2144.84,1874.52c3.11,41.69-13.97,78.23-39.95,90.59,10.92,8.61,23.33,13.11,36.17,12.15,37.34-2.78,64.21-50.66,60.02-106.93-4.19-56.27-37.86-99.64-75.2-96.86-12.84.96-24.45,7.25-33.97,17.38,27.52,8.37,49.83,41.97,52.93,83.67Z"/>
                <path d="M2065.87,1880.41c2.75,36.92,18.19,68.28,39.03,84.7,25.98-12.35,43.06-48.89,39.95-90.59-3.11-41.69-25.41-75.3-52.93-83.67-18.17,19.33-28.8,52.63-26.04,89.55Z"/>
              </g>
              <g>
                <path class="cls-3" d="M2271.72,1869.74c3.11,41.69-13.97,78.23-39.95,90.59,10.92,8.61,23.33,13.11,36.17,12.15,37.34-2.78,64.21-50.66,60.02-106.93-4.19-56.27-37.86-99.64-75.2-96.86-12.84.96-24.45,7.25-33.97,17.38,27.52,8.37,49.83,41.97,52.93,83.67Z"/>
                <path d="M2192.74,1875.63c2.75,36.92,18.19,68.28,39.03,84.7,25.98-12.35,43.06-48.89,39.95-90.59-3.11-41.69-25.41-75.3-52.93-83.67-18.17,19.33-28.8,52.63-26.04,89.55Z"/>
              </g>
              <path d="M2211.01,2040.14c-24.22,0-47.04-12.54-60.03-33.17-1.75-2.77-.91-6.44,1.86-8.19,2.78-1.75,6.44-.91,8.19,1.86,11.2,17.8,31.16,28.36,52.15,27.58,20.97-.78,40.11-12.81,49.95-31.39,1.53-2.89,5.12-4,8.02-2.46,2.9,1.53,4,5.13,2.46,8.02-11.82,22.31-34.81,36.75-60,37.69-.87.03-1.74.05-2.61.05Z"/>
            </g>
            <path d="M2212.19,1699.63c-151.59,85.28-306.4,91.28-464.21,22.75l44.74-57.25-76.31-42.56,318.72-122.68,177.07,199.75Z"/>
            <polygon points="1845.35 1611.13 1750.62 1511.19 1907.19 1474.35 1870.52 1424.35 2257.31 1465.56 2257.31 1600.66 1845.35 1611.13"/>
          </g>
          <circle class="cls-1" cx="2537.87" cy="1751.95" r="129.36" transform="translate(-495.4928 2307.6789) rotate(-45)"/>
        </g>
        <path d="M2639.68,1837.75c-1.28,0-2.57-.41-3.66-1.26-2.58-2.02-3.03-5.75-1.01-8.33,31.37-40.02,35.12-94.29,9.55-138.26-16.58-28.5-43.26-48.83-75.13-57.26-3.17-.84-5.06-4.09-4.22-7.26.84-3.17,4.09-5.05,7.25-4.22,34.94,9.24,64.19,31.53,82.36,62.77,28.03,48.19,23.93,107.68-10.46,151.55-1.17,1.49-2.92,2.27-4.68,2.27Z"/>
        <path d="M2041.4,2556.79h-88.81c-3.28,0-5.93-2.66-5.93-5.93s2.66-5.94,5.93-5.94h88.81c3.28,0,5.94,2.66,5.94,5.94s-2.66,5.93-5.94,5.93Z"/>
        <path d="M2127.37,2489.46c-2.79,0-5.28-1.98-5.82-4.83l-23.56-123.68c-.61-3.22,1.5-6.33,4.72-6.94,3.22-.62,6.33,1.5,6.94,4.72l23.56,123.68c.61,3.22-1.5,6.33-4.72,6.94-.37.07-.75.11-1.12.11Z"/>
        <path d="M2352.93,2731.56c-3.02,0-5.6-2.29-5.9-5.36-.32-3.26,2.07-6.16,5.33-6.48l423.96-41.22c3.23-.29,6.16,2.07,6.48,5.33.32,3.26-2.07,6.16-5.33,6.48l-423.96,41.22c-.2.02-.39.03-.58.03Z"/>
      </g>
      <path class="cls-2" d="M2999.82,674.13c-47.41,0-89.12,26.59-113.27,66.82-24.15-40.23-65.86-66.82-113.27-66.82-74.7,0-135.26,65.98-135.26,147.38,0,130.66,165.59,252.07,226.44,292.28,13.17,8.7,30.4,8.17,42.99-1.36,59.85-45.25,227.63-181.83,227.63-290.92,0-81.4-60.56-147.38-135.26-147.38Z"/>
      <path class="cls-2" d="M393.55,530.96c-28.8,0-54.13,16.15-68.8,40.58-14.67-24.44-40-40.58-68.8-40.58-45.37,0-82.15,40.08-82.15,89.51,0,79.36,100.57,153.1,137.53,177.52,8,5.29,18.46,4.96,26.11-.82,36.35-27.48,138.25-110.43,138.25-176.69,0-49.44-36.78-89.51-82.15-89.51Z"/>
      <path class="cls-2" d="M2939.88,0c-22.32,0-41.96,12.52-53.33,31.46-11.37-18.94-31.01-31.46-53.33-31.46-35.17,0-63.68,31.07-63.68,69.39,0,61.52,77.96,118.68,106.62,137.61,6.2,4.1,14.31,3.84,20.24-.64,28.18-21.31,107.18-85.61,107.18-136.98,0-38.32-28.51-69.39-63.68-69.39Z"/>
      <g>
        <path d="M3035.53,1783.02c-1.07,0-2.15-.29-3.12-.89-2.79-1.73-3.65-5.38-1.92-8.17,33.97-54.85,44.47-107.94,31.2-157.81-9.9-37.21-30.1-58.66-30.3-58.87-2.26-2.37-2.19-6.12.18-8.39,2.36-2.27,6.11-2.19,8.38.17.9.94,22.25,23.46,33.04,63.4,9.9,36.66,12.32,95.52-32.41,167.75-1.12,1.81-3.07,2.81-5.05,2.81Z"/>
        <path d="M3085.17,1832.4c-1.07,0-2.15-.29-3.12-.89-2.79-1.73-3.65-5.38-1.92-8.17,33.57-54.2,68.56-137.58,44.66-227.01-14.31-53.55-43.42-84.39-43.71-84.69-2.27-2.37-2.19-6.12.17-8.39,2.36-2.27,6.11-2.2,8.38.16,1.27,1.32,31.24,32.94,46.45,89.22,13.98,51.74,17.36,134.84-45.87,236.95-1.12,1.81-3.07,2.81-5.05,2.81Z"/>
      </g>
      <g>
        <path d="M5.94,1559.11c-.35,0-.71-.03-1.07-.1-3.22-.59-5.36-3.68-4.77-6.9,16.64-91.12,55.23-155.83,114.7-192.34,91.47-56.15,198.2-25.35,202.7-24.01,3.14.93,4.93,4.24,4,7.38-.93,3.14-4.24,4.92-7.38,4-1.05-.31-106.31-30.59-193.2,22.8-56.42,34.67-93.14,96.68-109.14,184.3-.52,2.86-3.02,4.87-5.83,4.87Z"/>
        <path d="M73.48,1542.61c-.47,0-.94-.06-1.41-.17-3.18-.78-5.14-3.99-4.36-7.17,22.38-91.67,75.94-128.25,116.94-142.79,44.34-15.73,82.89-9.77,84.51-9.51,3.24.52,5.44,3.57,4.91,6.81-.52,3.23-3.58,5.42-6.8,4.91h0c-.37-.06-37.57-5.73-79.12,9.14-55.36,19.82-92,64.99-108.91,134.25-.66,2.71-3.09,4.53-5.76,4.53Z"/>
      </g>
    </g>
  </g>
</svg>