<?xml version="1.0" encoding="UTF-8"?>
<svg id="Calque_2" data-name="Calque 2" xmlns="http://www.w3.org/2000/svg" viewBox="0 0 1684.44 1736.24">
  <defs>
    <style>
      .cls-1 {
        fill: #8c5656;
      }

      .cls-2 {
        fill: #b79667;
      }

      .cls-3 {
        fill: #f7d247;
      }

      .cls-4 {
        fill: #fff;
      }

      .cls-5 {
        fill: #fbebdf;
      }

      .cls-6 {
        fill: #c1ab87;
      }
    </style>
  </defs>
  <g id="Layer_1" data-name="Layer 1">
    <g>
      <g>
        <path class="cls-5" d="M552.51,997.32l568.31-49.24,316.27,490.33c152.8-152.46,247.35-363.28,247.35-596.19C1684.44,377.07,1307.36,0,842.22,0S0,377.07,0,842.22c0,232.03,93.84,442.13,245.62,594.46l-27.12-287.02,334-152.34Z"/>
        <path class="cls-3" d="M842.22,1684.44c232.24,0,442.51-94,594.87-246.03l-316.27-490.33-568.31,49.24-334,152.34,27.12,287.02c152.5,153.04,363.48,247.76,596.59,247.76Z"/>
      </g>
      <g>
        <path class="cls-1" d="M1276.88,701.02s114.39-96.83,117.67-231.42h-64.01l-1.64-100.12-294.18-44.77,242.16,376.31Z"/>
        <path class="cls-1" d="M1279.07,523.52c81.46,240.47-57.12,498.33-309.54,575.94-252.42,77.61-523.08-54.42-604.54-294.89-81.46-240.47,57.12-498.33,309.54-575.94,252.42-77.61,523.08,54.42,604.54,294.89Z"/>
        <path class="cls-6" d="M1006.79,328.64c-81.26-45.48-177.37-66.07-276.79-52.93-75.91,10.03-144.83,38.56-202.86,80.42-80.43,58.03-139.88,141.71-167.94,237.38-5.48,18.68-9.79,37.81-12.79,57.31-6.33,41.07-7.02,83.72-1.3,127,2.76,20.87,6.92,41.21,12.36,60.94,38.66,140.1,142.36,249.5,272.96,298.99,66.91,25.36,140.88,35,216.79,24.97,167.04-22.07,300.28-133.66,357.89-280.08,23.11-58.74,34.02-123.09,30.08-189.51-.64-10.79-1.63-21.63-3.07-32.51-3.56-26.95-9.46-53.01-17.45-78.02-35.16-110.06-110.95-199.71-207.87-253.95Z"/>
        <g>
          <path class="cls-4" d="M676.39,526.94c-12.67,50.59-47.22,87.17-82.82,91.61,9.56,14.48,22.49,24.67,38.07,28.57,45.31,11.34,95.9-34.82,112.99-103.1,17.1-68.28-5.77-132.84-51.08-144.18-15.58-3.9-31.79-1-47.04,7.26,29.31,20.7,42.55,69.24,29.88,119.83Z"/>
          <path d="M580.56,502.94c-11.22,44.8-5.23,87.99,13.01,115.61,35.61-4.45,70.16-41.02,82.82-91.61,12.67-50.59-.57-99.13-29.88-119.83-29.1,15.76-54.73,51.04-65.95,95.84Z"/>
        </g>
        <g>
          <path class="cls-4" d="M818.72,533.71c-12.67,50.59-47.22,87.17-82.82,91.61,9.56,14.48,22.49,24.67,38.07,28.57,45.31,11.34,95.9-34.82,112.99-103.1,17.1-68.28-5.77-132.84-51.08-144.18-15.58-3.9-31.79-1-47.04,7.26,29.31,20.7,42.55,69.24,29.88,119.83Z"/>
          <path d="M722.89,509.72c-11.22,44.8-5.23,87.99,13.01,115.61,35.61-4.45,70.16-41.02,82.82-91.61,12.67-50.59-.57-99.13-29.88-119.83-29.1,15.76-54.73,51.04-65.95,95.84Z"/>
        </g>
        <circle class="cls-2" cx="1002.52" cy="648.84" r="67.58" transform="translate(-165.17 898.93) rotate(-45)"/>
        <circle class="cls-2" cx="453.83" cy="643.57" r="67.58" transform="translate(-322.15 509.4) rotate(-45)"/>
        <circle class="cls-6" cx="1274.85" cy="719.21" r="156.02"/>
        <path class="cls-1" d="M790.61,244.29s166.2,295.87,371.01,315.95l44.84,85.51,90.79-112.37-141.91-168.93-364.73-120.16Z"/>
        <circle cx="709.36" cy="711.13" r="28.16" transform="translate(-145.7296 1238.1271) rotate(-76.7175)"/>
      </g>
      <path class="cls-6" d="M671.92,1078.71l.02-2.8c.69-127.8-101.92-232.18-229.7-233.68h-.04c-130.23-1.53-236.3,104.23-235.15,234.47l.02,2.8c1.12,126.5,103.19,228.87,229.68,230.37h0c128.94,1.52,234.48-102.21,235.18-231.16Z"/>
      <path class="cls-6" d="M1397.79,1505.06l.02-2.8c.69-127.8-101.92-232.18-229.7-233.68h-.04c-130.23-1.53-236.3,104.23-235.15,234.47l.02,2.8c1.12,126.5,103.19,228.87,229.68,230.37h0c128.94,1.52,234.48-102.21,235.18-231.16Z"/>
      <path d="M666.91,1133.14c-.51,0-1.02-.05-1.54-.16-4-.84-6.56-4.77-5.71-8.77,3.14-14.87,4.78-30.19,4.86-45.53l.02-2.8c.67-123.3-99.1-224.79-222.39-226.24-18.33-.23-36.57,1.77-54.22,5.91-3.98.93-7.96-1.54-8.9-5.52-.93-3.98,1.54-7.96,5.52-8.9,18.81-4.41,38.25-6.52,57.74-6.3,131.44,1.54,237.77,109.71,237.06,241.12l-.02,2.8c-.09,16.34-1.83,32.66-5.18,48.51-.73,3.48-3.81,5.87-7.24,5.87Z"/>
      <path d="M653.44,1558.65c-3.93,0-7.2-3.09-7.39-7.06l-12.31-263.42c-.19-4.08,2.97-7.55,7.05-7.74,4.09-.22,7.55,2.96,7.74,7.05l12.31,263.42c.19,4.08-2.97,7.55-7.05,7.74-.12,0-.23,0-.35,0Z"/>
    </g>
  </g>
</svg>