<?xml version="1.0" encoding="UTF-8"?>
<svg id="Calque_2" data-name="Calque 2" xmlns="http://www.w3.org/2000/svg" viewBox="0 0 4365.65 3488.43">
  <defs>
    <style>
      .cls-1 {
        fill: #fbb5b5;
      }

      .cls-2 {
        fill: #66a967;
      }

      .cls-3 {
        fill: #f39d40;
      }

      .cls-4 {
        fill: #fff;
      }

      .cls-5 {
        fill: #56b9e1;
      }

      .cls-6 {
        fill: #e95eaa;
      }
    </style>
  </defs>
  <g id="Layer_1" data-name="Layer 1">
    <g>
      <path class="cls-6" d="M2369.03,1593.97l-38.42-108.5-682.08,59.81c-129.4,26.98-215.12,150.44-195.19,281.12l134.78,509.48,499.44-132.85-94.73-253.93,199.12-54.85c130.38-35.92,208.74-168.8,177.08-300.28Z"/>
      <path class="cls-1" d="M1965.73,903.59l-335.38,183.81-141.26-211.79c-51.72-68.18-146.27-86.85-220.03-43.45h0c-82.81,48.73-108.28,156.66-55.99,237.27l181.92,280.47c67.54,104.13,207.94,131.53,309.68,60.44l408.83-214.77-147.78-291.97Z"/>
      <g>
        <polygon class="cls-3" points="538.41 1140.83 604.23 941.88 700.43 1062.13 864.76 941.88 928.73 1104.88 1093.23 1086.18 1049.14 1246.51 1233.52 1246.51 1200.11 1422.87 1371.13 1458.94 1309.67 1635.3 1461.98 1611.25 1461.98 1755.55 1594.25 1691.42 1646.36 1844.79 1790.66 1723.48 1905.56 1827.7 2007.1 1719.47 2103.29 1811.66 2231.56 1719.47 2351.8 1827.7 2536.18 1775.59 2596.3 1875.79 2724.57 1819.68 2784.69 1959.97 2941.01 1959.97 2941.01 2096.25 3105.34 2096.25 3105.34 2236.53 3201.54 2252.56 3177.49 2376.82 3313.77 2426.11 3293.73 2579.9 3442.03 2601.28 3390.5 2710.07 3526.6 2766.95 3486.12 3034.16 1626.32 2601.28 538.41 1140.83"/>
        <path class="cls-5" d="M3417.98,3007.44H1141.33s45.09-1129.95,1028.43-1162.02c983.34-32.07,1248.22,1162.02,1248.22,1162.02Z"/>
        <path class="cls-5" d="M874.11,1104.88l-651.12,81.39c-153.08,19.14-254.05,168.99-214.3,318.06h0c30.96,116.09,138.9,194.71,258.9,188.56l211.05-10.82,662.69,1325.38,812.33-448.92L874.11,1104.88Z"/>
        <polygon class="cls-5" points="1077.2 2579.9 1141.33 3488.43 1344.41 3488.43 1419.23 2772.29 1077.2 2579.9"/>
        <polygon class="cls-5" points="1554.58 2579.9 1618.71 3488.43 1821.8 3488.43 1896.62 2772.29 1554.58 2579.9"/>
        <polygon class="cls-5" points="2146.05 2579.9 2210.18 3488.43 2413.26 3488.43 2488.08 2772.29 2146.05 2579.9"/>
        <polygon class="cls-5" points="2623.44 2579.9 2687.57 3488.43 2890.65 3488.43 2965.47 2772.29 2623.44 2579.9"/>
        <polygon class="cls-3" points="3471.56 2907.87 3634.43 2907.87 3606.77 3034.16 3806.78 3054.2 3774.71 3182.47 3894.96 3182.47 3894.96 3286.68 4031.24 3250.61 4031.24 3334.78 4203.59 3334.78 4227.64 3398.91 4291.77 3378.87 4365.65 3488.43 3818.8 3463.04 3471.56 3258.62 3471.56 2907.87"/>
        <polygon class="cls-5" points="2847.88 2885.86 3596.08 3488.43 4365.65 3488.43 3747.89 3278.93 3227.33 2579.9 2847.88 2885.86"/>
        <g>
          <g>
            <path class="cls-4" d="M630.6,1343.03c-1.63-38.61-21.24-70.32-46.42-78.86,9.1-9.08,20.01-14.55,31.9-15.05,34.58-1.46,64.4,39.59,66.6,91.71,2.21,52.11-24.04,95.54-58.61,97.01-11.89.5-23.22-4.02-33.06-12.3,24.37-10.64,41.23-43.89,39.59-82.5Z"/>
            <path d="M557.46,1346.13c-1.45-34.19,9.35-64.64,26.71-81.96,25.18,8.55,44.79,40.25,46.42,78.86,1.63,38.61-15.23,71.86-39.59,82.5-18.76-15.79-32.1-45.22-33.54-79.41Z"/>
          </g>
          <g>
            <path class="cls-4" d="M732.49,1338.72c-1.63-38.61-21.24-70.32-46.42-78.86,9.1-9.08,20.01-14.55,31.9-15.05,34.58-1.46,64.39,39.59,66.6,91.71,2.21,52.11-24.04,95.54-58.61,97.01-11.89.5-23.22-4.02-33.06-12.3,24.37-10.64,41.23-43.89,39.59-82.5Z"/>
            <path d="M659.36,1341.81c-1.45-34.19,9.35-64.64,26.71-81.96,25.18,8.55,44.79,40.25,46.42,78.86,1.63,38.61-15.23,71.86-39.59,82.5-18.76-15.79-32.1-45.22-33.54-79.41Z"/>
          </g>
        </g>
        <path d="M374.68,1584.73c-25.08,0-50.18-9.46-74.82-28.22-2.97-2.26-3.55-6.51-1.28-9.48,2.26-2.97,6.51-3.55,9.48-1.28,26.52,20.2,53.29,28.43,79.58,24.48,44.67-6.72,73.73-46.68,74.01-47.08,2.17-3.03,6.4-3.74,9.44-1.57,3.04,2.17,3.75,6.39,1.58,9.43-1.3,1.83-32.52,44.94-82.9,52.59-5.03.76-10.06,1.14-15.1,1.14Z"/>
        <g>
          <path d="M79.16,1401.58c-3.74,0-6.77-3.03-6.77-6.77v-51.33c0-3.74,3.03-6.77,6.77-6.77s6.77,3.03,6.77,6.77v51.33c0,3.74-3.03,6.77-6.77,6.77Z"/>
          <path d="M131.26,1397.26c-3.74,0-6.77-3.03-6.77-6.77v-51.33c0-3.74,3.03-6.77,6.77-6.77s6.77,3.03,6.77,6.77v51.33c0,3.74-3.03,6.77-6.77,6.77Z"/>
        </g>
      </g>
      <g>
        <polygon class="cls-1" points="1681.39 1794.86 1868.74 2432.73 1825.41 2747.74 2188.81 2671.97 2272.81 2310.14 2059.3 1644.55 1681.39 1794.86"/>
        <path class="cls-4" d="M1850.95,2562.04l17.78-129.31,404.07-122.59,41.14,129.55-125.14,232.28-363.4,75.78-99.17,20.68s-12.45-156.16,124.71-206.39Z"/>
        <path d="M1878.47,2560.61c-3.14,0-5.95-2.19-6.62-5.39-.76-3.66,1.58-7.24,5.24-8l115.76-24.14c3.67-.76,7.24,1.59,8.01,5.24.76,3.66-1.58,7.24-5.24,8l-115.76,24.14c-.47.1-.93.15-1.39.15Z"/>
      </g>
      <path class="cls-6" d="M2581.82,1603.15l-38.42-108.5-682.08,59.81c-129.4,26.98-215.12,150.44-195.19,281.12l134.78,509.48,499.44-132.85-94.73-253.93,199.12-54.85c130.38-35.92,208.74-168.8,177.08-300.28Z"/>
      <path class="cls-2" d="M1919.46,1549.36l670.53,7.07,15.58-61.78-30.43-69.12-103.02-378.05c-38.72-142.11-172.35-237.16-319.3-227.12l-273.27,18.67,39.9,710.33Z"/>
      <path class="cls-1" d="M2690.17,1824.41l-129.06-654.7-353.68,74.88,130.02,649.87c18.02,90.09,101.06,152.09,192.56,143.79h0c106.26-9.64,180.79-109.16,160.16-213.84Z"/>
      <path class="cls-2" d="M2115.96,1079.08l52.74,213.37,436.87-47.68-60.77-237.98c-30.14-118.02-175.36-161.09-264.97-78.59l-163.88,150.88Z"/>
      <polygon class="cls-2" points="1900.95 898.45 1681.48 1009.23 1934.78 1394.06 2120.42 1266.13 1900.95 898.45"/>
      <g>
        <g>
          <g>
            <path class="cls-1" d="M1670.06,615.16c-8.84-74.89,1.66-147.61,27.55-213.16,50.52-127.95,159.68-228.59,298.18-264.75l493.54,646.44c-67.18,116.23-186.44,200.43-330.01,217.38-241.67,28.54-460.72-144.24-489.25-385.91Z"/>
            <path d="M2055.98,125.91c166.78-19.69,322.76,56.5,412.82,185.03,40.44,57.72,67.59,125.99,76.44,200.88,11.58,98.09-10,192.46-55.9,271.87l-493.54-646.44c19.51-5.09,39.6-8.91,60.19-11.34Z"/>
          </g>
          <g>
            <g>
              <path class="cls-4" d="M1977.29,521.94c-11.93,46.15-43.76,79.33-76.34,83.15,8.64,13.3,20.38,22.71,34.59,26.38,41.33,10.68,87.89-31.15,103.99-93.44,16.1-62.29-4.35-121.44-45.68-132.13-14.21-3.67-29.05-1.14-43.05,6.31,26.64,19.12,38.4,63.58,26.47,109.73Z"/>
              <path d="M1889.87,499.34c-10.56,40.87-5.39,80.38,11.08,105.75,32.57-3.81,64.41-37,76.34-83.15,11.93-46.15.17-90.6-26.47-109.73-26.7,14.2-50.38,46.26-60.94,87.13Z"/>
            </g>
            <g>
              <path class="cls-4" d="M2099.08,553.42c-11.93,46.15-43.76,79.33-76.34,83.15,8.64,13.3,20.38,22.71,34.59,26.38,41.33,10.68,87.88-31.15,103.99-93.44,16.1-62.29-4.35-121.44-45.68-132.13-14.21-3.67-29.05-1.14-43.05,6.31,26.64,19.12,38.4,63.58,26.47,109.73Z"/>
              <path d="M2011.66,530.82c-10.56,40.87-5.39,80.38,11.08,105.75,32.57-3.81,64.41-37,76.34-83.15,11.93-46.15.17-90.6-26.47-109.73-26.7,14.2-50.38,46.26-60.94,87.13Z"/>
            </g>
          </g>
          <path d="M1995.55,728.18c-4.49,0-9.03-.44-13.56-1.34-29.71-5.92-52.04-30.11-55.56-60.18-.43-3.71,2.22-7.07,5.93-7.51,3.71-.44,7.07,2.22,7.51,5.93,2.84,24.22,20.83,43.71,44.77,48.48,24.67,4.92,49.8-7.32,61.09-29.77,1.68-3.34,5.75-4.68,9.09-3,3.34,1.68,4.68,5.75,3,9.09-11.95,23.75-36.36,38.3-62.27,38.3Z"/>
        </g>
        <circle cx="2200.94" cy="228.25" r="124.19" transform="translate(483.2429 1623.1553) rotate(-45)"/>
        <circle cx="2083.22" cy="124.21" r="124.19"/>
        <circle class="cls-1" cx="2502.78" cy="693.65" r="147.48" transform="translate(242.5632 1972.9008) rotate(-45)"/>
      </g>
      <path d="M1901.25,1266.62c-3.54,0-6.52-2.76-6.75-6.34l-11.38-182.05c-.23-3.73,2.6-6.94,6.33-7.17,3.72-.22,6.94,2.6,7.17,6.33l11.38,182.05c.23,3.73-2.6,6.94-6.33,7.17-.14,0-.29.01-.43.01Z"/>
      <path d="M2172.46,1255.85c-3.59,0-6.58-2.82-6.75-6.45l-5.64-119.71c-.18-3.73,2.71-6.9,6.44-7.08,3.68-.21,6.9,2.71,7.08,6.44l5.64,119.71c.17,3.73-2.71,6.9-6.44,7.08-.11,0-.22,0-.32,0Z"/>
      <path d="M1668.17,1162.61c-2.16,0-4.28-1.03-5.59-2.94l-32.13-46.92c-2.11-3.08-1.32-7.29,1.76-9.41,3.08-2.11,7.3-1.32,9.41,1.76l32.13,46.91c2.11,3.08,1.32,7.29-1.76,9.41-1.17.8-2.5,1.19-3.82,1.19Z"/>
      <path d="M2192.46,1931.59c-2.8,0-5.42-1.75-6.39-4.55l-63.92-183.88c-1.23-3.53.64-7.39,4.17-8.61,3.53-1.22,7.39.64,8.61,4.17l63.93,183.88c1.23,3.53-.64,7.39-4.17,8.61-.74.26-1.49.38-2.22.38Z"/>
      <path d="M2184.69,1902.2c-.07,0-.15,0-.22,0-3.74-.12-6.66-3.25-6.54-6.98l4.03-123.79c.12-3.74,3.31-6.62,6.98-6.54,3.74.12,6.67,3.25,6.54,6.98l-4.03,123.79c-.12,3.66-3.12,6.55-6.76,6.55Z"/>
      <path d="M1666.13,1842.34c-3.29,0-6.17-2.4-6.68-5.75-20.48-134.21,67.59-261.05,200.49-288.76,3.67-.76,7.24,1.59,8.01,5.24.76,3.66-1.58,7.24-5.24,8.01-125.87,26.25-209.27,146.37-189.88,273.47.56,3.69-1.97,7.15-5.67,7.71-.35.05-.69.08-1.03.08Z"/>
    </g>
  </g>
</svg>