<?xml version="1.0" encoding="UTF-8"?>
<svg id="Calque_2" data-name="Calque 2" xmlns="http://www.w3.org/2000/svg" viewBox="0 0 3842.56 1935.98">
  <defs>
    <style>
      .cls-1 {
        fill: #ddc8ba;
      }

      .cls-2 {
        fill: #e0704c;
      }

      .cls-3 {
        fill: #fff;
      }

      .cls-4 {
        fill: #090000;
      }

      .cls-5 {
        fill: #e8959d;
      }

      .cls-6 {
        fill: #edca4b;
      }

      .cls-7 {
        fill: #f6e8dd;
      }

      .cls-8 {
        fill: #e8acb5;
      }

      .cls-9 {
        fill: #589a69;
      }

      .cls-10 {
        fill: #54add0;
      }
    </style>
  </defs>
  <g id="Layer_1" data-name="Layer 1">
    <g>
      <path class="cls-6" d="M3172.98,1864.82c-9.39,0-18.83-.22-28.34-.68-60.25-2.85-123.11-14.71-186.84-35.26-107.92-34.79-181.06-82.37-184.12-84.38l41.48-63.22-20.74,31.61,20.71-31.63c.68.44,69.11,44.75,167.82,76.28,57.13,18.25,113.13,28.72,166.45,31.13,65.48,2.95,127.15-6.34,183.29-27.64,266.37-101.06,365.61-121.5,509.89-62.3l-46.06,24.05,17.35,45.91c-62.54-25.66-108.3-32.19-168.82-24.11-71.51,9.55-165.87,41.75-285.55,87.15-57.97,21.99-120.59,33.09-186.51,33.09Z"/>
      <g>
        <path class="cls-9" d="M1856.53,1002.91H68.77c-65.51,0-93.78,83.02-41.9,123l835.02,643.46h1989.28l-994.64-766.46Z"/>
        <path class="cls-7" d="M2048.48,970.72l-1883.07-10.41c290.74,190.29,543.77,421.45,747.65,809.06h1938.11l-802.69-798.65Z"/>
        <path class="cls-7" d="M2341,893.75l-1883.07-10.41c236.6,236.92,379.78,543.88,476.02,886.03h1917.22s-510.17-875.62-510.17-875.62Z"/>
        <path class="cls-4" d="M883.94,1612.84c-2.05,0-3.97-1.29-4.67-3.34-83.64-245.44-189.22-444.73-322.77-609.28-1.72-2.11-1.39-5.22.72-6.94,2.12-1.72,5.22-1.4,6.94.72,134.29,165.47,240.42,365.75,324.45,612.31.88,2.58-.5,5.38-3.08,6.26-.53.18-1.06.26-1.59.26Z"/>
        <g>
          <path class="cls-1" d="M1055.49,1612.84c-2.05,0-3.97-1.29-4.67-3.34-88.69-260.26-200.65-471.59-342.27-646.08-1.72-2.11-1.39-5.22.72-6.94,2.12-1.72,5.22-1.39,6.94.72,142.36,175.41,254.87,387.74,343.94,649.12.88,2.58-.5,5.38-3.08,6.26-.53.18-1.06.26-1.59.26Z"/>
          <path class="cls-1" d="M1219.99,1612.84c-2.05,0-3.97-1.29-4.67-3.34-88.69-260.26-200.65-471.59-342.27-646.08-1.72-2.11-1.39-5.22.72-6.94,2.12-1.72,5.22-1.39,6.94.72,142.36,175.41,254.87,387.74,343.94,649.12.88,2.58-.5,5.38-3.08,6.26-.53.18-1.06.26-1.59.26Z"/>
          <path class="cls-1" d="M1384.48,1612.84c-2.05,0-3.97-1.29-4.67-3.34-88.69-260.26-200.65-471.59-342.27-646.08-1.72-2.11-1.39-5.22.72-6.94,2.11-1.72,5.22-1.39,6.94.72,142.36,175.41,254.87,387.74,343.94,649.12.88,2.58-.5,5.38-3.08,6.26-.53.18-1.06.26-1.59.26Z"/>
          <path class="cls-1" d="M1548.97,1612.84c-2.05,0-3.97-1.29-4.67-3.34-88.69-260.26-200.65-471.6-342.27-646.08-1.72-2.11-1.39-5.22.72-6.94,2.11-1.72,5.22-1.39,6.94.72,142.36,175.41,254.87,387.73,343.94,649.12.88,2.58-.5,5.38-3.08,6.26-.53.18-1.06.26-1.59.26Z"/>
          <path class="cls-1" d="M1713.46,1612.84c-2.05,0-3.97-1.29-4.67-3.34-88.69-260.26-200.65-471.59-342.27-646.08-1.72-2.11-1.39-5.22.72-6.94,2.11-1.72,5.22-1.39,6.94.72,142.36,175.41,254.87,387.74,343.94,649.12.88,2.58-.5,5.38-3.08,6.26-.53.18-1.06.26-1.59.26Z"/>
        </g>
        <path class="cls-4" d="M747.22,1568.73c-1.05,0-2.11-.33-3.01-1.03L76.13,1052.43c-2.16-1.66-2.56-4.76-.89-6.92,1.66-2.16,4.76-2.56,6.92-.89l668.08,515.27c2.16,1.66,2.56,4.76.89,6.92-.97,1.26-2.43,1.92-3.91,1.92Z"/>
      </g>
      <g>
        <path class="cls-2" d="M1814.8,929.43c-35.17-101.61-117.54-179.79-220.84-209.62l-115.43-33.33-255.23-498.31-283.67,140.11,287.58,589.97,150.87,484.32,513.84-250.36-77.12-222.78Z"/>
        <path class="cls-8" d="M1177.26,98.3c-28.01-68.98-100.48-108.94-173.76-95.83h0c-98.15,17.56-155.53,120.7-118.69,213.35l54.82,112.46,283.67-140.11-46.03-89.87Z"/>
      </g>
      <g>
        <path class="cls-2" d="M1025.66,1712.89l383.24-257.77-297.57-4.55c-65.69,62.07-87.64,154.02-85.67,262.32Z"/>
        <path class="cls-6" d="M1728.04,1159.17l-476.16-44.25c-149.19-18.6-256.33,110.41-181.63,249.91l41.08,85.73,297.57,4.55,176.33-118.6,142.81-177.35Z"/>
      </g>
      <path class="cls-10" d="M2327.17,722.8h0c170.12,0,308.23,138.11,308.23,308.23v238.15h-616.46v-238.15c0-170.12,138.11-308.23,308.23-308.23Z"/>
      <path class="cls-7" d="M3692.24,1058.94l-1883.07-10.41c-336.68,132.04-614.18,406.61-875.22,720.84h1917.22c240.21-281.3,507.68-532.38,841.06-710.43Z"/>
      <path class="cls-9" d="M861.89,1769.37h1989.28v55c0,61.6-50.01,111.61-111.61,111.61H973.5c-61.6,0-111.61-50.01-111.61-111.61v-55h0Z"/>
      <path class="cls-9" d="M3605.32,1183.14h-1752.73c-53.94,0-106.3,18.27-148.54,51.82l-693.54,534.41h1840.66l778.67-503.07c37.84-24.45,20.53-83.16-24.53-83.16Z"/>
      <path class="cls-4" d="M979.65,1719.93c-1.13,0-2.26-.39-3.19-1.17-2.07-1.76-2.33-4.88-.56-6.95,15.45-18.17,30.91-36.09,45.93-53.28,1.79-2.05,4.91-2.26,6.96-.47,2.05,1.79,2.26,4.91.47,6.96-15,17.15-30.42,35.05-45.85,53.18-.98,1.15-2.36,1.74-3.76,1.74Z"/>
      <path class="cls-4" d="M2263.41,1054.57h-.03l-291.57-1.61c-2.72-.01-4.92-2.23-4.9-4.96.01-2.71,2.22-4.9,4.93-4.9h.03l291.57,1.61c2.72.01,4.92,2.23,4.9,4.96-.01,2.71-2.22,4.9-4.93,4.9Z"/>
      <path class="cls-4" d="M2806.31,1801.31h-1725.04c-2.72,0-4.93-2.21-4.93-4.93s2.21-4.93,4.93-4.93h1725.04c2.72,0,4.93,2.21,4.93,4.93s-2.21,4.93-4.93,4.93Z"/>
      <path class="cls-4" d="M1136.11,1801.31c-1.49,0-2.96-.67-3.93-1.95-1.65-2.17-1.22-5.26.95-6.91l657.19-498.5c17.49-13.54,39.35-21.01,61.52-21.01h1667.43c2.72,0,4.93,2.21,4.93,4.93s-2.21,4.93-4.93,4.93h-1667.43c-19.99,0-39.71,6.74-55.52,18.97l-657.22,498.54c-.89.68-1.94,1-2.98,1Z"/>
      <path class="cls-4" d="M913.07,1769.37h97.45v24.67c0,26.89-21.83,48.73-48.73,48.73h0c-26.89,0-48.73-21.83-48.73-48.73v-24.67h0Z"/>
      <g>
        <g>
          <g>
            <circle class="cls-4" cx="1778.4" cy="346.09" r="123.49" transform="translate(276.1581 1358.8871) rotate(-45)"/>
            <circle class="cls-4" cx="1953.86" cy="378.82" r="97.41"/>
            <circle class="cls-4" cx="2070.7" cy="303.95" r="74.87" transform="translate(391.5677 1553.2334) rotate(-45)"/>
          </g>
          <g>
            <path class="cls-4" d="M1769.19,603.97c2.2-9.07,4.05-18.29,5.47-27.66,1.17-7.67,2.1-15.43,2.72-23.29,1.54-19.45,1.3-38.63-.56-57.39-8.18-82.54-47.95-156.83-107.86-209.44-50.23-44.11-114.61-72.97-186.37-78.65-54.79-4.34-107.45,5.36-154.47,26.05-57.37,25.25-106.3,66.91-140.42,119.47l281.99-70.94s115.72,251.12,299.48,321.84Z"/>
            <path class="cls-8" d="M1469.71,282.14l-281.99,70.94c-4.63,7.14-9,14.47-13.07,22-6.65,12.29-12.54,25.08-17.57,38.32-10.6,27.88-17.48,57.72-19.95,88.96-1.19,15.06-1.32,29.97-.46,44.64,6.14,104.15,62.54,196.49,146.8,250.81,43.17,27.83,93.65,45.69,148.44,50.03,120.58,9.55,230.84-48.81,293.23-142.97,20.06-30.28,35.15-64.26,44.05-100.88-183.77-70.71-299.48-321.84-299.48-321.84Z"/>
          </g>
          <g>
            <path class="cls-3" d="M1405.49,537.53c-3.76,34.54-23.24,61.81-46.34,67.98,7.62,8.68,17.08,14.24,27.72,15.4,30.93,3.37,60.12-31.68,65.2-78.3,5.08-46.61-15.87-87.13-46.8-90.5-10.64-1.16-21.07,2.23-30.38,9.06,21.22,11,34.37,41.83,30.6,76.36Z"/>
            <path class="cls-4" d="M1340.08,530.4c-3.33,30.58,4.54,58.54,19.08,75.11,23.09-6.17,42.57-33.44,46.34-67.98,3.76-34.54-9.38-65.36-30.6-76.36-17.77,13.04-31.48,38.65-34.82,69.23Z"/>
          </g>
          <path class="cls-4" d="M1382.74,644.29c2.97,19.1,17.91,34.96,38.03,38.18,20.81,3.34,40.59-7.9,48.94-26.19l-86.97-12Z"/>
          <path class="cls-4" d="M1513.26,584.81c-1.07,0-2.15-.35-3.06-1.06l-41.84-33.09c-1.48-1.17-2.16-3.08-1.76-4.92.4-1.84,1.81-3.29,3.64-3.74l53.6-13.17c2.64-.64,5.32.97,5.97,3.61.65,2.64-.97,5.32-3.61,5.97l-43.81,10.76,33.94,26.84c2.14,1.69,2.5,4.79.81,6.93-.97,1.23-2.42,1.87-3.87,1.87Z"/>
          <circle class="cls-5" cx="1578.55" cy="656.27" r="45.02" transform="translate(159.4802 1609.5454) rotate(-56.4665)"/>
          <circle class="cls-5" cx="1265.69" cy="598.71" r="45.02" transform="translate(-26.75 60.18) rotate(-2.7)"/>
          <path class="cls-4" d="M1469.71,249.34s-109.65,15.01-34.22,155.91l17.16-72.28s-6.02,74.48,95.82,80.7l30.07-74.14-108.84-90.19Z"/>
        </g>
        <circle class="cls-8" cx="1759.38" cy="615.91" r="103.93" transform="translate(79.7968 1424.4689) rotate(-45)"/>
      </g>
      <circle class="cls-8" cx="1828.17" cy="972.13" r="148.35"/>
      <g>
        <g>
          <g>
            <path class="cls-8" d="M2167.08,326.9c45.71-57.05,110.02-97.26,181.9-113.09l198.93,607.34c-57.05,25.32-122.05,34.33-188.08,22.19-174.43-32.08-289.84-199.49-257.76-373.92,9.94-54.06,32.89-102.44,65-142.52Z"/>
            <path d="M2431.65,206.63c14.68.65,29.49,2.3,44.35,5.04,120.38,22.14,212.63,108.73,247.71,217.6,15.75,48.89,19.99,102.27,10.05,156.32-13.02,70.8-48.34,131.88-97.37,177.31-26.04,24.13-55.97,43.83-88.47,58.25l-198.93-607.34c26.7-5.88,54.43-8.42,82.66-7.18Z"/>
          </g>
          <path d="M2130.03,551.18c-8.24,0-16.53-1.99-24.12-6.1-2.4-1.3-3.28-4.29-1.99-6.69,1.3-2.4,4.29-3.29,6.68-1.99,16.13,8.73,36.25,5.61,48.94-7.6,1.89-1.96,5.01-2.02,6.97-.14,1.96,1.89,2.03,5.01.14,6.97-9.78,10.18-23.13,15.54-36.63,15.54Z"/>
          <circle class="cls-5" cx="2282.14" cy="543.61" r="45.02"/>
          <circle class="cls-8" cx="2127.53" cy="437.11" r="44.66"/>
          <g>
            <path class="cls-3" d="M2210.16,423.13c-17.44,30.05-46.29,47.09-69.91,43.37,3.45,11.03,9.85,19.94,19.1,25.31,26.91,15.61,67.8-4.6,91.33-45.16,23.53-40.56,20.8-86.09-6.11-101.7-9.25-5.37-20.16-6.5-31.45-4.02,14.95,18.65,14.47,52.16-2.97,82.21Z"/>
            <path d="M2153.25,390.1c-15.44,26.61-19.57,55.36-12.99,76.4,23.61,3.72,52.47-13.32,69.91-43.37,17.44-30.05,17.91-63.56,2.97-82.21-21.53,4.72-44.44,22.58-59.88,49.18Z"/>
          </g>
          <path d="M2924.63,749.77s-98.79-32.29-93.47-150.91c4.92-109.83-9.06-254.93-107.51-341.06-220.8-193.17-429.82-26.46-429.82-26.46,0,0-53.47,171.24,138.04,267.38,107.89,54.16,102.44,81.26-44.87,229.83,0,0,120.51,176.35,296.71,123.34l-3.97-15.07c11.01,6.22,25.77,10.73,44.71,13.31l200.18-100.35Z"/>
          <circle class="cls-8" cx="2444.58" cy="628.47" r="130.36" transform="translate(271.6063 1912.6554) rotate(-45)"/>
          <path d="M2287.8,266.15s-72.4-65.75,26.39-123.15l8.13,41.79,51.3-41.79,16.4,113.15-102.22,10Z"/>
        </g>
        <g>
          <path class="cls-10" d="M2398.05,506.01h0c-9.89-11.15-8.86-28.2,2.28-38.09l45.55-40.4c11.15-9.89,28.2-8.86,38.09,2.28h0c9.89,11.15,8.86,28.2-2.28,38.09l-45.55,40.4c-11.15,9.89-28.2,8.86-38.09-2.28Z"/>
          <path class="cls-10" d="M2344.24,451.77h0c-9.89-11.15-8.86-28.2,2.28-38.09l45.55-40.4c11.15-9.89,28.2-8.86,38.09,2.28h0c9.89,11.15,8.86,28.2-2.28,38.09l-45.55,40.4c-11.15,9.89-28.2,8.86-38.09-2.28Z"/>
        </g>
      </g>
      <circle class="cls-8" cx="2635.4" cy="995.99" r="148.35"/>
      <circle class="cls-8" cx="2226.39" cy="1006.4" r="148.35"/>
    </g>
  </g>
</svg>