<?xml version="1.0" encoding="UTF-8"?>
<svg id="Calque_2" data-name="Calque 2" xmlns="http://www.w3.org/2000/svg" viewBox="0 0 1736.48 2006.17">
  <defs>
    <style>
      .cls-1 {
        fill: #c9805b;
      }

      .cls-2 {
        fill: #3a3030;
      }

      .cls-3 {
        fill: #efca75;
      }

      .cls-4 {
        fill: #3f728e;
      }

      .cls-5 {
        fill: #a56b4e;
      }

      .cls-6 {
        fill: #fff;
      }

      .cls-7 {
        fill: #514242;
      }
    </style>
  </defs>
  <g id="Layer_1" data-name="Layer 1">
    <g>
      <g>
        <path class="cls-7" d="M580.77,1228.64c163.2,337.74,220.72,657.83,148.2,775.61,7.38-1.48,14.43-3.81,21.14-7.05,128.02-61.86,79.93-426.31-107.41-814.01C455.35,795.48,199.7,531.34,71.67,593.2c-16.5,7.97-30.06,20.98-40.79,38.4,133.48-26.8,372.35,229.64,549.89,597.04Z"/>
        <path class="cls-2" d="M179.08,1407.21c177.54,367.4,416.41,623.84,549.89,597.04,72.52-117.78,15.01-437.87-148.2-775.61C403.24,861.24,164.36,604.8,30.88,631.6c-72.52,117.78-15,437.87,148.2,775.61Z"/>
      </g>
      <g>
        <g>
          <path class="cls-4" d="M153.48,1311.79l-20.41-5.82c8.02,18.81,16.38,37.73,25.09,56.74l-4.67-50.92Z"/>
          <path class="cls-5" d="M613.64,1636.27l153.06-334.52-308.86-65.77-104.9,132.69-199.46-56.87,4.67,50.92c6.78,14.79,13.75,29.63,20.93,44.5,45.71,94.59,95.49,181.8,146.48,258.74l121.53,36.12c60.34,22.92,141.86,2.77,166.54-65.81Z"/>
        </g>
        <path class="cls-5" d="M555.44,1604.59l165.66-362.07-308.86-65.77-104.9,132.69-195.84-55.84c19.98,50.34,42.53,101.76,67.58,153.61,34.88,72.19,72.14,140.07,110.49,202.38l154.05,45.79c44.72,13.29,92.4-8.37,111.81-50.79Z"/>
        <g>
          <polygon class="cls-3" points="850.67 733.19 1141.63 919.19 1332.05 827.52 1193.93 569.85 850.67 733.19"/>
          <path class="cls-5" d="M1528.86,410.48l-334.92,159.37,138.12,257.67,322.17-155.09c74.42-35.82,104.01-126.42,65.08-199.27h0c-36.55-68.41-120.42-96.01-190.45-62.68Z"/>
        </g>
        <polygon class="cls-3" points="1141.63 919.19 791.13 1283.89 372.75 1046.38 543.04 768.67 1047.55 713.86 1141.63 919.19"/>
        <path class="cls-4" d="M829.91,1245.6l-28.56,93.45-41.76,219.64c-128.48,69.43-111.74-68.52-309.69-47.5-149.03,15.82-296.42-199.84-296.42-324.08l72.75-26.8,190.69-169.82"/>
        <path d="M470,1664.72c-9.29,0-18.68-1.31-27.94-4.07l-108.36-32.21c-2.91-.87-4.56-3.92-3.7-6.83.87-2.91,3.92-4.56,6.83-3.7l108.36,32.21c41.84,12.44,87.09-8.12,105.25-47.81l9.25-20.23c1.26-2.76,4.53-3.97,7.28-2.71,2.76,1.26,3.97,4.52,2.71,7.28l-9.25,20.23c-16.41,35.86-52.48,57.84-90.43,57.84Z"/>
        <g>
          <polygon class="cls-3" points="790.21 882.06 638.42 670.12 471.65 772.22 608.07 1011.52 790.21 882.06"/>
          <path class="cls-5" d="M471.65,772.22l-180.31,110.38c-79.23,48.51-105.42,151.29-59.07,231.8l103.34,179.49c38.92,67.6,122.84,94.55,193.84,62.24h0c79.29-36.08,111.84-131.48,71.12-208.5l-50.26-95.07,57.76-41.06-136.42-239.3Z"/>
        </g>
        <g>
          <g>
            <circle cx="1010.39" cy="184.26" r="85.15"/>
            <circle cx="947.79" cy="78.32" r="67.16"/>
            <circle cx="855.9" cy="51.62" r="51.62" transform="translate(-.57 10.51) rotate(-.7)"/>
          </g>
          <g>
            <g>
              <g>
                <path d="M588.65,625.7c-3.08-9.93-5.78-20.05-8.02-30.37-1.83-8.45-3.41-17.01-4.65-25.7-3.07-21.52-4.15-42.87-3.39-63.85,3.33-92.34,42.37-177.73,105.31-240.4,52.77-52.55,122.34-89.14,201.74-100.46,60.62-8.65,119.85-1.55,173.57,18.18,65.55,24.07,122.87,66.97,164.47,123.04l-318.51-59.19s-111.14,287.3-310.53,378.76Z"/>
                <path class="cls-5" d="M899.18,246.94l318.51,59.19c5.65,7.61,11.02,15.46,16.07,23.54,8.25,13.21,15.69,27.01,22.21,41.38,13.74,30.26,23.46,62.96,28.4,97.52,2.38,16.67,3.56,33.23,3.62,49.6.45,116.23-55.82,222.85-145.72,289.13-46.06,33.96-100.94,57.34-161.56,65.99-133.4,19.03-260.08-38.16-336.03-138.5-24.42-32.26-43.57-69-56.02-109.09,199.39-91.46,310.53-378.76,310.53-378.76Z"/>
              </g>
              <g>
                <path class="cls-6" d="M988.41,526.44c6.6,38.14,30.16,67.1,56.27,72.35-7.87,10.19-18,17.02-29.74,19.06-34.15,5.91-69.06-31.03-77.96-82.51-8.9-51.47,11.57-97.99,45.72-103.9,11.75-2.03,23.58,1.01,34.42,7.96-22.83,13.71-35.29,48.91-28.7,87.04Z"/>
                <path d="M1060.65,513.95c5.84,33.77-.96,65.41-15.97,84.84-26.11-5.25-49.67-34.21-56.27-72.35-6.6-38.14,5.87-73.33,28.7-87.04,20.67,13.26,37.7,40.78,43.54,74.55Z"/>
              </g>
              <g>
                <path class="cls-6" d="M881.75,550.66c6.6,38.14,30.16,67.1,56.27,72.35-7.87,10.19-18,17.02-29.74,19.06-34.15,5.91-69.06-31.03-77.96-82.51-8.9-51.47,11.57-97.99,45.72-103.9,11.75-2.03,23.58,1,34.42,7.96-22.83,13.71-35.29,48.91-28.7,87.04Z"/>
                <path d="M953.99,538.17c5.84,33.77-.96,65.41-15.97,84.84-26.11-5.25-49.67-34.21-56.27-72.35-6.6-38.14,5.87-73.33,28.7-87.04,20.67,13.26,37.7,40.78,43.54,74.55Z"/>
              </g>
              <path d="M1014.15,638.66c-1.74,18.91-15.42,35.39-34.95,39.79-20.2,4.56-40.3-5.25-49.61-22.67"/>
              <circle class="cls-1" cx="804.28" cy="670.54" r="50.15" transform="translate(-138.26 214.35) rotate(-13.99)"/>
              <circle class="cls-1" cx="1148.13" cy="584.7" r="50.15" transform="translate(-60.8 139.09) rotate(-6.75)"/>
              <path d="M931.68,200.37s155.97,65.46,15.75,225.22l-21.53-62.75s7.7,21.83-105.11,35.85l-38.61-80.33,149.51-117.99Z"/>
            </g>
            <circle class="cls-5" cx="600.39" cy="638.3" r="115.78" transform="translate(-275.49 611.49) rotate(-45)"/>
          </g>
          <circle class="cls-5" cx="600.39" cy="638.3" r="115.78" transform="translate(-275.49 611.49) rotate(-45)"/>
          <g>
            <circle cx="546.75" cy="410.89" r="85.15"/>
            <circle cx="427.43" cy="441" r="67.16" transform="translate(-120.48 718.42) rotate(-72.75)"/>
            <circle cx="343.79" cy="394.52" r="51.62"/>
          </g>
        </g>
        <path d="M637.67,995.99c-1.98,0-3.9-1.08-4.88-2.96-1.4-2.69-.36-6.01,2.34-7.41l93.8-48.86c2.69-1.4,6.01-.36,7.41,2.34,1.4,2.69.36,6.01-2.34,7.41l-93.8,48.86c-.81.42-1.68.62-2.53.62Z"/>
      </g>
    </g>
  </g>
</svg>