<?xml version="1.0" encoding="UTF-8"?>
<svg id="Calque_2" data-name="Calque 2" xmlns="http://www.w3.org/2000/svg" viewBox="0 0 1653.96 1440.91">
  <defs>
    <style>
      .cls-1 {
        fill: #c9805b;
      }

      .cls-2 {
        fill: #3a3030;
      }

      .cls-3 {
        fill: #efca75;
      }

      .cls-4 {
        fill: #3f728e;
      }

      .cls-5 {
        fill: #a56b4e;
      }

      .cls-6 {
        fill: #fff;
      }

      .cls-7 {
        fill: #514242;
      }
    </style>
  </defs>
  <g id="Layer_1" data-name="Layer 1">
    <g>
      <g>
        <path class="cls-7" d="M877.33,857c336.6-165.55,656.27-225.29,774.56-153.59-1.53-7.36-3.91-14.41-7.2-21.09-62.75-127.59-426.85-76.97-813.24,113.07-386.39,190.04-648.75,447.53-586,575.12,8.09,16.44,21.19,29.92,38.68,40.52-27.73-133.29,227.04-373.94,593.2-554.03Z"/>
        <path class="cls-2" d="M1058.7,1257.44c366.16-180.09,620.92-420.74,593.2-554.03-118.28-71.7-437.96-11.96-774.56,153.59-366.16,180.09-620.92,420.74-593.2,554.03,118.28,71.7,437.96,11.96,774.56-153.59Z"/>
      </g>
      <g>
        <path class="cls-5" d="M754.92,963.57l-205.96,466.8c112.68-17.75,247.25-57.67,389.07-117.73l82.08-194.18-265.2-154.89Z"/>
        <polygon class="cls-3" points="597.41 873.8 362.7 769.02 446.07 589.13 597.41 873.8"/>
        <path class="cls-3" d="M704.28,1018.23l-321.99-357.44,396.43-105.89,295.84,278.13c-70.85,173.01-212.54,215.5-370.27,185.19Z"/>
        <path class="cls-4" d="M1074.56,833.04c-97.93,139.43-215.1,220.24-370.27,185.19l-73.08,199.75s124.15,90.32,287.42,102.77c46.02-18.98,92.88-40.11,140.07-63.32,92.08-45.29,177.11-94.41,252.38-144.69,31.89-56.19,43.63-101.83,43.63-101.83l-280.14-177.88Z"/>
        <g>
          <polygon class="cls-3" points="893.76 621.1 691.5 799.85 872.14 906.6 1003.71 689.63 893.76 621.1"/>
          <path class="cls-5" d="M1250.73,1075.7l-7.18-152.1c-2.57-54.51-31.75-104.28-78.06-133.14l-161.78-100.84-131.56,216.98,102.92,60.83.43,115.28c.28,74.15,59.21,134.76,133.32,137.12h0c80.29,2.55,145.71-63.88,141.92-144.12Z"/>
        </g>
        <g>
          <g>
            <circle cx="751.59" cy="164.73" r="85.15" transform="translate(103.66 579.7) rotate(-45)"/>
            <circle cx="826.6" cy="67.17" r="67.16" transform="translate(194.61 604.16) rotate(-45)"/>
            <circle cx="921.04" cy="51.82" r="51.62" transform="translate(233.12 666.45) rotate(-45)"/>
          </g>
          <g>
            <g>
              <g>
                <path d="M947.08,565.97c3.08-9.93,5.78-20.05,8.02-30.37,1.83-8.45,3.41-17.01,4.65-25.7,3.07-21.52,4.15-42.87,3.39-63.85-3.33-92.34-42.37-177.73-105.31-240.4-52.77-52.55-122.34-89.14-201.74-100.46-60.62-8.65-119.85-1.55-173.57,18.18-65.55,24.07-122.87,66.97-164.47,123.04l318.51-59.19s111.14,287.3,310.53,378.76Z"/>
                <path class="cls-5" d="M636.54,187.21l-318.51,59.19c-5.65,7.61-11.02,15.46-16.07,23.54-8.25,13.21-15.69,27.01-22.21,41.38-13.74,30.26-23.46,62.96-28.4,97.52-2.38,16.67-3.56,33.23-3.62,49.6-.45,116.23,55.82,222.85,145.72,289.13,46.06,33.96,100.94,57.34,161.56,65.99,133.4,19.03,260.08-38.16,336.03-138.5,24.42-32.26,43.57-69,56.02-109.09-199.39-91.46-310.53-378.76-310.53-378.76Z"/>
              </g>
              <g>
                <path class="cls-6" d="M547.31,466.7c-6.6,38.14-30.16,67.1-56.27,72.35,7.87,10.19,18,17.02,29.74,19.06,34.15,5.91,69.06-31.03,77.96-82.51,8.9-51.47-11.57-97.99-45.72-103.9-11.75-2.03-23.58,1.01-34.42,7.96,22.83,13.71,35.29,48.91,28.7,87.04Z"/>
                <path d="M475.07,454.21c-5.84,33.77.96,65.41,15.97,84.84,26.11-5.25,49.67-34.21,56.27-72.35,6.6-38.14-5.87-73.33-28.7-87.04-20.67,13.26-37.7,40.78-43.54,74.55Z"/>
              </g>
              <g>
                <path class="cls-6" d="M653.98,490.92c-6.6,38.14-30.16,67.1-56.27,72.35,7.87,10.19,18,17.02,29.74,19.06,34.15,5.91,69.06-31.03,77.96-82.51,8.9-51.47-11.57-97.99-45.72-103.9-11.75-2.03-23.58,1.01-34.42,7.96,22.83,13.71,35.29,48.91,28.7,87.04Z"/>
                <path d="M581.74,478.43c-5.84,33.77.96,65.41,15.97,84.84,26.11-5.25,49.67-34.21,56.27-72.35,6.6-38.14-5.87-73.33-28.7-87.04-20.67,13.26-37.7,40.78-43.54,74.55Z"/>
              </g>
              <circle class="cls-1" cx="731.44" cy="610.8" r="50.15" transform="translate(-217.67 696.11) rotate(-45)"/>
              <circle class="cls-1" cx="387.59" cy="524.97" r="50.15" transform="translate(-257.68 427.83) rotate(-45)"/>
              <path d="M604.04,140.63s-155.97,65.46-15.75,225.22l21.53-62.75s-7.7,21.83,105.11,35.85l38.61-80.33-149.51-117.99Z"/>
              <ellipse cx="554.73" cy="621.1" rx="24.92" ry="31.97"/>
            </g>
            <circle class="cls-5" cx="935.34" cy="578.56" r="115.78" transform="translate(-135.15 830.84) rotate(-45)"/>
          </g>
          <circle class="cls-5" cx="935.34" cy="578.56" r="115.78" transform="translate(-135.15 830.84) rotate(-45)"/>
          <g>
            <circle cx="988.97" cy="351.15" r="85.15" transform="translate(41.36 802.16) rotate(-45)"/>
            <circle cx="1108.3" cy="381.26" r="67.16" transform="translate(55.02 895.35) rotate(-45)"/>
            <circle cx="1191.94" cy="334.79" r="51.62" transform="translate(112.38 940.88) rotate(-45)"/>
          </g>
        </g>
        <path class="cls-5" d="M250.22,501.77l147.16-61.14c57.8-22.03,88.59-85.14,70.39-144.26h0c-19.69-63.94-88.76-98.52-151.76-75.98l-134.44,48.11c-21.03,7.53-39.29,18.94-54.39,33.06-65.13,60.92-63.18,165.03,2.34,225.53l248.42,209.04-127.72-234.36Z"/>
        <path d="M377.94,741.63c-1.14,0-2.29-.35-3.27-1.08-66.59-49.43-106.64-122.73-129.83-237.69-.52-2.57.85-5.15,3.28-6.16l147.16-61.14c55.07-20.99,84.55-81.39,67.24-137.57-4.59-14.89-12.01-28.36-22.07-40.05-1.98-2.3-1.72-5.77.58-7.75,2.3-1.98,5.77-1.72,7.75.58,11.06,12.84,19.22,27.64,24.25,43.99,19,61.69-13.36,128.02-73.68,151.01l-142.83,59.34c29.18,140.38,81.9,194.84,124.71,226.61,2.44,1.81,2.95,5.25,1.14,7.69-1.08,1.45-2.74,2.22-4.42,2.22Z"/>
        <path d="M196.98,528.61c-2.18,0-4.24-1.31-5.1-3.45-1.13-2.82.24-6.01,3.05-7.14l53.23-21.34c2.82-1.13,6.01.24,7.14,3.05,1.13,2.82-.24,6.01-3.05,7.14l-53.23,21.34c-.67.27-1.36.4-2.04.4Z"/>
        <path d="M847.6,908.02c-.85,0-1.71-.2-2.52-.61l-55.62-28.72c-2.7-1.39-3.75-4.71-2.36-7.4,1.39-2.69,4.71-3.75,7.4-2.36l55.62,28.72c2.7,1.39,3.75,4.71,2.36,7.4-.98,1.89-2.9,2.97-4.89,2.97Z"/>
      </g>
      <path d="M270.43,167.07c-2.61,0-4.93-1.87-5.4-4.53l-20.22-113.27c-.53-2.99,1.46-5.84,4.44-6.37,2.98-.53,5.84,1.45,6.37,4.44l20.22,113.27c.53,2.99-1.46,5.84-4.44,6.37-.33.06-.65.09-.97.09Z"/>
      <path d="M161.4,179.77c-1.93,0-3.8-1.02-4.8-2.82l-44.59-79.88c-1.48-2.65-.53-5.99,2.12-7.47,2.64-1.48,6-.53,7.47,2.12l44.59,79.88c1.48,2.65.53,5.99-2.12,7.47-.85.47-1.77.7-2.67.7Z"/>
      <path d="M90.75,255.38c-.92,0-1.85-.23-2.71-.72L2.78,206.2c-2.64-1.5-3.56-4.85-2.06-7.49,1.5-2.64,4.85-3.56,7.49-2.06l85.26,48.45c2.64,1.5,3.56,4.85,2.06,7.49-1.01,1.78-2.87,2.78-4.78,2.78Z"/>
      <circle cx="707.5" cy="954.76" r="19.02" transform="translate(-311.52 343.43) rotate(-22.5)"/>
      <circle cx="655.74" cy="892.82" r="19.02" transform="translate(-291.75 318.9) rotate(-22.5)"/>
    </g>
  </g>
</svg>