<?xml version="1.0" encoding="UTF-8"?>
<svg id="Calque_2" data-name="Calque 2" xmlns="http://www.w3.org/2000/svg" viewBox="0 0 1557.29 1434.26">
  <defs>
    <style>
      .cls-1 {
        fill: #c9805b;
      }

      .cls-2 {
        fill: #3a3030;
      }

      .cls-3 {
        fill: #efca75;
      }

      .cls-4 {
        fill: #3f728e;
      }

      .cls-5 {
        fill: #a56b4e;
      }

      .cls-6 {
        fill: #fff;
      }

      .cls-7 {
        fill: #514242;
      }
    </style>
  </defs>
  <g id="Layer_1" data-name="Layer 1">
    <g>
      <g>
        <path class="cls-7" d="M754.83,567.01C380.27,546.7,72.24,442.39,4.17,321.98c-2.27,7.17-3.64,14.48-4.04,21.91-7.7,141.98,334.61,275.98,764.58,299.29,429.96,23.32,784.76-72.88,792.46-214.86.99-18.3-3.84-36.46-13.91-54.27-41.03,129.81-380.97,215.04-788.42,192.94Z"/>
        <path class="cls-2" d="M792.58,129.04C385.13,106.94,45.2,192.17,4.17,321.98c68.08,120.41,376.1,224.71,750.66,245.03,407.45,22.1,747.38-63.13,788.42-192.94-68.08-120.41-376.1-224.71-750.66-245.03Z"/>
      </g>
      <g>
        <polygon class="cls-3" points="1028.35 543.54 892.7 861.11 1014.43 1033.88 1245.89 855.28 1028.35 543.54"/>
        <path class="cls-5" d="M1458.15,1159.45l-212.26-304.17-231.46,178.6,205.94,292.3c47.57,67.52,141.8,81.81,207.25,31.44h0c61.47-47.3,74.91-134.56,30.52-198.17Z"/>
      </g>
      <path class="cls-3" d="M1028.74,598.41v-299.63l-679.03-122.6-1.34,3.61c-44.84,121.06-28.99,221.81-28.99,221.81,0,0-93.95,199.24,117.54,284.34l620.84,194.01-29.02-281.53Z"/>
      <g>
        <g>
          <circle cx="937.07" cy="1179.25" r="85.15" transform="translate(-559.3898 1008.0051) rotate(-45)"/>
          <circle cx="982.12" cy="1293.77" r="67.16" transform="translate(-274.55 264.6) rotate(-13.48)"/>
          <circle cx="946.67" cy="1382.64" r="51.62" transform="translate(-390.43 372.68) rotate(-18.54)"/>
        </g>
        <g>
          <g>
            <g>
              <path d="M333.7,885.72c-.04,10.39.35,20.86,1.23,31.39.72,8.61,1.72,17.26,3.08,25.94,3.37,21.48,8.59,42.2,15.46,62.05,30.22,87.32,92.55,157.54,171.08,199.04,65.85,34.8,143.08,49.41,222.32,36.99,60.5-9.48,115.05-33.61,160.64-68.2,55.63-42.21,97.87-100.01,121.24-165.8l-287.22,149.85s-190.38-242.17-407.82-271.24Z"/>
              <path class="cls-5" d="M741.52,1156.97l287.22-149.85c3.17-8.93,6.01-18.01,8.47-27.22,4.02-15.04,7.1-30.42,9.13-46.07,4.27-32.96,4-67.07-1.4-101.56-2.61-16.63-6.32-32.81-11.06-48.49-33.6-111.27-118.62-196.74-223.99-233.8-53.99-18.99-113.31-25.27-173.8-15.79-133.13,20.86-237.51,112.64-280.75,230.81-13.91,38-21.45,78.73-21.63,120.71,217.43,29.07,407.82,271.24,407.82,271.24Z"/>
            </g>
            <g>
              <path class="cls-6" d="M646.32,853.18c14.1,0,27.28,5.01,38.51,13.71,8.34,6.46,15.58,14.98,21.34,24.97,1.87-8.97,2.91-18.5,2.91-28.4,0-34.27-12.09-64.29-30.2-80.88-9.49-8.7-20.64-13.71-32.56-13.71-34.66,0-62.76,42.35-62.76,94.59,0,9.9,1.01,19.44,2.89,28.41,13.51-23.45,35.29-38.69,59.87-38.69Z"/>
              <path d="M646.32,958.05c11.92,0,23.07-5.01,32.56-13.71,12.88-11.8,22.68-30.4,27.29-52.48-5.76-9.99-13-18.51-21.34-24.97-11.23-8.7-24.41-13.71-38.51-13.71-24.58,0-46.36,15.24-59.87,38.69,8.01,38.35,31.78,66.17,59.87,66.17Z"/>
            </g>
            <g>
              <path class="cls-6" d="M768.93,853.18c14.1,0,27.28,5.01,38.51,13.71,8.34,6.46,15.58,14.98,21.34,24.97,1.87-8.97,2.91-18.5,2.91-28.4,0-34.27-12.09-64.29-30.2-80.88-9.49-8.7-20.64-13.71-32.56-13.71-34.66,0-62.76,42.35-62.76,94.59,0,9.9,1.01,19.44,2.89,28.41,13.51-23.45,35.29-38.69,59.87-38.69Z"/>
              <path d="M768.93,958.05c11.92,0,23.07-5.01,32.56-13.71,12.88-11.8,22.68-30.4,27.29-52.48-5.76-9.99-13-18.51-21.34-24.97-11.23-8.7-24.41-13.71-38.51-13.71-24.58,0-46.36,15.24-59.87,38.69,8.01,38.35,31.78,66.17,59.87,66.17Z"/>
            </g>
            <path d="M705.82,698.58c-28.69,0-52.86,19.37-60.14,45.75l119.5-2.62c-8.11-25.03-31.62-43.13-59.36-43.13Z"/>
            <circle class="cls-1" cx="526.76" cy="779.72" r="50.15" transform="translate(-324.266 1181.2036) rotate(-81.2146)"/>
            <circle class="cls-1" cx="880.67" cy="761.12" r="50.15" transform="translate(-6.0285 1515.206) rotate(-81.2146)"/>
            <path d="M786.23,1191.99s129.97-108.26-50.89-219.96l-2.22,66.3s.97-23.13-111-3.51l-13.4,88.12,177.5,69.05Z"/>
          </g>
          <circle class="cls-5" cx="341.24" cy="870.25" r="115.78" transform="translate(-515.41 496.18) rotate(-45)"/>
        </g>
        <circle class="cls-5" cx="341.24" cy="870.25" r="115.78" transform="translate(-515.41 496.18) rotate(-45)"/>
        <g>
          <circle cx="453.02" cy="1195.21" r="85.15" transform="translate(-712.46 670.4) rotate(-45)"/>
          <circle cx="357.13" cy="1272.35" r="67.16" transform="translate(-479.1 249.06) rotate(-23.58)"/>
          <circle cx="343.87" cy="1367.11" r="51.62" transform="translate(-237.02 82.66) rotate(-10.22)"/>
        </g>
      </g>
      <path class="cls-4" d="M525.89,130.01l21.42,83.22,481.43,85.56,71.82-131.91c-94.03-18.69-198.13-31.88-307.97-37.84-93.37-5.06-183.2-4.49-266.7.97Z"/>
      <circle class="cls-5" cx="525.89" cy="176.19" r="176.19"/>
      <circle cx="740.63" cy="475.57" r="19.02" transform="translate(107.6222 1087.1187) rotate(-76.7174)"/>
      <circle cx="740.63" cy="401.6" r="19.02" transform="translate(-67.05 641.33) rotate(-45)"/>
      <path class="cls-5" d="M608.73,222.95l-151.67,225.08-137.68-46.43s-29.41-225.42,49.42-287.96l239.93,109.31Z"/>
      <path d="M476.59,340.82c-.26,0-.52-.02-.79-.06-.91-.13-22.59-3.37-48.76-18.82-24.08-14.21-56.65-41.9-75.09-93.15-1.03-2.86.45-6,3.31-7.03,2.85-1.03,6,.45,7.03,3.31,13.85,38.5,37.37,67.82,69.91,87.16,24.37,14.48,44.96,17.62,45.16,17.65,3,.44,5.08,3.22,4.65,6.22-.4,2.74-2.74,4.71-5.43,4.71Z"/>
      <path d="M461.37,549.04c-3.03,0-5.49-2.46-5.49-5.49v-59.21c0-3.03,2.46-5.49,5.49-5.49s5.49,2.46,5.49,5.49v59.21c0,3.03-2.46,5.49-5.49,5.49Z"/>
    </g>
  </g>
</svg>