<?xml version="1.0" encoding="UTF-8"?>
<svg id="Calque_2" data-name="Calque 2" xmlns="http://www.w3.org/2000/svg" viewBox="0 0 1407.81 1975.29">
  <defs>
    <style>
      .cls-1 {
        fill: #c9805b;
      }

      .cls-2 {
        fill: #3a3030;
      }

      .cls-3 {
        fill: #efca75;
      }

      .cls-4 {
        fill: #3f728e;
      }

      .cls-5 {
        fill: #a56b4e;
      }

      .cls-6 {
        fill: #fff;
      }

      .cls-7 {
        fill: #514242;
      }
    </style>
  </defs>
  <g id="Layer_1" data-name="Layer 1">
    <g>
      <g>
        <g>
          <path class="cls-7" d="M858.56,1166.89c147.62-344.84,351.31-598.36,487.76-620.98-5.96-4.59-12.35-8.38-19.2-11.31-130.71-55.96-374.05,219.58-543.51,615.43-169.46,395.85-200.87,762.11-70.15,818.06,16.84,7.21,35.56,8.9,55.75,5.56-107.84-83.09-71.24-431.63,89.35-806.75Z"/>
          <path class="cls-2" d="M1256.97,1352.66c160.58-375.12,197.19-723.66,89.35-806.75-136.46,22.62-340.14,276.14-487.76,620.98-160.58,375.12-197.19,723.66-89.35,806.75,136.46-22.62,340.14-276.14,487.76-620.98Z"/>
        </g>
        <g>
          <g>
            <path class="cls-5" d="M823.77,1225.34l-273.06,15.51-66.4,115.66c-38.9,67.76-20.75,153.92,42.18,200.23l123.8,91.1,265.62-235.56-92.15-186.93Z"/>
            <path class="cls-4" d="M650.3,1647.83l22.69,137.25c5.16,31.24,42.32,45.03,66.62,24.73l263.68-220.33-87.36-177.22-265.62,235.56Z"/>
          </g>
          <g>
            <path class="cls-5" d="M1176.46,1521.76l-119.71-330-311.49,208.89,141.48,354.38,166.13-30.01c42.08-59.6,83.87-128,123.59-203.27Z"/>
            <path class="cls-4" d="M1052.86,1725.03l-166.13,30.01-66.03,118.2c-15.28,27.34.51,59.16,27.31,66.97,63.58-40.87,134.61-115.7,204.84-215.18Z"/>
          </g>
          <path class="cls-5" d="M590.39,687.93l-215.72,134.05-138.2-92.49c-66.13-44.26-155.2-30-204.22,32.69h0c-55.08,70.45-37.71,173.01,37.5,221.39l249.08,160.21c44.73,28.77,102.16,28.74,146.86-.08l332.27-214.23-207.59-241.55Z"/>
          <path d="M845.61,1657.51c-2.18,0-4.25-1.31-5.1-3.46l-89.83-225.02c-1.12-2.82.25-6.01,3.07-7.14,2.82-1.12,6.01.25,7.14,3.07l89.83,225.02c1.12,2.82-.25,6.01-3.07,7.14-.67.27-1.36.39-2.04.39Z"/>
          <g>
            <path class="cls-3" d="M730.09,608.97h0s-302.5,180.13-302.5,180.13l108.52,335.05,436.06-105.87c-31.22-149.6-94.37-387.04-242.08-409.31Z"/>
            <path class="cls-4" d="M972.17,1018.28l-436.06,105.87,12.41,99.18c-170.23,158.02,10.72,97.05,196.74,177.33,186.02,80.28,421.34-57.11,421.34-57.11l-134.15-212.57-60.28-112.69Z"/>
          </g>
          <path class="cls-3" d="M461.83,715.39l-87.15,106.6,162.65,206.19s141.33-191.87,138.45-196.95c-2.88-5.08-213.95-115.83-213.95-115.83Z"/>
          <path d="M790.42,1212.7c-20.21,0-42.69-1.22-67.39-3.65-46.23-4.56-83.42-11.94-83.79-12.01-2.98-.59-4.91-3.49-4.31-6.46.6-2.97,3.48-4.9,6.46-4.31,1.46.29,146.66,28.87,222.3,7.38,2.92-.83,5.96.86,6.79,3.78.83,2.92-.86,5.96-3.78,6.79-19.91,5.66-45.43,8.49-76.28,8.49Z"/>
          <path d="M488.31,931.54c-1.86,0-3.67-.94-4.7-2.64l-58.29-95.92c-1.58-2.59-.75-5.97,1.84-7.55,2.6-1.58,5.97-.75,7.55,1.84l58.29,95.92c1.58,2.59.75,5.97-1.84,7.55-.89.54-1.88.8-2.85.8Z"/>
          <path d="M618.21,1695.83c-1.72,0-3.3-.31-4.69-1-2.3-1.14-6.09-4.23-5.56-12.08.42-6.15,3.12-11.28,7.83-14.81,12.77-9.61,36.51-4.84,39.18-4.26,2.03.44,3.64,1.99,4.16,4,.52,2.01-.14,4.14-1.71,5.51-10.29,8.98-27.83,22.65-39.2,22.65ZM638.44,1672.98c-6,0-12.26.87-16.05,3.73-2.16,1.63-3.26,3.78-3.46,6.77-.04.66-.03,1.13,0,1.46,3.46-.2,12.05-5.13,21.2-11.95-.56-.02-1.12-.02-1.69-.02Z"/>
          <path d="M644.46,1748.3c-.23,0-.46-.02-.7-.04-3.01-.38-5.14-3.13-4.76-6.14l9.35-73.77c.38-3.01,3.15-5.13,6.14-4.76,3.01.38,5.14,3.13,4.76,6.14l-9.35,73.77c-.35,2.78-2.72,4.8-5.44,4.8Z"/>
          <path d="M850.75,1795.11c-5.77,0-10.65-1.12-13.61-4.04-2.39-2.36-4.69-6.7-2.03-14,2.18-5.99,6.38-10.27,12.15-12.37,17.23-6.28,43.87,8.58,46.85,10.3,1.84,1.06,2.9,3.08,2.74,5.19-.17,2.11-1.53,3.94-3.52,4.7-9.57,3.66-28.66,10.21-42.59,10.21ZM856.91,1774.12c-2.16,0-4.15.28-5.89.91-2.73,1-4.5,2.84-5.58,5.8-.67,1.84-.5,2.55-.5,2.56,2.44,2.34,16.44.23,31.93-4.47-6.36-2.55-13.8-4.8-19.96-4.8Z"/>
          <path d="M924.78,1800.07c-14.45,0-32.88-13.62-36.9-16.72-1.57-1.22-2.36-3.19-2.07-5.16.29-1.97,1.63-3.62,3.48-4.33,5.88-2.23,35.77-12.85,47.49-2.96,2.86,2.41,5.93,7,4.34,15.14-1.61,8.22-6.32,11.58-9.98,12.96-1.98.74-4.13,1.07-6.37,1.07ZM903.59,1780.81c8.77,5.36,18.81,9.74,23.69,7.91.62-.24,2.29-.86,3.05-4.79.69-3.5-.31-4.35-.64-4.63-3.57-3.02-15.3-1.42-26.11,1.51Z"/>
          <path d="M894.68,1835.95c-2.87,0-5.28-2.22-5.48-5.13l-2.34-35.06-13.45,20.58c-1.66,2.54-5.06,3.26-7.61,1.59-2.54-1.66-3.25-5.06-1.59-7.6l22.43-34.32c1.29-1.98,3.71-2.91,5.99-2.31,2.29.6,3.93,2.59,4.09,4.95l3.44,51.45c.2,3.03-2.09,5.65-5.11,5.85-.13,0-.25.01-.37.01Z"/>
          <g>
            <polygon class="cls-3" points="802.28 555.82 711.25 836.8 902.83 926.03 1014.65 655.9 802.28 555.82"/>
            <path class="cls-5" d="M1350.16,814.02l-335.51-158.12-111.82,270.13,324.12,150.97c42.71,19.89,89.94,17.18,128.54-2.96,21.89-79.03,37.06-153.5,45.22-220.52-13.3-16.3-30.32-29.96-50.55-39.49Z"/>
          </g>
          <g>
            <g>
              <circle cx="316.94" cy="146.05" r="85.15"/>
              <circle cx="195.35" cy="127.11" r="67.16" transform="translate(-32.66 175.36) rotate(-45)"/>
              <circle cx="136.54" cy="51.63" r="51.62" transform="translate(51.08 169.98) rotate(-74.88)"/>
            </g>
            <g>
              <g>
                <g>
                  <path d="M891.35,457.34c1.42-10.3,2.43-20.72,2.96-31.27.43-8.63.59-17.34.4-26.12-.48-21.73-2.9-42.97-7.07-63.55-18.35-90.56-70.79-168.44-143.1-220.01-60.64-43.24-135.24-67.99-215.42-66.22-61.22,1.35-118.5,18.02-168.28,46.24-60.75,34.44-110.3,86.11-142.2,148.22l304.59-110.34s156.5,265.33,368.14,323.05Z"/>
                  <path class="cls-5" d="M523.21,134.29l-304.59,110.34c-4.33,8.43-8.35,17.05-12.01,25.85-5.99,14.37-11.08,29.21-15.17,44.45-8.62,32.1-12.88,65.94-12.11,100.85.37,16.83,1.91,33.36,4.51,49.53,18.51,114.75,91.41,210.76,190.92,261.5,50.98,25.99,108.94,40.11,170.16,38.76,134.72-2.98,250.38-80.07,308.94-191.44,18.83-35.81,31.73-75.18,37.48-116.77-211.64-57.72-368.14-323.05-368.14-323.05Z"/>
                </g>
                <g>
                  <path class="cls-6" d="M480.75,424.6c-.29,38.7-18.81,71.12-43.71,80.55,9.43,8.77,20.53,13.86,32.45,13.95,34.66.26,63.07-41.88,63.46-94.12.39-52.24-27.39-94.79-62.05-95.05-11.92-.09-23.1,4.84-32.66,13.46,24.76,9.8,42.8,42.5,42.51,81.2Z"/>
                  <path d="M407.44,424.05c-.26,34.27,11.61,64.38,29.6,81.1,24.9-9.43,43.43-41.85,43.71-80.55.29-38.7-17.75-71.4-42.51-81.2-18.23,16.46-30.55,46.38-30.81,80.65Z"/>
                </g>
                <g>
                  <path class="cls-6" d="M589.94,431.1c-.29,38.7-18.81,71.12-43.71,80.55,9.43,8.77,20.53,13.86,32.45,13.95,34.66.26,63.07-41.88,63.46-94.12.39-52.24-27.39-94.79-62.05-95.05-11.92-.09-23.1,4.84-32.66,13.46,24.76,9.8,42.8,42.5,42.51,81.2Z"/>
                  <path d="M516.63,430.56c-.26,34.27,11.61,64.38,29.6,81.1,24.9-9.43,43.43-41.85,43.71-80.55.29-38.7-17.75-71.4-42.51-81.2-18.23,16.46-30.55,46.38-30.8,80.65Z"/>
                </g>
                <path d="M516.73,572.57c-.65,0-1.31-.02-1.96-.06-14.76-.86-27.18-11.03-30.91-25.32-.77-2.94.99-5.94,3.93-6.7,2.95-.77,5.94.99,6.7,3.93,2.53,9.67,10.93,16.55,20.92,17.13,10.35.6,19.79-5.8,23.1-15.54.97-2.87,4.09-4.41,6.97-3.44,2.87.97,4.41,4.09,3.44,6.97-4.68,13.79-17.74,23.04-32.18,23.04Z"/>
                <circle class="cls-1" cx="685.92" cy="536.75" r="50.15" transform="translate(-87.85 136.92) rotate(-10.72)"/>
                <circle class="cls-1" cx="332.67" cy="508.13" r="50.15" transform="translate(-261.87 384.06) rotate(-45)"/>
                <path d="M483.55,93.64s-143.21,90.02,21.19,224.77l11.01-65.42s-4.04,22.79,109.55,18.23l25-85.56-166.75-92.03Z"/>
              </g>
              <circle class="cls-5" cx="881.82" cy="471.68" r="115.78" transform="translate(-75.25 761.69) rotate(-45)"/>
            </g>
            <circle class="cls-5" cx="881.82" cy="471.68" r="115.78" transform="translate(-75.25 761.69) rotate(-45)"/>
            <g>
              <circle cx="897.66" cy="238.58" r="85.15" transform="translate(94.22 704.62) rotate(-45)"/>
              <circle cx="1020.29" cy="248.82" r="67.16" transform="translate(-28.51 194.8) rotate(-10.76)"/>
              <circle cx="1095.23" cy="189.33" r="51.62" transform="translate(28.64 501.99) rotate(-26.15)"/>
            </g>
          </g>
          <path d="M849.41,929.65c-.96,0-1.94-.25-2.82-.78l-60.99-36.61c-2.6-1.56-3.44-4.94-1.88-7.54,1.56-2.6,4.94-3.44,7.54-1.88l60.99,36.61c2.6,1.56,3.44,4.94,1.88,7.54-1.03,1.72-2.85,2.67-4.72,2.67Z"/>
          <circle cx="598.43" cy="821.57" r="19.02"/>
          <circle cx="616.23" cy="916.01" r="19.02" transform="translate(-19.37 13.33) rotate(-1.22)"/>
        </g>
      </g>
      <path d="M407.43,1337.35c-.83,0-1.67-.19-2.47-.59l-279.27-140.49c-2.71-1.36-3.8-4.67-2.44-7.38,1.36-2.71,4.67-3.8,7.38-2.44l279.27,140.49c2.71,1.36,3.8,4.67,2.44,7.38-.96,1.92-2.9,3.03-4.91,3.03Z"/>
      <path d="M352.37,1368.7c-.79,0-1.6-.17-2.36-.53l-173.13-82.4c-2.74-1.3-3.9-4.58-2.6-7.32,1.31-2.74,4.58-3.9,7.32-2.6l173.13,82.4c2.74,1.3,3.9,4.58,2.6,7.32-.94,1.98-2.91,3.13-4.96,3.13Z"/>
    </g>
  </g>
</svg>