<?xml version="1.0" encoding="UTF-8"?>
<svg id="Calque_2" data-name="Calque 2" xmlns="http://www.w3.org/2000/svg" viewBox="0 0 1545.93 1443.92">
  <defs>
    <style>
      .cls-1 {
        fill: #723720;
      }

      .cls-2 {
        fill: #56bae2;
      }

      .cls-3 {
        fill: #f7d247;
      }

      .cls-4 {
        fill: #b58a50;
      }

      .cls-5 {
        fill: #fff;
      }

      .cls-6 {
        fill: #fbebdf;
      }

      .cls-7 {
        fill: #9b7f53;
      }

      .cls-8 {
        fill: #ff743e;
      }
    </style>
  </defs>
  <g id="Layer_1" data-name="Layer 1">
    <g>
      <g>
        <g>
          <g>
            <path class="cls-7" d="M789.01,310.93c7.58-31.73,20.94-62.24,39.88-89.85l298.15,412.59c-57.08,16.48-118.1,13.6-173.14-7.75-35.56-13.79-68.62-35.3-96.51-64.25-4.53-4.7-8.94-9.58-13.19-14.68-10.51-12.62-19.67-25.91-27.51-39.71-34.5-60.69-43.28-131.08-27.68-196.35Z"/>
            <path class="cls-1" d="M878.86,166.29c35.54-29.61,76.44-48.55,118.81-57.18,58.72-11.97,120.24-4.1,174.24,22.61,10.54,5.22,20.81,11.14,30.7,17.79,20.84,14.01,40.07,31.17,56.95,51.43,8.14,9.77,15.47,19.95,22.01,30.45,46.4,74.55,52.54,165.43,21.03,243.72-16.14,40.11-42.15,76.92-77.69,106.53-29.65,24.7-63.02,41.97-97.86,52.03l-298.15-412.59c13.73-20.01,30.4-38.49,49.96-54.79Z"/>
          </g>
          <circle class="cls-7" cx="1003.17" cy="423.01" r="82.35" transform="translate(-5.29 833.25) rotate(-45)"/>
          <circle class="cls-7" cx="802.56" cy="435.56" r="38.94" transform="translate(-82.5 210.87) rotate(-14.24)"/>
          <g>
            <path class="cls-5" d="M848.6,389.97c-1.91-27.46-16.49-49.66-34.59-55.26,6.3-6.64,13.96-10.75,22.42-11.34,24.59-1.71,46.62,26.95,49.21,64.01,2.58,37.07-15.26,68.5-39.85,70.22-8.46.59-16.61-2.41-23.78-8.12,17.14-8.05,28.5-32.06,26.59-59.52Z"/>
            <path d="M796.58,393.6c-1.69-24.32,5.4-46.21,17.43-58.88,18.1,5.6,32.68,27.79,34.59,55.26,1.91,27.46-9.45,51.47-26.59,59.52-13.67-10.88-23.73-31.58-25.43-55.9Z"/>
          </g>
          <path d="M844.38,512.3c-1.97,0-3.97-.15-5.96-.44-2.26-.33-3.82-2.43-3.48-4.69.33-2.26,2.43-3.83,4.69-3.48,13.84,2.04,27.31-5.01,33.52-17.56,1.01-2.05,3.5-2.88,5.54-1.87,2.04,1.01,2.88,3.49,1.87,5.54-6.92,13.95-20.98,22.5-36.17,22.5Z"/>
          <circle class="cls-4" cx="927.24" cy="456.01" r="35.67"/>
          <path class="cls-1" d="M888.49,279.7l-34.54-2.99-9.71-31.22-20,28.65-49.23-4.26s6.64-150.94,162.31-140.81l-48.83,150.62Z"/>
          <path class="cls-1" d="M1116.67,138.56s-1.88-125.73,158.9-138.56l6.22,57.35-37.68,17.93,35.4,3.53.31,36.82s-85.23-4.23-127.92,44.64l-35.22-21.72Z"/>
          <path class="cls-1" d="M1237.83,244.64s-1.88-125.73,158.9-138.56l6.22,57.35-37.68,17.93,35.4,3.53.31,36.82s-85.23-4.23-127.92,44.64l-35.22-21.72Z"/>
        </g>
        <path class="cls-8" d="M1116.63,864.9l-105.35-308.33,133.59,23.56c43.46,7.66,80.15,36.66,97.66,77.17l89.87,207.96c23.71,54.87,2.23,118.79-49.8,148.21l-96.46,54.54-69.5-203.1Z"/>
        <g>
          <rect class="cls-2" x="322.05" y="540.15" width="310.55" height="75.2" transform="translate(1121.9457 959.9715) rotate(160.2275)"/>
          <g>
            <rect class="cls-2" x="229.41" y="645.53" width="31.6" height="31.32" transform="translate(-209.21 121.93) rotate(-19.77)"/>
            <polygon class="cls-6" points="318.48 594.9 343.92 665.66 265.38 670.58 254.79 641.11 318.48 594.9"/>
          </g>
        </g>
        <path class="cls-7" d="M371.94,690.55l-.52-1.47c-23.54-67.33,11.69-141.04,78.88-165.01h.02c68.47-24.43,143.64,12.16,166.65,81.12l.49,1.48c22.35,66.97-12.96,139.53-79.46,163.25h0c-67.79,24.19-142.31-11.43-166.06-79.37Z"/>
        <path class="cls-8" d="M1177.71,746.91l-381.77,146.14c-40.25,15.41-85.09,13.47-123.87-5.35l-194.9-94.61,122.29-229.44,109.77,63.52,163.87-54.7c53.97-18.01,111.61-22.09,167.57-11.86l114.8,21c32.08,5.87,52.68,37.44,45.13,69.17l-22.89,96.13Z"/>
        <g>
          <g>
            <path class="cls-7" d="M1236.89,1031.09l-236.08-3.85-62.88,291.98c-13.82,64.15,10.18,124.7,75.81,124.7h163.97l23.71-232.68,35.47-180.15Z"/>
            <polygon class="cls-6" points="1275.24 1211.24 1201.42 1211.24 1177.71 1443.92 1217.91 1443.92 1275.24 1211.24"/>
          </g>
          <g>
            <path class="cls-8" d="M1474.1,1443.92h-256.19l14.42-247.74c2.57-44.12,33.85-78.38,71.58-78.38h105.57c27.6,0,52.76,18.56,64.69,47.73l64.61,157.91c22.84,55.83-11.87,120.47-64.69,120.47Z"/>
            <path d="M1479.21,1409.19h-42.64c-35.02,0-66.66-20.75-80.61-52.87l-82.07-188.96c-.91-2.09.05-4.53,2.14-5.44,2.1-.91,4.53.05,5.44,2.14l82.07,188.96c12.64,29.1,41.31,47.9,73.03,47.9h42.64c2.28,0,4.13,1.85,4.13,4.13s-1.85,4.13-4.13,4.13Z"/>
            <path d="M1437.77,1181.48h-98.02c-2.28,0-4.13-1.85-4.13-4.13s1.85-4.13,4.13-4.13h98.02c2.28,0,4.13,1.85,4.13,4.13s-1.85,4.13-4.13,4.13Z"/>
            <path d="M1454.94,1228.2h-98.02c-2.28,0-4.13-1.85-4.13-4.13s1.85-4.13,4.13-4.13h98.02c2.28,0,4.13,1.85,4.13,4.13s-1.85,4.13-4.13,4.13Z"/>
            <path d="M1472.11,1274.92h-98.02c-2.28,0-4.13-1.85-4.13-4.13s1.85-4.13,4.13-4.13h98.02c2.28,0,4.13,1.85,4.13,4.13s-1.85,4.13-4.13,4.13Z"/>
            <path d="M1489.28,1321.63h-98.02c-2.28,0-4.13-1.85-4.13-4.13s1.85-4.13,4.13-4.13h98.02c2.28,0,4.13,1.85,4.13,4.13s-1.85,4.13-4.13,4.13Z"/>
            <path d="M1506.45,1368.35h-98.02c-2.28,0-4.13-1.85-4.13-4.13s1.85-4.13,4.13-4.13h98.02c2.28,0,4.13,1.85,4.13,4.13s-1.85,4.13-4.13,4.13Z"/>
          </g>
        </g>
        <g>
          <g>
            <path class="cls-7" d="M1083.28,1031.09l-236.08-3.85-52.7,244.72c-19.05,88.47,48.37,171.95,138.86,171.95h90.74l23.71-232.68,35.47-180.15Z"/>
            <polygon class="cls-6" points="1121.63 1211.24 1047.81 1211.24 1024.09 1443.92 1064.3 1443.92 1121.63 1211.24"/>
          </g>
          <path class="cls-3" d="M800.78,1210l422,2.48,12.62-78.85s57.26-65.17,13.88-150.36l-409.77,10.53-38.74,216.2Z"/>
          <g>
            <path class="cls-8" d="M1320.48,1443.92h-256.19l14.42-247.74c2.57-44.12,33.85-78.38,71.58-78.38h105.57c27.6,0,52.76,18.56,64.69,47.73l64.61,157.91c22.84,55.83-11.87,120.47-64.69,120.47Z"/>
            <path d="M1325.59,1409.19h-42.64c-35.02,0-66.66-20.75-80.61-52.87l-82.07-188.96c-.91-2.09.05-4.53,2.14-5.44,2.1-.91,4.53.05,5.44,2.14l82.07,188.96c12.64,29.1,41.3,47.9,73.03,47.9h42.64c2.28,0,4.13,1.85,4.13,4.13s-1.85,4.13-4.13,4.13Z"/>
            <path d="M1284.15,1181.48h-98.02c-2.28,0-4.13-1.85-4.13-4.13s1.85-4.13,4.13-4.13h98.02c2.28,0,4.13,1.85,4.13,4.13s-1.85,4.13-4.13,4.13Z"/>
            <path d="M1301.32,1228.2h-98.02c-2.28,0-4.13-1.85-4.13-4.13s1.85-4.13,4.13-4.13h98.02c2.28,0,4.13,1.85,4.13,4.13s-1.85,4.13-4.13,4.13Z"/>
            <path d="M1318.49,1274.92h-98.02c-2.28,0-4.13-1.85-4.13-4.13s1.85-4.13,4.13-4.13h98.02c2.28,0,4.13,1.85,4.13,4.13s-1.85,4.13-4.13,4.13Z"/>
            <path d="M1335.67,1321.63h-98.02c-2.28,0-4.13-1.85-4.13-4.13s1.85-4.13,4.13-4.13h98.02c2.28,0,4.13,1.85,4.13,4.13s-1.85,4.13-4.13,4.13Z"/>
            <path d="M1352.84,1368.35h-98.02c-2.28,0-4.13-1.85-4.13-4.13s1.85-4.13,4.13-4.13h98.02c2.28,0,4.13,1.85,4.13,4.13s-1.85,4.13-4.13,4.13Z"/>
          </g>
        </g>
        <path d="M1356.93,1436.51c-1.31,0-2.6-.62-3.4-1.78-1.3-1.88-.83-4.45,1.04-5.75,14.31-9.91,25.06-25.72,30.27-44.52,5.43-19.57,4.19-40.69-3.49-59.45l-64.61-157.91c-5.81-14.2-14.95-25.96-26.44-34.01-1.87-1.31-2.32-3.88-1.01-5.75,1.31-1.87,3.88-2.33,5.75-1.01,12.79,8.95,22.94,21.97,29.35,37.65l64.61,157.91c16.96,41.44,4.18,90.4-29.72,113.89-.72.5-1.54.74-2.35.74Z"/>
        <path class="cls-8" d="M839.53,993.8l-2.73-392.53,265.22-6.22c63.27-1.48,116.83,46.38,122.45,109.42l24.83,278.8-409.77,10.53Z"/>
        <path d="M1055.73,1200.38c-.24,0-.48-.02-.73-.06-2.25-.4-3.75-2.54-3.35-4.79l9.4-53.13c.4-2.25,2.54-3.75,4.79-3.35,2.25.4,3.75,2.54,3.35,4.79l-9.4,53.13c-.35,2-2.1,3.41-4.06,3.41Z"/>
        <path d="M1045.81,1150.68c-1.8,0-3.46-1.19-3.97-3.01-.62-2.2.66-4.48,2.85-5.1l45.64-12.92c2.2-.62,4.48.66,5.1,2.85.62,2.2-.65,4.48-2.85,5.1l-45.64,12.92c-.38.11-.76.16-1.13.16Z"/>
        <path d="M869.46,869.04c-1.42,0-2.81-.73-3.57-2.05-1.15-1.97-.48-4.5,1.49-5.65l74.43-43.42c1.97-1.15,4.5-.48,5.65,1.49,1.15,1.97.48,4.5-1.49,5.65l-74.43,43.42c-.66.38-1.37.56-2.08.56Z"/>
        <path d="M1243.73,971.37c-.47,0-.94-.08-1.4-.25-2.15-.77-3.26-3.14-2.49-5.29l8.03-22.29-16.53-38.73c-.23-.54-.34-1.12-.33-1.71l2.5-123.98c.05-2.28,1.94-4.13,4.21-4.05,2.28.05,4.09,1.93,4.05,4.21l-2.49,123.09,16.82,39.4c.41.96.44,2.04.09,3.02l-8.59,23.82c-.61,1.68-2.2,2.73-3.89,2.73Z"/>
      </g>
      <path class="cls-2" d="M457.91,345.5s.09-.08.13-.13c1.45-1.57,2.71-3.57,2.47-5.69-.02-.17-.05-.35-.09-.51,0-.06,0-.13,0-.19-.07-.87-.61-1.62-1.18-2.29-.06-.07-.13-.13-.19-.2.15-.94.12-1.92-.11-2.85-.16-.67-.43-1.31-.73-1.92.3-.4.56-.82.75-1.29.79-1.95.37-4.23-.74-6.03.16-.32.33-.64.47-.96.39-.88.72-1.83.58-2.78-.13-.82-.59-1.54-1.07-2.21-.19-.27-.39-.54-.6-.8.03-.06.07-.11.09-.17.87-2.14.29-4.68-1.08-6.54-.18-.25-.41-.46-.61-.69.07-.28.13-.57.15-.86.01-.18.01-.36,0-.53.01-.06.02-.13.03-.19.1-.89-.31-1.75-.76-2.53-.91-1.58-2.05-3.02-3.36-4.3.12-1.08.03-2.18-.42-3.17-.35-.77-.88-1.42-1.53-1.96.01-.06.04-.12.05-.19.38-1.81.22-3.78-.74-5.36-.03-.05-.07-.09-.1-.13,0-.73-.27-1.46-.57-2.14-.83-1.88-1.95-3.62-3.29-5.19-.13-.35-.29-.69-.46-1.01-1.02-1.9-2.35-3.64-3.92-5.13,0,0-.01,0-.01-.01-.35-.85-.86-1.64-1.47-2.33-.64-.72-1.41-1.3-2.23-1.81-.02-.35-.07-.7-.19-1.02-.3-.77-.91-1.38-1.52-1.94-.76-.69-1.56-1.36-2.47-1.82-.01-.36-.05-.71-.17-1.05-.28-.77-.87-1.38-1.46-1.95-.8-.76-1.64-1.5-2.64-1.98-.49-.23-1-.38-1.53-.49-.47-.85-1.07-1.63-1.71-2.36-1.18-1.34-2.49-2.6-4.06-3.44-.06-.03-.12-.06-.19-.09-.12-.3-.24-.6-.41-.88-.93-1.51-2.61-2.43-4.38-2.71-.11-.32-.23-.64-.4-.93-1.07-1.87-3.17-2.97-5.32-3.2-.19-.43-.43-.83-.77-1.16-.58-.55-1.36-.83-2.12-1.06-1.02-.32-2.08-.59-3.15-.57-.93-1.19-2.01-2.28-3.2-3.22-.7-.55-1.48-1.08-2.37-1.16-.5-.05-.99.05-1.48.19-.62-1.03-1.45-1.92-2.51-2.48-2.1-1.1-4.75-.75-6.78.46-.11.07-.21.16-.32.23-1.15-.53-2.35-.95-3.61-1.1-.24-.03-.47-.02-.71-.03-1.08-.68-2.28-1.21-3.5-1.58-.68-.21-1.39-.37-2.11-.45-1.96-1.15-4.29-1.56-6.57-1.59-.25,0-.5,0-.75.01-.27-.16-.54-.3-.82-.42-.18-.08-.38-.15-.56-.22-1.02-.75-2.22-1.26-3.48-1.34-.41-.02-.81.01-1.2.08-.27-.04-.53-.09-.8-.11-.91-.09-1.88-.11-2.69.31-.7.36-1.21.99-1.68,1.63-.12.16-.23.32-.35.49-.07,0-.14,0-.21,0-1.28,0-2.57.11-3.82.39-.23-.04-.47-.09-.7-.11-1.58-.13-3.14.34-4.62.92-.19.07-.37.16-.55.23-.16-.1-.3-.23-.46-.31-2.05-1.07-4.65-.73-6.63.47-.85.51-1.58,1.18-2.24,1.92-1.63-.09-3.29-.04-4.85.44-.16.05-.31.12-.46.18-1.08-.15-2.18-.18-3.26-.12-2.38.12-4.95.75-6.41,2.63-.12.16-.23.32-.33.48-.05.05-.1.1-.14.16-.43.52-.63,1.17-.73,1.85-.44.41-.85.86-1.22,1.34-.37.08-.73.2-1.09.32-1.02.36-2.04.77-2.89,1.43-.98.75-1.68,1.79-2.26,2.89-.59,0-1.18.02-1.76.08-2.13.21-4.4.88-5.63,2.63-.1.14-.19.29-.27.44-1.32.73-2.35,1.89-3.26,3.11-.28.38-.56.77-.82,1.17-.94.07-1.91.23-2.67.78-.68.5-1.11,1.26-1.5,2.02-.52,1.01-1,2.07-1.18,3.19-.04.28-.05.57-.06.85-.97.26-1.87.69-2.62,1.36-1.17,1.05-1.82,2.57-2,4.14-.48.21-.94.45-1.35.78-.24.19-.45.39-.65.61-.69-.49-1.45-.88-2.25-1.14-.71-.23-1.44-.37-2.18-.44-.6-.75-1.36-1.39-2.2-1.84-.27-.15-.57-.25-.86-.36-.66-1.57-1.51-3.06-2.53-4.43-.59-.8-1.28-1.58-2.21-1.93-.73-.28-1.54-.25-2.32-.18-1.06-1.59-2.96-2.57-4.88-2.77-.29-.03-.58-.04-.86-.04-.24-.53-.52-1.04-.9-1.47-1.48-1.67-3.93-2.25-6.12-1.86-.24.04-.47.1-.7.16-.09-.06-.18-.12-.27-.18-1.16-.67-2.46-1.02-3.79-1.19-.94-1.09-1.98-2.11-3.12-2.99-.8-.62-1.68-1.2-2.68-1.29-.86-.08-1.71.22-2.52.53-.27.11-.55.22-.81.33-.2-.18-.4-.37-.63-.51-1.38-.89-3.11-1.05-4.73-.69-1.5-.89-3.12-1.6-4.81-2.05-.86-.23-1.78-.4-2.63-.13-.31.1-.6.26-.87.45-.78-.15-1.58-.22-2.38-.25-1.73-.07-3.48,0-5.13.49-1.02-.26-2.09-.41-3.14-.47-1.27-.06-2.61.03-3.81.43-1-.52-2.09-.82-3.21-.77-1.59.07-3.06.85-4.2,1.99-.17-.07-.34-.15-.52-.21-1.33-.43-2.78-.51-4.11-.13-1.02-.08-2.06-.1-3.06.14-.98.24-1.87.74-2.69,1.33-.64-.44-1.33-.81-2.1-.87-.78-.05-1.54.23-2.25.53-.97.4-1.93.86-2.73,1.55-.26.23-.49.48-.71.74-.33-.09-.66-.16-1-.15-.79.03-1.54.39-2.24.76-.94.51-1.88,1.07-2.61,1.84-.22.23-.41.49-.59.75-.51-.1-1.03-.17-1.55-.23-.94-.1-1.94-.13-2.78.3-.73.36-1.26,1.02-1.75,1.67-.25.33-.49.67-.71,1.01-1.74-.34-3.54-.3-5.02.61-.16.1-.32.21-.47.32-.06.03-.13.06-.19.09-.83.46-1.33,1.35-1.73,2.21-.02.05-.04.09-.06.14-.39.2-.76.46-1.12.72-.83.62-1.64,1.29-2.22,2.14-.2.29-.38.61-.53.93-1.28-.09-2.56-.06-3.81.22-1.81.41-3.56,1.38-4.6,2.92-.05.07-.08.15-.13.22-1.46.24-2.83.8-3.82,1.88-.13.14-.24.29-.35.43-.05.05-.1.09-.15.14-.66.67-.88,1.64-1.01,2.57-.08.54-.13,1.08-.17,1.62-.29.31-.57.63-.8.98-.36.56-.61,1.18-.8,1.82-.7.31-1.37.68-1.95,1.16-.88.73-1.52,1.69-2.05,2.71-.2,0-.4-.02-.6-.02-1.01.01-2.06.11-2.9.67-.72.48-1.2,1.24-1.63,1.98-.58,1.01-1.13,2.06-1.37,3.2-.12.6-.14,1.2-.11,1.8-.69.66-1.25,1.47-1.74,2.3-1.21.23-2.39.77-3.36,1.54-1.85,1.46-3.06,3.6-3.86,5.82-.07.19-.13.38-.19.58-.64.5-1.24,1.05-1.81,1.63-1.63,1.69-3.07,3.86-2.86,6.2.02.19.05.38.08.57,0,.07,0,.14,0,.21,0,.02.01.05.01.07-.06.06-.13.12-.19.18-.94,1.05-1.65,2.34-1.9,3.72-1.11.73-2.03,1.66-2.48,2.89-.06.17-.11.34-.15.51-.03.06-.06.12-.08.18-.34.83-.18,1.77.03,2.64.16.65.37,1.3.6,1.93-.58.95-1.08,1.95-1.42,3-.46.2-.91.43-1.34.69-.36-.05-.73-.07-1.1-.06-.5-.38-1.03-.73-1.61-.99-1.48-.66-3.16-.73-4.78-.67-1.04-1.02-2.25-1.89-3.54-2.59-.82-.45-1.72-.84-2.63-1.1-1.23-1.04-2.83-1.68-4.45-1.82-.47-.04-.95-.04-1.42,0-.23-.33-.47-.66-.77-.94-1.8-1.74-4.59-2.19-7.01-1.56-.91.23-1.77.6-2.59,1.06-2.2-.45-4.5-.06-6.63.68,0,0-.02,0-.02,0-.4-.25-.82-.48-1.26-.68-1.67-.76-3.62-1.03-5.36-.44-.05.02-.1.05-.16.07-1.84-.22-3.71-.21-5.54.06-.32.05-.64.12-.95.2-1.33-.3-2.68-.48-4.04-.52-.96-.02-1.96.03-2.78.53,0,0,0,0-.01,0-.13-.03-.25-.06-.38-.08-.86-.07-1.7.23-2.5.55-1.08.43-2.15.92-3.04,1.67-.69.59-1.24,1.32-1.7,2.1-1.23.04-2.47.28-3.66.62-.68.2-1.37.46-2.01.78-1.11-.37-2.26-.51-3.39-.2-.17.05-.34.11-.51.17-.07,0-.13.02-.19.04-.87.2-1.55.88-2.14,1.56-.08.1-.16.2-.24.3-.24.02-.48.05-.72.09-2.43.44-4.6,1.82-6.43,3.48-.34.31-.67.64-.99.99-.81.08-1.61.22-2.38.46-1.74.55-3.36,1.65-4.25,3.25-.25.45-.42.93-.55,1.43-.23.21-.45.42-.67.63-.53.53-1.04,1.09-1.52,1.67-1.39.58-2.56,1.62-3.6,2.72-.1.11-.2.22-.3.33-.98-.16-2.01-.24-2.91.15-.79.34-1.4,1-1.96,1.66-.73.86-1.42,1.76-1.86,2.79-.24.02-.47.02-.71.05-1,.11-2.04.3-2.83.93-.68.54-1.08,1.34-1.45,2.13-.49,1.06-.94,2.16-1.07,3.31-.05.46-.04.92,0,1.38-1.01.42-1.9,1.04-2.53,1.93-.1.15-.2.3-.28.46-.04.05-.09.1-.13.15-.55.72-.64,1.67-.66,2.57-.01.67.02,1.33.07,2-.02.03-.04.06-.06.09-.77,1.21-1.06,2.66-1.22,4.09-2.08.75-4.15,1.97-4.98,4.01-.07.18-.13.35-.18.53-.03.06-.06.12-.09.19-.33.73-.28,1.56-.13,2.36-.37.46-.62,1.02-.83,1.59-.69,1.91-1.08,3.93-1.15,5.96-1.12,1.49-1.44,3.55-1.05,5.4.16.75.44,1.45.78,2.14-.78,1.62-1.43,3.32-1.6,5.11-.05.55-.04,1.1,0,1.65-.06.11-.14.2-.2.31-1.17,2.02-2.04,4.47-1.27,6.67.06.18.14.36.22.53.02.07.03.14.05.2.21.69.7,1.25,1.26,1.72-.07,1.34-.02,2.68.26,3.98-.62,1.47-1.12,3.01-1.21,4.6-.1,1.79.33,3.66,1.48,5.03.01.01.03.02.04.04.17,1.29.55,2.55,1.05,3.76-.19,1.76-.17,3.55.08,5.3.14.97.37,1.98,1.01,2.72.05.05.1.09.15.14.32,2.07.94,4.1,1.84,6,.32.66.69,1.32,1.2,1.83.05.59.11,1.18.21,1.77.15.89.39,1.8.99,2.47.52.57,1.26.89,1.98,1.17.11.04.23.08.34.13.05.47.12.95.22,1.41.42,2.16,1.33,4.42,3.24,5.5.16.09.32.17.48.24.05.04.11.08.16.11.2.12.41.21.63.28.04.16.06.33.11.49.39,1.34,1.12,2.61,2.15,3.54.03,1.18.31,2.32.99,3.28.11.15.22.29.34.42.03.06.07.12.1.17.5.76,1.37,1.17,2.22,1.48.24.09.49.16.74.24.34,2.14,1.15,4.36,2.96,5.52.16.1.32.19.48.27.05.04.11.08.16.12.33.23.71.36,1.11.44.83,1.38,2.2,2.46,3.73,3.02,1.13.41,2.33.58,3.54.57.53.9,1.14,1.76,1.89,2.49.24.23.49.44.76.65.01.03.02.06.03.09.07.17.15.33.24.48.02.06.04.13.06.19.33.84,1.1,1.42,1.86,1.91,1.57,1,3.29,1.76,5.07,2.29.53.67,1.11,1.29,1.72,1.87,1.67,1.58,3.8,2.96,6.08,2.77.12.14.23.28.36.41,1.24,1.24,2.89,2.14,4.64,2.19,1.04.03,2.05-.25,2.97-.74.71.1,1.43.13,2.14.13.19,0,.38-.01.57-.02,1.38,1.14,2.91,2.11,4.55,2.83.83.37,1.74.68,2.64.54.42-.06.81-.23,1.18-.43.08.03.15.06.23.09.94.29,1.94.34,2.93.28.48.54,1.14.92,1.8,1.23,2.05.98,4.26,1.63,6.51,1.92.99.13,2.03.18,2.93-.25.47-.22.87-.57,1.23-.96,1.35.59,2.81.89,4.21.5.17-.05.34-.11.51-.17.06-.01.13-.02.19-.04.84-.2,1.5-.84,2.07-1.5.61.2,1.23.32,1.85.21.75-.13,1.4-.58,2.01-1.03.3-.22.59-.45.88-.7,1.48.84,3.12,1.36,4.75,1.01.18-.04.36-.09.53-.15.07,0,.14-.01.2-.03.91-.16,1.66-.82,2.3-1.49.02-.03.05-.05.07-.08.34.09.68.14,1.03.12.78-.05,1.5-.44,2.18-.83.67-.39,1.33-.81,1.92-1.32,1.14.65,2.43,1.04,3.73.98,1.4-.07,2.71-.68,3.79-1.58,2.29-.03,4.52-.84,6.53-1.96.72-.4,1.43-.87,2.07-1.4.78-.25,1.42-.8,2.02-1.36.82-.77,1.61-1.59,2.15-2.57.19-.36.35-.74.47-1.12.06-.02.11-.03.17-.05,1.64-.61,3.05-1.7,4.25-2.99,2.36-.55,4.44-1.97,6.19-3.65.94-.9,1.81-1.95,2.4-3.1.62-.47,1.22-.96,1.78-1.49.33.02.65.04.98.04.82,0,1.67-.08,2.4-.44,1.19,1.05,2.49,1.97,3.89,2.72.64.35,1.33.66,2.04.76.01.02.02.04.03.05.49.74,1.07,1.48,1.88,1.84.44.2.92.26,1.41.28.26.87.67,1.68,1.31,2.35.13.14.27.26.41.38.04.05.08.11.13.16.62.69,1.57.98,2.49,1.17.86.18,1.74.3,2.62.37.94,1.77,2.29,3.39,4.19,3.93.18.05.36.09.54.12.06.03.13.05.19.07.04.01.09.01.13.02.49.42,1.1.7,1.71.95.99.4,2.02.76,3.08.83.02,0,.04,0,.05,0,.32.62.67,1.23,1.05,1.81.56.86,1.22,1.71,2.15,2.13.8.36,1.71.36,2.59.33,1.09-.04,2.19-.14,3.22-.48.94,1.14,2.1,2.06,3.53,2.35.18.04.36.06.54.08.06.02.13.04.19.06.32.08.64.07.97.04.05.05.1.11.16.15.15.12.3.23.46.33.05.05.1.1.15.15.71.63,1.71.8,2.66.89,1.36.12,2.74.1,4.1-.04,1.34,1.39,2.98,2.52,4.88,2.57.19,0,.38,0,.56-.02.07,0,.14.02.21.02.56.04,1.09-.12,1.6-.36.82.45,1.67.85,2.54,1.17.81.3,1.68.54,2.53.42.26.26.54.51.85.72,1.95,1.31,4.61,1.25,6.75.27.07-.03.13-.08.2-.12.28.06.56.12.85.15,1.84.23,3.72.19,5.55-.1,1.02.78,2.16,1.33,3.43,1.41.2.01.39.01.58,0,.07.01.14.02.21.03.97.09,1.9-.36,2.74-.85,1-.59,1.95-1.27,2.85-2.01,1.25-.02,2.51-.24,3.72-.58.44-.12.88-.28,1.31-.45.91.38,1.85.68,2.83.82.53.08,1.07.09,1.61.07.63.36,1.27.7,1.93.99.93.41,1.94.77,2.94.61.86-.13,1.62-.63,2.34-1.13.21-.15.41-.29.61-.45,1.17.24,2.41.21,3.57-.07,2.29-.56,4.29-1.97,5.96-3.63,1.65.16,3.32-.03,4.62-1.01.14-.11.28-.22.4-.34.06-.03.11-.07.16-.1.56-.39.92-.99,1.18-1.64,1.76-.61,3.27-1.77,4.55-3.14.01,0,.02,0,.03,0,2.09.22,4.42.04,5.95-1.41.13-.12.24-.24.35-.37.05-.04.1-.08.15-.12.09-.08.15-.17.22-.25,1.32-.52,2.49-1.41,3.54-2.37.04-.04.08-.07.11-.11,1.7.15,3.49-.4,4.9-1.4,1.74-1.24,2.96-3.07,3.85-5.02.03,0,.06,0,.09-.01,1.78-.34,3.51-1.23,4.58-2.7.94-1.29,1.26-2.92,1.11-4.53.34-.28.67-.57.99-.87,1.62.14,3.24-.06,4.54-.98.15-.11.3-.23.44-.35.06-.03.12-.07.18-.11.78-.51,1.21-1.41,1.53-2.29.25-.67.45-1.35.63-2.03.14-.04.28-.08.42-.13.88-.31,1.77-.7,2.35-1.43.49-.63.69-1.44.85-2.22.04-.19.07-.37.11-.56.89-.49,1.69-1.16,2.32-1.94,1.49-1.84,2.2-4.21,2.49-6.56.9-1.1,1.69-2.29,2.34-3.55.42-.82.79-1.71.69-2.63-.05-.52-.26-1.01-.51-1.48,1.27-1.11,2.24-2.63,2.42-4.31.07-.61.01-1.23-.13-1.82.34-.95.51-1.97.61-2.98.04-.39.06-.78.08-1.17.44-.32.87-.67,1.28-1.04.52.24,1.05.45,1.59.64.48.17.98.31,1.48.42.51.89,1.18,1.69,2.04,2.24.96.61,2.08.89,3.21.89.74,1.29,1.74,2.4,3.1,2.96.18.08.36.14.55.19.06.03.13.07.19.1.88.41,1.91.29,2.86.09.2-.04.4-.1.61-.15.62.53,1.26,1.04,1.94,1.5.81.55,1.71,1.05,2.69,1.07.84.02,1.64-.32,2.4-.68.06-.03.11-.06.17-.08.73.72,1.58,1.31,2.55,1.63,1.74.57,3.66.27,5.3-.57.02,0,.04.01.06.02,2.29.51,4.69.14,6.93-.61.83.28,1.67.51,2.53.66,1.43.25,2.97.31,4.35-.06.25.12.49.25.76.33,1.49.46,3.11.19,4.5-.53.98.46,2,.84,3.05,1.13.86.23,1.78.41,2.63.14.71-.22,1.28-.72,1.82-1.23,1.01.28,2.03.5,3.06.64,1.01.13,2.08.18,3-.25.79-.37,1.38-1.06,1.93-1.75.54-.69,1.07-1.4,1.47-2.18.36.04.71.07,1.07.07,1.35,0,2.71-.34,3.85-1.05,1.11,0,2.22-.12,3.31-.34.72-.15,1.45-.35,2.15-.62.7.25,1.43.39,2.18.33.18-.01.36-.04.53-.07.07,0,.13,0,.2,0,.9-.03,1.7-.57,2.41-1.12,1.12-.89,2.14-1.9,3.05-3.01.91-.39,1.77-.93,2.57-1.53.42-.31.83-.64,1.22-.98.8-.14,1.6-.34,2.33-.69,1.41-.68,2.5-1.87,3.46-3.1.28-.35.54-.71.8-1.08,1.13-.01,2.25-.12,3.34-.42,1.81-.51,3.52-1.58,4.49-3.19.19-.31.34-.64.46-.98,1.23-.32,2.37-.94,3.2-1.9.13-.15.24-.32.35-.48.75-.19,1.49-.42,2.2-.7,2.17-.85,4.37-2.22,5.14-4.42.06-.18.12-.36.16-.55.03-.06.06-.13.09-.19.21-.52.22-1.09.15-1.65.44-.42.85-.87,1.24-1.33,1.36-1.6,2.51-3.6,2.36-5.67.48-.73.91-1.49,1.27-2.28.12-.08.24-.15.35-.23,1.67-1.23,2.81-3.06,3.61-4.98.8-.71,1.49-1.54,2.11-2.41.78-1.1,1.5-2.26,2.02-3.5.5-.4.95-.86,1.33-1.37,1.31-1.78,1.87-4.01,2.04-6.2.06-.71.06-1.44-.01-2.16.67-.99,1.25-2.03,1.62-3.16.27-.84.42-1.72.41-2.6.38-.61.73-1.24,1.03-1.9.55-1.2.98-2.54,1.05-3.85.6-.6,1.14-1.28,1.33-2.1.18-.78.02-1.6-.16-2.37-.11-.48-.24-.97-.4-1.44.3-.62.56-1.25.7-1.92.31-1.51.03-3.07-.37-4.56-.05-.19-.11-.38-.16-.56ZM247.78,459.02c-.78-.05-1.54.23-2.26.53-.58.24-1.16.51-1.71.83-.28-.18-.55-.37-.83-.54-.79-.47-1.67-.9-2.59-.88-.79.03-1.54.39-2.24.76-.36.19-.72.4-1.07.62-1.42-.48-2.89-.82-4.38-.98-.94-.1-1.94-.13-2.78.29-.32.16-.6.38-.86.63-.19-.07-.37-.15-.57-.21-2.21-.72-4.77-1.06-6.76.15-.01,0-.02.01-.03.02-.71-.26-1.46-.44-2.19-.3-.75.14-1.41.59-2.02,1.06-.24.18-.48.37-.72.57-.32-.06-.65-.12-.97-.17-.22-.03-.43-.05-.65-.08-.43-.45-.9-.86-1.42-1.2-1.91-1.26-4.23-1.76-6.53-1.85-1.28-.87-2.67-1.59-4.12-2.13-.57-.21-1.17-.39-1.77-.42-.53-.51-1.08-1-1.66-1.46-.75-.58-1.59-1.13-2.54-1.21-.22-.02-.44,0-.66.02-.58-.61-1.4-.96-2.21-1.22-2.05-.65-4.2-.97-6.35-.99-.01-.01-.02-.02-.03-.03-.65-.62-1.39-1.21-2.27-1.37-.57-.11-1.14-.03-1.71.11,0-.01,0-.03-.02-.04-.8-1.6-2.1-3-3.77-3.61-.03-.01-.06-.02-.09-.03-.33-.89-.82-1.71-1.5-2.38-.83-.81-1.88-1.34-3.01-1.61-.21-.54-.48-1.04-.9-1.43-.61-.59-1.44-.88-2.25-1.13-.85-.26-1.72-.5-2.6-.58-.93-1.83-2.85-3.08-4.88-3.49-.35-.07-.71-.11-1.06-.14-.63-.96-1.34-1.87-2.14-2.71-.54-.56-1.15-1.09-1.87-1.36-.47-.6-1.13-1.04-1.8-1.42-1-.59-2.05-1.14-3.19-1.38-1.58-.33-3.23-.05-4.79.35-.63.16-1.26.36-1.88.57-1.91-.37-3.92-.17-5.82.3-2.18.54-4.44,1.57-5.45,3.57-.08.17-.16.33-.22.5-.04.06-.07.11-.11.17-.21.38-.3.79-.34,1.22-.91.71-1.73,1.55-2.45,2.45-.19.24-.38.5-.56.76-.94.16-1.87.41-2.75.78-.86.37-1.68.87-2.37,1.5-.37.05-.74.13-1.1.27-.18.07-.35.15-.52.23-.07.02-.14.04-.2.06-.9.31-1.55,1.08-2.1,1.86-.78,1.11-1.44,2.29-1.99,3.52-.48.2-.96.41-1.43.65-1.69.86-3.34,2.06-4.23,3.68-.63.42-1.23.89-1.8,1.4-1.32.09-2.64.41-3.89.84-.59.21-1.18.45-1.74.75-1.49-.53-3.14-.66-4.63-.15-.95.32-1.77.9-2.46,1.62-.99,0-1.99.07-2.97.22-.94.14-1.92.37-2.63,1-.17.15-.31.32-.45.5-.55-.06-1.09-.09-1.64-.11-.7-.02-1.43.01-2.09.23-.36-.16-.74-.28-1.13-.31-.86-.07-1.7.23-2.5.55-.71.28-1.41.6-2.07.99-.03,0-.06-.02-.09-.03-1.75-.49-3.6-.39-5.38,0-.27-.21-.54-.43-.83-.62-1.51-1.02-3.31-1.85-5.09-1.77-1.55-.88-3.47-1.14-5.24-.82-1.05.19-2.04.56-2.98,1.04-.18-.03-.35-.06-.53-.08-.34-.76-.71-1.5-1.14-2.22-.51-.86-1.13-1.71-2.02-2.16-.77-.38-1.66-.41-2.52-.41-.07,0-.15,0-.22,0-.25-.45-.51-.9-.79-1.34-.54-.84-1.18-1.68-2.09-2.09-.54-.25-1.14-.32-1.74-.34-.02-.06-.05-.12-.08-.18-.42-.86-1.29-1.41-2.14-1.86-1.05-.55-2.14-1.01-3.26-1.38-.27-.71-.64-1.37-1.17-1.93-.13-.14-.27-.27-.42-.39-.04-.06-.09-.11-.13-.16-.64-.72-1.62-1.02-2.56-1.22-.67-.15-1.36-.25-2.04-.33-.31-.34-.65-.66-1.03-.94.15-.89.14-1.78-.14-2.64-.06-.17-.12-.34-.2-.51-.01-.07-.03-.13-.05-.2-.25-.88-.96-1.54-1.68-2.1-.44-.34-.9-.67-1.36-.98.1-.9.03-1.81-.26-2.67-.51-1.55-1.68-2.78-3.11-3.59-.32-1.21-.98-2.35-1.87-3.25-.23-.23-.5-.42-.75-.63-.1-.53-.31-1.05-.54-1.55-.27-.59-.57-1.18-.93-1.73.51-.86.86-1.79.9-2.79,0-.2,0-.39,0-.58.01-.07.02-.14.03-.21.08-.98-.39-1.91-.9-2.74-.62-1.01-1.32-1.97-2.1-2.86.06-1.21,0-2.43-.22-3.61.03-.05.06-.09.09-.14,1.13-1.96,1.95-4.32,1.2-6.45-.06-.18-.13-.34-.21-.51-.01-.07-.03-.13-.05-.2-.02-.05-.05-.09-.06-.14.37-.75.6-1.56.6-2.41,0-.19,0-.37-.03-.55,0-.07.02-.14.02-.2.04-.93-.44-1.79-.95-2.56-.1-.15-.22-.29-.32-.44,0-.28-.01-.55-.03-.82-.07-.96-.19-1.93-.5-2.84.27-.21.55-.41.8-.65,1.32-1.23,2.31-2.9,2.44-4.7.04-.6-.02-1.2-.16-1.77.47-.55.92-1.13,1.28-1.76.8-1.41,1.25-3.07,1.05-4.67.67-.72,1.21-1.57,1.53-2.5.62-.31,1.2-.71,1.59-1.28.46-.67.61-1.49.72-2.29.08-.58.15-1.17.16-1.76.8-.68,1.52-1.46,2.15-2.32.82,0,1.65-.08,2.36-.49.7-.41,1.19-1.1,1.63-1.78.47-.73.92-1.48,1.23-2.29.89-.19,1.77-.43,2.63-.73.91-.32,1.83-.74,2.42-1.51.51-.66.7-1.49.86-2.3.06-.29.11-.57.15-.86,1.97-.48,3.94-1.4,4.91-3.15.04-.07.07-.15.11-.22.75-.35,1.45-.85,2.05-1.44.08.02.15.05.23.07.92.23,1.9.39,2.8.09.77-.26,1.39-.83,1.96-1.41.03-.03.05-.05.08-.08.97.45,2.01.7,3.08.59.19-.02.38-.05.56-.09.07,0,.14,0,.21,0,.95-.06,1.78-.64,2.51-1.25.47-.4.93-.82,1.36-1.25.37.09.74.15,1.13.16,2.31.07,4.5-1.36,5.77-3.3.05-.07.08-.16.12-.23,1.11-.04,2.22-.17,3.28-.46.31.16.62.32.94.46.83.37,1.74.68,2.64.54.4-.06.77-.21,1.12-.4.09.03.18.08.28.11.93.29,1.91.34,2.88.29.48.56,1.16.96,1.84,1.28,2.05.98,4.26,1.63,6.51,1.92.99.13,2.03.18,2.93-.25.01,0,.02-.01.03-.02,1.66.97,3.58,1.61,5.4,1.1.1-.03.2-.07.3-.1.57.31,1.14.59,1.74.84.77.32,1.6.58,2.42.48.33.29.67.57,1.02.83.61.47,1.28.89,1.98,1.25,1.37,1.42,2.95,2.65,4.68,3.6.77.43,1.62.8,2.5.77.55.73,1.15,1.42,1.85,2.01.92.78,2.01,1.38,3.17,1.68,1.3,1.07,3,1.69,4.7,1.77,2.49.12,4.94-.74,7.13-1.96.81-.45,1.61-.98,2.32-1.6.48-.28.92-.66,1.33-1.04.82-.77,1.61-1.59,2.15-2.57.74-1.37.93-2.97.98-4.53,0-.18,0-.36,0-.54.83-.7,1.58-1.51,2.25-2.37.97-1.25,1.81-2.73,2.04-4.26.12-.11.24-.21.35-.32,1.73-1.66,3.27-3.81,3.14-6.2-.01-.2-.03-.39-.06-.58,0-.07,0-.14,0-.22,0-.44-.14-.86-.32-1.26.16-.21.33-.41.47-.64.68-1.05,1.14-2.27,1.26-3.51.28-.56.51-1.13.65-1.74.22-1,.17-2.02,0-3.04.98-.88,1.83-1.92,2.54-3.03.67-1.04,1.24-2.22,1.5-3.42.53-.94.88-2,1.16-3.06.09-.34.16-.68.24-1.02.55-.44,1.06-.95,1.54-1.47.32-.34.62-.7.92-1.07.5-.02,1-.05,1.49-.1.97-.11,1.98-.3,2.74-.92.65-.53,1.04-1.3,1.39-2.07.43-.93.81-1.9.97-2.91,1.06-.53,2.08-1.15,3.03-1.86.77-.58,1.54-1.24,1.88-2.15.29-.78.24-1.63.16-2.46-.04-.39-.09-.78-.15-1.17.66-.4,1.28-.85,1.84-1.37.63-.6,1.18-1.32,1.58-2.09.31-.27.6-.55.89-.84.82.13,1.67-.13,2.44-.45,1.84-.76,3.55-1.8,5.09-3.06.97-.09,1.93-.23,2.87-.45.97-.23,1.97-.54,2.66-1.26.24-.25.43-.54.59-.85.64-.15,1.24-.47,1.8-.83,1.3-.83,2.5-1.8,3.59-2.89.03,0,.07,0,.1,0,.78-.17,1.45-.66,2.07-1.16.8-.64,1.58-1.33,2.16-2.17.91-.08,1.81-.32,2.63-.69.96-.44,1.82-1.07,2.6-1.78,1.22.03,2.43-.05,3.63-.24,1.01.77,2.15,1.32,3.42,1.39.2.01.39.01.58,0,.07.01.14.02.21.03.97.09,1.9-.36,2.74-.85,1.01-.6,1.97-1.28,2.87-2.03,1.24-.02,2.49-.24,3.69-.58.45-.13.89-.28,1.33-.45.91.38,1.84.67,2.81.81.54.08,1.09.09,1.64.06.62.35,1.25.68,1.9.97.93.41,1.94.77,2.94.61.6-.09,1.15-.37,1.68-.69,1.47.56,3.16.64,4.7.26.25-.06.5-.14.75-.22,1.21.67,2.53,1.15,3.88,1.45.25.06.51.11.77.15.29.44.61.85,1.02,1.2,1.57,1.34,3.83,1.64,5.84,1.14,1.01.66,2.14,1.11,3.32,1.4.17.36.34.72.53,1.07.49.89,1.07,1.79,1.96,2.28.77.42,1.67.49,2.54.53.84.03,1.68.03,2.5-.08.32.56.69,1.09,1.14,1.56.14.22.28.44.43.65.66.93,1.37,1.85,2.28,2.52.84.62,1.83,1,2.85,1.28.18.79.39,1.57.66,2.33.3.84.69,1.7,1.4,2.24.45.34.98.53,1.53.66.39.97.96,1.88,1.69,2.62,1.08,1.11,2.42,1.89,3.85,2.47.35,1.95,1.12,3.9,2.75,4.96.15.1.3.19.46.26.05.04.1.08.16.12.73.51,1.67.58,2.56.56.29,0,.58-.03.87-.05.32.59.68,1.16,1.1,1.69,1.14,1.39,2.73,2.48,4.51,2.71,1.4.18,2.8-.19,4.02-.9,1.14.55,2.37.84,3.6.61.17-.03.34-.08.51-.13.06,0,.13-.01.19-.02.87-.13,1.59-.73,2.21-1.35,1.49-1.48,2.74-3.19,3.7-5.06.31-.6.58-1.25.67-1.91.45-.28.88-.58,1.28-.92,1.3-1.12,2.29-2.66,2.47-4.36.03-.26.03-.53.02-.79.6-1.16.84-2.49.97-3.8.02-.19.03-.38.04-.57.73-.48,1.41-1.03,2.04-1.61,1.56-1.45,2.97-3.34,2.9-5.47,0-.02,0-.03,0-.05.09-.17.19-.33.27-.51.24-.53.38-1.09.47-1.66.5-.11.99-.28,1.45-.55.15-.09.3-.19.44-.29.06-.03.12-.05.17-.08.77-.41,1.25-1.22,1.63-2.01.22-.46.43-.94.62-1.42.03-.01.05-.02.08-.03,1.32-.65,2.43-1.63,3.39-2.75,1.88-.48,3.69-1.2,5.38-2.16.88-.5,1.77-1.11,2.24-2.01.32-.6.42-1.28.45-1.97.11-.09.22-.17.32-.27.26-.24.48-.51.69-.79,1.89.1,3.84-.65,5.3-1.89.26-.22.48-.49.72-.74,1.61-.03,3.23-.4,4.75-.93.88-.31,1.75-.7,2.55-1.19,2.04.28,4.23.15,5.8-1.14.14-.12.27-.24.4-.37.06-.04.11-.07.16-.11.01,0,.02-.02.03-.03,1.18-.1,2.35-.55,3.33-1.25.66.26,1.33.5,2.01.69.45.12.92.22,1.38.26,2,.92,4.13,1.55,6.31,1.83,1.01.13,2.08.18,3.01-.25.74-.35,1.3-.97,1.81-1.61.43.11.86.2,1.29.27.61.47,1.29.86,2.01,1.13,1.74.65,3.62.73,5.47.5,1.06,1.06,2.33,2.02,3.72,2.48.28.5.63.96,1.1,1.28.66.46,1.48.61,2.28.72.64.09,1.29.16,1.94.16.41.67.85,1.33,1.34,1.95.6.76,1.3,1.51,2.21,1.83.79.27,1.65.2,2.48.09.11-.02.23-.03.35-.05.21.16.42.31.64.45,1.4.86,3.07,1.14,4.7,1.29.08,0,.15,0,.23.01.11.11.21.23.33.33.59.52,1.28.91,2.01,1.21-.13,1.07-.05,2.16.34,3.17.87,2.27,3.14,3.81,5.54,4.26,0,0,0,0,0,0,.31,1.42.98,2.77,2.08,3.72.47.4,1,.71,1.57.95.74,1.32,1.62,2.56,2.63,3.69.61.68,1.31,1.33,2.19,1.6-.01.05-.03.1-.05.16-.04.19-.07.39-.09.58-.02.07-.04.14-.06.21-.23.95.08,1.95.46,2.86.89,2.17,2.14,4.19,3.66,5.97.52.61,1.11,1.2,1.81,1.57-.05.14-.12.28-.16.44-.05.18-.08.36-.11.54-.02.06-.05.13-.07.19-.27.88-.03,1.84.28,2.71.73,2.09,1.79,4.06,3.13,5.82.45.59.97,1.17,1.59,1.56.04.21.08.42.12.62-.19.68-.29,1.39-.28,2.1.02,1.57.47,3.1,1.15,4.53-.33.88-.59,1.78-.76,2.7-.42,2.19-.42,4.67.97,6.42.11.14.24.28.36.41.04.06.07.11.11.17.03.04.08.08.12.12-.09.68-.14,1.37-.1,2.05,0,.12.04.25.05.37-.16.22-.32.44-.47.67-.49.75-.94,1.59-.94,2.48,0,.77.32,1.5.66,2.2.08.16.17.33.25.49-.64,1.48-1.12,3.04-1.39,4.64-.06.36-.1.72-.12,1.08-.12.13-.25.24-.36.39-1.06,1.46-1.33,3.37-.98,5.16-.96,1.84-1.65,3.83-2.01,5.87-.17.93-.26,1.93.11,2.8.13.3.31.57.51.83-.41.94-.74,1.92-.91,2.93-1.32.83-2.46,1.95-2.88,3.42-.03.11-.05.23-.08.34-.29.16-.57.32-.84.49-1.99,1.23-3.91,2.99-4.27,5.3-.03.19-.05.38-.06.57-.02.07-.04.14-.05.21-.08.43-.05.87.05,1.29-.55.84-1.06,1.72-1.46,2.64-.94.82-1.67,1.89-2.3,2.99-.04.07-.08.15-.12.22-1.22,0-2.4.24-3.42.9-.16.1-.31.22-.46.34-.06.03-.12.06-.18.1-.82.49-1.29,1.39-1.66,2.27-.31.72-.55,1.47-.78,2.22-.52.13-1.04.29-1.53.5-1.31.56-2.5,1.46-3.29,2.63-.74.13-1.46.31-2.16.59-.63.25-1.22.6-1.77,1-.84-.12-1.7-.09-2.52.13-2.09.57-3.68,2.35-4.44,4.39-.55.19-1.08.43-1.6.69-.18-.02-.36-.06-.54-.08-.91-.09-1.88-.11-2.69.31-.7.36-1.21.99-1.68,1.63-.12.16-.24.33-.36.5-.07,0-.13,0-.2,0-1.29,0-2.6.11-3.85.4-.22-.04-.44-.08-.67-.1-1.58-.13-3.14.34-4.62.92-.19.07-.37.16-.56.24-.15-.1-.29-.22-.45-.31-2.05-1.07-4.65-.73-6.63.47-.85.51-1.59,1.19-2.25,1.93,0,0,0,0,0,0-.53-.5-1.11-.95-1.74-1.29-2.01-1.11-4.37-1.44-6.67-1.39-.6-.63-1.28-1.21-2.11-1.44-.8-.22-1.65-.08-2.47.09-.78.16-1.57.35-2.31.64-.19-.17-.36-.34-.56-.5-.72-.6-1.52-1.16-2.44-1.28-.79-.1-1.59.14-2.34.41-.58.2-1.16.43-1.71.7-.61-.26-1.24-.44-1.89-.57-.59-1.04-1.27-2.03-2.03-2.95-.62-.75-1.34-1.49-2.27-1.79-.5-.16-1.03-.17-1.55-.14-.14-.23-.3-.45-.48-.65-.13-.14-.26-.27-.39-.4-.04-.06-.08-.11-.12-.17-.59-.73-1.54-1.06-2.45-1.3-1.62-.42-3.3-.65-4.98-.68-.5-.26-1-.49-1.52-.7-.61-.25-1.24-.46-1.87-.66-.93-1.01-2.15-1.73-3.39-2.33-1.39-.67-2.86-1.22-4.39-1.46-.87-.7-1.82-1.31-2.81-1.83-2.12-1.11-4.65-1.88-6.87-1-.18.07-.36.16-.53.25-.07.02-.14.04-.21.06-.92.33-1.57,1.14-2.12,1.94-.91,1.34-1.67,2.8-2.26,4.31-1.32.95-2.31,2.4-2.8,3.97-.31,1-.44,2.04-.44,3.09-1.05.61-1.94,1.43-2.48,2.51-.09.18-.17.35-.23.53-.04.06-.08.12-.11.18-.48.86-.43,1.9-.31,2.87.12.93.31,1.85.54,2.76-.41.63-.53,1.42-.57,2.18-.08,1.48.02,2.96.29,4.41-.78,1.07-1.45,2.21-1.88,3.46-.25.73-.4,1.49-.44,2.26-.77.71-1.38,1.57-1.64,2.58-.04.17-.08.33-.1.5-.02.06-.04.12-.06.18-.25.82-.02,1.7.26,2.5.05.14.11.28.17.42-.72.7-1.38,1.5-1.85,2.37-1.14.33-2.18.88-2.92,1.79-.11.13-.21.27-.3.42-.04.04-.09.09-.13.14-.5.57-.67,1.35-.75,2.11,0,0,0,0,0,0-1.25,1.03-2.05,2.5-2.7,3.98-.17.38-.33.77-.48,1.16-1.76.99-3.16,2.55-4.25,4.26-.36.25-.7.55-1.01.85-.74.72-1.46,1.48-1.94,2.39-.29.56-.47,1.16-.6,1.78-.91.09-1.8.25-2.66.54-1.12.37-2.16.99-3.02,1.79-1.91.02-3.87.45-5.17,1.82-.07.08-.13.16-.2.23-.03,0-.07,0-.1,0-2.32.1-4.39,1.69-5.52,3.72-.02.04-.04.08-.06.13-1.18-.15-2.38-.03-3.45.47-1.14.54-2.03,1.48-2.64,2.6-.67.3-1.31.7-1.9,1.14-.53-.32-1.1-.58-1.71-.62Z"/>
    </g>
  </g>
</svg>