<?xml version="1.0" encoding="UTF-8"?>
<svg id="Calque_2" data-name="Calque 2" xmlns="http://www.w3.org/2000/svg" viewBox="0 0 1454.66 1940.51">
  <defs>
    <style>
      .cls-1 {
        fill: #ff9797;
      }

      .cls-2 {
        fill: #56bae2;
      }

      .cls-3 {
        fill: #fcb6b6;
      }

      .cls-4 {
        fill: #f7d247;
      }

      .cls-5 {
        fill: #b28f60;
      }

      .cls-6 {
        fill: #fff;
      }

      .cls-7 {
        fill: #fbebdf;
      }

      .cls-8 {
        fill: #ff743e;
      }
    </style>
  </defs>
  <g id="Layer_1" data-name="Layer 1">
    <g>
      <g>
        <polygon class="cls-3" points="988.83 1216.94 1143.3 1432.81 1342.01 1300.43 1157.39 1061.17 988.83 1216.94"/>
        <path class="cls-3" d="M586.38,1091.4l-222.87-121.36c-40.33-21.96-71.44-57.66-87.67-100.61l-66.18-175.08,197.51-134.76,74.93,197.29,272.92,152.11-168.64,182.4Z"/>
        <polygon class="cls-7" points="659.44 1147.21 463.07 1040.35 598.7 787.36 819.94 863.4 659.44 1147.21"/>
        <path class="cls-7" d="M1206.85,1093.78l-97.44-113.37c-21.83-29.49-54.74-48.8-91.13-53.47l-360.68-46.21-40.45,363.18,403.67,18.18,5.21-31.37,180.82-136.95Z"/>
        <g>
          <path class="cls-3" d="M456.34,643.05l-.21-1.55c-9.79-70.65-74.78-120.15-145.5-110.81h-.02c-72.07,9.52-122.25,76.39-111.25,148.25l.24,1.54c10.68,69.79,75.22,118.23,145.22,108.98h0c71.36-9.42,121.4-75.13,111.53-146.42Z"/>
          <g>
            <rect class="cls-8" x="228.52" y="546.28" width="310.55" height="75.2" transform="translate(346.8001 1281.6144) rotate(-143.647)"/>
            <g>
              <rect class="cls-8" x="169.49" y="421.87" width="31.32" height="31.6" transform="translate(-277.09 327.35) rotate(-53.65)"/>
              <polygon class="cls-7" points="236.46 522.12 281.03 461.56 207.16 434.43 188.59 459.65 236.46 522.12"/>
            </g>
          </g>
          <path class="cls-3" d="M456.99,641.25c-2.46,35.16,3.1,91.55-32.07,89.09-35.16-2.46-97.73-62.82-95.28-97.98,2.46-35.16,32.95-61.68,68.12-59.23,35.16,2.46,61.68,32.95,59.23,68.12Z"/>
        </g>
        <g>
          <polygon class="cls-3" points="590.72 1397.47 552.26 1605.37 772.27 1649.69 811.06 1440.03 810.8 1397.47 590.72 1397.47"/>
          <polygon class="cls-7" points="512.81 1818.56 741.02 1818.56 772.27 1649.69 552.26 1605.37 512.81 1818.56"/>
          <polygon class="cls-3" points="1039.01 1397.47 818.93 1397.47 811.06 1440.03 812.42 1662.43 1040.63 1662.43 1039.01 1397.47"/>
          <polygon class="cls-7" points="812.42 1662.43 813.84 1893.27 1042.05 1893.27 1040.63 1662.43 812.42 1662.43"/>
          <polygon class="cls-7" points="810.8 1397.47 811.06 1440.03 818.93 1397.47 810.8 1397.47"/>
        </g>
        <path class="cls-8" d="M933.64,1777.45h0c74.87,0,135.65,60.78,135.65,135.65v27.41h-271.29v-27.41c0-74.87,60.78-135.65,135.65-135.65Z"/>
        <path class="cls-8" d="M741.02,1818.56v121.95h-339.39s-14.48-107.69,123.43-188.13l215.96,66.18Z"/>
        <polygon class="cls-2" points="1020.82 1262.11 972.3 1259.46 967.02 1047.88 694.68 1043.12 653.64 1246.87 617.15 1243.92 546.35 1483.3 798 1532.34 1055.04 1522.27 1020.82 1262.11"/>
        <path d="M818.94,1413.72c-.34,0-.69-.04-1.04-.13l-46.67-12.12c-2.21-.57-3.53-2.83-2.96-5.04.57-2.21,2.83-3.54,5.04-2.96l46.67,12.12c2.21.57,3.53,2.83,2.96,5.04-.48,1.86-2.16,3.1-4,3.1Z"/>
        <path d="M798,1527.71c-.08,0-.15,0-.23,0-2.28-.12-4.02-2.07-3.9-4.35l6.45-117.75c.13-2.28,2.06-4.07,4.35-3.9,2.28.12,4.03,2.07,3.9,4.35l-6.45,117.75c-.12,2.2-1.94,3.91-4.12,3.91Z"/>
        <polygon class="cls-2" points="693.08 1071.42 666.93 899.02 741.99 892.15 761.92 1071.42 693.08 1071.42"/>
        <polygon class="cls-2" points="895.7 1071.42 921.2 894.56 997.35 896.28 963.46 1093.78 895.7 1071.42"/>
        <g>
          <circle class="cls-5" cx="1106.41" cy="605.61" r="71.82" transform="translate(331.212 1600.5838) rotate(-80.7719)"/>
          <circle class="cls-5" cx="1199.76" cy="561.47" r="71.82" transform="translate(610.6632 1747.9064) rotate(-88.673)"/>
          <circle class="cls-5" cx="1251.34" cy="487.45" r="71.82" transform="translate(679.274 1702.4364) rotate(-86.0698)"/>
          <circle class="cls-5" cx="545.32" cy="432.52" r="71.82" transform="translate(-11.18 14.48) rotate(-1.51)"/>
          <circle class="cls-5" cx="575.35" cy="531.31" r="71.82" transform="translate(-13.76 15.3) rotate(-1.51)"/>
          <circle class="cls-5" cx="641.04" cy="593.16" r="71.82" transform="translate(-231.67 627.01) rotate(-45)"/>
          <path class="cls-5" d="M1097.03,627.35c45.47,134.22-31.88,278.14-172.77,321.46-140.88,43.32-291.95-30.37-337.42-164.59-45.47-134.22,31.88-278.14,172.77-321.46,140.88-43.32,291.95,30.37,337.42,164.59Z"/>
          <path class="cls-3" d="M946.19,519.71c-45.36-25.38-99-36.88-154.49-29.54-42.37,5.6-80.84,21.52-113.22,44.89-44.89,32.39-78.07,79.09-93.74,132.49-3.06,10.43-5.46,21.11-7.14,31.99-3.54,22.92-3.92,46.73-.73,70.88,1.54,11.65,3.86,23,6.9,34.01,21.58,78.19,79.46,139.26,152.35,166.88,37.35,14.15,78.63,19.53,121,13.94,93.23-12.32,167.6-74.6,199.76-156.33,12.9-32.79,18.99-68.7,16.79-105.78-.36-6.02-.91-12.07-1.71-18.15-1.99-15.04-5.28-29.59-9.74-43.55-19.62-61.43-61.93-111.47-116.02-141.74Z"/>
          <g>
            <path class="cls-6" d="M760.65,629.26c-7.07,28.24-26.35,48.65-46.23,51.13,5.34,8.08,12.55,13.77,21.25,15.95,25.29,6.33,53.52-19.43,63.07-57.54,9.54-38.11-3.22-74.14-28.51-80.47-8.7-2.18-17.74-.56-26.26,4.05,16.36,11.55,23.75,38.65,16.68,66.88Z"/>
            <path d="M707.16,615.87c-6.26,25-2.92,49.11,7.26,64.52,19.87-2.48,39.16-22.9,46.23-51.13,7.07-28.24-.32-55.33-16.68-66.88-16.24,8.8-30.55,28.49-36.81,53.49Z"/>
          </g>
          <g>
            <path class="cls-6" d="M840.09,633.04c-7.07,28.24-26.35,48.65-46.23,51.13,5.34,8.08,12.55,13.77,21.25,15.95,25.29,6.33,53.52-19.43,63.07-57.54,9.54-38.11-3.22-74.14-28.51-80.47-8.7-2.18-17.74-.56-26.26,4.05,16.36,11.55,23.75,38.65,16.68,66.88Z"/>
            <path d="M786.6,619.65c-6.26,25-2.92,49.11,7.26,64.52,19.87-2.48,39.16-22.9,46.23-51.13,7.07-28.24-.32-55.33-16.68-66.88-16.24,8.8-30.55,28.49-36.81,53.49Z"/>
          </g>
          <path d="M746.58,720.69c5.78,15.13,20.8,25.51,37.84,24.64,17.64-.91,31.88-13.58,35.52-30.02l-73.37,5.39Z"/>
          <circle class="cls-1" cx="942.68" cy="671.07" r="37.72" transform="translate(185.8591 1546.3997) rotate(-84.5993)"/>
          <circle class="cls-1" cx="636.43" cy="694.36" r="37.72" transform="translate(-251.5481 1008.4787) rotate(-66.9735)"/>
          <circle class="cls-3" cx="1095.81" cy="737.71" r="87.08" transform="translate(-200.68 990.92) rotate(-45)"/>
          <path class="cls-5" d="M824.4,471.51s92.76,165.14,207.08,176.35l25.03,47.73,50.67-62.72-79.21-94.29-203.57-67.07Z"/>
        </g>
        <path d="M816.13,1246.83c-1.83,0-3.68-.05-5.56-.16-24.59-1.37-44.12-10.61-58.04-27.47-16.5-19.97-21.85-47.14-23.44-66.41-1.7-20.69.39-36.55.48-37.21.28-2.05,2.03-3.58,4.1-3.58h167.5c2.24,0,4.08,1.79,4.13,4.03.02.75.39,18.59-3.79,41.1-5.67,30.51-16.57,53.75-32.39,69.08-14.14,13.7-31.95,20.62-52.99,20.62ZM737.39,1120.26c-.51,5.74-1.23,17.81-.04,32.04,1.5,18.04,6.47,43.38,21.58,61.66,12.39,14.99,29.92,23.22,52.11,24.46,21.08,1.17,38.68-4.93,52.32-18.13,30.03-29.07,33.33-84.64,33.66-100.03h-159.62Z"/>
        <path d="M636.44,1113.39c-.18,0-.35-.01-.53-.03-2.26-.29-3.86-2.36-3.57-4.63l10.75-83.62c.29-2.26,2.37-3.86,4.63-3.57,2.26.29,3.86,2.36,3.57,4.63l-10.75,83.62c-.27,2.08-2.05,3.6-4.09,3.6Z"/>
        <path d="M434.09,817.96c-1.12,0-2.24-.45-3.05-1.35-1.54-1.69-1.42-4.3.26-5.84l28.99-26.47c1.69-1.54,4.3-1.42,5.84.27,1.54,1.69,1.42,4.3-.26,5.84l-28.99,26.47c-.79.72-1.79,1.08-2.78,1.08Z"/>
        <path d="M308.28,724.68c-2.28,0-4.13-1.85-4.13-4.13,0-28.75,27.5-56.07,34.2-62.29v-36.86c0-2.28,1.85-4.13,4.13-4.13s4.13,1.85,4.13,4.13v38.69c0,1.19-.51,2.32-1.41,3.11-.33.29-32.79,29.08-32.79,57.36,0,2.28-1.85,4.13-4.13,4.13Z"/>
        <path class="cls-3" d="M1396.82,1377.59l-.32-1.53c-14.69-69.8-82.97-114.65-152.86-100.41h-.02c-71.23,14.52-116.63,84.73-100.65,155.64l.34,1.52c15.52,68.88,83.27,112.7,152.46,98.6h0c70.53-14.37,115.87-83.4,101.06-153.83Z"/>
        <g>
          <rect class="cls-4" x="1106.27" y="1348.76" width="310.55" height="75.2" transform="translate(-612.1963 1335.6123) rotate(-46.1474)"/>
          <g>
            <rect class="cls-4" x="1416.62" y="1192.83" width="31.6" height="31.32" transform="translate(-431.4395 1404.1992) rotate(-46.1474)"/>
            <polygon class="cls-7" points="1342.01 1248.34 1396.23 1300.43 1432.77 1230.73 1410.19 1209.04 1342.01 1248.34"/>
          </g>
        </g>
        <path d="M1110.06,1304.57c-1.23,0-2.45-.55-3.27-1.6-1.4-1.8-1.07-4.4.73-5.8l89.71-69.7c1.8-1.4,4.4-1.07,5.8.73,1.4,1.8,1.07,4.4-.73,5.8l-89.71,69.7c-.75.59-1.65.87-2.53.87Z"/>
        <path class="cls-3" d="M1216.74,1508.21s-17.03-72.83,38.2-126.42c55.24-53.59,119.55-23.82,119.55-23.82"/>
        <path d="M1170.67,1385c-.55,0-1.1-.11-1.64-.34-2.09-.91-3.06-3.33-2.15-5.43.5-1.17,12.69-28.9,43.6-53.89,1.78-1.43,4.38-1.16,5.81.61,1.44,1.78,1.16,4.38-.61,5.81-29.24,23.64-41.09,50.47-41.21,50.74-.68,1.56-2.2,2.49-3.8,2.49Z"/>
        <path d="M1018.15,1229.73c-.14,0-.27,0-.41-.02-2.27-.22-3.93-2.25-3.71-4.52l8.24-83.36c.22-2.27,2.26-3.93,4.52-3.71,2.27.22,3.93,2.25,3.71,4.52l-8.24,83.36c-.21,2.13-2.01,3.73-4.11,3.73Z"/>
        <circle class="cls-3" cx="1283.8" cy="1316.43" r="50.84" transform="translate(-292.3655 2263.4321) rotate(-76.7175)"/>
        <path d="M1289.29,1364.7c-1.94,0-3.67-1.38-4.05-3.35-.43-2.24,1.04-4.41,3.28-4.84l15.88-3.05c2.24-.43,4.41,1.04,4.84,3.28.43,2.24-1.04,4.41-3.28,4.84l-15.88,3.05c-.26.05-.53.08-.78.08Z"/>
      </g>
      <path class="cls-8" d="M297.41,213.87c-.25-1.33-.65-2.64-1.16-3.9.15-.71.21-1.43.16-2.14-.11-1.57-.63-3.08-1.38-4.47.35-.59.64-1.23.77-1.91.32-1.69-.22-3.44-1.23-4.85.05-.68.05-1.36-.07-2.04-.14-.77-.43-1.5-.81-2.2.13-.19.24-.4.32-.62.29-.75.24-1.59.16-2.39-.11-1.08-.26-2.18-.7-3.17-.16-.35-.35-.69-.56-1.01.04-.09.09-.18.12-.27.04-.05.07-.11.1-.16.43-.75.41-1.67.31-2.54-.2-1.81-.67-3.58-1.36-5.26.6-1.31.91-2.71.61-4.1-.04-.19-.09-.37-.15-.55,0-.07-.02-.14-.03-.21-.17-.95-.85-1.72-1.55-2.38-.37-.35-.75-.69-1.15-1.01.03-.25.04-.5.04-.76-.04-1.85-1-3.57-2.39-4.83-.2-1.75-.62-3.48-1.25-5.13-.3-.8-.69-1.59-1.3-2.17-.23-1.68-1.16-3.28-2.44-4.43.26-2.13-.73-4.32-2.3-5.8-.67-.63-1.44-1.12-2.26-1.55.02-.3.04-.61.03-.91-.06-1.8-.66-3.62-1.93-4.89-.36-.36-.77-.65-1.2-.9-.94-1.74-2.12-3.34-3.52-4.74-.68-.68-1.45-1.34-2.4-1.55-.17-.04-.34-.05-.51-.06-.07-.08-.13-.17-.2-.24-.77-.87-1.6-1.69-2.52-2.4.02-1-.15-2-.61-2.88-.54-1.03-1.42-1.82-2.45-2.36-.41-1.37-.96-2.7-1.65-3.96-.36-.66-.79-1.31-1.36-1.78-.13-.31-.25-.62-.39-.93-.41-.89-.92-1.79-1.75-2.32-.71-.45-1.58-.58-2.42-.67-.67-.07-1.34-.11-2.01-.1-.62-.68-1.36-1.26-2.18-1.67-.67-.34-1.39-.55-2.11-.71-.23-.36-.48-.71-.76-1.02-1.07-1.19-2.45-2.04-3.92-2.68-.43-.73-.97-1.41-1.59-1.97-1.56-1.41-3.54-2.24-5.59-2.74-.18-.33-.37-.67-.57-.99-.48-.77-1.05-1.54-1.88-1.93-.71-.33-1.52-.35-2.3-.33-.58.01-1.17.04-1.75.13-.11-.17-.19-.34-.32-.5-1.39-1.69-3.77-2.36-5.94-2.06-.18.02-.36.06-.53.1-.45-.68-1-1.27-1.68-1.72-1.32-.87-2.96-1.08-4.53-.81-.14-.16-.25-.33-.41-.48-1.69-1.55-4.26-1.89-6.46-1.26-.13.04-.25.09-.38.13-1.06-.43-2.24-.62-3.39-.72-.11-.01-.23-.01-.34-.02,0-.02-.02-.04-.03-.06-.43-.86-.96-1.72-1.78-2.21-.71-.42-1.56-.51-2.38-.57-1.11-.08-2.24-.11-3.31.16-.5.13-.97.33-1.43.57-.05-.02-.1-.05-.15-.07-2.28-.95-4.86-.97-7.3-.57-.65.11-1.32.26-1.96.46-1.38-.14-2.78.02-4.13.37-.93-.41-1.88-.75-2.86-1.01-.13-.35-.31-.68-.5-1.01.06-.72.05-1.45.01-2.16-.03-.58-.09-1.15-.16-1.73.32-.35.64-.71.93-1.09.57-.72,1.1-1.52,1.19-2.42.08-.78-.18-1.55-.46-2.29-.02-.06-.05-.13-.08-.19.5-.47.93-1.01,1.15-1.65.28-.81.2-1.7.09-2.55-.15-1.15-.36-2.3-.86-3.34-.12-.25-.27-.47-.42-.7.55-.67,1.02-1.4,1.33-2.18,1.13-.01,2.26-.12,3.34-.43,0,0,.02,0,.02,0,1.4.05,2.79-.33,4.11-.8.17-.06.33-.13.49-.19.81.45,1.65.86,2.51,1.2.88.34,1.83.63,2.76.45.8-.16,1.48-.65,2.12-1.14.38-.3.76-.61,1.12-.93.79,0,1.58-.06,2.36-.16,1.16-.15,2.32-.39,3.43-.74,1.86.33,3.81.17,5.67-.23.67-.15,1.34-.34,1.99-.59.57-.05,1.14-.22,1.69-.4,1.04-.35,2.09-.76,2.97-1.42.03-.02.06-.06.09-.08.4.18.8.36,1.21.51.95.36,1.99.65,2.98.44.86-.18,1.59-.72,2.27-1.27.92-.74,1.82-1.53,2.47-2.51.08-.13.14-.27.21-.4,1.77-.15,3.55-.46,5.16-1.22.15-.07.28-.16.42-.24,1.09-.22,2.14-.66,3.14-1.15,1.64-.81,3.24-1.78,4.49-3.12.02-.03.05-.05.07-.08.79-.43,1.54-.97,2.24-1.55.3-.25.59-.51.88-.77,2.12-.18,4.15-1.05,5.97-2.18.77-.48,1.52-1.04,2.18-1.67.28-.04.57-.11.84-.2.16-.06.32-.12.47-.2.06-.01.12-.03.18-.05.81-.25,1.41-.94,1.91-1.62.11-.15.21-.32.32-.48,1.31-.18,2.6-.7,3.68-1.48,1.87-1.36,3.16-3.37,4.09-5.5.38-.19.73-.41,1.02-.71.59-.62.89-1.45,1.15-2.27.35-1.1.65-2.24.63-3.39-.02-1.6-.66-3.13-1.4-4.56-.84-1.64-1.84-3.22-3.21-4.45-1.26-1.13-2.86-1.93-4.54-2.02-1.12-.85-2.33-1.6-3.66-2.04-.56-.19-1.15-.29-1.73-.35-.21-.11-.41-.22-.63-.32-2.21-.96-4.73-1.01-7.11-.66-.38.06-.77.13-1.15.22-.74-.1-1.49-.13-2.23-.12-.58,0-1.17.03-1.75.08-1.47-1.37-3.67-1.83-5.66-1.47-.74.14-1.43.4-2.11.71-.8-.64-1.66-1.2-2.59-1.62-1.69-.76-3.66-1.03-5.42-.42-.67.23-1.28.59-1.82,1.04-.05,0-.09-.03-.14-.04-2.3-.34-4.65.83-6.14,2.62-.06.08-.11.17-.17.25-.67-.04-1.34-.06-2-.02-.81.05-1.65.17-2.44.39-1.87-.59-4.01-.19-5.7.85-.28.17-.53.39-.79.59-1.3-.69-2.72-1.1-4.15-.83-.18.03-.36.08-.53.13-.07,0-.13.01-.2.02-.91.13-1.66.76-2.32,1.41-.82.81-1.56,1.69-2.24,2.62-.59-.02-1.18.02-1.75.18-1.04.3-1.95.93-2.67,1.75-1,.13-1.98.45-2.87.93-.76.41-1.42.94-2.06,1.52-.04-.37-.1-.74-.18-1.11.57-.37,1.1-.8,1.53-1.34,1.47-1.88,1.61-4.58.77-6.82-.05-.14-.11-.27-.17-.4.25-.34.47-.7.62-1.1.06-.16.12-.33.16-.49.03-.06.06-.11.08-.17.34-.8.21-1.71.01-2.56-.47-2.02-1.26-3.96-2.33-5.74-.15-.25-.31-.49-.48-.72-.28-1.33-.66-2.63-1.19-3.88-.38-.89-.85-1.8-1.65-2.35-.69-.47-1.54-.63-2.37-.74-1.11-.16-2.25-.26-3.36-.06-1.08.2-2.08.69-3.02,1.29-.49-.21-.99-.37-1.52-.36-.8,0-1.55.36-2.27.73-.96.49-1.91,1.04-2.67,1.81-1.05,1.07-1.65,2.5-2.12,3.92-.15.47-.29.95-.42,1.43-.95.37-1.8.92-2.42,1.73-.11.14-.2.28-.29.43-.04.05-.09.09-.13.14-.55.67-.68,1.59-.73,2.47-.11,1.99.09,3.99.57,5.92-.12.25-.26.5-.37.75-.87,1.99-1.41,4.33-.47,6.29.08.16.16.31.26.46.02.06.04.12.07.18,0,0,0,0,0,.01.02.83.14,1.67.31,2.49,0,.04.02.08.03.12-.5.52-.98,1.06-1.42,1.63-.57.74-1.1,1.56-1.18,2.49-.07.8.21,1.58.5,2.32.35.9.76,1.78,1.33,2.55-.62,1.46-1.11,2.97-1.21,4.55-.02.35,0,.71.01,1.06-.57,1.64-.93,3.34-1.04,5.07-.02.29-.02.57-.02.86-1.04,1.74-1.17,3.99-.55,5.94.09.28.19.56.31.83-.12.36-.2.74-.26,1.12-.32,2.04-.3,4.12.03,6.15.01.07.03.13.04.2-.92,1.26-1.56,2.7-1.42,4.22.02.17.04.34.08.51,0,.06,0,.13,0,.19.03.56.27,1.08.59,1.56-.33,1.03-.42,2.16-.26,3.23.12.86.38,1.69.74,2.48-.32.53-.62,1.07-.89,1.62-.84,1.77-1.42,3.84-.87,5.69-.47,1.95-.3,4.02.18,5.98-.27.35-.51.73-.69,1.14-.31.03-.63.07-.94.11-.82-.4-1.71-.67-2.61-.75-1.31-.13-2.62.05-3.89.41-.3-.23-.59-.46-.91-.67-1.89-1.27-4.21-2.27-6.41-1.66-.18.05-.36.11-.53.18-.07.01-.13.02-.2.04-.11.03-.2.08-.31.12-1.15-.71-2.42-1.15-3.74-1.03-.18.02-.36.05-.53.08-.07,0-.13,0-.2,0-.58.03-1.11.29-1.61.61-1.18-.37-2.42-.58-3.66-.68-1.59-.12-3.3-.01-4.74.6-1.55-.04-3.12.24-4.6.7-.1.03-.2.07-.3.1-1.23-.32-2.49-.54-3.75-.64-.96-.07-1.98-.06-2.83.4-.19.1-.36.22-.52.36-.65-.28-1.34-.47-2.04-.4-.86.08-1.65.51-2.39.97-1,.61-1.98,1.27-2.73,2.16-.21.25-.38.52-.55.79-1.54-.1-3.09-.05-4.58.36-.13.04-.25.1-.38.14-1-.24-2.02-.4-3.04-.48-.91-.07-1.86-.06-2.66.37-.41.22-.74.54-1.04.89-1.61-.69-3.36-1.03-4.99-.46-.18.06-.35.13-.51.21-.07.01-.13.03-.2.05-.89.28-1.55,1.02-2.1,1.77-.52.7-.98,1.43-1.4,2.19-.24.03-.48.05-.71.09-1.69.29-3.45.89-4.63,2.08-1.03.25-2.01.73-2.84,1.39-.7.56-1.28,1.25-1.8,1.98-1.74-.33-3.58-.3-5.03.68-.14.1-.28.2-.4.31-.06.03-.11.06-.16.09-.42.26-.73.65-.98,1.09-.15-.01-.29-.03-.44-.04-.93-.05-1.91-.01-2.71.45-.69.4-1.18,1.07-1.62,1.74-.36.54-.7,1.1-.98,1.68-1.73-.17-3.52.03-4.85,1.1-.13.11-.26.22-.38.34-.05.03-.11.07-.16.11-.49.36-.79.9-1.02,1.47-.24.1-.48.21-.71.34-1.33.75-2.31,1.97-3.17,3.22-.11.17-.22.34-.33.51-1.38.54-2.57,1.49-3.65,2.52-.97.93-1.88,1.93-2.62,3.04-1.64.23-3.23.8-4.25,2.06-.11.13-.21.27-.3.41-.04.04-.09.09-.13.14-.56.64-.71,1.54-.79,2.39-.03.34-.03.67-.05,1.01-.69.27-1.36.6-1.98,1.01-.49.32-.92.72-1.33,1.14-2.03.84-3.72,2.38-5.1,4.1-.59.74-1.14,1.57-1.55,2.44-1.12.64-2.18,1.38-3.06,2.31-.86.91-1.54,2.02-1.9,3.22-1.6.95-3.04,2.26-3.48,4.04-.04.17-.07.34-.09.51-.02.06-.04.12-.06.18-.12.42-.11.86-.04,1.3-1.37,1.26-2,3.21-1.9,5.09-.33.17-.65.37-.94.61-1.66,1.37-2.31,3.71-2.01,5.85,0,0,0,0,0,.01-.85.86-1.59,1.85-2.2,2.9-.09.16-.18.33-.27.49-.03.03-.07.07-.11.1-.81.82-1.6,1.68-2.11,2.71-.71,1.43-.85,3.08-.85,4.67,0,.32.01.65.02.97-.76.47-1.48,1.01-2.11,1.65-1.12,1.14-1.92,2.64-2.06,4.23-.89,1.32-1.65,2.73-2.23,4.21-.36.92-.66,1.92-.47,2.9.11.57.4,1.09.73,1.57-.38.7-.41,1.55-.36,2.36.09,1.34.33,2.66.69,3.96-.25.28-.49.57-.7.88-1.04,1.51-1.66,3.37-1.39,5.18-.41,1.04-.6,2.17-.55,3.29.04.95.24,1.89.54,2.79-.25.54-.43,1.11-.55,1.69-.26,1.29-.22,2.62.02,3.93-.69.58-1.26,1.28-1.59,2.13-.07.17-.12.34-.17.51-.03.06-.06.12-.09.18-.36.82-.23,1.76-.03,2.63.35,1.54.88,3.04,1.57,4.45-.81,1.98-1.27,4.24-.36,6.16.08.17.17.33.26.48.02.06.05.13.07.19.11.25.27.47.44.68-.1.6-.19,1.21-.24,1.81-.08.96-.09,1.98.37,2.84.39.74,1.07,1.27,1.74,1.75.1.07.21.15.32.22.21,1.14.69,2.24,1.23,3.27-.35,1.56-.1,3.2.27,4.76.2.84.44,1.68.74,2.5-.18.36-.36.72-.51,1.1-.35.83-.65,1.74-.5,2.63.13.77.58,1.44,1.05,2.06.34.46.7.92,1.09,1.34-.15.92-.12,1.87.09,2.77.36,1.57,1.18,2.98,2.2,4.24.02,1.61.23,3.21.64,4.77.23.9.56,1.83,1.24,2.46.59.54,1.38.81,2.15,1.04.03,0,.07.02.1.03.27.99.66,1.95,1.12,2.87.29.56.62,1.12,1,1.65.21,1.46.69,2.89,1.31,4.23.51,1.11,1.17,2.2,2.01,3.08,0,.96.15,1.92.58,2.78.46.94,1.2,1.7,2.07,2.28-.12,1.09-.03,2.2.4,3.21.5,1.19,1.42,2.14,2.52,2.83.08.25.16.49.27.73.93,2.15,2.67,3.86,4.6,5.2.19.13.39.26.59.38.43.79,1.01,1.52,1.7,2.1.94.8,2.04,1.36,3.2,1.76.22,1.72.81,3.42,2.14,4.48.14.11.28.21.42.29.04.04.09.09.14.13.48.41,1.09.59,1.72.69.88,1.43,2.07,2.67,3.38,3.73.59.48,1.23.92,1.91,1.3.46,1.65,1.38,3.21,2.81,4.15.17.11.34.2.52.29.02.04.03.07.05.11.41.7,1.09,1.19,1.77,1.64.91.6,1.86,1.17,2.92,1.45.32.08.64.13.96.17.16,1.47.69,2.91,1.72,3.97.86.89,2,1.43,3.22,1.67.47.47,1.05.82,1.64,1.15,1.03.57,2.09,1.1,3.25,1.32.99.19,2.01.12,3.01-.06,1.18.91,2.66,1.37,4.13,1.69.05.01.1.02.14.03.79,1.39,2.1,2.5,3.59,3.12.7.29,1.43.48,2.18.6,1.59,1.61,3.44,2.97,5.45,4.01.88.45,1.85.86,2.84.76.3-.03.58-.11.86-.21.24.22.48.45.73.65.69.57,1.47,1.11,2.36,1.22.36.04.72,0,1.07-.06.54.96,1.26,1.78,2.22,2.31.16.09.32.16.48.23.05.04.11.07.17.11.77.46,1.73.44,2.62.35.47-.05.94-.12,1.4-.2.36.36.73.72,1.11,1.05.76.67,1.62,1.3,2.62,1.45.86.13,1.73-.12,2.55-.38,1.11-.36,2.23-.78,3.17-1.47.18-.13.34-.29.5-.45.08.02.16.04.23.06,1.13.26,2.29.45,3.45.46.58.49,1.18.96,1.82,1.36,1.25.8,2.69,1.46,4.14,1.6.46.18.95.29,1.43.39,1.11.22,2.26.39,3.38.25.55-.07,1.07-.23,1.58-.42.85.56,1.81.96,2.8,1.15,1.54.3,3.11.17,4.65-.19.13.11.27.23.41.34,1.75,1.39,3.94,2.54,6.13,2.12.18-.03.36-.08.53-.13.07,0,.13-.01.2-.02.83-.13,1.52-.67,2.13-1.26.3.05.6.08.9.12.29.44.6.88.92,1.29.6.78,1.3,1.55,2.23,1.88.8.29,1.68.21,2.52.11.97-.12,1.94-.28,2.85-.63,1.79.78,3.67,1.33,5.6,1.6,1,.14,2.06.21,2.98-.21.36-.16.67-.4.96-.66.02.01.05.03.07.04.86.38,1.79.71,2.71.56.8-.12,1.5-.58,2.15-1.04.63-.44,1.24-.91,1.78-1.46,1.04.37,2.1.65,3.2.72.27.02.53,0,.8-.01,1.16.57,2.41.98,3.68,1.26,2.29.5,4.88.58,6.75-.82.09-.07.18-.15.26-.22,1.13.09,2.26-.19,3.27-.74,1.43.43,3.02.4,4.46-.02,1.24-.36,2.38-.99,3.42-1.77.81.38,1.68.61,2.57.61.95,0,1.87-.26,2.71-.69.03.01.07.03.1.04.18.06.36.1.54.14.06.03.13.05.19.08.88.31,1.86.1,2.76-.17,2.15-.65,4.19-1.64,6.02-2.93.33-.23.65-.49.95-.76,1.48.02,2.93-.27,4.07-1.18.14-.11.27-.23.4-.36.06-.03.11-.07.16-.11.55-.41.89-1.02,1.14-1.67.31-.14.61-.29.9-.47.74-.47,1.35-1.1,1.89-1.79.67-.05,1.34-.15,1.98-.36,1.51-.5,2.77-1.56,3.9-2.68.4-.4.79-.82,1.17-1.25,1.32.04,2.63-.05,3.9-.39,1.79-.49,3.47-1.54,4.44-3.12.04-.06.06-.13.1-.2.9-.24,1.77-.56,2.59-1,.05-.03.09-.06.14-.09,1.03.02,2.07-.03,3.1-.16.96-.12,1.95-.34,2.69-.96.63-.53,1.01-1.31,1.34-2.07.44-1.02.85-2.09.95-3.2.01-.13,0-.26,0-.39.94-.34,1.86-.77,2.67-1.35.06-.04.11-.1.17-.14.81-.21,1.6-.53,2.31-.97,2.12-1.31,3.65-3.4,4.76-5.63,0-.01.01-.02.02-.03.64-.29,1.27-.61,1.88-.97.8-.47,1.59-1.03,2.01-1.86.08-.17.15-.34.2-.52.1-.07.19-.13.29-.2,1.84-1.37,3.46-3.03,4.79-4.9.22-.31.42-.64.61-.98.24-.12.46-.26.68-.43.14-.11.28-.22.4-.34.06-.03.11-.07.17-.1.73-.51,1.11-1.37,1.4-2.21.14-.4.26-.81.37-1.23.79-.16,1.58-.42,2.17-.96.59-.54.91-1.3,1.19-2.04.36-.95.68-1.94.75-2.96.24-.06.47-.1.7-.18,1.79-.58,3.46-1.72,4.37-3.37.77-1.39.92-3.03.61-4.6.79-1.36,1.28-2.89,1.58-4.45.06-.06.12-.12.17-.19,1.29-1.54,1.99-3.47,2.36-5.45h0c.99-1.02,1.68-2.27,2.2-3.59.68-.45,1.18-1.12,1.62-1.81.65-.98,1.26-2.01,1.56-3.15.29-1.08.28-2.2.15-3.31.78-1.01,1.32-2.21,1.75-3.42.37-1.03.67-2.09.85-3.17,1.18-.57,2.22-1.43,2.85-2.57.63-1.15.78-2.49.58-3.79,0,0,.01,0,.02-.01,1.72-1.76,2.18-4.5,1.58-6.89-.11-.46-.27-.9-.45-1.33,1.37-1.74,2.46-3.87,2.08-6.03-.03-.19-.08-.37-.13-.55,0-.05,0-.11-.02-.16.25-.39.47-.81.61-1.27.05-.18.09-.35.13-.53.03-.06.05-.12.07-.19.29-.86.08-1.81-.19-2.68-.14-.47-.31-.93-.49-1.38.2-.61.35-1.23.39-1.87.04-.55-.02-1.09-.11-1.63.14-.12.28-.25.4-.4.54-.67.76-1.53.94-2.37.25-1.13.45-2.28.32-3.43-.06-.57-.22-1.11-.41-1.65.71-.57,1.31-1.26,1.67-2.11.07-.17.14-.34.19-.51.03-.06.07-.12.1-.18.4-.83.29-1.8.13-2.7ZM177.13,324.8c-1.89-1.24-4.44-1.17-6.48-.2-.04.02-.07.04-.1.06-1.55-.75-3.43-.83-5.11-.35-1.13.32-2.18.87-3.13,1.56-.31-.04-.62-.08-.93-.11-.54-.05-1.09-.08-1.63-.09-.22-.24-.46-.46-.74-.63-.71-.42-1.56-.51-2.38-.57-1.11-.08-2.24-.11-3.31.16-.31.08-.6.19-.89.31-.21-.11-.43-.22-.65-.31-2.25-.94-4.79-.97-7.21-.59-.32-.12-.64-.22-.97-.29-1.24-.27-2.52-.26-3.78-.07-1.79-.94-3.73-1.63-5.72-2-.93-.17-1.92-.28-2.8.08-.31.13-.59.31-.85.52-1.36-.92-3-1.47-4.62-1.28-.55.06-1.08.21-1.58.43-1.14-.3-2.33-.42-3.52-.41-.74-1.13-1.74-2.07-2.98-2.59-1.96-.82-4.26-.46-6.11.62-1.19-.51-2.44-.9-3.72-1.05-.04-.03-.09-.07-.13-.11-1.45-1.13-3.03-2.15-4.79-2.69-.34-.1-.69-.17-1.04-.23-.59-.55-1.21-1.08-1.86-1.55-.76-.55-1.6-1.06-2.53-1.11-.8-.05-1.58.25-2.32.57-.18.08-.36.16-.54.24-.7-.27-1.44-.48-2.18-.65-.59-.14-1.19-.25-1.8-.34-1-1.02-2.17-1.89-3.41-2.62-.81-.48-1.69-.91-2.6-1.21-.01-.01-.02-.02-.04-.03-1.42-1.09-3.13-1.73-4.9-2.07-.48-1.38-1.3-2.66-2.51-3.46-.49-.33-1.03-.56-1.59-.72-.02-.02-.03-.04-.04-.06-1.25-1.49-2.94-2.54-4.75-3.3-.15-.4-.3-.81-.48-1.2-.41-.92-.92-1.85-1.76-2.4-.72-.47-1.61-.62-2.47-.72-.56-.07-1.12-.12-1.69-.13-.18-.4-.4-.79-.68-1.14-1.1-1.43-2.85-2.22-4.67-2.39-.53-1.54-1.45-2.96-2.82-3.83-.13-.08-.27-.14-.4-.22-.09-.14-.18-.28-.28-.41-.62-.82-1.39-1.51-2.22-2.12-.05-2.39-1.61-4.58-3.66-5.81-.27-.16-.54-.31-.82-.44-.02-.35-.05-.7-.13-1.04-.34-1.39-1.23-2.57-2.38-3.43-.11-.37-.26-.74-.43-1.09-.96-2.04-2.25-3.92-3.8-5.56-.51-.54-1.08-1.06-1.73-1.39-.45-.5-.91-.99-1.44-1.41.49-1.77.6-3.64-.22-5.24-.09-.17-.19-.34-.29-.5-.02-.07-.05-.13-.08-.2-.41-.88-1.27-1.45-2.12-1.91-.22-.12-.46-.23-.69-.34-.19-.45-.4-.9-.62-1.33-.12-.23-.25-.46-.38-.69.01-.4-.02-.81-.07-1.2-.11-1.07-.28-2.15-.72-3.13-.4-.89-1.02-1.64-1.72-2.33.77-1.35,1.19-2.9.98-4.43-.19-1.33-.85-2.52-1.78-3.5.01-.05.03-.09.04-.14.23-.95.38-1.96.06-2.88-.28-.79-.87-1.42-1.47-2-.73-.71-1.51-1.4-2.4-1.89.4-.34.74-.73.98-1.2.38-.78.41-1.67.41-2.54,0-1.16-.06-2.35-.44-3.45-.26-.76-.65-1.45-1.12-2.09.04-.16.08-.32.11-.49.24-1.52-.12-3.06-.58-4.53-.18-.57-.39-1.14-.62-1.69.02-.02.03-.03.05-.05,1.06-1.25,1.77-2.85,1.68-4.49-.06-1.2-.56-2.32-1.31-3.27.03-.39.05-.79.06-1.18.01-.61,0-1.22-.05-1.84.16-.15.34-.29.48-.46,1.39-1.7,1.64-4.13,1.02-6.25.03-.05.08-.1.11-.15.38-.68.44-1.48.48-2.26.03-.67.03-1.35-.04-2.02.2-.25.38-.51.55-.79.84-1.42,1.09-3.09,1.21-4.73.02-.25.02-.51.04-.76.64-.34,1.25-.76,1.64-1.38.41-.66.52-1.45.6-2.23.09-.94.14-1.89-.02-2.82.39-.31.76-.64,1.12-.98,1.72-1.63,3.26-3.75,3.15-6.11,0-.19-.03-.39-.06-.57,0-.07,0-.14,0-.21,0-.62-.25-1.21-.57-1.75.06-.29.1-.59.12-.89,0,0,0,0,0,0,.91-.55,1.79-1.16,2.61-1.84.79-.65,1.56-1.4,1.88-2.37.23-.73.19-1.5.08-2.27.12-.19.24-.38.36-.57.52-.89,1.01-1.82,1.22-2.83.05-.24.07-.49.09-.74.07,0,.14,0,.21-.02,1.79-.28,3.54-1.1,4.66-2.53.79-1.01,1.18-2.25,1.26-3.54,1.53-.73,2.9-1.79,3.5-3.33.06-.16.12-.33.16-.49.03-.05.05-.1.07-.15,1.61-.55,3.09-1.43,3.91-2.88.09-.16.17-.33.24-.5.04-.05.08-.11.11-.17.49-.79.49-1.78.41-2.7,0-.06-.02-.13-.02-.19.52-.43,1.02-.89,1.48-1.38,1.02-1.07,1.94-2.35,2.37-3.74.08-.05.16-.11.24-.16.29.08.59.16.89.22.91.19,1.88.32,2.75-.01.75-.28,1.33-.87,1.88-1.45.55-.6,1.09-1.22,1.52-1.92,1.65-.12,3.28-.92,4.48-2.09.79-.77,1.41-1.68,1.91-2.67.06,0,.12.02.18.02,1.71.09,3.5-.34,4.81-1.45.34-.29.63-.63.89-.98,1.74-.57,3.33-1.58,4.74-2.76,1-.84,1.95-1.84,2.6-2.97,1.29.74,2.72,1.18,4.17.96.19-.03.37-.07.54-.12.07,0,.14,0,.21-.01.93-.11,1.71-.72,2.39-1.36.83-.77,1.59-1.61,2.29-2.5.46-.15.92-.32,1.37-.52.2-.09.4-.18.6-.28.17.11.33.24.5.35.76.48,1.61.93,2.51.92.78,0,1.51-.34,2.21-.69.86-.43,1.7-.92,2.41-1.56.73.39,1.52.64,2.36.65.17,0,.34,0,.51-.02.06,0,.12.01.19.02.85.04,1.65-.4,2.37-.87.49-.32.96-.68,1.42-1.04.47.15.94.29,1.41.41.9.22,1.87.38,2.75.08.6-.2,1.1-.6,1.56-1.04.62.1,1.27.05,1.9-.05,1.88-.3,3.72-.87,5.45-1.66,1.23.46,2.56.76,3.83.66.77.7,1.66,1.25,2.67,1.52,1.93.51,4.01-.06,5.65-1.21,1.02.63,2.18,1.02,3.36.98.13,0,.25-.03.37-.04.39.38.82.71,1.33.89.75.26,1.57.2,2.36.1,1.06-.13,2.14-.31,3.1-.77.23-.11.43-.25.64-.38.74.23,1.51.37,2.28.49.02.68.07,1.36.15,2.03,0,.02,0,.04.01.07-.04.11-.09.23-.13.34-.03.06-.06.11-.09.17-.39.81-.29,1.76-.13,2.64.26,1.4.69,2.77,1.24,4.09-.09,1.07.02,2.16.2,3.23.09.55.21,1.09.34,1.63-.21.59-.39,1.18-.54,1.79-.33,1.33-.57,2.69-.59,4.06-.29.31-.55.63-.77,1-1.24,2.04-1.06,4.74.04,6.86.37.71.85,1.34,1.37,1.94.02.67.1,1.34.21,2,.28,1.65.7,3.31,1.55,4.75.17.28.36.55.57.82.26.63.69,1.18,1.14,1.7.74.85,1.52,1.69,2.49,2.27,1.35.8,2.95,1.06,4.51,1.19,1.79.14,3.62.13,5.35-.37,1.73-.5,3.35-1.55,4.26-3.1.58-.99.83-2.13.81-3.27.93-.75,1.78-1.58,2.45-2.56.93-1.37,1.46-3.07,1.2-4.7-.14-.86-.5-1.65-1.01-2.35.02-.68-.02-1.37-.09-2.05-.07-.65-.17-1.29-.3-1.93.96-.8,1.73-1.84,2.07-3.05.45-1.61.07-3.35-.8-4.79.31-.74.58-1.49.78-2.27.43-1.66.61-3.5.06-5.08.27-.49.49-1.01.59-1.56.19-1,.06-2.03-.28-2.99.7-.78,1.22-1.68,1.41-2.71.03-.18.06-.36.07-.53.02-.06.04-.13.05-.19.03-.15.03-.29.04-.44.92.41,1.88.72,2.86.94.91.21,1.88.33,2.83.3.58.37,1.18.73,1.79,1.04.87.44,1.81.83,2.78.73.83-.08,1.58-.52,2.29-.96.26-.17.53-.34.78-.52,1.42.41,2.93.56,4.41.56.5,0,1-.03,1.5-.09.08.03.15.08.23.11.74.25,1.55.17,2.33.06,1-.14,2-.33,2.91-.75,1.16,1.23,2.59,2.23,4.25,2.31.17,0,.34,0,.5,0,.06.01.12.02.18.02.14.01.28,0,.42-.02,1.23,1.42,2.81,2.69,4.65,2.87,1.55,1.11,3.27,2,5.08,2.61.21.07.43.14.66.2.69,1.29,1.69,2.41,2.99,3.04,1.16.57,2.47.7,3.75.51,1.12.69,2.39,1.1,3.69,1.34.39.4.8.77,1.26,1.08.8.54,1.72.87,2.66,1.1.21.79.45,1.58.76,2.34.34.84.76,1.69,1.5,2.21.2.14.41.24.63.33,0,.05,0,.1.01.14.36,2.41,2.26,4.4,4.5,5.35.25.11.51.2.77.28.44,1.02.99,2,1.62,2.92.85,1.23,1.91,2.42,3.17,3.17,0,.01,0,.02.01.03.67,1.79,1.71,3.59,3.32,4.54.38.9.81,1.78,1.31,2.62.43.72.94,1.42,1.65,1.86.07.52.21,1.02.44,1.51.08.17.17.33.26.48.02.06.05.13.07.19.37.85,1.17,1.41,1.97,1.88.09.05.18.09.27.14-.05.84,0,1.69.39,2.43.39.74,1.07,1.27,1.74,1.75.36.26.73.51,1.11.74.25.92.65,1.81,1.09,2.65.15.28.31.55.47.83-.09,1.24.12,2.51.41,3.74.25,1.07.58,2.13,1.01,3.13-.05.11-.1.21-.15.31-.35.83-.65,1.74-.5,2.63.13.77.58,1.44,1.05,2.06.49.67,1.02,1.33,1.65,1.88-.04.7,0,1.41.16,2.08.22.95.62,1.83,1.11,2.67-.02.16-.03.32-.05.47-.14,2.13.06,4.27.6,6.34.23.9.56,1.83,1.24,2.46.24.22.52.39.8.53.04.21.09.43.14.64-.51.9-.85,1.9-.97,2.92-.28,2.23.29,4.49,1.2,6.56-.32.6-.6,1.21-.8,1.86-.47,1.52-.49,3.19.1,4.66-.24.44-.46.9-.64,1.38-.38,1.04-.55,2.16-.47,3.26-1.11,1.88-1.08,4.32-.21,6.34.18.41.41.79.64,1.17-.57.78-1,1.65-1.15,2.6-.21,1.37.13,2.75.84,3.95-.21.72-.35,1.45-.42,2.2-.89.41-1.7.97-2.33,1.73-1.49,1.81-1.73,4.42-1.02,6.66-.36.96-.57,1.98-.7,3,0,.03,0,.07-.01.1-.09.06-.19.1-.28.17-.15.1-.29.22-.42.33-.06.03-.12.06-.17.1-.76.49-1.17,1.36-1.49,2.2-.76,2.01-1.2,4.15-1.3,6.3-.03.68-.01,1.38.17,2.03-.03.07-.05.14-.07.22-.73.21-1.41.54-2.01,1.03-.15.12-.29.26-.42.39-.06.04-.12.08-.18.12-.77.59-1.14,1.55-1.41,2.48-.47,1.58-.74,3.22-.84,4.86-.79,1.05-1.5,2.16-2.07,3.34-.42.86-.79,1.79-.68,2.73,0,.08.03.15.05.22-.64.59-1.23,1.23-1.72,1.94-.02.03-.03.05-.05.08-1.48.89-2.76,2.12-3.85,3.48-1.05,1.3-1.97,2.85-2.25,4.47-.93.77-1.81,1.68-2.39,2.72-1.4.84-2.49,2.25-3.05,3.81-.19.53-.32,1.06-.41,1.61-.76.42-1.5.9-2.19,1.43-1.22.92-2.38,2.06-3.09,3.39-1.22,1.23-2.27,2.62-3.13,4.13-.34.05-.68.1-1.01.18-1.45.36-2.82,1.13-3.77,2.28-.12.01-.23.03-.35.04-2.27.32-4.68,1.14-5.92,3.07-.1.16-.19.32-.27.49-.04.05-.09.11-.13.16-.39.56-.52,1.25-.56,1.95-.28.26-.55.54-.82.82-.56.59-1.09,1.21-1.58,1.86-.64-.03-1.29-.02-1.92.07-1.68.23-3.32.98-4.43,2.25-.14.02-.28.04-.42.08-.17.05-.34.1-.5.16-.06,0-.13.02-.19.03-.85.2-1.52.85-2.1,1.51-.62.72-1.18,1.48-1.69,2.28-.87-.06-1.76-.07-2.63.01-1.31.12-2.67.42-3.81,1.03-2.02-.51-4.25-.62-5.98.51-.15.1-.3.21-.44.33-.06.03-.12.06-.18.1-.15.09-.28.21-.41.33-2.22-.34-4.64-.24-6.38,1.16-.15.12-.3.25-.43.39-.06.04-.12.08-.18.12-.59.44-.95,1.1-1.22,1.8-.36.21-.7.46-1.03.73-1.02-.32-2.12-.41-3.18-.26-.78.11-1.54.33-2.26.63-.08-.06-.15-.14-.24-.2Z"/>
    </g>
  </g>
</svg>