<?xml version="1.0" encoding="UTF-8"?>
<svg id="Calque_2" data-name="Calque 2" xmlns="http://www.w3.org/2000/svg" viewBox="0 0 1359.1 1613.29">
  <defs>
    <style>
      .cls-1 {
        fill: #9e5a5a;
      }

      .cls-2 {
        fill: #56bae2;
      }

      .cls-3 {
        fill: #f7d247;
      }

      .cls-4 {
        fill: #ba6767;
      }

      .cls-5 {
        fill: #fff;
      }

      .cls-6 {
        fill: #fbebdf;
      }

      .cls-7 {
        fill: #ff743e;
      }
    </style>
  </defs>
  <g id="Layer_1" data-name="Layer 1">
    <g>
      <g>
        <g>
          <rect class="cls-3" x="646.39" y="306.76" width="310.55" height="75.2" transform="translate(-52.19 164.95) rotate(-11.38)"/>
          <g>
            <rect class="cls-3" x="1027.66" y="280.03" width="31.6" height="31.32" transform="translate(-37.83 211.7) rotate(-11.38)"/>
            <polygon class="cls-6" points="946.46 276.86 961.3 350.58 1031.06 314.16 1024.88 283.46 946.46 276.86"/>
          </g>
        </g>
        <g>
          <circle cx="422.73" cy="63.24" r="63.24"/>
          <circle cx="337.09" cy="73.64" r="63.24"/>
          <g>
            <path class="cls-1" d="M535.04,148.52c-22.2-23.9-48.82-43.91-78.89-58.64l-56.86,505.86c57.81-13.7,109.53-46.2,146.98-91.85,24.19-29.49,42.41-64.46,52.47-103.39,1.63-6.32,3.08-12.74,4.27-19.27,2.95-16.16,4.4-32.24,4.44-48.1.21-69.81-26.74-135.43-72.4-184.6Z"/>
            <path d="M385.7,66.72c-45.51-8.32-90.44-4.71-131.57,8.6-57.02,18.44-106.73,55.53-140.62,105.33-6.62,9.73-12.65,19.93-17.99,30.58-11.26,22.44-19.57,46.84-24.32,72.78-2.29,12.51-3.67,24.98-4.2,37.34-3.77,87.73,35.56,169.89,101.47,222.58,33.77,27,74.51,46.27,120.02,54.59,37.96,6.94,75.51,5.58,110.8-2.79l56.86-505.86c-21.79-10.68-45.39-18.58-70.44-23.16Z"/>
          </g>
          <circle class="cls-1" cx="403.62" cy="351.39" r="82.35"/>
          <circle class="cls-1" cx="584.5" cy="263.71" r="38.94"/>
          <g>
            <path class="cls-5" d="M522,246.64c-11.83-24.86-10.05-51.35,2.96-65.12-8.75-2.68-17.44-2.49-25.1,1.15-22.26,10.6-27.36,46.38-11.39,79.93s46.96,52.16,69.22,41.56c7.66-3.64,13.28-10.27,16.72-18.76-18.89,1.41-40.58-13.91-52.41-38.76Z"/>
            <path d="M569.08,224.23c-10.48-22.01-27.42-37.59-44.12-42.71-13.01,13.77-14.79,40.27-2.96,65.12,11.83,24.86,33.52,40.18,52.41,38.76,6.56-16.19,5.15-39.16-5.33-61.18Z"/>
          </g>
          <path d="M565.99,356.31c-7.91,0-15.85-2.33-22.75-7.02-1.89-1.28-2.38-3.85-1.09-5.74,1.28-1.89,3.85-2.38,5.74-1.09,11.58,7.87,26.78,7.39,37.83-1.19,1.8-1.4,4.4-1.07,5.8.73,1.4,1.8,1.07,4.4-.73,5.8-7.29,5.67-16.03,8.52-24.79,8.52Z"/>
          <circle class="cls-4" cx="485.97" cy="342.8" r="35.67"/>
        </g>
        <path class="cls-2" d="M327.51,567.46l-131.98,9.16c-44.14,3.06-83.72,28.29-105.13,67l-70.4,127.27c-37.92,68.56-20.6,154.49,40.91,203.01l102.07,80.5,164.53-486.95Z"/>
        <g>
          <g>
            <path class="cls-7" d="M372.72,1609.16H43.06l3.5-33.31c9.57-91.03,91.12-164.83,182.15-164.83h0c91.03,0,157.07,73.8,147.5,164.83l-3.5,33.31Z"/>
            <polyline class="cls-1" points="92.11 1110.37 70.1 1332.76 298.31 1332.76 324.53 1067.81"/>
            <path class="cls-6" d="M70.1,1332.76l-22.85,230.85h95.35c73.25,0,138.76-59.62,146.01-132.86l9.7-97.99H70.1Z"/>
            <polygon class="cls-7" points="278.01 1609.16 42.01 1609.16 51.61 1517.81 287.61 1517.81 278.01 1609.16"/>
          </g>
          <g>
            <path class="cls-7" d="M523.31,1609.16H193.65l3.5-33.31c9.57-91.03,91.12-164.83,182.15-164.83h0c91.03,0,157.07,73.8,147.5,164.83l-3.5,33.31Z"/>
            <polyline class="cls-1" points="242.7 1110.37 220.69 1332.76 448.9 1332.76 475.12 1067.81"/>
            <path class="cls-6" d="M220.69,1332.76l-22.85,230.85h95.35c73.25,0,138.76-59.62,146.01-132.86l9.7-97.99h-228.21Z"/>
            <polygon class="cls-7" points="428.6 1609.16 192.6 1609.16 202.21 1517.81 438.2 1517.81 428.6 1609.16"/>
          </g>
          <path d="M192.61,1613.29c-.14,0-.29,0-.44-.02-2.27-.24-3.92-2.27-3.68-4.54l9.6-91.35c.04-.39.14-.77.28-1.12l26.44-267.12c.22-2.27,2.24-3.92,4.52-3.7,2.27.22,3.93,2.25,3.71,4.52l-26.55,268.26c-.04.41-.14.8-.29,1.16l-9.48,90.21c-.22,2.12-2.02,3.7-4.1,3.7Z"/>
        </g>
        <path class="cls-2" d="M512.65,959.87l-391.14,40.97,2.74-354.6c.28-36.51,28.62-66.65,65.04-69.18l357.87-24.83-34.51,407.65Z"/>
        <polygon class="cls-3" points="87.59 959.87 45.3 1242.07 506.98 1242.07 512.65 959.87 87.59 959.87"/>
        <path d="M205.2,1216.89c-.12,0-.24,0-.36-.02-2.27-.2-3.96-2.2-3.76-4.47l5.4-62.1-36.49-33.43c-1.68-1.54-1.8-4.16-.25-5.84,1.54-1.68,4.16-1.8,5.84-.26l37.99,34.81c.95.87,1.44,2.13,1.32,3.4l-5.57,64.12c-.19,2.15-1.99,3.77-4.11,3.77Z"/>
        <path class="cls-1" d="M950.19,386.38l-.32-1.53c-14.69-69.8-82.97-114.65-152.86-100.41h-.02c-71.23,14.52-116.63,84.73-100.65,155.64l.34,1.52c15.52,68.88,83.27,112.7,152.46,98.6h0c70.53-14.37,115.87-83.4,101.06-153.83Z"/>
        <path class="cls-2" d="M290.73,853.01l402.32-72.43c42.42-7.64,79.79-32.49,103.24-68.66l117.85-181.79-223.35-133.09-61.08,111.14-253.14,57.02-85.84,287.81Z"/>
        <path d="M98.28,940.69c-.23,0-.46-.02-.69-.06-2.25-.38-3.77-2.51-3.39-4.76l32.98-195.12c.38-2.25,2.5-3.77,4.76-3.39,2.25.38,3.77,2.51,3.39,4.76l-32.98,195.12c-.34,2.02-2.09,3.44-4.07,3.44Z"/>
        <path d="M503.63,823.89h-65.43c-2.28,0-4.13-1.85-4.13-4.13s1.85-4.13,4.13-4.13h65.43c2.28,0,4.13,1.85,4.13,4.13s-1.85,4.13-4.13,4.13Z"/>
      </g>
      <path class="cls-3" d="M1357.49,177.95c-1.28-1.61-3.1-2.69-5.03-3.45-.75-1.05-1.6-2.02-2.62-2.81-1.5-1.16-3.39-1.89-5.27-1.71-.89.09-1.74.39-2.51.83-.8-.12-1.62-.1-2.41.05-.68.13-1.32.34-1.95.62-.92-.5-1.89-.91-2.89-1.22-.93-.29-1.92-.5-2.9-.55-1.08-.53-2.3-.82-3.5-.83-.84-.01-1.68.1-2.49.29-.02-.02-.04-.04-.06-.06-.7-.61-1.68-.77-2.61-.85-2.19-.18-4.4,0-6.54.5-.46-.21-.94-.4-1.41-.57-.84-.3-1.75-.54-2.63-.34-.62.14-1.17.51-1.68.91-.78-.34-1.58-.65-2.39-.87-1.2-.33-2.49-.52-3.72-.43-1.62-.52-3.3-.85-5-.97-.23-.02-.46-.02-.7-.03-.28-.08-.55-.15-.83-.2-2.06-.41-4.18-.49-6.27-.27-.48-.36-1-.65-1.59-.76-.81-.15-1.63.06-2.41.28-.69.2-1.37.43-2.02.73-1.29-1.19-2.84-2.1-4.56-2.1-.19,0-.37.01-.56.03-.07,0-.14-.01-.21-.02-.59-.02-1.15.17-1.68.44-.76-.55-1.6-1.05-2.53-1.11-.85-.06-1.68.25-2.47.58-.16.07-.32.14-.48.21.17-.55.26-1.11.19-1.67-.11-.84-.58-1.59-1.06-2.3-.25-.37-.52-.74-.79-1.09.83-1.52,1.33-3.2.95-4.86-.04-.19-.1-.37-.16-.55,0-.07-.02-.14-.03-.21-.12-.65-.5-1.21-.94-1.71.06-.24.12-.48.15-.73.02-.18.03-.36.03-.54.01-.06.03-.13.04-.2.13-.9-.24-1.79-.66-2.59-.3-.57-.63-1.12-.99-1.66.29-1.31.46-2.65.48-3.99.02-.96-.05-1.96-.55-2.77-.33-.53-.82-.94-1.34-1.29-.08-.53-.23-1.05-.41-1.56.54-.51,1.02-1.08,1.25-1.78.28-.83.19-1.73.07-2.6-.16-1.17-.38-2.35-.9-3.4-.32-.65-.76-1.23-1.25-1.77.43-.72.74-1.5.85-2.33.29-2.17-.8-4.35-2.45-5.8.13-.37.25-.74.33-1.13.37-1.62.25-3.4-.59-4.83-.02-.03-.04-.06-.06-.09-.04-.66-.12-1.32-.23-1.97-.17-.95-.39-1.89-.7-2.8.28-.66.53-1.33.72-2.02.58-2.09.79-4.49-.41-6.3-.1-.15-.21-.29-.32-.42-.03-.06-.06-.12-.09-.17-.13-.21-.29-.39-.47-.55.06-.56.1-1.12.1-1.69.12-.19.23-.39.33-.6.08-.18.15-.36.2-.54.04-.06.07-.12.1-.19.42-.87.32-1.9.15-2.85-.42-2.28-1.2-4.49-2.31-6.53-.49-.89-1.07-1.78-1.96-2.27-.76-.42-1.67-.49-2.54-.52-1.17-.05-2.37-.04-3.49.29-.68.2-1.31.52-1.91.89-.07-.02-.14-.05-.2-.07-1.56-.52-3.19-.92-4.83-.85-1.64.07-3.31.63-4.46,1.81-.55.56-.95,1.24-1.22,1.98-.51.09-1.02.21-1.52.38-1.73.58-3.33,1.71-4.19,3.32-.55,1.02-.75,2.18-.68,3.33-.3.19-.59.38-.87.6-.22.18-.42.38-.63.58-1.18.4-2.28,1.1-3.14,2-1.27,1.33-2.08,3.01-2.61,4.78-.99.62-1.91,1.39-2.73,2.23-.97.99-1.85,2.16-2.31,3.44-1.04.64-2.03,1.37-2.85,2.27-.54.59-1,1.27-1.35,2-.81.56-1.56,1.21-2.25,1.91-.23.23-.45.47-.66.72-2.01.57-3.69,2.19-4.58,4.11-.34.73-.57,1.49-.73,2.28-1.36.75-2.44,2.06-3.02,3.52-.12.3-.19.61-.27.92-.2.05-.39.1-.59.16-2.21.64-4.49,1.78-5.45,3.88-.08.17-.15.35-.2.52-.04.06-.07.12-.1.18-.11.21-.18.43-.23.66-.08.05-.16.09-.23.15-.59.51-.94,1.25-1.24,1.97-.41.97-.78,1.98-.86,3.03-.03.34-.02.68.01,1.01-.66.25-1.29.56-1.89.92,0,0,0,0,0,0-.97-.05-1.89.44-2.7.97-1.95,1.27-3.69,2.86-5.15,4.68-.13.17-.26.34-.39.51-.45.16-.89.37-1.29.66-.16.11-.31.24-.46.36-.06.03-.13.07-.19.11-.82.54-1.26,1.48-1.61,2.4-.31.84-.56,1.7-.77,2.57-.86.66-1.6,1.5-2.12,2.45-.29.53-.52,1.09-.71,1.66-1.99.35-3.94,1.12-5.07,2.74-.11.16-.21.32-.31.49-.05.05-.09.11-.14.16-.59.77-.69,1.8-.71,2.78,0,.03,0,.06,0,.09-.55.64-1.05,1.32-1.4,2.09-.63,1.4-.7,2.99-.64,4.52.03.87.1,1.76.25,2.62-.16.47-.27.95-.37,1.45-.03,0-.07-.02-.1-.02-.89-.17-1.85-.27-2.69.07-.44.17-.81.46-1.15.78-.04,0-.08-.01-.12-.02-1.6-.12-3.17.38-4.65.99-.61.25-1.22.53-1.81.84-.5-.07-1-.12-1.5-.15-1.61-.08-3.24-.02-4.78.44,0,0-.01,0-.02,0-1.71-.5-3.49-.85-5.26-.71-.2.02-.4.07-.61.1-1.09-.37-2.29-.46-3.43-.28-1.02.16-1.98.51-2.9.98-1.01-.18-2.05-.22-3.08-.18-1.26.05-2.53.19-3.75.49-1.2-.4-2.47-.63-3.74-.72-1.87-.14-3.9.05-5.43,1.06-1.85-.45-3.86-.52-5.43.5-.14.09-.28.2-.41.3-.06.03-.11.06-.17.09-.02.01-.03.03-.05.04-1.08.18-2.14.56-3.15,1-.01,0-.02.01-.03.02-.43-.07-.87-.1-1.31-.11-1.11-.03-2.23,0-3.29.32-.98.3-1.85.84-2.65,1.48-.96-.27-1.99-.35-2.98-.22-1.33.17-2.59.66-3.76,1.33-2.05-.39-4.2-.1-6.22.49-.86.25-1.72.58-2.52,1.01-.16-.03-.33-.07-.49-.09-2.14-.28-4.53-.14-6.13,1.3-.13.12-.25.24-.37.37-.05.04-.1.08-.15.12,0,0,0,0,0,0-.83.26-1.64.64-2.41,1.06-.43.24-.86.49-1.27.76-.75-.06-1.52-.03-2.27.03-1.66.14-3.34.43-4.84,1.15-1.5.72-2.83,1.92-3.43,3.48-.15.39-.24.8-.29,1.21-.97.71-1.87,1.51-2.59,2.48-1,1.35-1.63,3.04-1.44,4.72.25,2.21,1.92,4.09,3.94,5.02.06.03.13.04.19.07.3,1.41.73,2.79,1.44,4.04,0,.26,0,.52.03.78.02.2.06.39.1.57,0,.07,0,.14,0,.22.08.98.7,1.82,1.34,2.55,1.54,1.77,3.35,3.28,5.37,4.48.42.25.86.48,1.31.66.03.04.04.09.07.13.57.84,1.38,1.47,2.3,1.9.07.8.28,1.58.69,2.28.09.16.19.3.3.45.03.06.06.12.09.18.43.79,1.26,1.27,2.07,1.66,1.18.56,2.43,1,3.7,1.32.36.35.75.66,1.17.94-.19.98-.3,2.02.07,2.94.32.81.97,1.44,1.62,2.03.87.79,1.8,1.54,2.87,2.01.6.26,1.23.41,1.88.51.23,1.65.82,3.25,2.09,4.29.14.11.28.22.43.31.05.05.09.09.14.14.4.35.9.55,1.43.67.45.62.94,1.21,1.54,1.7,1.07.87,2.39,1.34,3.73,1.68.46,1.14,1.1,2.22,1.83,3.21.54.73,1.16,1.44,1.86,2.03,1.03,1.98,2.72,3.57,4.56,4.83.73.5,1.52.95,2.34,1.3.33.83.82,1.6,1.42,2.25.01.16.03.33.05.49.41,2.4,2.34,4.36,4.61,5.27.41.16.83.29,1.26.39.12.53.29,1.06.56,1.54.66,1.18,1.75,2.05,3.01,2.58.15,1.47.61,2.87,1.6,3.94.13.14.27.28.42.4.04.06.09.11.13.17.64.74,1.63,1.05,2.58,1.27.24.05.48.09.72.13.44.99,1.16,1.83,2.04,2.48,0,0,0,.01,0,.02,0,.07,0,.13,0,.2.04.91.58,1.72,1.15,2.43.79.99,1.69,1.9,2.65,2.72.08.46.18.91.31,1.36-.55,1.38-.66,2.96-.35,4.42.06.27.13.53.21.79-1.5,1.46-2.75,3.3-2.7,5.37,0,.19.02.37.04.56,0,.07-.01.14-.01.21,0,.24.03.48.09.71-.23.31-.45.64-.6,1-.07.16-.13.32-.17.49-.03.06-.06.11-.09.17-.37.78-.27,1.7-.1,2.55.01.06.03.12.04.18-.03.04-.06.08-.09.12-1.36,2-1.88,4.48-1.97,6.9-.02.62-.01,1.25.05,1.88-.03.07-.06.13-.08.2-.28.73-.52,1.48-.72,2.24-.34.37-.65.75-.91,1.18-.84,1.39-1.12,3.04-1.26,4.65-.11,1.28-.13,2.57.02,3.84-.56.76-1.04,1.57-1.42,2.43-.43.43-.75.97-1.04,1.5-.51.93-.99,1.9-1.18,2.95-.13.71-.12,1.44-.03,2.16-1.26.55-2.36,1.35-3.03,2.53-.09.16-.17.33-.24.5-.04.05-.08.11-.11.17-.49.79-.49,1.77-.42,2.7.07.88.21,1.75.39,2.61-.7.96-1.08,2.15-1.16,3.36-.5.28-.96.63-1.35,1.06-.13.14-.25.29-.36.44-.05.05-.11.09-.16.14-.68.68-.91,1.68-1.05,2.64-.21,1.45-.26,2.92-.18,4.38-1.03,1.96-1.39,4.24-1.4,6.46,0,.08,0,.15,0,.23-1.22,1.12-2.2,2.49-2.34,4.11-.02.18-.02.35-.02.53-.01.06-.02.13-.03.19-.07.53.06,1.05.25,1.55-1.08,1.03-1.93,2.26-2.09,3.72-.02.18-.03.35-.03.52-.02.06-.03.13-.04.19-.12.79.17,1.58.53,2.3-.63.79-1.19,1.63-1.61,2.54-.53,1.16-.83,2.45-.79,3.72-1.13,1.27-1.99,2.79-1.94,4.46,0,.18.02.35.04.52,0,.06-.01.13-.01.19,0,.35.09.69.21,1.02-.69,1.68-.93,3.53-.9,5.36.04,2.19.53,4.56,2.21,5.95.14.12.28.22.43.32.05.05.09.09.14.14.54.48,1.25.68,1.97.79.65,1.22,1.42,2.38,2.41,3.34,1.27,1.22,2.96,2.1,4.72,2.12,1.3.01,2.54-.45,3.61-1.2,2.05-.03,4.1-.35,6.06-.97.92-.29,1.86-.68,2.48-1.43.3-.36.5-.78.65-1.23.37-.05.73-.12,1.09-.25.18-.06.35-.14.51-.22.07-.02.13-.03.2-.05.89-.29,1.53-1.04,2.08-1.79.89-1.23,1.63-2.56,2.24-3.95,1.05-.37,2.06-.83,2.98-1.47.83-.58,1.57-1.3,2.13-2.13.51-.38,1-.79,1.46-1.22.09-.09.18-.18.27-.27,2.05-.28,4.07-.84,5.96-1.69.92-.41,1.84-.92,2.39-1.77.47-.72.61-1.61.71-2.47.02-.16.03-.32.05-.49,1.02-.23,1.99-.65,2.77-1.35.14-.13.26-.27.38-.41.15,0,.29.02.44.02.97,0,1.98-.09,2.8-.62.7-.45,1.17-1.18,1.59-1.89.13-.22.26-.44.38-.67.57-.21,1.11-.55,1.61-.9.95-.65,1.89-1.36,2.59-2.28.76-1.01,1.2-2.21,1.49-3.45,1.11-.19,2.19-.48,3.2-.97.78-.38,1.51-.87,2.13-1.48.46-.2.91-.44,1.32-.73,1.27-.9,2.13-2.25,2.87-3.62.04-.08.08-.16.12-.24,1.17-.04,2.33-.19,3.43-.54,1.61-.51,3.08-1.5,4.03-2.88.07-.01.14-.02.21-.04.9-.19,1.83-.46,2.48-1.11.46-.45.74-1.03.96-1.64.66-.06,1.32-.15,1.98-.28.99-.19,2.01-.47,2.74-1.17.63-.6.97-1.43,1.26-2.24.12-.33.23-.66.34-1,.63-.08,1.25-.25,1.81-.57.15-.09.3-.18.44-.28.06-.02.12-.05.17-.08.77-.4,1.26-1.19,1.65-1.96.13-.27.25-.55.37-.82.92-.23,1.83-.55,2.7-.93,1.27-.55,2.53-1.28,3.52-2.23.26,1.05.72,2.02,1.47,2.8.14.14.28.27.43.39.04.06.09.11.14.17.58.64,1.43.94,2.28,1.14.29.85,1.01,1.48,1.73,2.02.65.48,1.35.92,2.05,1.32.07.6.22,1.19.49,1.75.08.17.18.34.28.5.02.07.05.13.08.2.38.88,1.22,1.47,2.05,1.95,1.28.74,2.64,1.34,4.04,1.81.39,1.31,1.1,2.51,2.17,3.35.17.14.36.25.55.36.06.17.12.33.2.48.01.06.03.13.05.19.25.84.96,1.47,1.66,2,1.26.95,2.63,1.74,4.07,2.37.22.75.48,1.49.85,2.18.87,1.66,2.26,3.09,4.03,3.71.33.11.66.19,1,.24.17.33.35.65.56.95.66.97,1.55,1.81,2.58,2.37.04.18.06.37.11.55.43,1.56,1.33,3.01,2.64,3.95.57,2.25,2.53,3.99,4.74,4.72.23.08.46.14.69.19.41.75.96,1.44,1.61,2,.55.47,1.17.85,1.81,1.18.01.31.02.63.05.94.09.93.26,1.91.84,2.64.5.63,1.24,1.02,1.96,1.37.98.47,2,.9,3.07,1.03.02,0,.03,0,.05,0,.43,1.26.98,2.48,1.76,3.55.48.66,1.06,1.26,1.72,1.77.41,1.95,1.24,3.85,2.88,4.91.16.1.32.19.49.28.05.04.11.09.17.13.42.29.9.44,1.4.51.56.6,1.17,1.15,1.87,1.57.5.3,1.05.5,1.6.67.61,1.68,1.63,3.22,2.8,4.59,1.05,1.22,2.34,2.35,3.8,2.95.31.43.64.84.98,1.24-.01.57.06,1.15.23,1.71.06.19.13.37.2.55.01.07.03.14.05.21.25.95,1.01,1.67,1.77,2.29,1.82,1.47,3.89,2.65,6.08,3.48.96.36,2,.66,3,.45.73-.16,1.37-.57,1.97-1.03.21-.01.43-.03.64-.05,1.18-.11,2.38-.28,3.47-.75,1.51-.66,2.71-1.88,3.77-3.14,1.22-1.45,2.32-3.03,2.94-4.82.1-.3.19-.61.26-.92.75-.99,1.43-2.04,1.99-3.16.44-.87.83-1.81.73-2.78-.08-.83-.52-1.58-.96-2.29-.49-.78-1.03-1.55-1.68-2.19.17-1.1.19-2.24.12-3.35-.07-1.05-.24-2.14-.6-3.13.18-.67.34-1.35.45-2.04.14-.89.21-1.84-.16-2.66-.15-.34-.37-.64-.61-.91.19-.45.36-.91.52-1.37.31-.92.55-1.9.31-2.84-.15-.6-.49-1.13-.88-1.63.02-.05.05-.1.06-.16.2-.83.03-1.7-.16-2.53-.26-1.12-.57-2.25-1.17-3.23-.25-.41-.55-.77-.87-1.12.3-1.26.41-2.57.4-3.86-.02-1.9-.38-3.92-1.49-5.41-.11-.39-.25-.78-.4-1.16.22-.27.42-.56.55-.89.3-.77.26-1.63.19-2.46-.1-1.11-.25-2.24-.69-3.27-.38-.87-.96-1.62-1.61-2.31.1-1.16-.08-2.34-.34-3.48-.08-.35-.17-.7-.26-1.05.27-.88.49-1.78.49-2.69,0-1.16-.33-2.29-.79-3.37,1.33-1.87,1.49-4.44.73-6.62-.37-1.06-.94-2.04-1.62-2.93-.03-.9-.16-1.8-.35-2.68-.06-.3-.14-.6-.21-.9.61-1.26.87-2.71.76-4.1-.14-1.74-.77-3.4-1.65-4.92.69-1.25,1.07-2.67.91-4.07-.12-1.01-.52-1.95-1.1-2.78,0-.05,0-.11,0-.16-.06-1.63-.33-3.25-.79-4.81.29-.51.52-1.06.62-1.65.03-.18.05-.36.07-.54.02-.06.04-.13.05-.19.2-.89-.12-1.81-.49-2.64-.21-.48-.44-.95-.69-1.4.47-.76.79-1.6.87-2.5.02-.19.02-.38.02-.57.01-.07.03-.14.04-.21.12-.95-.3-1.89-.77-2.73-.25-.44-.51-.87-.79-1.3.35-.72.57-1.48.59-2.29,0-.19,0-.38-.02-.56.01-.07.02-.14.02-.21.06-.95-.42-1.84-.93-2.64-.37-.58-.78-1.13-1.21-1.67.71-2.07,1.05-4.4,0-6.3-.06-.11-.13-.21-.2-.31.13-1.38-.18-2.82-.82-4.05-.19-.37-.44-.71-.68-1.05.06-.12.14-.24.19-.36.82-1.73,1.38-3.75.86-5.56.27-1.07.45-2.16.53-3.26.43-.3.84-.63,1.18-1.04,1.5-1.78,1.73-4.4,1.01-6.61.09-.19.19-.37.28-.56.48-.03.95-.13,1.38-.35.71-.36,1.23-1.01,1.71-1.65.64-.86,1.25-1.77,1.59-2.79.13-.41.21-.83.27-1.26,1.47-.82,2.84-1.83,4.05-3,.64-.62,1.26-1.33,1.46-2.2.03-.11.03-.23.05-.35,1.46-.44,2.82-1.23,3.72-2.45.75-1,1.12-2.22,1.2-3.47.4-.48.76-.99,1.03-1.55.38-.79.55-1.66.64-2.54.92-.62,1.69-1.45,2.4-2.31.27-.32.53-.66.78-1,.25-.09.49-.2.73-.31,1.85-.9,3.55-2.11,5.02-3.54.56-.55,1.09-1.17,1.35-1.9.92-.48,1.81-1.03,2.65-1.65.77-.57,1.53-1.23,1.87-2.12.07-.2.13-.4.16-.6,1.58-1.23,3-2.67,4.18-4.29.58-.8,1.13-1.69,1.19-2.69,0-.03,0-.05,0-.08.36-.5.68-1.01.92-1.58.32-.02.64-.03.95-.07,1.01-.12,2.06-.32,2.84-.96.68-.55,1.08-1.36,1.44-2.16.48-1.07.93-2.18,1.05-3.35.05-.43.04-.85,0-1.28.99-.66,1.93-1.38,2.75-2.23.95-.06,1.93-.2,2.7-.75.67-.49,1.1-1.23,1.49-1.97.51-.97.98-1.97,1.17-3.05.1-.06.21-.11.31-.18,1.49-.98,2.64-2.38,3.54-3.92.92-.11,1.87-.3,2.59-.88.64-.52,1.03-1.28,1.38-2.03.46-1.01.89-2.05,1.01-3.16.15-1.3-.15-2.61-.56-3.86.87-.71,1.6-1.59,1.99-2.64.78-2.11.12-4.57-1.28-6.34ZM1310.15,193.48c.36.39.75.74,1.2,1.02,1.98,1.22,4.6,1.06,6.68,0,.02,0,.04.02.06.02.14.05.29.08.43.11-.39.42-.69.94-.94,1.46-.68,1.42-1.18,2.93-1.49,4.47-.39.17-.76.36-1.12.58-.37.22-.72.48-1.04.76-.96,0-1.96.1-2.76.61-.71.46-1.19,1.19-1.62,1.91-.58.98-1.13,1.99-1.38,3.1-.02.08-.02.17-.03.25-.57.39-1.12.81-1.58,1.33-.86.97-1.38,2.17-1.77,3.42-.54.23-1.06.52-1.53.86-1.38,1-2.42,2.37-3.22,3.88-.31.08-.63.16-.94.25-2.3.67-4.67,1.88-5.66,4.07-.08.18-.15.36-.21.55-.04.06-.07.12-.1.19-.2.4-.28.83-.3,1.27-.52.66-.99,1.36-1.3,2.14-.04.1-.06.2-.09.29-.27.18-.53.37-.78.57-.94.73-1.85,1.52-2.51,2.51-.86,1.29-1.21,2.84-1.42,4.38-.53.24-1.04.51-1.54.81-1.48.88-2.92,2.06-3.62,3.59-.57.19-1.1.45-1.52.87-.54.55-.82,1.3-1.06,2.04-.14.42-.26.85-.37,1.28-1.62.22-3.16.77-4.23,1.97-.13.14-.24.29-.35.44-.05.05-.1.09-.15.14-.66.68-.88,1.66-1.01,2.6-.16,1.14-.22,2.29-.19,3.43-.92.68-1.67,1.53-2.07,2.6-.07.17-.12.35-.16.52-.03.06-.06.12-.09.18-.36.85-.21,1.82,0,2.71.19.78.44,1.55.71,2.31-1.09,1.32-1.94,2.9-1.89,4.56-.87,1.51-1.57,3.12-2.05,4.8-.28.95-.48,1.98-.2,2.93.07.23.17.45.28.65-.2.37-.4.74-.57,1.13-.97,2.16-1.58,4.72-.57,6.86.06.14.14.26.21.39,0,.11-.02.22-.02.34,0,2.11.75,4.15,1.81,5.99-.67,1.3-1.02,2.79-.73,4.22.11.57.33,1.11.61,1.62-.19,1.05-.16,2.15.1,3.19.3,1.2.86,2.31,1.57,3.33-.13.36-.27.73-.38,1.1-.61,2.05-.86,4.42.29,6.22.05.08.11.15.16.22-.05,1.66.3,3.34.83,4.92.08.22.16.44.25.66-.65,1.21-1.03,2.54-.78,3.87.03.17.07.33.12.49,0,.06.01.12.02.19.07.43.26.83.51,1.19-.22.42-.39.87-.43,1.35-.07.8.21,1.58.5,2.32.4,1,.84,2,1.53,2.83.35.42.77.77,1.21,1.09-.28.66-.52,1.34-.66,2.05-.32,1.61-.16,3.36.71,4.75.01.02.02.03.03.05-.3,1.08-.5,2.18-.5,3.29,0,.38.04.75.09,1.13,0,0,0,.01,0,.02-.45,1.93-.27,3.94.23,5.87-.03.05-.06.09-.09.14-.47.82-.45,1.84-.34,2.78.25,2.26.86,4.48,1.81,6.55.07.16.15.31.23.47-.22.77-.32,1.57-.22,2.37.06.49.2.95.39,1.4-.31,2.09-.33,4.22-.02,6.31.14.92.37,1.86.93,2.59.05.47.11.93.19,1.39-.77-.33-1.57-.61-2.37-.85-.64-.95-1.35-1.84-2.15-2.66-.35-.36-.73-.7-1.14-.97-.36-.67-.81-1.29-1.34-1.82-1.18-1.18-2.66-1.98-4.25-2.54-.33-.47-.69-.93-1.06-1.37-.17-.2-.35-.39-.53-.58.01-.17.03-.34.02-.52,0-.19-.03-.38-.05-.56,0-.07,0-.14,0-.21,0-.95-.53-1.81-1.09-2.57-1.34-1.83-2.97-3.44-4.81-4.75-.81-.58-1.7-1.11-2.69-1.16-.34-.02-.68.03-1.01.11-.08-.06-.15-.12-.23-.17-.13-.09-.27-.18-.4-.27.03-.33.06-.66.03-.99-.19-2.22-1.8-4.15-3.79-5.14-.47-.24-.97-.42-1.47-.57-.13-1.43-.56-2.8-1.56-3.79-.12-.12-.25-.23-.38-.33-.04-.05-.08-.1-.12-.14-.51-.55-1.26-.8-2-.96,0,0,0,0,0,0-.7-1.28-1.72-2.34-2.87-3.25-.23-.94-.63-1.86-1.17-2.66-1.18-1.76-2.93-3.04-4.83-4.01-.35-.64-.78-1.23-1.29-1.74-1.28-1.26-2.93-2.05-4.66-2.56-.29-1.3-.89-2.53-1.88-3.42-.89-.8-2.01-1.24-3.2-1.4-.66-.92-1.4-1.8-2.2-2.6-.68-.67-1.45-1.33-2.38-1.53-.8-.17-1.64,0-2.43.21-1.07.27-2.15.6-3.08,1.19-.52.33-.96.75-1.38,1.2-.15-.09-.29-.2-.45-.28-1.49-.8-3.27-1.16-4.9-.72-1.47.4-2.68,1.43-3.5,2.72-.08.02-.16.03-.25.04-1.62.33-3.23.82-4.65,1.66-.47.09-.93.2-1.38.38-1.52.6-2.76,1.75-3.86,2.96-.25.27-.48.55-.72.83-.65-.09-1.32-.09-1.93.14-.72.27-1.28.84-1.8,1.4-.64.7-1.26,1.44-1.68,2.28-1.25.2-2.47.76-3.46,1.56-.81.66-1.47,1.46-2.03,2.33-.99.42-1.98.88-2.79,1.59-1.13.98-1.84,2.36-2.42,3.75-.02.04-.03.08-.05.12-.24.08-.48.15-.71.24-1.54.56-3.05,1.26-4.32,2.3-.41.02-.83.04-1.24.09-2.29.24-4.74.98-6.05,2.88-.11.16-.2.32-.29.48-.05.05-.09.11-.13.16-.16.21-.27.44-.36.68-.28.09-.55.21-.81.35-.15.09-.29.18-.43.28-.06.02-.11.05-.17.08-.75.39-1.22,1.17-1.6,1.94-.24.49-.46.99-.65,1.49,0,0-.02,0-.02,0-1.82.8-3.28,2.26-4.45,3.88-.72,0-1.45.04-2.16.18-1.37.27-2.7.86-3.74,1.77.18-.33.34-.67.48-1.02.34-.2.68-.39,1-.61.82-.55,1.64-1.2,2.04-2.1.34-.78.33-1.66.29-2.51-.06-1.14-.17-2.29-.57-3.35.19-.39.37-.79.48-1.21.24-.87.26-1.78.19-2.68,1.24-1.16,2.35-2.48,3.27-3.91.52-.81,1-1.7,1-2.66,0-.68-.24-1.32-.52-1.94.8-1.89,1.3-3.91,1.47-5.96,0-.09,0-.18.01-.27.3-.66.56-1.34.67-2.06.23-1.41-.08-2.84-.5-4.21,1.04-1.12,1.98-2.35,2.58-3.75.07-.15.1-.32.16-.47.19-.12.4-.21.57-.35,1.85-1.45,2.61-3.99,2.34-6.32-.07-.59-.2-1.17-.38-1.74.19-.21.39-.42.57-.64,1.06-1.32,1.97-2.91,2.11-4.56.07-.08.15-.14.21-.22.11-.14.21-.28.3-.42.04-.04.09-.09.13-.14.56-.66.7-1.57.77-2.43.08-1.1.06-2.2-.05-3.3.12-.31.23-.62.32-.94.3-1,.55-2.04.51-3.08-.03-.9-.29-1.77-.63-2.6,1.63-1.47,3.08-3.37,3.06-5.55,0-.19-.01-.37-.04-.55,0-.07.01-.13.01-.2.03-.92-.46-1.78-.99-2.54-.2-.29-.42-.56-.63-.84-.06-1.06-.17-2.14-.55-3.13-.55-1.41-1.62-2.56-2.74-3.58-.27-.25-.55-.48-.83-.72.4-1.37.46-2.86-.08-4.17-.54-1.32-1.62-2.33-2.91-2.97,0-.67-.09-1.35-.42-1.93-.37-.66-1-1.13-1.63-1.56-.84-.58-1.73-1.13-2.71-1.41-.25-.07-.52-.11-.78-.15,0-.14,0-.27,0-.41-.15-1.72-.82-3.45-2.11-4.6-.52-.47-1.14-.81-1.79-1.06-.7-1.87-2.4-3.28-4.32-3.9-.07-.59-.22-1.16-.55-1.64-.43-.63-1.1-1.04-1.76-1.42-.89-.5-1.82-.97-2.82-1.17,0,0-.01,0-.02,0-.51-1.24-1.24-2.39-2.07-3.44-.28-.35-.58-.69-.9-1.02-.02-.09-.03-.19-.06-.28-.26-.77-.84-1.38-1.42-1.95-.78-.77-1.6-1.51-2.58-1.99-.54-.27-1.12-.43-1.7-.55-.9-2.04-2.58-3.64-4.42-4.9-.14-.09-.28-.18-.42-.27-.63-.91-1.44-1.71-2.29-2.43-.08-.07-.17-.14-.26-.21,0-.12,0-.24,0-.36-.02-.19-.05-.37-.08-.55,0-.07,0-.14,0-.2-.05-.93-.62-1.74-1.21-2.46-1.28-1.55-2.79-2.9-4.46-4.02-.08-.33-.17-.66-.31-.97-.79-1.76-2.44-2.99-4.3-3.58-.09-.32-.21-.64-.4-.92-.43-.65-1.12-1.09-1.8-1.48-.91-.53-1.87-1.02-2.9-1.24-.05,0-.09,0-.14-.02-.1-1.44-.55-2.85-1.48-3.93-.38-.45-.84-.82-1.33-1.12.15-.22.28-.45.39-.7.97-.27,1.92-.6,2.81-1.05,1.24.43,2.52.74,3.83.77.28,0,.57-.02.85-.05.11.01.22.03.32.04,1.14.13,2.3.21,3.42-.02,1.56-.32,2.93-1.23,4.18-2.21.07-.05.13-.11.19-.16,1.16.24,2.37.32,3.55.27,1.16-.05,2.37-.24,3.44-.68.29.11.59.22.9.27.97.18,1.96.05,2.88-.29.87.71,1.86,1.24,2.97,1.4.19.03.39.04.58.05.07.02.14.03.21.05.95.17,1.92-.2,2.79-.62.77-.37,1.5-.8,2.22-1.26,1.99.83,4.26,1.29,6.22.46,1.07.15,2.19.1,3.24-.17,1.37-.35,2.63-1,3.78-1.82.91.34,1.84.6,2.8.72,1.87.23,3.86-.1,5.38-1.21.18-.13.35-.29.51-.44,1.37.92,2.84,1.7,4.38,2.3.95.37,1.99.68,2.99.47.86-.18,1.6-.71,2.3-1.25.33-.26.66-.53.97-.81,1.88.09,3.77-.08,5.59-.53.88-.22,1.79-.52,2.41-1.18.54-.57.8-1.33,1.03-2.07.08-.28.16-.55.24-.83,2.15-.32,4.33-1.1,5.54-2.86.11-.16.21-.32.3-.49.05-.05.09-.11.13-.16.57-.77.66-1.79.67-2.75.01-2.3-.34-4.6-1.05-6.78-.08-.23-.16-.47-.25-.7.22-.35.42-.72.59-1.1.09-.03.18-.05.27-.09,1.48-.58,2.68-1.71,3.75-2.89.26-.29.51-.58.76-.88.61,0,1.22-.07,1.81-.28.18-.06.36-.14.53-.22.07-.02.14-.03.2-.05.91-.28,1.58-1.04,2.16-1.8,1.28-1.71,2.29-3.61,3.01-5.62.8-.72,1.51-1.54,2.14-2.41,1.35-.52,2.66-1.16,3.88-1.94.86-.55,1.72-1.2,2.15-2.13.19-.4.28-.83.33-1.27.07-.07.15-.13.22-.2,1.69-1.63,3.11-3.52,4.2-5.59.48-.91.9-1.9.82-2.92,0-.11-.04-.22-.06-.33.58-.68,1.1-1.39,1.54-2.16.9-.25,1.78-.59,2.6-1.04,1.65-.91,3.06-2.34,3.64-4.12.1-.31.17-.63.22-.94.95-.49,1.79-1.17,2.37-2.06.55-.86.82-1.85.87-2.87,1.03-.63,1.99-1.36,2.8-2.26.19-.21.36-.43.52-.65,1.59-.28,3.1-.89,4.1-2.11.12-.14.22-.29.32-.44.05-.05.09-.09.14-.14.6-.68.77-1.64.85-2.55.03-.33.03-.66.05-1,.97-.87,1.77-1.93,2.41-3.09.05.97.28,1.9.79,2.73.1.16.21.31.32.46.03.06.06.12.09.18.16.29.39.53.64.74-.02.32-.04.64-.04.97,0,1.06.11,2.17.42,3.19-.18.5-.35,1-.49,1.51-.24.86-.42,1.79-.16,2.64.23.74.75,1.34,1.28,1.89.01.01.02.02.04.04-.14.7-.19,1.42-.12,2.13.1,1.06.4,2.08.83,3.05-.33.57-.64,1.15-.92,1.75-.4.87-.74,1.81-.6,2.75.09.66.42,1.26.78,1.82-.47.82-.47,1.82-.39,2.76.2,2.31.77,4.6,1.69,6.73.05.12.11.23.16.34.1,1.43.53,2.81,1.15,4.1-.46,2.08-.21,4.28.36,6.34.19.67.43,1.34.72,1.99-.27,1.31-.41,2.65-.27,3.98.19,1.84.94,3.68,2.34,4.89.49.43,1.05.76,1.65,1,.03.12.04.23.07.35.42,1.59,1.34,3.1,2.74,3.97.6.37,1.26.59,1.94.71.36.36.74.69,1.15.98,2.01,1.39,4.49,1.93,6.92,2.05,1.06.05,2.16,0,3.2-.22,1.24.31,2.5.5,3.78.56.73.03,1.48,0,2.15-.25.8.3,1.61.56,2.44.74.91.2,1.87.31,2.81.3.31.12.63.22.96.29,1.86.44,3.79.29,5.66-.16.54.47,1.14.87,1.81,1.13,1.64.61,3.48.4,5.07-.34,1.44.51,2.93.87,4.45,1.05.9.11,1.85.13,2.67-.24,1.17.34,2.44.39,3.63.14,1.01-.22,1.97-.62,2.86-1.13,1.42.56,2.91.98,4.43,1.08Z"/>
    </g>
  </g>
</svg>