<?xml version="1.0" encoding="UTF-8"?>
<svg id="Calque_2" data-name="Calque 2" xmlns="http://www.w3.org/2000/svg" viewBox="0 0 2824.97 1080.15">
  <defs>
    <style>
      .cls-1 {
        fill: #1e1e1e;
      }

      .cls-2 {
        fill: #e275a4;
      }

      .cls-3 {
        fill: #fff;
      }

      .cls-4 {
        fill: #5cc6a2;
      }

      .cls-5 {
        fill: #f3d43d;
      }

      .cls-6 {
        fill: #080000;
      }

      .cls-7 {
        fill: #e87058;
      }
    </style>
  </defs>
  <g id="Layer_1" data-name="Layer 1">
    <g>
      <g>
        <g>
          <path class="cls-5" d="M775.41,294.85c18.3-29.53,28.88-64.35,28.88-101.64C804.28,86.5,717.78,0,611.07,0s-193.21,86.5-193.21,193.21c0,37.29,10.58,72.11,28.88,101.64-67.19,50.14-110.69,130.26-110.69,220.55,0,151.89,123.13,275.02,275.02,275.02s275.02-123.13,275.02-275.02c0-90.28-43.5-170.4-110.69-220.55Z"/>
          <rect class="cls-5" x="438.18" y="681.56" width="117.58" height="398.59"/>
          <path class="cls-5" d="M479.7,964.53h76.07v115.62h-191.69c0-63.81,51.81-115.62,115.62-115.62Z"/>
          <rect class="cls-5" x="663.78" y="681.56" width="117.58" height="398.59"/>
          <path class="cls-5" d="M705.29,964.53h76.07v115.62h-191.69c0-63.81,51.81-115.62,115.62-115.62Z"/>
        </g>
        <g>
          <g>
            <path class="cls-3" d="M585.89,206.28c0-24.06-11.36-44.29-26.8-50.27,5.9-5.41,12.83-8.52,20.24-8.52,21.54,0,39.01,26.32,39.01,58.79,0,32.47-17.46,58.79-39.01,58.79-7.41,0-14.34-3.11-20.24-8.52,15.43-5.98,26.8-26.21,26.8-50.27Z"/>
            <path class="cls-6" d="M540.32,206.28c0-21.3,7.52-39.96,18.77-50.27,15.43,5.98,26.8,26.21,26.8,50.27,0,24.06-11.36,44.29-26.8,50.27-11.25-10.31-18.77-28.97-18.77-50.27Z"/>
          </g>
          <g>
            <path class="cls-3" d="M649.38,206.28c0-24.06-11.36-44.29-26.8-50.27,5.9-5.41,12.83-8.52,20.24-8.52,21.54,0,39.01,26.32,39.01,58.79,0,32.47-17.46,58.79-39.01,58.79-7.41,0-14.34-3.11-20.24-8.52,15.43-5.98,26.8-26.21,26.8-50.27Z"/>
            <path class="cls-6" d="M603.81,206.28c0-21.3,7.52-39.96,18.77-50.27,15.43,5.98,26.8,26.21,26.8,50.27,0,24.06-11.36,44.29-26.8,50.27-11.25-10.31-18.77-28.97-18.77-50.27Z"/>
          </g>
        </g>
        <path class="cls-1" d="M530.66,782.29c-.37,0-.74-.05-1.11-.17-21.95-6.7-43.07-16.15-62.75-28.07-1.8-1.09-2.38-3.43-1.29-5.24,1.09-1.8,3.43-2.38,5.24-1.29,19.14,11.6,39.68,20.78,61.03,27.3,2.01.61,3.15,2.75,2.53,4.76-.5,1.64-2.01,2.7-3.64,2.7Z"/>
        <path class="cls-1" d="M682.95,784.74c-1.68,0-3.22-1.12-3.68-2.82-.55-2.03.65-4.13,2.69-4.67,21.76-5.88,42.77-14.5,62.43-25.62,1.83-1.04,4.16-.39,5.2,1.44,1.04,1.83.39,4.16-1.44,5.2-20.22,11.44-41.82,20.3-64.2,26.34-.33.09-.67.13-1,.13Z"/>
      </g>
      <g>
        <g>
          <g>
            <g>
              <rect class="cls-7" x="860.23" y="703.31" width="221.98" height="376.22"/>
              <path class="cls-7" d="M870.9,947.15h111.04v132.37h-243.41c0-73.06,59.31-132.37,132.37-132.37Z"/>
            </g>
            <g>
              <rect class="cls-7" x="1306.75" y="703.31" width="221.98" height="376.22"/>
              <path class="cls-7" d="M1317.41,947.15h111.04v132.37h-243.41c0-73.06,59.31-132.37,132.37-132.37Z"/>
            </g>
          </g>
          <path class="cls-7" d="M1429.98,436.18v-49.76c0-26.05-21.11-47.16-47.16-47.16h0c-26.05,0-47.16,21.12-47.16,47.16v48.68h-301.23v-48.68c0-26.05-21.11-47.16-47.16-47.16h0c-26.05,0-47.16,21.12-47.16,47.16v49.76c-103.49,10.59-184.23,98.02-184.23,204.3h0c0,113.43,91.95,205.38,205.38,205.38h447.57c113.43,0,205.38-91.95,205.38-205.38h0c0-106.29-80.74-193.72-184.23-204.3Z"/>
        </g>
        <g>
          <g>
            <path class="cls-3" d="M1141.78,622.77c0-24.06-11.36-44.29-26.8-50.27,5.9-5.41,12.83-8.52,20.24-8.52,21.54,0,39.01,26.32,39.01,58.79,0,32.47-17.46,58.79-39.01,58.79-7.41,0-14.34-3.11-20.24-8.52,15.43-5.98,26.8-26.21,26.8-50.27Z"/>
            <path class="cls-6" d="M1096.21,622.77c0-21.3,7.52-39.96,18.77-50.27,15.43,5.98,26.8,26.21,26.8,50.27,0,24.06-11.36,44.29-26.8,50.27-11.25-10.31-18.77-28.97-18.77-50.27Z"/>
          </g>
          <g>
            <path class="cls-3" d="M1205.26,622.77c0-24.06-11.36-44.29-26.8-50.27,5.9-5.41,12.83-8.52,20.24-8.52,21.54,0,39.01,26.32,39.01,58.79,0,32.47-17.46,58.79-39.01,58.79-7.41,0-14.34-3.11-20.24-8.52,15.43-5.98,26.8-26.21,26.8-50.27Z"/>
            <path class="cls-6" d="M1159.7,622.77c0-21.3,7.52-39.96,18.77-50.27,15.43,5.98,26.8,26.21,26.8,50.27,0,24.06-11.36,44.29-26.8,50.27-11.25-10.31-18.77-28.97-18.77-50.27Z"/>
          </g>
        </g>
        <path class="cls-1" d="M1052.94,849.68h-91.68c-18.66,0-37.17-2.46-55.01-7.31-2.03-.55-3.23-2.65-2.68-4.68.55-2.03,2.65-3.23,4.68-2.68,17.19,4.67,35.02,7.04,53.01,7.04h91.68c2.11,0,3.81,1.71,3.81,3.81s-1.71,3.81-3.81,3.81Z"/>
        <path class="cls-1" d="M1019.38,434.86h-26.19c-2.11,0-3.81-1.71-3.81-3.81s1.71-3.81,3.81-3.81h26.19c2.11,0,3.81,1.71,3.81,3.81s-1.71,3.81-3.81,3.81Z"/>
        <path class="cls-1" d="M1407.92,434.86h-26.19c-2.11,0-3.81-1.71-3.81-3.81s1.71-3.81,3.81-3.81h26.19c2.11,0,3.81,1.71,3.81,3.81s-1.71,3.81-3.81,3.81Z"/>
        <path class="cls-1" d="M1408.83,849.68h-90.16c-2.11,0-3.81-1.71-3.81-3.81s1.71-3.81,3.81-3.81h90.16c2.11,0,3.81,1.71,3.81,3.81s-1.71,3.81-3.81,3.81Z"/>
      </g>
      <g>
        <g>
          <path class="cls-4" d="M2175.89,335.08c-8.71-174.55-153-313.4-329.71-313.4h0c-176.71,0-321,138.85-329.71,313.4h-.42v191.69c0,70.58,57.21,127.79,127.79,127.79h0c41.18,0,77.8-19.48,101.17-49.72,23.37,30.24,59.99,49.72,101.17,49.72h0c41.18,0,77.8-19.48,101.17-49.72,23.37,30.24,59.99,49.72,101.17,49.72h0c70.58,0,127.79-57.22,127.79-127.79v-191.69h-.42Z"/>
          <rect class="cls-4" x="1753.68" y="700.24" width="185" height="102.38" rx="51.19" ry="51.19"/>
          <rect class="cls-4" x="1753.68" y="835.11" width="185" height="102.38" rx="51.19" ry="51.19"/>
          <rect class="cls-4" x="1753.68" y="977.14" width="185" height="102.38" rx="51.19" ry="51.19"/>
        </g>
        <g>
          <g>
            <path class="cls-3" d="M1806.92,339.26c0-24.06-11.36-44.29-26.8-50.27,5.9-5.41,12.83-8.52,20.24-8.52,21.54,0,39.01,26.32,39.01,58.79,0,32.47-17.46,58.79-39.01,58.79-7.41,0-14.34-3.11-20.24-8.52,15.43-5.98,26.8-26.21,26.8-50.27Z"/>
            <path class="cls-6" d="M1761.36,339.26c0-21.3,7.52-39.96,18.77-50.27,15.43,5.98,26.8,26.21,26.8,50.27s-11.36,44.29-26.8,50.27c-11.25-10.31-18.77-28.97-18.77-50.27Z"/>
          </g>
          <path class="cls-1" d="M1933.7,383.88c-.65,0-1.3-.17-1.9-.51l-58.32-33.71c-1.18-.68-1.9-1.94-1.9-3.3s.73-2.62,1.9-3.3l58.32-33.71c1.82-1.05,4.15-.43,5.21,1.39,1.05,1.82.43,4.15-1.39,5.21l-52.61,30.41,52.61,30.41c1.82,1.05,2.45,3.39,1.39,5.21-.71,1.22-1.99,1.91-3.3,1.91Z"/>
        </g>
      </g>
      <g>
        <g>
          <path class="cls-2" d="M2650.74,357.64c-34.36,0-66.4,14.16-93.39,38.6-28.12-27.69-62.23-43.93-99.02-43.93s-69.29,15.47-97.02,41.98c-27.41-25.57-60.18-40.45-95.39-40.45-96.23,0-174.24,111.02-174.24,247.98s78.01,247.98,174.24,247.98c35.91,0,69.29-15.47,97.02-41.98,27.41,25.57,60.17,40.45,95.39,40.45s66.4-14.16,93.39-38.6c28.12,27.69,62.23,43.93,99.02,43.93,96.23,0,174.24-111.02,174.24-247.98s-78.01-247.98-174.24-247.98Z"/>
          <g>
            <rect class="cls-2" x="2307.64" y="711.36" width="168.19" height="368.17"/>
            <path class="cls-2" d="M2272.58,963.5h160.64v116.02h-160.64c-27.21,0-49.3-22.09-49.3-49.3v-17.42c0-27.21,22.09-49.3,49.3-49.3Z"/>
          </g>
          <path class="cls-2" d="M2464.33,711.36v252.15h-35.05c-27.23,0-49.3,22.07-49.3,49.3v17.42c0,27.23,22.07,49.3,49.3,49.3h203.24v-368.17h-168.19Z"/>
          <path class="cls-1" d="M2394.42,1068.89c-.98,0-1.95-.37-2.7-1.12-10.03-10.03-15.56-23.37-15.56-37.56v-17.42c0-29.29,23.83-53.11,53.11-53.11h31.24v-66.22c0-2.11,1.71-3.81,3.81-3.81s3.81,1.71,3.81,3.81v70.03c0,2.11-1.71,3.81-3.81,3.81h-35.05c-25.08,0-45.49,20.41-45.49,45.49v17.42c0,12.15,4.73,23.57,13.32,32.17,1.49,1.49,1.49,3.9,0,5.39-.74.74-1.72,1.12-2.7,1.12Z"/>
        </g>
        <g>
          <g>
            <path class="cls-3" d="M2396.97,592.56c0-24.06-11.36-44.29-26.8-50.27,5.9-5.41,12.83-8.52,20.24-8.52,21.54,0,39.01,26.32,39.01,58.79,0,32.47-17.46,58.79-39.01,58.79-7.41,0-14.34-3.11-20.24-8.52,15.43-5.98,26.8-26.21,26.8-50.27Z"/>
            <path class="cls-6" d="M2351.41,592.56c0-21.3,7.52-39.96,18.77-50.27,15.43,5.98,26.8,26.21,26.8,50.27,0,24.06-11.36,44.29-26.8,50.27-11.25-10.31-18.77-28.97-18.77-50.27Z"/>
          </g>
          <g>
            <path class="cls-3" d="M2460.46,592.56c0-24.06-11.36-44.29-26.8-50.27,5.9-5.41,12.83-8.52,20.24-8.52,21.54,0,39.01,26.32,39.01,58.79,0,32.47-17.46,58.79-39.01,58.79-7.41,0-14.34-3.11-20.24-8.52,15.43-5.98,26.8-26.21,26.8-50.27Z"/>
            <path class="cls-6" d="M2414.89,592.56c0-21.3,7.52-39.96,18.77-50.27,15.43,5.98,26.8,26.21,26.8,50.27s-11.36,44.29-26.8,50.27c-11.25-10.31-18.77-28.97-18.77-50.27Z"/>
          </g>
        </g>
      </g>
      <path class="cls-7" d="M2468.21,25.32c6.36-.24,6.39-10.15,0-9.91-20.02.75-38.84,9.97-52.76,24.22-13.09,13.39-21.37,30.9-25.2,49.14-3.14.55-6.26,1.23-9.33,2.03-20.4,5.29-40.84,14.53-57.18,27.96-35.5,29.19-40.36,77.85-43.37,120.6-.45,6.37,9.47,6.34,9.91,0,2.35-33.39,5.2-69.85,25.49-97.87,10.68-14.75,26.23-24.84,42.65-32.21,9.5-4.26,19.68-8,30.1-10.2-2.45,18.98-1.58,39.96,8.1,56.71,9.14,15.81,28.9,27.79,47.32,21.26,16.02-5.68,26-22.66,25.95-39.28-.06-18.08-12.54-33.72-27.83-42.17-12.79-7.07-27.13-9.17-41.39-8.13,3.24-13.29,9-26.01,17.8-36.43,12.42-14.72,30.27-24.98,49.75-25.71ZM2416.85,97.59c15.37,2,30.7,10.32,38.57,24.02,7.21,12.55,5.57,28.78-4.52,39.36-11.28,11.83-28.34,8.98-39.31-1.84-13.16-12.99-14.98-33.39-14-50.88.2-3.59.58-7.2,1.11-10.79,6.04-.63,12.12-.66,18.15.13Z"/>
      <path class="cls-4" d="M1094.98,153.35c-13.26,13.01-33.25,15.81-50.6,10.61,13.21-10.66,21.39-27.22,17.72-44.78-2.46-11.77-11.68-21.58-23.08-25.21-11.62-3.7-23.75.75-31.05,10.27-15.69,20.45-3.66,46.47,14.99,60.08-18.75,5.51-40.29.49-54.08-13.52-4.48-4.55-11.49,2.46-7.01,7.01,15.85,16.11,40.53,22.26,62.27,16.49,3.37-.9,6.65-2.15,9.79-3.69,22.27,9.89,50.28,7.2,68.07-10.26,4.56-4.47-2.45-11.48-7.01-7.01ZM1011.78,118.05c2.66-8.56,10.02-15.87,19.42-15.48,9.03.37,17.54,7.37,20.42,15.81,5.51,16.15-4.16,32.47-17.82,41.07-14.71-8.29-27.33-24.29-22.01-41.39Z"/>
      <path class="cls-2" d="M262.72,699.78c-16.92.09-32.3,9.18-42.08,22.72-.66.91-1.29,1.86-1.9,2.84-1.98.04-4.01.21-6.07.47-8.32,1.06-16.42,3.38-24,6.83,1.28-7.3.19-14.81-4.26-21.31-9.56-13.94-25.95-15.13-41.5-12.24,5.63-8.38,8.58-18.54,7.62-28.69-1.65-17.37-13.41-32.16-29.59-38.37-5.96-2.29-8.54,7.29-2.64,9.56,12.14,4.66,21.49,16.85,22.4,29.9.96,13.77-6.58,27.02-18.58,33.64-4.81,2.65-1.55,11.01,3.82,9.06,14.18-5.15,38.17-13.02,49.54,1.64,5.76,7.43,4.56,16.58.11,24.24-5.98,4.14-11.43,9.06-16.13,14.67-3.74,4.46.84,10.02,6.01,7.78,6.97-3.01,13.19-8.66,17.51-15.48,5.47-3.6,11.42-6.48,17.73-8.5,4.21-1.35,8.65-2.45,13.11-3.01-3.95,11.1-4.11,23.66,2.72,33.5,4.49,6.47,11.92,11.3,20.01,8.85,8.15-2.47,12.55-11.28,12.14-19.4-.45-8.91-5.73-18.03-11.02-24.99-2.37-3.12-5.12-5.15-8.16-6.4,7.8-10.39,20.09-17.32,33.2-17.39,6.38-.03,6.39-9.95,0-9.91ZM236.63,766.35c-3.97,4.9-9.51.8-12.12-3.2-5.37-8.25-4.05-18.65-.1-27.41,5.42,1.82,8.08,7.52,10.86,12.66,2.82,5.21,5.65,12.65,1.36,17.95Z"/>
      <circle class="cls-2" cx="1206.27" cy="288.86" r="23.79" transform="translate(647.99 1396.4958) rotate(-76.7175)"/>
      <circle class="cls-4" cx="19.83" cy="398.05" r="19.83" transform="translate(-375.64 348.65) rotate(-80.03)"/>
      <circle class="cls-4" cx="2654.96" cy="266.55" r="22.44"/>
      <circle class="cls-5" cx="1411.64" cy="109.5" r="16.82" transform="translate(65.55 548.55) rotate(-22.5)"/>
      <circle class="cls-5" cx="2159.54" cy="119.33" r="16.78"/>
      <g>
        <path class="cls-7" d="M250.51,270.01c-14.61-20.71-29.22-41.42-43.83-62.13-3.65-5.17-12.25-.23-8.56,5,14.61,20.71,29.22,41.42,43.83,62.13,3.65,5.17,12.25.23,8.56-5Z"/>
        <path class="cls-7" d="M287.84,242.99c-6.34-22.24-12.67-44.48-19.01-66.73-1.74-6.12-11.31-3.52-9.56,2.64,6.34,22.24,12.67,44.48,19.01,66.73,1.74,6.12,11.31,3.52,9.56-2.64Z"/>
        <path class="cls-7" d="M326.2,222.14c-1.15-16.22-2.3-32.44-3.45-48.65-.45-6.33-10.36-6.38-9.91,0,1.15,16.22,2.3,32.44,3.45,48.65.45,6.33,10.36,6.38,9.91,0Z"/>
      </g>
    </g>
  </g>
</svg>