<?xml version="1.0" encoding="UTF-8"?>
<svg id="Calque_2" data-name="Calque 2" xmlns="http://www.w3.org/2000/svg" viewBox="0 0 1579.86 2676.87">
  <defs>
    <style>
      .cls-1 {
        fill: #e275a4;
      }

      .cls-2 {
        fill: #fff;
      }

      .cls-3 {
        fill: #5cc6a2;
      }

      .cls-4 {
        fill: #f3d43d;
      }

      .cls-5 {
        fill: #e87058;
      }
    </style>
  </defs>
  <g id="Layer_1" data-name="Layer 1">
    <g>
      <g>
        <path class="cls-4" d="M1171.72,495c30.72-49.57,48.48-108.02,48.48-170.63C1220.2,145.22,1074.98,0,895.83,0s-324.36,145.22-324.36,324.36c0,62.61,17.76,121.06,48.48,170.63-112.79,84.18-185.83,218.69-185.83,370.26,0,255,206.72,461.71,461.71,461.71s461.71-206.71,461.71-461.71c0-151.57-73.03-286.07-185.83-370.26Z"/>
        <path class="cls-4" d="M781.51,1296.59l38.7-193.57-478.48-95.67c-13.2-76.85-72.26-141.32-153.3-157.52h0s-63.09,315.56-63.09,315.56l190.34,38.06h0l465.83,93.14Z"/>
        <path class="cls-4" d="M704.42,1102l38.7-193.57-478.48-95.67c-13.2-76.85-72.27-141.32-153.3-157.52h0s-63.09,315.56-63.09,315.56l190.34,38.06h0l465.83,93.14Z"/>
        <g>
          <g>
            <path class="cls-2" d="M763.28,273.29c3.64-40.22-12.3-75.77-37.2-88.1,10.68-8.15,22.73-12.31,35.12-11.19,36.02,3.26,61.24,49.9,56.33,104.19-4.91,54.29-38.08,95.65-74.1,92.4-12.39-1.12-23.5-7.37-32.55-17.3,26.71-7.66,48.76-39.78,52.4-80Z"/>
            <path d="M687.1,266.41c3.22-35.62,18.61-65.67,38.98-81.21,24.9,12.33,40.84,47.88,37.2,88.1-3.64,40.22-25.69,72.34-52.4,80-17.26-18.94-27.01-51.27-23.79-86.89Z"/>
          </g>
          <g>
            <path class="cls-2" d="M869.43,282.89c3.64-40.22-12.3-75.77-37.2-88.1,10.68-8.15,22.73-12.31,35.12-11.19,36.02,3.26,61.24,49.9,56.33,104.19-4.91,54.29-38.09,95.65-74.1,92.4-12.39-1.12-23.5-7.37-32.55-17.3,26.71-7.66,48.76-39.78,52.4-80Z"/>
            <path d="M793.24,276c3.22-35.62,18.61-65.67,38.98-81.21,24.9,12.33,40.84,47.88,37.2,88.1-3.64,40.22-25.69,72.34-52.4,80-17.26-18.94-27.01-51.27-23.79-86.89Z"/>
          </g>
        </g>
        <path d="M523.86,1050.17c-.42,0-.84-.04-1.26-.13l-182.12-36.41c-2.6-.52-4.61-2.58-5.05-5.19-6.35-36.99-23.48-70.93-49.53-98.16-25.17-26.31-57.03-44.48-92.46-52.81l-23.98,119.94c-.69,3.47-4.06,5.72-7.53,5.02-3.47-.69-5.71-4.06-5.02-7.53l25.26-126.32c.69-3.47,4.06-5.72,7.53-5.02,40.52,8.1,76.99,28.11,105.46,57.87,26.8,28.01,44.75,62.68,52.1,100.5l177.87,35.56c3.47.69,5.71,4.06,5.02,7.53-.61,3.04-3.28,5.15-6.27,5.15Z"/>
        <path d="M486.18,1042.63c-1.98,0-3.93-.91-5.18-2.64-31.57-43.38-48.22-102.19-48.91-104.68-.95-3.4,1.04-6.93,4.44-7.88,3.41-.95,6.93,1.04,7.89,4.44.16.59,16.75,59.11,46.93,100.59,2.08,2.86,1.45,6.86-1.41,8.94-1.14.83-2.46,1.23-3.76,1.23Z"/>
        <ellipse cx="784.33" cy="413.42" rx="15.75" ry="22.99"/>
      </g>
      <g>
        <path class="cls-1" d="M1162.54,1464.98c-57.69,0-111.47,23.78-156.79,64.81-47.21-46.49-104.48-73.75-166.23-73.75s-116.32,25.97-162.87,70.47c-46.01-42.93-101.02-67.91-160.14-67.91-161.55,0-292.51,186.39-292.51,416.31s130.96,416.31,292.51,416.31c60.29,0,116.32-25.97,162.87-70.47,46.01,42.93,101.02,67.91,160.14,67.91s111.47-23.78,156.79-64.81c47.21,46.49,104.48,73.75,166.23,73.75,161.55,0,292.51-186.39,292.51-416.31s-130.96-416.31-292.51-416.31Z"/>
        <g>
          <rect class="cls-1" x="722.76" y="2058.8" width="282.36" height="618.08"/>
          <path class="cls-1" d="M663.91,2482.1h269.69v194.77h-269.69c-45.68,0-82.77-37.09-82.77-82.77v-29.24c0-45.68,37.09-82.77,82.77-82.77Z"/>
        </g>
        <g>
          <polygon class="cls-1" points="462.55 2438.87 635.52 2662.05 1163.85 2252.59 951.09 2060.25 462.55 2438.87"/>
          <path class="cls-1" d="M426.51,2392.36l165.21,213.17,153.95-119.31-165.21-213.17c-28-36.13-79.99-42.72-116.12-14.72l-23.11,17.91c-36.13,28-42.72,79.99-14.72,116.12Z"/>
        </g>
        <g>
          <g>
            <path class="cls-2" d="M737.08,1702.87c13.81-37.95,7.51-76.39-13.4-94.69,12.41-5.14,25.13-6.07,36.81-1.82,33.98,12.37,46.42,63.92,27.78,115.14-18.64,51.22-61.31,82.71-95.29,70.34-11.69-4.25-20.83-13.14-27.03-25.06,27.78-.57,57.32-25.97,71.14-63.91Z"/>
            <path d="M665.19,1676.7c12.23-33.6,34.8-58.72,58.48-68.52,20.91,18.29,27.22,56.74,13.4,94.69-13.81,37.95-43.36,63.35-71.14,63.91-11.83-22.73-12.98-56.48-.75-90.08Z"/>
          </g>
          <g>
            <path class="cls-2" d="M837.23,1739.32c13.81-37.95,7.51-76.39-13.4-94.69,12.41-5.14,25.13-6.07,36.81-1.82,33.98,12.37,46.42,63.92,27.78,115.14-18.64,51.22-61.31,82.71-95.29,70.34-11.69-4.25-20.83-13.14-27.03-25.06,27.78-.57,57.32-25.97,71.14-63.91Z"/>
            <path d="M765.34,1713.15c12.23-33.6,34.8-58.72,58.48-68.52,20.92,18.29,27.22,56.74,13.4,94.69-13.81,37.95-43.36,63.35-71.14,63.91-11.83-22.73-12.98-56.48-.75-90.08Z"/>
          </g>
        </g>
        <g>
          <path d="M635.52,2668.45c-1.91,0-3.8-.85-5.06-2.48l-43.81-56.52c-2.17-2.79-1.66-6.81,1.14-8.98,2.8-2.17,6.81-1.66,8.98,1.14l39.89,51.47,324.58-251.56c2.8-2.17,6.81-1.66,8.98,1.14,2.17,2.79,1.66,6.81-1.14,8.98l-329.64,255.48c-1.17.9-2.55,1.34-3.92,1.34Z"/>
          <path d="M722.76,2243.61c-1.91,0-3.8-.85-5.06-2.48-2.17-2.79-1.66-6.81,1.14-8.98l184.42-142.92c2.79-2.17,6.82-1.66,8.98,1.14,2.17,2.79,1.66,6.81-1.14,8.98l-184.42,142.92c-1.17.9-2.55,1.34-3.92,1.34Z"/>
          <path d="M441.23,2282.64c-1.91,0-3.8-.85-5.06-2.48-2.17-2.79-1.66-6.81,1.14-8.98l23.11-17.91c18.83-14.59,42.21-20.98,65.83-17.98,23.63,2.99,44.68,15.01,59.27,33.84,2.17,2.79,1.65,6.81-1.14,8.98-2.8,2.17-6.81,1.65-8.98-1.14-12.5-16.12-30.52-26.42-50.76-28.98-20.23-2.57-40.26,2.91-56.38,15.4l-23.11,17.91c-1.17.9-2.55,1.34-3.92,1.34Z"/>
        </g>
        <path d="M727.64,1879.78c-4.19,0-8.4-.64-12.52-1.94-21.84-6.88-34.01-30.23-27.13-52.07,1.06-3.37,4.66-5.24,8.03-4.18,3.37,1.06,5.25,4.66,4.18,8.03-2.3,7.32-1.62,15.09,1.93,21.89,3.54,6.8,9.53,11.82,16.84,14.12,7.32,2.31,15.09,1.62,21.9-1.92,6.8-3.55,11.82-9.53,14.12-16.84,1.06-3.37,4.66-5.24,8.03-4.18,3.37,1.06,5.25,4.66,4.18,8.03-3.33,10.58-10.58,19.23-20.42,24.35-6.01,3.13-12.55,4.72-19.14,4.72Z"/>
      </g>
      <path class="cls-5" d="M396.98,374.78l-24.67-38.47,28.97-35.36c10.45-12.76-1.53-31.43-17.48-27.26l-44.22,11.58-24.67-38.47c-8.9-13.88-30.37-8.26-31.32,8.2l-2.65,45.63-44.22,11.58c-15.95,4.18-17.24,26.33-1.88,32.32l42.58,16.62-2.65,45.63c-.96,16.46,19.71,24.53,30.16,11.78l28.97-35.36,42.58,16.62c15.36,6,29.42-11.17,20.52-25.05Z"/>
      <path class="cls-3" d="M1471.88,1412.94l24.34-54.2,59.07,6.4c21.31,2.31,33.13-24,17.24-38.39l-44.02-39.9,24.34-54.2c8.78-19.55-12.59-38.92-31.19-28.26l-51.55,29.54-44.02-39.9c-15.88-14.39-40.91-.05-36.52,20.93l12.16,58.16-51.55,29.54c-18.6,10.66-12.69,38.89,8.62,41.2l59.07,6.4,12.16,58.15c4.39,20.98,33.06,24.09,41.84,4.53Z"/>
      <path class="cls-4" d="M154.83,1530.42l-21.72-34.84,26.42-31.42c9.53-11.34-1.01-28.25-15.39-24.68l-39.84,9.89-21.72-34.84c-7.84-12.57-27.18-7.77-28.22,7.01l-2.9,40.95-39.84,9.89c-14.37,3.57-15.78,23.45-2.06,29.01l38.05,15.42-2.91,40.95c-1.05,14.77,17.42,22.26,26.95,10.92l26.42-31.42,38.05,15.42c13.73,5.56,26.55-9.69,18.72-22.26Z"/>
    </g>
  </g>
</svg>