<?xml version="1.0" encoding="UTF-8"?>
<svg id="Calque_2" data-name="Calque 2" xmlns="http://www.w3.org/2000/svg" viewBox="0 0 1743.3 2734.91">
  <defs>
    <style>
      .cls-1 {
        fill: #e275a4;
      }

      .cls-2 {
        fill: #fff;
      }

      .cls-3 {
        fill: #5cc6a2;
      }

      .cls-4 {
        fill: #f3d43d;
      }

      .cls-5 {
        fill: #e87058;
      }
    </style>
  </defs>
  <g id="Layer_1" data-name="Layer 1">
    <g>
      <g>
        <rect class="cls-5" x="1045.18" y="2103.31" width="372.66" height="631.6" transform="translate(2463.0272 4838.2226) rotate(-180)"/>
        <path class="cls-5" d="M1213.52,2512.68h408.65v222.23h-186.42c-122.65,0-222.23-99.58-222.23-222.23h0Z" transform="translate(2835.6854 5247.5922) rotate(-180)"/>
      </g>
      <g>
        <rect class="cls-5" x="548.3" y="2103.31" width="372.66" height="631.6" transform="translate(1469.2558 4838.2226) rotate(-180)"/>
        <path class="cls-5" d="M716.63,2512.68h408.65v222.23h-186.42c-122.65,0-222.23-99.58-222.23-222.23h0Z" transform="translate(1841.914 5247.5922) rotate(-180)"/>
      </g>
      <path class="cls-5" d="M571,1794.37l-11.8-82.7c-6.18-43.29,23.91-83.39,67.19-89.57h0c43.29-6.18,83.39,23.91,89.57,67.19l11.55,80.91,500.63-71.45-11.55-80.91c-6.18-43.29,23.91-83.39,67.19-89.57h0c43.29-6.18,83.39,23.91,89.57,67.19l11.8,82.7c174.51-6.95,329.43,119.2,354.64,295.85h0c26.9,188.52-104.11,363.15-292.62,390.05l-743.84,106.16c-188.52,26.9-363.15-104.11-390.05-292.62h0c-25.21-176.65,88.24-341.1,257.72-383.24Z"/>
      <g>
        <g>
          <path class="cls-2" d="M1107.81,1988.15c-5.71-39.98,8.38-76.3,32.61-89.9-11.09-7.59-23.34-11.12-35.65-9.36-35.8,5.11-58.58,53-50.88,106.96,7.7,53.96,42.97,93.56,78.77,88.45,12.31-1.76,23.09-8.58,31.61-18.96-27.07-6.28-50.75-37.21-56.46-77.19Z"/>
          <path d="M1183.54,1977.34c-5.05-35.4-21.97-64.62-43.12-79.09-24.23,13.6-38.32,49.92-32.61,89.9,5.71,39.98,29.39,70.91,56.46,77.19,16.26-19.81,24.33-52.6,19.27-88Z"/>
        </g>
        <g>
          <path class="cls-2" d="M1002.3,2003.21c-5.71-39.98,8.38-76.3,32.61-89.9-11.09-7.59-23.34-11.12-35.65-9.36-35.8,5.11-58.58,53-50.88,106.96,7.7,53.96,42.97,93.56,78.77,88.45,12.31-1.76,23.09-8.57,31.61-18.96-27.07-6.28-50.75-37.21-56.46-77.19Z"/>
          <path d="M1078.03,1992.4c-5.05-35.4-21.97-64.62-43.12-79.09-24.23,13.6-38.32,49.92-32.61,89.9,5.71,39.98,29.39,70.91,56.46,77.19,16.26-19.81,24.33-52.6,19.27-88Z"/>
        </g>
      </g>
      <path d="M1092.96,2421.03c-3.13,0-5.87-2.3-6.33-5.5-.5-3.5,1.93-6.74,5.43-7.24l266.19-37.99c3.51-.5,6.74,1.93,7.24,5.43.5,3.5-1.93,6.74-5.43,7.24l-266.19,37.99c-.31.04-.61.06-.91.06Z"/>
      <path d="M1252.18,1694.84c-3.13,0-5.87-2.31-6.33-5.5-.5-3.5,1.93-6.74,5.43-7.24l43.53-6.21c3.5-.5,6.74,1.93,7.24,5.43.5,3.5-1.93,6.74-5.43,7.24l-43.53,6.21c-.31.04-.61.06-.91.06Z"/>
      <path d="M606.44,1787.01c-3.13,0-5.87-2.3-6.33-5.5-.5-3.5,1.93-6.74,5.43-7.24l43.53-6.21c3.49-.5,6.74,1.93,7.24,5.43.5,3.5-1.93,6.74-5.43,7.24l-43.53,6.21c-.31.04-.61.06-.91.06Z"/>
      <path d="M730.51,2476.64c-3.13,0-5.87-2.3-6.33-5.5-.5-3.5,1.93-6.74,5.43-7.24l149.84-21.38c3.5-.5,6.74,1.93,7.24,5.43.5,3.5-1.93,6.74-5.43,7.24l-149.84,21.38c-.31.04-.61.06-.91.06Z"/>
      <path d="M1121.43,2699.96c-3.02,0-5.7-2.14-6.28-5.22-8.03-42.68-28.6-81.56-59.48-112.44-2.5-2.5-2.5-6.55,0-9.05,2.5-2.5,6.55-2.5,9.05,0,32.71,32.71,54.5,73.91,63.01,119.12.65,3.47-1.63,6.82-5.11,7.47-.4.07-.8.11-1.19.11Z"/>
      <path d="M1045.18,2129.03c2.7,24.3,24.6,41.81,48.89,39.1h0c24.3-2.7,41.81-24.6,39.1-48.89l-88,9.79Z"/>
      <g>
        <path class="cls-3" d="M652.19,1236.23l130.33,47.44c44.6,16.24,93.92-6.76,110.15-51.36h0c16.24-44.6-6.76-93.92-51.36-110.15l-130.33-47.44c-44.6-16.24-93.92,6.76-110.15,51.36h0c-16.24,44.6,6.76,93.92,51.36,110.15Z"/>
        <path class="cls-3" d="M873.77,1542.95l137.83-15.49c47.17-5.3,81.11-47.83,75.8-95h0c-5.3-47.17-47.83-81.11-95-75.8l-137.83,15.49c-47.17,5.3-81.11,47.83-75.8,95h0c5.3,47.17,47.83,81.11,95,75.8Z"/>
        <path class="cls-3" d="M929.9,1832.78l125.97-58.04c43.11-19.86,61.95-70.91,42.09-114.02h0c-19.86-43.11-70.91-61.95-114.02-42.09l-125.97,58.04c-43.11,19.86-61.95,70.91-42.09,114.02h0c19.86,43.11,70.91,61.95,114.02,42.09Z"/>
        <g>
          <path class="cls-3" d="M579.38,265.32C732.17,14.84,1056.31-74.29,1316.96,67.38h0c260.66,141.67,362.17,462.15,235.08,726.6l.62.34-13.42,24.68-47.57,87.52-92.69,170.55c-56.58,104.1-186.84,142.63-290.95,86.05h0c-60.74-33.01-99.14-91.1-109.37-154.45-58.72,25.87-128.35,25.24-189.09-7.77h0c-60.74-33.01-99.14-91.1-109.37-154.45-58.72,25.87-128.35,25.24-189.09-7.77h0c-104.1-56.58-142.63-186.84-86.05-290.95l92.69-170.54,47.57-87.52,13.42-24.68.62.34Z"/>
          <g>
            <path class="cls-2" d="M1325.2,434.93c-8.94-39.38,2.14-76.73,25.19-92.25-11.67-6.66-24.16-9.18-36.29-6.43-35.27,8-54.08,57.58-42.02,110.74,12.06,53.16,50.44,89.76,85.7,81.75,12.13-2.75,22.31-10.42,29.96-21.47-27.49-4.05-53.61-32.96-62.55-72.34Z"/>
            <path d="M1399.8,418c-7.92-34.87-27.15-62.62-49.41-75.32-23.05,15.52-34.13,52.87-25.19,92.25,8.94,39.38,35.06,68.29,62.55,72.34,14.59-21.07,19.97-54.4,12.05-89.27Z"/>
          </g>
          <path d="M1158.92,545c-1.72,0-3.44-.69-4.7-2.05-2.4-2.59-2.25-6.64.35-9.04l74.83-69.33-97.43-30.23c-3.38-1.05-5.26-4.63-4.22-8.01,1.05-3.37,4.63-5.26,8.01-4.22l108,33.51c2.18.68,3.84,2.47,4.34,4.7.51,2.23-.22,4.56-1.89,6.11l-82.95,76.85c-1.23,1.14-2.79,1.71-4.35,1.71Z"/>
          <path d="M1322.11,569.52h-96.46c-3.53,0-6.4-2.87-6.4-6.4s2.87-6.4,6.4-6.4h96.46c3.53,0,6.4,2.87,6.4,6.4s-2.87,6.4-6.4,6.4Z"/>
        </g>
      </g>
      <path class="cls-4" d="M280.15,996h-75.72l-23.4-72.02c-8.44-25.98-45.2-25.98-53.64,0l-23.4,72.02H28.26c-27.32,0-38.68,34.96-16.58,51.02l61.26,44.51-23.4,72.02c-8.44,25.98,21.3,47.59,43.4,31.53l61.26-44.51,61.26,44.51c22.1,16.06,51.84-5.55,43.4-31.53l-23.4-72.02,61.26-44.51c22.1-16.06,10.74-51.02-16.58-51.02Z"/>
      <path class="cls-1" d="M481.38,1552.71l-24.67-38.47,28.97-35.36c10.45-12.76-1.53-31.43-17.48-27.26l-44.22,11.58-24.67-38.47c-8.9-13.88-30.37-8.26-31.32,8.2l-2.65,45.63-44.22,11.58c-15.95,4.18-17.24,26.33-1.88,32.32l42.58,16.62-2.65,45.63c-.96,16.46,19.71,24.53,30.16,11.78l28.97-35.36,42.58,16.62c15.36,6,29.42-11.17,20.52-25.05Z"/>
      <path class="cls-5" d="M1573.19,1307.38l7.3-30.72,31.48-2.55c11.36-.92,14.9-15.83,5.17-21.77l-26.96-16.44,7.3-30.72c2.64-11.08-10.45-19.07-19.1-11.65l-23.97,20.56-26.96-16.44c-9.73-5.93-21.36,4.05-16.98,14.57l12.15,29.15-23.97,20.56c-8.65,7.42-2.75,21.57,8.61,20.65l31.48-2.55,12.15,29.15c4.38,10.52,19.66,9.28,22.3-1.8Z"/>
    </g>
  </g>
</svg>