<?xml version="1.0" encoding="UTF-8"?>
<svg id="Calque_2" data-name="Calque 2" xmlns="http://www.w3.org/2000/svg" viewBox="0 0 3380.59 2941.36">
  <defs>
    <style>
      .cls-1 {
        fill: #936a55;
      }

      .cls-2 {
        fill: #e275a4;
      }

      .cls-3 {
        fill: #349370;
      }

      .cls-4 {
        fill: #fff;
      }

      .cls-5 {
        fill: #5cc6a2;
      }

      .cls-6 {
        fill: #f3d43d;
      }

      .cls-7 {
        fill: #e87058;
      }
    </style>
  </defs>
  <g id="Layer_1" data-name="Layer 1">
    <g>
      <path class="cls-4" d="M3104.72,1698.24c-11.19,0-22,1.58-32.26,4.49.19-2.32.31-4.66.31-7.02,0-46.68-37.84-84.52-84.52-84.52-20.19,0-38.71,7.08-53.25,18.89-14.53-11.81-33.06-18.89-53.25-18.89s-38.71,7.08-53.25,18.89c-14.53-11.81-33.06-18.89-53.25-18.89-46.68,0-84.52,37.84-84.52,84.52,0,2.37.12,4.71.31,7.02-10.26-2.91-21.07-4.49-32.26-4.49-65.15,0-117.97,52.81-117.97,117.97s52.81,117.97,117.97,117.97c11.19,0,22-1.58,32.26-4.49-.19,2.32-.31,4.66-.31,7.02,0,46.68,37.84,84.52,84.52,84.52,20.19,0,38.71-7.08,53.25-18.89,14.53,11.81,33.06,18.89,53.25,18.89s38.71-7.08,53.25-18.89c14.53,11.81,33.06,18.89,53.25,18.89,46.68,0,84.52-37.84,84.52-84.52,0-2.37-.12-4.7-.31-7.02,10.26,2.91,21.07,4.49,32.26,4.49,65.15,0,117.97-52.81,117.97-117.97s-52.81-117.97-117.97-117.97Z"/>
      <g>
        <g>
          <path class="cls-7" d="M541.43,864.76c-233.2,0-422.24,189.04-422.24,422.24h83.94c0-186.84,151.46-338.3,338.3-338.3s338.3,151.46,338.3,338.3h83.94c0-233.2-189.04-422.24-422.24-422.24Z"/>
          <path class="cls-6" d="M541.43,948.7c-186.84,0-338.3,151.46-338.3,338.3h91.74c0-136.17,110.39-246.56,246.56-246.56s246.56,110.39,246.56,246.56h91.75c0-186.84-151.46-338.3-338.3-338.3Z"/>
          <path class="cls-2" d="M541.43,1040.44c-136.17,0-246.56,110.39-246.56,246.56h99.33c0-81.31,65.92-147.23,147.23-147.23s147.23,65.92,147.23,147.23h99.33c0-136.17-110.39-246.56-246.56-246.56Z"/>
          <path class="cls-5" d="M541.43,1139.77c-81.31,0-147.23,65.92-147.23,147.23h73.62c0-40.66,32.96-73.62,73.62-73.62s73.62,32.96,73.62,73.62h73.62c0-81.31-65.92-147.23-147.23-147.23Z"/>
        </g>
        <g>
          <circle class="cls-4" cx="90.86" cy="1356.32" r="90.86" transform="translate(-932.45 461.5) rotate(-45)"/>
          <circle class="cls-4" cx="205.34" cy="1356.32" r="90.86" transform="translate(-898.92 542.45) rotate(-45)"/>
          <circle class="cls-4" cx="319.82" cy="1356.32" r="90.86" transform="translate(-865.39 623.4) rotate(-45)"/>
          <circle class="cls-4" cx="434.3" cy="1356.32" r="90.86" transform="translate(-831.86 704.35) rotate(-45)"/>
        </g>
        <g>
          <circle class="cls-4" cx="656.73" cy="1356.32" r="90.86" transform="translate(-766.71 861.63) rotate(-45)"/>
          <circle class="cls-4" cx="771.21" cy="1356.32" r="90.86" transform="translate(-733.18 942.58) rotate(-45)"/>
          <circle class="cls-4" cx="885.69" cy="1356.32" r="90.86" transform="translate(-699.6527 1023.5356) rotate(-45)"/>
          <circle class="cls-4" cx="1000.17" cy="1356.32" r="90.86" transform="translate(-666.1217 1104.4865) rotate(-45)"/>
        </g>
      </g>
      <g>
        <g>
          <g>
            <rect class="cls-1" x="999.32" y="337.63" width="133.66" height="2603.72"/>
            <rect class="cls-1" x="1952.69" y="337.63" width="133.66" height="2603.72"/>
          </g>
          <g>
            <rect class="cls-1" x="1066.15" y="2477.2" width="953.37" height="92.83"/>
            <rect class="cls-1" x="1066.15" y="1912.47" width="953.37" height="92.83"/>
            <rect class="cls-1" x="1066.15" y="1347.75" width="953.37" height="92.83"/>
            <rect class="cls-1" x="1066.15" y="783.02" width="953.37" height="92.83"/>
          </g>
        </g>
        <g>
          <path class="cls-3" d="M1203.91,727.46c9.23-6.95,33.65-27.76,36.91-55.36,4.03-34.13-25.83-65.7-25.83-65.7,0,0-36.4,23.75-40.43,57.88-2.49,21.12,7.99,41.25,16.34,53.54-1.74-1.18-3.49-2.33-5.26-3.44-25.43-16.02-54.89-26.09-84.95-27.84-27.33-1.59-55.34,4.2-78.87,18.35,6.12-15.82,38.32-106.57,1.81-177.26-40.13-77.71-148.11-101.75-148.11-101.75,0,0-42.91,101.96-2.77,179.68,36.84,71.33,130.82,97.44,146.01,101.25-1.18.76-2.34,1.53-3.49,2.33-13.04,9.07-24.54,20.99-31.2,35.56-6.41,14.02-8.03,30.32-3.37,45.13,2.26,7.17,5.97,13.75,11.04,19.31,2.17,2.38,5.7-1.16,3.54-3.54-10.32-11.3-13.89-27.47-11.63-42.39,2.36-15.59,10.98-29.34,22.26-40.09,21.72-20.7,52.04-30.96,81.68-31.78,29.56-.82,59.11,7.17,85.03,21.21,27.59,14.95,51.85,37.23,67.54,64.54,8.27,14.4,13.89,30.4,15.13,47.02,1.15,15.46-1.23,30.98-6.31,45.59-10.57,30.41-32.39,55.75-59.71,72.42-28.83,17.59-62.57,25.97-96.08,27.82-36.45,2-74.29-6.08-109.75,5.54-6.17,2.02-12.22,4.62-17.88,7.86-14.41-4.92-70.88-21.58-114.46,2.27-50.35,27.56-64.41,98.79-64.41,98.79,0,0,67.58,26.54,117.93-1.03,10.74-5.88,19.82-13.75,27.48-22.48,5.09,26.39,22.03,49.16,42.24,66.9,6.05,5.31,12.41,10.25,18.94,14.95,2.61,1.88,5.11-2.45,2.52-4.32-26.79-19.31-52.48-44.82-58.85-78.51-.25-1.35-.46-2.71-.65-4.07,20.89-26.5,29.77-58.68,32.09-68.36,2.85-1.63,5.8-3.1,8.83-4.38,35.12-14.86,74.09-6.62,110.94-7.94,33.85-1.21,68.03-8.77,97.8-25.32,28.64-15.92,51.96-40.39,64.74-70.72,6.1-14.47,9.68-30.04,9.89-45.77.22-16.47-3.54-32.61-10.32-47.57-10.28-22.67-26.85-42.55-46.33-58.33Z"/>
          <path class="cls-3" d="M2245.7,1578.81s-72.26,7.05-104.6,54.48c-13.33,19.55-17.8,42.91-18.44,63.62-7.28-16.34-18.05-31.2-31.6-42.88,6.16-8.07,30.19-42.25,23.87-76.79-7.23-39.52-51.46-64.54-51.46-64.54,0,0-32.5,39.06-25.28,78.58,3.54,19.37,15.98,35.26,27.73,46.42-23.44-11.19-49.85-15.15-74.56-22.77-24.75-7.63-50.97-20.67-63.08-44.88-9.15-18.29-5.4-45.03,11.44-57.82,4.04-3.07,8.69-5,13.67-5.9,3.16-.57,1.82-5.39-1.33-4.82-21.9,3.96-33.62,26.75-33.58,47.44.05,25.82,18.95,45.82,40.33,57.78,26.4,14.77,56.67,18.59,85.1,27.76,13.74,4.43,27.03,10.3,38.61,19.02,9.86,7.42,18.41,16.64,25.31,26.86,6.38,9.45,11.41,19.82,14.95,30.67,1.04,22.72,5.81,39.52,5.81,39.52,0,0,.04,0,.09,0,0,.14,0,.27,0,.41-.77,27.88-13.08,53.49-30.68,74.7-20.23,24.39-45.8,42.54-71.59,60.46,8.45-12.22,18.74-31.76,16.63-52.45-3.48-34.19-39.49-58.52-39.49-58.52,0,0-30.37,31.09-26.89,65.28,2.77,27.19,26.1,48.14,35.54,55.58-20.66,14.5-40.86,29.55-57.93,48.28-18.76,20.58-33.91,45.75-37.33,73.82-2.99,24.63,3.22,51.32,19.76,70.25,3.93,4.5,8.45,8.42,13.38,11.79,2.66,1.82,5.17-2.51,2.52-4.32-20.86-14.27-30.97-39.63-31.37-64.29-.45-27.73,11.92-53.74,29.05-74.97,38.98-48.31,99.02-72.25,141.64-116.64,18.81-19.6,34.5-43.46,39.71-70.49,1.25-6.46,1.89-13,2-19.55,16.98-2.6,72.35-13.94,99.53-53.8,32.34-47.43,12.52-117.27,12.52-117.27Z"/>
          <path class="cls-3" d="M1205.18,2382.55c-.49.02-.97.07-1.45.12,2.81-3.12,5.29-6.64,7.16-10.6,11.03-23.29-2.65-52.88-2.65-52.88,0,0-31.55,8.18-42.58,31.48-8.46,17.88-2.37,39.46.91,48.53-4.47-3.14-9.2-5.9-14.16-8.21-19.79-9.17-41.91-10.67-63.42-10.62-20.91.05-41.98,1.52-62.74-1.73-18.71-2.94-37.07-9.87-50.27-23.92-11.48-12.23-18.32-28.55-20.36-45.1-2.13-17.29.72-34.78,8.26-50.49,7.89-16.44,20.11-30.56,34.51-41.66,15.53-11.96,33.48-20.27,52.33-25.48,21.37-5.9,43.61-7.91,65.72-7.75,5.35.04,10.7.2,16.05.47,3.22.16,3.21-4.84,0-5-22.39-1.11-44.96-.4-67.03,3.76-20.43,3.84-40.42,10.78-58.13,21.78-2.45,1.52-4.86,3.13-7.22,4.8.4-4.54,3.52-48.51-21.42-74.15-26.32-27.06-73.92-23.44-73.92-23.44,0,0-4.93,47.48,21.39,74.54,24.64,25.33,67.94,23.78,73.36,23.48-12.57,8.98-23.7,20-32.32,32.84-10.11,15.07-16.37,32.53-17.18,50.71-.77,17.42,3.23,35.27,12.07,50.35,4.34,7.4,9.89,14.16,16.47,19.67,7.53,6.31,16.23,10.98,25.47,14.27,19.2,6.84,40.05,7.67,60.23,7.43,22.24-.26,44.93-1.69,66.8,3.32,9.55,2.19,18.72,5.63,27.14,10.66,3.55,2.12,6.93,4.5,10.15,7.08,1.2,1.17,3.21,3.03,5.88,5.12,1.52,1.44,3,2.93,4.42,4.47,12.05,13.02,20.47,29.38,23.73,46.84.78,4.2,1.23,8.44,1.37,12.7.11,3.21,5.11,3.22,5,0-.61-17.84-6.51-35.32-16.39-50.15-1.13-1.7-2.32-3.35-3.55-4.98,5.59,2.44,11.89,4.08,18.49,3.75,21.62-1.09,38.09-22.95,38.09-22.95,0,0-18.58-20.11-40.2-19.02Z"/>
        </g>
      </g>
      <g>
        <g>
          <path class="cls-5" d="M1940.01,1001.1l-108.27-4.36c-37.05-1.49-65.87-32.73-64.38-69.78h0c1.49-37.05,32.73-65.87,69.78-64.38l108.27,4.36c37.05,1.49,65.87,32.73,64.38,69.78h0c-1.49,37.05-32.73,65.87-69.78,64.38Z"/>
          <path class="cls-5" d="M1937.93,1175.66l-108.27-4.36c-37.05-1.49-65.87-32.73-64.38-69.78h0c1.49-37.05,32.73-65.87,69.78-64.38l108.27,4.36c37.05,1.49,65.87,32.73,64.38,69.78h0c-1.49,37.05-32.73,65.87-69.78,64.38Z"/>
          <path class="cls-5" d="M1935.85,1350.22l-108.27-4.36c-37.05-1.49-65.87-32.73-64.38-69.78h0c1.49-37.05,32.73-65.87,69.78-64.38l108.27,4.36c37.05,1.49,65.87,32.73,64.38,69.78h0c-1.49,37.05-32.73,65.87-69.78,64.38Z"/>
        </g>
        <g>
          <path class="cls-5" d="M2246.71,315.66c-61.97-220.67-286.9-356.22-512.88-304.76h0c-225.98,51.45-370.06,271.02-330.38,496.76l-.53.12,4.87,21.4,17.28,75.87,33.67,147.85c20.55,90.25,110.37,146.76,200.63,126.21h0c52.66-11.99,93.81-47.56,114.9-93.04,38.69,31.87,91.19,46.11,143.85,34.12h0c52.66-11.99,93.81-47.56,114.9-93.04,38.69,31.87,91.19,46.11,143.85,34.12h0c90.25-20.55,146.76-110.37,126.21-200.63l-33.67-147.85-17.28-75.87-4.87-21.4-.53.12Z"/>
          <g>
            <g>
              <path class="cls-4" d="M1707.92,477.85c-6.27-30.92-26.15-53.97-47.54-57.63,6.17-8.49,14.27-14.29,23.79-16.22,27.69-5.61,57,23.66,65.46,65.4,8.46,41.73-7.12,80.11-34.81,85.73-9.52,1.93-19.24-.27-28.23-5.68,18.28-11.71,27.61-40.68,21.34-71.6Z"/>
              <path d="M1649.35,489.73c-5.55-27.38-.75-53.32,11.03-69.51,21.4,3.66,41.27,26.71,47.54,57.63,6.27,30.92-3.06,59.89-21.34,71.6-17.15-10.32-31.68-32.34-37.23-59.72Z"/>
            </g>
            <path d="M1843.08,493.37c-.43,0-.86-.06-1.29-.17l-65.18-17.38c-1.78-.48-3.16-1.89-3.58-3.69s.18-3.68,1.57-4.9l50.55-44.41c2.07-1.82,5.23-1.62,7.06.46,1.82,2.07,1.62,5.23-.46,7.06l-43.52,38.23,56.14,14.97c2.67.71,4.25,3.45,3.54,6.12-.6,2.24-2.62,3.71-4.83,3.71Z"/>
            <path d="M1786.21,574.44c-14.31,0-26.67-12.89-27.25-13.51-1.9-2.01-1.8-5.17.2-7.07,2.01-1.89,5.17-1.8,7.06.2,3.36,3.53,14.03,12.21,22.99,10.02,8.64-2.11,13.72-13.83,16.46-23.3.77-2.65,3.54-4.18,6.19-3.41,2.65.77,4.18,3.54,3.41,6.19-5.06,17.48-13.05,27.65-23.74,30.24-1.8.44-3.58.63-5.34.63Z"/>
          </g>
        </g>
      </g>
      <g>
        <g>
          <path class="cls-7" d="M1726.68,1276.53l-1-65.25c-.52-34.16-28.64-61.42-62.79-60.9h0c-34.16.52-61.42,28.64-60.9,62.79l.98,63.84-395.01,6.06-.98-63.84c-.52-34.16-28.64-61.42-62.79-60.9h0c-34.16.52-61.42,28.64-60.9,62.79l1,65.25c-135.5,15.97-239.62,132.24-237.48,271.62h0c2.28,148.75,124.71,267.48,273.46,265.2l586.92-9c148.74-2.28,267.48-124.71,265.2-273.46h0c-2.14-139.38-109.77-252.4-245.7-264.21Z"/>
          <g>
            <g>
              <path class="cls-4" d="M1462.14,1488.83c-.87,31.54,13.29,58.48,33.31,66.87-7.93,6.87-17.12,10.71-26.84,10.44-28.24-.78-50.19-35.92-49.01-78.48,1.17-42.57,25.02-76.44,53.26-75.66,9.71.27,18.68,4.6,26.22,11.9-20.45,7.28-36.08,33.4-36.94,64.93Z"/>
              <path d="M1521.88,1490.48c-.77,27.93-11.3,52.11-26.43,65.22-20.02-8.4-34.18-35.33-33.31-66.87.87-31.54,16.49-57.65,36.94-64.93,14.38,13.93,23.56,38.65,22.79,66.58Z"/>
            </g>
            <g>
              <path class="cls-4" d="M1378.91,1486.54c-.87,31.54,13.29,58.48,33.31,66.87-7.93,6.87-17.12,10.71-26.84,10.44-28.24-.78-50.19-35.92-49.01-78.48,1.17-42.57,25.02-76.44,53.26-75.66,9.71.27,18.68,4.6,26.22,11.9-20.45,7.28-36.08,33.4-36.94,64.93Z"/>
              <path d="M1438.65,1488.18c-.77,27.93-11.3,52.11-26.43,65.22-20.02-8.4-34.18-35.33-33.31-66.87.87-31.54,16.49-57.65,36.94-64.93,14.38,13.93,23.56,38.65,22.79,66.58Z"/>
            </g>
          </g>
          <path d="M1136.59,1289.76c-2.66,0-4.87-2.09-4.99-4.77-.13-2.76,2.01-5.1,4.77-5.22l42.54-1.94c2.75-.15,5.1,2.01,5.22,4.77.13,2.76-2.01,5.1-4.77,5.22l-42.54,1.94c-.08,0-.15,0-.23,0Z"/>
          <path d="M1657.92,1280.84c-2.76,0-4.99-2.23-5-4.99,0-2.76,2.23-5.01,4.99-5.01l51.98-.12h.01c2.76,0,4.99,2.23,5,4.99,0,2.76-2.23,5.01-4.99,5.01l-51.98.12h-.01Z"/>
        </g>
        <path class="cls-7" d="M1198.6,1672.38c-48.52,0-87.85,39.33-87.85,87.85v3.81h0v166.65c-57.42,62.35-61.95,159.01-6.98,226.8h0l298.1-201.52v-43.5h100.58v-240.09h-303.86Z"/>
        <path class="cls-7" d="M1329.73,1672.38h303.86v146.57c0,51.62-41.91,93.53-93.53,93.53h-298.18v-152.24c0-48.49,39.36-87.85,87.85-87.85Z"/>
        <path d="M1110.75,1833.01c-2.76,0-5-2.24-5-5v-67.78c0-51.2,41.65-92.85,92.85-92.85h119.23c2.76,0,5,2.24,5,5s-2.24,5-5,5h-119.23c-45.68,0-82.85,37.17-82.85,82.85v67.78c0,2.76-2.24,5-5,5Z"/>
        <path class="cls-7" d="M1241.88,1764.04v166.65c-57.42,62.35-61.95,159.01-6.98,226.8h0l298.1-201.52v-191.93h-291.12Z"/>
        <path d="M1241.88,1915.71c-2.76,0-5-2.24-5-5v-150.48c0-51.2,41.65-92.85,92.85-92.85h95.71c2.76,0,5,2.24,5,5s-2.24,5-5,5h-95.71c-45.68,0-82.85,37.17-82.85,82.85v150.48c0,2.76-2.24,5-5,5Z"/>
        <path d="M1533,1903.95c-2.76,0-5-2.24-5-5v-70.94c0-2.76,2.24-5,5-5s5,2.24,5,5v70.94c0,2.76-2.24,5-5,5Z"/>
        <path d="M1196.26,2046.67c-.06,0-.13,0-.19,0-2.76-.1-4.91-2.43-4.81-5.18,1.58-41.84,17.76-81.8,45.62-112.73v-164.72c0-2.76,2.24-5,5-5s5,2.24,5,5v166.65c0,1.25-.47,2.46-1.32,3.39-27.05,29.38-42.79,67.66-44.3,107.78-.1,2.7-2.32,4.81-4.99,4.81Z"/>
        <circle cx="1425.44" cy="1602.32" r="23.51"/>
      </g>
      <g>
        <path class="cls-2" d="M621.3,1941.42c-42.89,13.84-77.17,44.43-101.01,85.8-46.25-23.24-95.37-29.76-141.28-14.94-44.82,14.47-80.25,47.22-104.18,91.47-44.51-20.87-91.4-26.25-135.36-12.07-120.1,38.76-172.74,208.75-117.58,379.69,55.17,170.93,197.25,278.08,317.36,239.32,44.82-14.47,80.24-47.22,104.18-91.47,44.5,20.87,91.4,26.25,135.36,12.07,42.89-13.84,77.17-44.43,101.01-85.8,46.25,23.24,95.37,29.76,141.28,14.94,120.1-38.76,172.74-208.75,117.58-379.69s-197.25-278.08-317.36-239.32Z"/>
        <path class="cls-2" d="M507.96,2458.51v330.69s45.97,0,45.97,0c35.71,0,64.66,28.95,64.66,64.66v22.84c0,35.71-28.95,64.66-64.66,64.66h-45.97s-164.71,0-164.71,0h-55.87v-482.85s220.58,0,220.58,0Z"/>
        <path class="cls-2" d="M662.59,2458.51v330.69s45.97,0,45.97,0c35.71,0,64.66,28.95,64.66,64.66v22.84c0,35.71-28.95,64.66-64.66,64.66h-45.97s-164.71,0-164.71,0h-55.87v-482.85s220.58,0,220.58,0Z"/>
        <path d="M599.66,2927.41c-1.28,0-2.56-.49-3.53-1.46-1.95-1.95-1.95-5.12,0-7.07,11.26-11.27,17.47-26.25,17.47-42.18v-22.84c0-32.9-26.76-59.66-59.66-59.66h-45.97c-2.76,0-5-2.24-5-5v-204.41c0-2.76,2.24-5,5-5s5,2.24,5,5v199.41h40.97c38.41,0,69.66,31.25,69.66,69.66v22.84c0,18.6-7.24,36.09-20.39,49.25-.98.98-2.26,1.46-3.54,1.46Z"/>
        <path d="M521,2624.67c-7.99,0-12.97-.29-13.34-.31-2.76-.16-4.86-2.53-4.69-5.29.17-2.76,2.52-4.86,5.29-4.69.65.04,65.87,3.65,108.16-16.8,2.49-1.2,5.48-.16,6.68,2.32,1.2,2.49.16,5.48-2.32,6.68-18.82,9.1-43.58,14.86-73.62,17.11-10.26.77-19.3.98-26.14.98Z"/>
        <g>
          <g>
            <path class="cls-4" d="M687.7,2178.24c9.07,30.22,30.98,51.35,52.62,53.04-5.37,9.02-12.9,15.54-22.2,18.33-27.06,8.13-58.92-18.35-71.17-59.13-12.25-40.78-.24-80.43,26.82-88.56,9.31-2.79,19.18-1.5,28.63,3.07-17.13,13.33-23.77,43.03-14.7,73.25Z"/>
            <path d="M744.94,2161.05c8.03,26.76,5.63,53.02-4.62,70.22-21.64-1.69-43.54-22.82-52.62-53.04-9.07-30.22-2.43-59.92,14.7-73.25,18.03,8.71,34.5,29.31,42.54,56.06Z"/>
          </g>
          <g>
            <path class="cls-4" d="M607.96,2202.18c9.07,30.22,30.98,51.35,52.62,53.04-5.37,9.02-12.9,15.54-22.2,18.33-27.06,8.13-58.92-18.35-71.17-59.13-12.25-40.78-.24-80.43,26.82-88.56,9.31-2.79,19.18-1.5,28.63,3.07-17.13,13.33-23.77,43.03-14.7,73.25Z"/>
            <path d="M665.19,2184.99c8.03,26.76,5.63,53.02-4.62,70.22-21.64-1.69-43.54-22.82-52.62-53.04-9.07-30.22-2.43-59.92,14.7-73.25,18.03,8.71,34.5,29.31,42.54,56.06Z"/>
          </g>
        </g>
        <path d="M726.3,2288.16l-107.71,13.3s7.95,63.85,78.45,47.89c-18.62-32.91,29.26-61.19,29.26-61.19Z"/>
      </g>
      <g>
        <g>
          <path class="cls-6" d="M2653.46,1871.86c15.97-42.67,20.66-90.16,11.1-138.13-27.34-137.25-160.77-226.35-298.02-199.01-137.25,27.34-226.35,160.77-199.01,298.02,9.56,47.97,32.08,90.04,63.19,123.33-73.57,81.71-108.99,195.91-85.86,312.04,38.92,195.37,228.85,322.19,424.21,283.27,195.37-38.92,322.19-228.85,283.27-424.21-23.13-116.12-99.62-208.03-198.88-255.31Z"/>
          <rect class="cls-6" x="2241.06" y="2418.6" width="154.21" height="522.75"/>
          <path class="cls-6" d="M2295.51,2789.72h99.76v151.64h-251.4c0-83.69,67.95-151.64,151.64-151.64Z"/>
          <rect class="cls-6" x="2536.93" y="2418.6" width="154.21" height="522.75"/>
          <path class="cls-6" d="M2591.38,2789.72h99.76v151.64h-251.4c0-83.69,67.95-151.64,151.64-151.64Z"/>
        </g>
        <g>
          <g>
            <path class="cls-4" d="M2385.87,1694.02c12.77-28.85,9.89-59.15-5.45-74.51,9.95-3.35,19.9-3.41,28.79.53,25.83,11.44,32.8,52.27,15.57,91.21-17.24,38.94-52.15,61.23-77.99,49.79-8.89-3.93-15.54-11.35-19.74-20.96,21.68,1.02,46.05-17.21,58.82-46.06Z"/>
            <path d="M2331.22,1669.83c11.31-25.55,30.23-43.93,49.2-50.32,15.34,15.36,18.22,45.66,5.45,74.51-12.77,28.85-37.14,47.08-58.82,46.06-8.02-18.34-7.13-44.7,4.18-70.25Z"/>
          </g>
          <g>
            <path class="cls-4" d="M2462,1727.73c12.77-28.85,9.89-59.15-5.45-74.51,9.95-3.35,19.9-3.41,28.79.53,25.83,11.44,32.8,52.27,15.57,91.21-17.24,38.94-52.15,61.23-77.99,49.79-8.89-3.93-15.54-11.34-19.74-20.96,21.68,1.02,46.05-17.21,58.82-46.06Z"/>
            <path d="M2407.36,1703.54c11.31-25.55,30.23-43.93,49.2-50.32,15.34,15.36,18.22,45.66,5.45,74.51-12.77,28.85-37.14,47.08-58.82,46.06-8.02-18.34-7.13-44.7,4.18-70.25Z"/>
          </g>
        </g>
        <path d="M2367.63,2538c-.48,0-.98-.07-1.46-.22-28.79-8.79-56.48-21.18-82.3-36.82-2.36-1.43-3.12-4.5-1.69-6.87,1.43-2.36,4.51-3.12,6.87-1.69,25.11,15.21,52.04,27.26,80.04,35.81,2.64.81,4.13,3.6,3.32,6.24-.66,2.15-2.64,3.54-4.78,3.54Z"/>
        <path d="M2562.08,2553.92c-2.2,0-4.22-1.47-4.82-3.7-.72-2.67.86-5.41,3.52-6.13,28.54-7.71,56.09-19.01,81.88-33.6,2.41-1.36,5.45-.51,6.81,1.89,1.36,2.4.51,5.46-1.89,6.81-26.52,15-54.85,26.62-84.2,34.55-.44.12-.88.17-1.31.17Z"/>
        <path d="M2371.67,1824.12c-3.41,0-6.82-.69-10.04-2.07-6.27-2.68-11.12-7.65-13.65-13.98-2.54-6.33-2.45-13.27.23-19.54,1.09-2.54,4.03-3.71,6.56-2.63,2.54,1.09,3.72,4.03,2.63,6.56-1.63,3.81-1.68,8.04-.14,11.89,1.54,3.85,4.49,6.87,8.31,8.5,3.81,1.63,8.04,1.68,11.89.14,3.85-1.54,6.87-4.49,8.5-8.31,1.09-2.54,4.03-3.71,6.56-2.63,2.54,1.09,3.72,4.03,2.63,6.56-2.68,6.27-7.65,11.12-13.98,13.65-3.07,1.23-6.29,1.84-9.5,1.84Z"/>
      </g>
      <g>
        <polygon class="cls-5" points="3164 2163.08 2824.57 2163.08 2824.57 1863.48 3072.44 1863.48 3164 2019.51 3164 2163.08"/>
        <rect class="cls-2" x="2827.92" y="2163.08" width="453.14" height="778.27"/>
        <rect class="cls-5" x="3087.31" y="2163.08" width="293.28" height="778.27"/>
        <g>
          <polygon class="cls-2" points="2909.5 2941.36 2739.63 2941.36 2739.63 1995.72 2824.57 1874.11 2909.5 1995.72 2909.5 2941.36"/>
          <path class="cls-5" d="M2937.88,2046.97c-3.36,0-6.66-1.58-8.73-4.54l-104.59-149.75-104.59,149.75c-3.36,4.81-9.99,5.99-14.8,2.63-4.81-3.36-5.99-9.99-2.63-14.8l113.31-162.23c1.99-2.85,5.24-4.54,8.72-4.54s6.73,1.7,8.72,4.54l113.31,162.23c3.36,4.81,2.19,11.44-2.63,14.8-1.85,1.29-3.98,1.92-6.08,1.92Z"/>
          <path class="cls-4" d="M2824.57,2027.69h0c-17.16,0-31.07,13.91-31.07,31.07v80.25h62.14v-80.25c0-17.16-13.91-31.07-31.07-31.07Z"/>
          <path class="cls-4" d="M2824.57,2266.75h0c-17.16,0-31.07,13.91-31.07,31.07v80.25h62.14v-80.25c0-17.16-13.91-31.07-31.07-31.07Z"/>
          <path class="cls-4" d="M2824.57,2505.8h0c-17.16,0-31.07,13.91-31.07,31.07v80.25h62.14v-80.25c0-17.16-13.91-31.07-31.07-31.07Z"/>
          <path class="cls-4" d="M2824.57,2744.86h0c-17.16,0-31.07,13.91-31.07,31.07v80.25h62.14v-80.25c0-17.16-13.91-31.07-31.07-31.07Z"/>
        </g>
        <path class="cls-5" d="M3185.76,2046.97c-3.36,0-6.66-1.58-8.73-4.54l-104.59-149.75-104.59,149.75c-3.36,4.81-9.99,5.99-14.8,2.63-4.81-3.36-5.99-9.99-2.63-14.8l113.31-162.23c1.99-2.85,5.24-4.54,8.72-4.54s6.73,1.7,8.72,4.54l113.31,162.23c3.36,4.81,2.19,11.44-2.63,14.8-1.85,1.29-3.98,1.92-6.08,1.92Z"/>
        <g>
          <rect class="cls-2" x="3133.93" y="2247.38" width="200.04" height="103.49"/>
          <rect class="cls-2" x="3133.93" y="2416.11" width="200.04" height="103.49"/>
          <rect class="cls-2" x="3133.93" y="2584.84" width="200.04" height="103.49"/>
          <rect class="cls-2" x="3133.93" y="2753.57" width="200.04" height="103.49"/>
        </g>
        <g>
          <rect class="cls-4" x="2954.67" y="2228.2" width="24.87" height="102.62"/>
          <rect class="cls-4" x="2990.48" y="2228.2" width="24.87" height="102.62"/>
        </g>
        <g>
          <rect class="cls-4" x="2954.67" y="2416.54" width="24.87" height="102.62"/>
          <rect class="cls-4" x="2990.48" y="2416.54" width="24.87" height="102.62"/>
        </g>
        <g>
          <rect class="cls-4" x="2954.67" y="2604.88" width="24.87" height="102.62"/>
          <rect class="cls-4" x="2990.48" y="2604.88" width="24.87" height="102.62"/>
        </g>
        <g>
          <rect class="cls-4" x="2954.67" y="2793.22" width="24.87" height="102.62"/>
          <rect class="cls-4" x="2990.48" y="2793.22" width="24.87" height="102.62"/>
        </g>
      </g>
      <path class="cls-4" d="M2647.78,1050.47c-7.32,0-14.39,1.03-21.09,2.94.12-1.52.2-3.04.2-4.59,0-30.52-24.74-55.26-55.26-55.26-13.2,0-25.31,4.63-34.82,12.35-9.5-7.72-21.62-12.35-34.82-12.35s-25.31,4.63-34.82,12.35c-9.5-7.72-21.62-12.35-34.82-12.35-30.52,0-55.26,24.74-55.26,55.26,0,1.55.08,3.08.2,4.59-6.71-1.9-13.78-2.94-21.09-2.94-42.6,0-77.13,34.53-77.13,77.13s34.53,77.13,77.13,77.13c7.32,0,14.39-1.03,21.09-2.94-.12,1.52-.2,3.04-.2,4.59,0,30.52,24.74,55.26,55.26,55.26,13.2,0,25.31-4.63,34.82-12.35,9.5,7.72,21.62,12.35,34.82,12.35s25.31-4.63,34.82-12.35c9.5,7.72,21.62,12.35,34.82,12.35,30.52,0,55.26-24.74,55.26-55.26,0-1.55-.08-3.08-.2-4.59,6.7,1.9,13.78,2.94,21.09,2.94,42.6,0,77.13-34.53,77.13-77.13s-34.53-77.13-77.13-77.13Z"/>
    </g>
  </g>
</svg>