<?xml version="1.0" encoding="UTF-8"?>
<svg id="Calque_2" data-name="Calque 2" xmlns="http://www.w3.org/2000/svg" viewBox="0 0 1638.74 1938.5">
  <defs>
    <style>
      .cls-1 {
        fill: #a4d348;
      }

      .cls-2 {
        fill: #b57480;
      }

      .cls-3 {
        fill: #4a5696;
      }

      .cls-4 {
        fill: #3a3030;
      }

      .cls-5 {
        fill: #fff;
      }

      .cls-6 {
        fill: #514242;
      }

      .cls-7 {
        fill: #ce8292;
      }
    </style>
  </defs>
  <g id="Layer_1" data-name="Layer 1">
    <g>
      <g>
        <path class="cls-6" d="M856.94,1450.47c360.42-89.79,682.32-80.71,781.8,13.43.06-7.45-.77-14.76-2.56-21.92-34.04-136.62-397.02-163.82-810.76-60.75-413.73,103.07-721.54,297.38-687.51,434,4.39,17.6,14.25,33.39,28.96,47.31,1.06-134.8,297.99-314.41,690.06-412.08Z"/>
        <path class="cls-4" d="M948.67,1875.99c392.07-97.67,689.01-277.28,690.06-412.08-99.48-94.15-421.38-103.22-781.8-13.43-392.07,97.67-689.01,277.28-690.06,412.08,99.48,94.15,421.38,103.22,781.8,13.43Z"/>
      </g>
      <g>
        <path class="cls-2" d="M397.84,929.67L17.88,221.32C-22.55,145.94,8.01,52.06,85.06,14.93h0c73.89-35.61,162.69-5.38,199.51,67.92l356.87,710.57-243.6,136.25Z"/>
        <path class="cls-1" d="M482.64,688.46l-190.3,96.2,95.15,187.78,87.74,341.67,469.56-20.54,143.33-239.43-43.19-132.16c-19.42-59.43-67.76-104.89-128.28-120.63l-434-112.89Z"/>
        <g>
          <path class="cls-2" d="M851.19,1392.79l-44.22-115.78-331.74,37.11,89.09,351.26c26.3,103.7,141.44,156.84,237.42,109.58l249.28-122.76-12.1-308.58-187.73,49.18Z"/>
          <path class="cls-1" d="M1275.85,1668.75l-124.32-354.64-112.61,29.5,12.1,308.58,167.95,70.2c34.19,14.29,69.14-18.67,56.88-53.63Z"/>
        </g>
        <g>
          <path class="cls-2" d="M1105.19,1831.14c10.26-38.79,17.97-85.35,21.91-141.26l-90.14-298.78-325.52,14.11,111.34,436.41c5.14,20.14,12.71,39.49,22.48,57.65,34-6.85,68.51-14.6,103.4-23.29,54.17-13.49,106.51-28.55,156.52-44.84Z"/>
          <path class="cls-5" d="M1105.19,1831.14c35.96-11.71,70.7-24.06,104.04-36.92l-82.13-104.34c-3.94,55.92-11.66,102.47-21.91,141.26Z"/>
        </g>
        <path class="cls-3" d="M475.23,1314.11l89.09,351.26,551.16-130.69-21.44-55.41c4.06-159.99-63.69-213.04-117.91-249.3l-500.9,84.15Z"/>
        <g>
          <path class="cls-2" d="M977.87,1052.51l-4.49-11.46c-30.06-76.69-114.63-116.72-193-91.34h0c-83.18,26.94-127.9,117.05-99.05,199.59l59.85,171.17c35.18,100.63,142.34,156.76,245.1,128.39h0c107.49-29.68,170.77-140.66,141.57-248.28l-39.73-146.44-110.25-1.63Z"/>
          <path d="M1033.65,1222.35c-2.27,0-4.39-1.43-5.16-3.7l-39.8-117.85c-.96-2.85.57-5.93,3.41-6.9,2.85-.96,5.93.57,6.9,3.41l39.8,117.85c.96,2.85-.57,5.93-3.41,6.9-.58.19-1.16.29-1.74.29Z"/>
        </g>
        <path d="M795.34,1739.52c-2.48,0-4.72-1.71-5.3-4.23l-50.93-223.02-69.02-35.03c-2.68-1.36-3.75-4.63-2.39-7.31,1.36-2.68,4.64-3.75,7.31-2.39l71.29,36.18c1.44.73,2.48,2.06,2.84,3.64l51.5,225.5c.67,2.93-1.16,5.85-4.09,6.52-.41.09-.81.14-1.22.14Z"/>
        <polygon class="cls-5" points="599.83 823.51 648.64 986.33 697.7 823.51 599.83 823.51"/>
        <g>
          <g>
            <g>
              <g>
                <path d="M1047.7,584.43c2.43-10,4.46-20.17,6.04-30.51,1.29-8.46,2.31-17.02,3-25.69,1.7-21.46,1.44-42.62-.61-63.31-9.02-91.05-52.9-173.02-118.99-231.05-55.41-48.66-126.44-80.5-205.61-86.77-60.45-4.78-118.54,5.91-170.41,28.74-63.29,27.86-117.27,73.81-154.91,131.8l311.1-78.26s127.66,277.04,330.39,355.05Z"/>
                <path class="cls-2" d="M717.31,229.38l-311.1,78.26c-5.11,7.87-9.93,15.96-14.42,24.27-7.33,13.56-13.83,27.67-19.39,42.27-11.7,30.76-19.28,63.67-22.01,98.14-1.32,16.62-1.46,33.06-.5,49.24,6.77,114.89,68.99,216.77,161.95,276.7,47.63,30.7,103.32,50.4,163.76,55.19,133.02,10.53,254.66-53.85,323.49-157.72,22.13-33.4,38.77-70.89,48.6-111.29-202.73-78.01-330.39-355.05-330.39-355.05Z"/>
              </g>
              <g>
                <path class="cls-5" d="M646.82,508.26c-6.67,37.74-30.11,66.33-55.98,71.43,7.76,10.12,17.76,16.92,29.38,18.98,33.8,5.98,68.5-30.47,77.5-81.41,9.01-50.94-11.09-97.07-44.89-103.05-11.62-2.06-23.35.91-34.11,7.75,22.56,13.66,34.77,48.56,28.09,86.3Z"/>
                <path d="M575.34,495.62c-5.91,33.42.71,64.77,15.5,84.07,25.87-5.1,49.31-33.69,55.98-71.43,6.67-37.74-5.54-72.64-28.09-86.3-20.52,13.06-37.49,40.24-43.39,73.66Z"/>
              </g>
              <g>
                <path class="cls-5" d="M753.68,525.64c-6.67,37.74-30.11,66.33-55.98,71.43,7.76,10.12,17.76,16.92,29.38,18.98,33.8,5.98,68.5-30.47,77.5-81.41,9.01-50.94-11.09-97.07-44.89-103.05-11.62-2.06-23.35.91-34.11,7.75,22.56,13.66,34.77,48.56,28.09,86.3Z"/>
                <path d="M682.2,513c-5.91,33.42.71,64.77,15.5,84.07,25.87-5.1,49.31-33.69,55.98-71.43,6.67-37.74-5.54-72.64-28.09-86.3-20.52,13.06-37.49,40.24-43.39,73.66Z"/>
              </g>
              <circle class="cls-7" cx="837.37" cy="642.12" r="49.66"/>
              <circle class="cls-7" cx="492.23" cy="578.63" r="49.66" transform="translate(-88.7899 1068.0334) rotate(-89.7207)"/>
              <path d="M717.31,193.2s-120.97,16.56-37.75,172l18.93-79.74s-6.64,82.16,105.71,89.02l33.18-81.79-120.07-99.5Z"/>
              <path d="M701.76,632.29c-4.44,23.77-27.31,39.44-51.08,35-23.77-4.44-39.44-27.31-35-51.08"/>
            </g>
            <circle class="cls-2" cx="1036.87" cy="597.6" r="114.65" transform="translate(-118.88 908.21) rotate(-45)"/>
          </g>
          <path d="M410.25,704.4c-1.74,0-3.46-.84-4.51-2.39-36.3-53.51-57.49-115.8-61.29-180.14-.98-16.57-.8-33.39.51-49.99,2.71-34.25,10.23-67.77,22.35-99.64,5.55-14.59,12.17-29.03,19.69-42.92,1.43-2.64,4.73-3.63,7.37-2.2,2.64,1.43,3.63,4.73,2.2,7.37-7.29,13.47-13.71,27.47-19.09,41.62-11.75,30.9-19.04,63.41-21.67,96.63-1.27,16.1-1.44,32.42-.5,48.49,3.68,62.38,24.22,122.78,59.43,174.67,1.69,2.49,1.04,5.87-1.45,7.56-.94.64-2,.94-3.05.94Z"/>
        </g>
        <path d="M541.9,910.36c-1.36,0-2.69-.51-3.71-1.46-1.36-1.27-1.98-3.15-1.63-4.98l12.1-64.53c.55-2.95,3.39-4.9,6.35-4.34,2.95.55,4.9,3.39,4.34,6.35l-10.52,56.11,40.65-10.52c2.91-.75,5.88,1,6.63,3.9.75,2.91-1,5.88-3.9,6.63l-48.94,12.66c-.45.12-.91.17-1.36.17Z"/>
        <path d="M752.22,919.41c-.54,0-1.09-.08-1.62-.24l-50.46-15.68c-2.87-.89-4.47-3.94-3.58-6.81.89-2.87,3.94-4.47,6.81-3.58l43.96,13.66,2.74-34.52c.24-2.99,2.87-5.24,5.85-4.99,3,.24,5.23,2.86,4.99,5.85l-3.28,41.31c-.13,1.65-1,3.15-2.37,4.07-.91.62-1.97.94-3.05.94Z"/>
        <path d="M1154.85,1711.04c-.2,0-.4-.01-.61-.03-2.99-.33-5.14-3.02-4.81-6.01l3.79-34.2c.33-2.99,3.01-5.14,6.01-4.81,2.99.33,5.14,3.02,4.81,6.01l-3.79,34.2c-.31,2.78-2.66,4.84-5.4,4.84Z"/>
      </g>
    </g>
  </g>
</svg>