<?xml version="1.0" encoding="UTF-8"?>
<svg id="Calque_2" data-name="Calque 2" xmlns="http://www.w3.org/2000/svg" viewBox="0 0 1554.74 2031.43">
  <defs>
    <style>
      .cls-1 {
        fill: #a4d348;
      }

      .cls-2 {
        fill: #b57480;
      }

      .cls-3 {
        fill: #4a5696;
      }

      .cls-4 {
        fill: #3a3030;
      }

      .cls-5 {
        fill: #fff;
      }

      .cls-6 {
        fill: #514242;
      }

      .cls-7 {
        fill: #ce8292;
      }

      .cls-8 {
        fill: #f9e5c2;
      }
    </style>
  </defs>
  <g id="Layer_1" data-name="Layer 1">
    <g>
      <g>
        <path class="cls-6" d="M435.19,1272.18c2.23,371.43-82.52,682.1-197.47,756.57,7.22,1.81,14.53,2.73,21.9,2.69,140.79-.85,252.85-347.18,250.28-773.55-2.56-426.37-118.78-771.33-259.57-770.48-18.14.11-35.81,5.97-52.81,16.98,130.75,32.83,235.24,363.75,237.67,767.8Z"/>
        <path class="cls-4" d="M.04,1260.95c2.43,404.05,106.92,734.97,237.67,767.8,114.96-74.46,199.71-385.13,197.47-756.57-2.43-404.05-106.92-734.97-237.67-767.8C82.56,578.84-2.19,889.52.04,1260.95Z"/>
      </g>
      <g>
        <path class="cls-2" d="M880.67,866.89l302.1,146.93c66.15,32.17,145.91,8.3,183.5-54.92l167.75-282.1c45.61-76.7,12.96-176.03-69.28-210.7h0c-68.47-28.87-147.73-2.12-184.71,62.33l-98.51,171.69-168.45-82.88-132.42,249.65Z"/>
        <path class="cls-1" d="M479.87,563.69l-108.03,543.51,483.89,60.89,158.48-368c26.93-112.29-56-221.01-171.42-224.72l-362.92-11.67Z"/>
        <path class="cls-2" d="M105.83,1244.71l71.68-146.07,319.1-230.79-138.78-257.73L40.21,832.7C13.95,955.36-.91,1102.62.04,1260.95c.14,23.1.62,45.96,1.41,68.54,44.11-11.29,82.96-41.15,104.38-84.79Z"/>
        <path class="cls-1" d="M727.73,563.69l-141.39-10.27c-100.94-7.33-201.57,17.96-287.05,72.14l-165.19,104.72,210.07,258.23,265.91-188.42,117.65-236.39Z"/>
        <path class="cls-1" d="M914.98,932.9l141.11,39.42,114.03-296.31h0c-66.99-60.35-153.18-95.04-243.3-97.94l-110.9-3.57,99.06,358.4Z"/>
        <path d="M416.35,942.81c-1.71,0-3.38-.8-4.44-2.3-1.74-2.45-1.16-5.85,1.29-7.58l80.26-56.87c2.45-1.74,5.85-1.16,7.59,1.29,1.74,2.45,1.16,5.85-1.29,7.58l-80.26,56.87c-.95.68-2.05,1-3.14,1Z"/>
        <path d="M958.57,934.73c-.72,0-1.45-.14-2.15-.45-2.76-1.19-4.03-4.39-2.84-7.15l55.64-129.2c1.19-2.76,4.39-4.03,7.15-2.85,2.76,1.19,4.03,4.39,2.84,7.15l-55.64,129.2c-.89,2.06-2.89,3.29-5,3.29Z"/>
        <g>
          <path class="cls-2" d="M1108.64,1495.88c-14.08-22.58-32.09-42.44-53.18-58.66l-279.82-215.06-231.26,237.05,285.7,229.54,23.71,35.11,279.66-188.2-24.81-39.79Z"/>
          <polygon class="cls-8" points="1133.45 1535.67 853.78 1723.87 962.95 1885.53 1226.24 1684.51 1133.45 1535.67"/>
          <path class="cls-1" d="M1373.71,1705.61l-147.47-21.1-263.29,201.02,42.3,62.64c21.3,31.55,64.07,40.01,95.78,18.95l288.47-191.57c29.36-19.5,19.1-64.95-15.79-69.95Z"/>
        </g>
        <g>
          <path class="cls-2" d="M480.98,1273.02l-164.03,168.85-82.13,295.27,36.17,16.02c87.64,38.81,190.28,17.09,254.68-53.9l224.76-247.74-269.45-178.5Z"/>
          <g>
            <path class="cls-1" d="M218.32,1398.6l-86.57-37.98c-30.1-13.21-65.33-4.28-85.5,21.68l-38.87,50.03c6.35,78.53,16.64,152.48,30.17,219.84l4.41-.43,176.36-253.13Z"/>
            <polygon class="cls-8" points="234.82 1737.14 316.95 1441.87 218.32 1398.6 41.96 1651.73 234.82 1737.14"/>
          </g>
        </g>
        <path class="cls-3" d="M856.39,1228.83l-.66-60.74-483.89-60.89c-121.17,135.06-66.65,306.57,20.21,368.35l308.35,127.7,243.12-268.72-87.12-105.7Z"/>
        <polygon class="cls-5" points="749.29 653.72 758.71 906.95 832.11 639.25 749.29 653.72"/>
        <g>
          <g>
            <g>
              <path d="M479.47,365.62c-.32-10.29-.2-20.66.39-31.1.49-8.55,1.25-17.13,2.37-25.75,2.77-21.35,7.39-42,13.67-61.82,27.63-87.23,87.48-158.37,164.13-201.51C724.29,9.26,800.36-7.23,879.12,2.98c60.13,7.8,114.77,30.25,160.8,63.3,56.18,40.32,99.5,96.43,124.36,160.94l-288.24-140.8s-182.1,244.71-396.57,279.19Z"/>
              <path class="cls-2" d="M876.04,86.42l288.24,140.8c3.37,8.76,6.42,17.67,9.1,26.72,4.38,14.78,7.82,29.93,10.24,45.36,5.1,32.51,5.72,66.28,1.28,100.57-2.14,16.53-5.4,32.65-9.67,48.28-30.34,111.02-112.25,197.86-215.59,237.3-52.94,20.21-111.5,27.99-171.63,20.19-132.33-17.16-238.06-105.27-283.96-221.11-14.76-37.25-23.3-77.37-24.58-118.92,214.47-34.48,396.57-279.19,396.57-279.19Z"/>
            </g>
            <g>
              <path class="cls-5" d="M887.43,373.84c-1.26,38.3,15.77,71.12,40.03,81.45-9.68,8.3-20.87,12.89-32.67,12.5-34.3-1.13-60.73-43.96-59.03-95.66,1.7-51.7,30.89-92.69,65.19-91.56,11.8.39,22.66,5.71,31.77,14.63-24.89,8.71-44.04,40.34-45.3,78.64Z"/>
              <path d="M959.99,376.23c-1.12,33.92-14.07,63.23-32.53,79.06-24.26-10.33-41.29-43.15-40.03-81.45,1.26-38.3,20.41-69.93,45.3-78.64,17.38,17.01,28.37,47.11,27.25,81.03Z"/>
            </g>
            <path d="M849.85,519.22c-3.88,0-7.79-.4-11.69-1.23-12.24-2.58-22.97-8.97-31.06-18.47-1.95-2.29-1.67-5.72.62-7.67,2.29-1.95,5.72-1.67,7.67.62,6.51,7.65,15.16,12.79,25.02,14.87,15.34,3.24,30.99-1.59,41.87-12.9,2.08-2.17,5.53-2.23,7.69-.15,2.17,2.08,2.23,5.53.15,7.69-10.73,11.16-25.21,17.24-40.27,17.24Z"/>
            <circle class="cls-7" cx="673.35" cy="465.49" r="49.66"/>
            <circle class="cls-7" cx="1024.17" cy="474.61" r="49.66" transform="translate(546.6012 1497.4046) rotate(-89.8347)"/>
            <path d="M883.51,51.02s114.95,41.17,1.43,176.09l-2.06-81.93s-10.46,81.77-121.81,65.28l-15.58-86.87,138.02-72.57Z"/>
            <path d="M756.65,413.77c-2.21,0-4.29-1.36-5.1-3.55-1.04-2.82.4-5.95,3.21-6.99l53.66-19.86-46.61-33.04c-2.45-1.74-3.03-5.13-1.29-7.58,1.74-2.45,5.13-3.03,7.58-1.29l55.02,39c1.65,1.17,2.51,3.15,2.25,5.15-.26,2-1.61,3.69-3.51,4.39l-63.33,23.43c-.62.23-1.26.34-1.89.34Z"/>
          </g>
          <circle class="cls-2" cx="487.34" cy="380.74" r="114.65" transform="translate(-126.48 456.12) rotate(-45)"/>
        </g>
        <path d="M648.68,775.78c-1.25,0-2.48-.43-3.48-1.26-1.52-1.27-2.24-3.26-1.86-5.2l14.84-77.63c.56-2.95,3.41-4.88,6.36-4.32,2.95.56,4.89,3.41,4.32,6.37l-12.99,67.96,65.18-25.46c2.81-1.09,5.96.29,7.05,3.09,1.09,2.8-.29,5.95-3.09,7.05l-74.35,29.04c-.64.25-1.31.37-1.98.37Z"/>
        <path d="M873.31,787.6c-.95,0-1.9-.25-2.75-.75l-51.52-30.17c-2.59-1.52-3.46-4.85-1.95-7.44,1.52-2.59,4.85-3.46,7.44-1.95l44.55,26.09,6.2-42.64c.43-2.97,3.18-5.04,6.17-4.6,2.97.43,5.03,3.19,4.6,6.17l-7.36,50.63c-.26,1.79-1.39,3.34-3.02,4.12-.75.36-1.55.54-2.36.54Z"/>
        <path d="M1243.33,1719.37c-1.28,0-2.56-.45-3.6-1.36-2.25-1.99-2.47-5.43-.48-7.68l25.93-29.41c1.99-2.25,5.43-2.47,7.68-.48,2.25,1.99,2.47,5.43.48,7.68l-25.93,29.41c-1.07,1.22-2.57,1.84-4.08,1.84Z"/>
        <path d="M1281.87,1725.11c-1.28,0-2.56-.45-3.59-1.36-2.25-1.99-2.47-5.43-.48-7.68l25.93-29.41c1.99-2.25,5.42-2.47,7.68-.48,2.25,1.99,2.47,5.43.48,7.68l-25.93,29.41c-1.07,1.22-2.57,1.84-4.08,1.84Z"/>
      </g>
    </g>
  </g>
</svg>