<?xml version="1.0" encoding="UTF-8"?>
<svg id="Calque_2" data-name="Calque 2" xmlns="http://www.w3.org/2000/svg" viewBox="0 0 1928.64 2027.31">
  <defs>
    <style>
      .cls-1 {
        fill: #a4d348;
      }

      .cls-2 {
        fill: #b57480;
      }

      .cls-3 {
        fill: #4a5696;
      }

      .cls-4 {
        fill: #3a3030;
      }

      .cls-5 {
        fill: #fff;
      }

      .cls-6 {
        fill: #514242;
      }

      .cls-7 {
        fill: #ce8292;
      }

      .cls-8 {
        fill: #f9e5c2;
      }
    </style>
  </defs>
  <g id="Layer_1" data-name="Layer 1">
    <g>
      <g>
        <path class="cls-6" d="M1291.11,1238.47c219.38-299.73,472.46-498.85,609.16-490.22-4.72-5.76-10.05-10.84-15.99-15.2-113.61-83.16-409.87,128.35-661.7,472.42-251.83,344.07-363.87,690.4-250.26,773.56,14.64,10.72,32.32,16.53,52.54,17.8-85.5-104.23,27.61-432.31,266.26-758.36Z"/>
        <path class="cls-4" d="M1634.01,1506.6c238.64-326.05,351.75-654.13,266.26-758.36-136.69-8.63-389.78,190.49-609.16,490.22-238.64,326.05-351.75,654.13-266.26,758.36,136.69,8.63,389.78-190.49,609.16-490.22Z"/>
      </g>
      <g>
        <g>
          <path class="cls-2" d="M958.22,667.76l-692.08-229.7c-78.73-26.13-163.88,15.64-191.4,93.9h0c-28.72,81.69,16.44,170.84,99.29,196l696.05,211.36,88.13-271.55Z"/>
          <path class="cls-2" d="M335.02,534.14l13.78-54.85-275.92-78.08c-30.34-8.59-61.92,8.97-70.63,39.28h0c-8.74,30.39,8.82,62.12,39.21,70.86l222.2,63.88c31.13,8.95,63.47-9.67,71.36-41.09Z"/>
          <path d="M167.55,621.4c-1.55,0-3.09-.66-4.17-1.94l-38.25-45.49c-1.93-2.3-1.64-5.73.66-7.67,2.3-1.93,5.73-1.64,7.67.66l38.25,45.49c1.93,2.3,1.64,5.73-.66,7.67-1.02.86-2.26,1.28-3.5,1.28Z"/>
          <path d="M198.6,718.92c-21.31,0-41.61-11.58-52.18-31.6-13.77-26.08-6.05-58.67,17.96-75.79l34.09-24.32c2.44-1.74,5.84-1.18,7.59,1.27,1.74,2.45,1.18,5.84-1.27,7.59l-34.09,24.32c-19.6,13.98-25.9,40.57-14.66,61.85,11.68,22.12,37.93,31.63,61.07,22.11l59.77-24.59c2.78-1.14,5.96.18,7.1,2.96,1.14,2.78-.18,5.96-2.96,7.1l-59.77,24.59c-7.42,3.05-15.1,4.51-22.65,4.51Z"/>
          <path d="M169.84,549.22c-.42,0-.85-.05-1.27-.15l-79.51-19.07c-2.92-.7-4.72-3.64-4.02-6.56.7-2.92,3.64-4.73,6.56-4.02l79.51,19.07c2.92.7,4.72,3.64,4.02,6.56-.6,2.5-2.83,4.17-5.29,4.17Z"/>
        </g>
        <polygon class="cls-1" points="759.61 602.93 835.19 1137.53 1309.22 1100.27 1215.51 654.08 759.61 602.93"/>
        <polygon class="cls-1" points="923.77 609.77 629.62 534.19 610.32 872.46 870.08 939.31 923.77 609.77"/>
        <g>
          <path class="cls-1" d="M433.97,1959.5c-23.67,26.04-5.2,67.81,30,67.81h334.61c33.87,0,64.26-20.8,76.51-52.38l30.35-78.21-340.14-81.69-131.33,144.46Z"/>
          <polygon class="cls-2" points="1119.6 1344.91 835.19 1137.53 646.1 1612.2 979.12 1706.87 1119.6 1344.91"/>
          <polygon class="cls-8" points="646.1 1612.2 565.29 1815.04 905.44 1896.73 979.12 1706.87 646.1 1612.2"/>
        </g>
        <polygon class="cls-3" points="835.19 1137.53 727.81 1407.1 1049.27 1526.12 1119.6 1344.91 1321.91 1368.78 1309.22 1100.27 835.19 1137.53"/>
        <g>
          <path class="cls-2" d="M1309.22,1245.76l-330.1,43.57,46.58,320.17c10.93,75.14,68.45,134.57,142.43,148.48l190.17-294.94-49.08-217.28Z"/>
          <path class="cls-1" d="M1634.01,1506.6c.05-.07.1-.14.15-.21-9.73-10.08-22.9-16.91-37.87-18.47l-66.38-6.94-63.62,229.03c56.45-60.47,113.13-128.82,167.72-203.41Z"/>
          <path class="cls-8" d="M1466.29,1710.01l63.62-229.03-171.61-17.94-190.17,294.94c2.91.55,5.84,1.05,8.8,1.45l211.73,28.94c25.68-24.35,51.63-50.52,77.63-78.37Z"/>
        </g>
        <polygon class="cls-3" points="935.22 1245.76 1009.01 1550.29 1394.28 1438.74 1309.22 1100.27 935.22 1245.76"/>
        <path class="cls-2" d="M1326.01,666.84l286.57,154.63c77.26,41.69,112.19,133.79,82,216.23l-81.8,223.32c-26.2,71.54-103.36,110.52-176.49,89.18h0c-79.3-23.14-123.19-107.85-96.36-185.98l45.35-132.09-185.38-99.11,126.11-266.19Z"/>
        <path class="cls-1" d="M1207.7,984.53l122.46,56.67,166.43-314.77-141.78-82.09c-20.85-12.07-44.65-18.13-68.74-17.48l-382.88,10.2"/>
        <path d="M805.08,895.84c-2.67,0-5-1.97-5.38-4.69l-16.27-117.42c-.41-2.98,1.67-5.72,4.64-6.14,2.97-.4,5.72,1.67,6.14,4.64l16.27,117.42c.41,2.98-1.67,5.72-4.64,6.14-.25.03-.5.05-.75.05Z"/>
        <polygon class="cls-5" points="914.25 666.84 985.48 897.34 1056.71 647.8 914.25 666.84"/>
        <g>
          <g>
            <g>
              <path d="M1360.55,438.45c2.43-10,4.46-20.17,6.04-30.51,1.29-8.46,2.31-17.02,3-25.69,1.7-21.46,1.44-42.62-.61-63.31-9.02-91.05-52.9-173.02-118.99-231.05-55.41-48.66-126.44-80.5-205.61-86.77-60.45-4.78-118.54,5.91-170.41,28.74-63.29,27.86-117.27,73.81-154.91,131.8l311.1-78.26s127.66,277.04,330.39,355.05Z"/>
              <path class="cls-2" d="M1030.16,83.4l-311.1,78.26c-5.11,7.87-9.93,15.96-14.42,24.27-7.33,13.56-13.83,27.67-19.39,42.27-11.7,30.76-19.28,63.67-22.01,98.14-1.32,16.62-1.46,33.06-.5,49.24,6.77,114.89,68.99,216.77,161.95,276.7,47.63,30.7,103.32,50.4,163.76,55.19,133.02,10.53,254.66-53.85,323.49-157.72,22.13-33.4,38.77-70.89,48.6-111.29-202.73-78.01-330.39-355.05-330.39-355.05Z"/>
            </g>
            <g>
              <path class="cls-5" d="M959.68,362.28c-6.67,37.74-30.11,66.33-55.98,71.43,7.76,10.12,17.76,16.92,29.38,18.98,33.8,5.98,68.5-30.47,77.5-81.41,9.01-50.94-11.09-97.07-44.89-103.05-11.62-2.06-23.35.91-34.11,7.75,22.56,13.66,34.77,48.56,28.09,86.3Z"/>
              <path d="M888.19,349.64c-5.91,33.42.71,64.77,15.5,84.07,25.87-5.1,49.31-33.69,55.98-71.43,6.67-37.74-5.54-72.64-28.09-86.3-20.52,13.06-37.49,40.24-43.39,73.66Z"/>
            </g>
            <g>
              <path class="cls-5" d="M1066.54,379.66c-6.67,37.74-30.11,66.33-55.98,71.43,7.76,10.12,17.76,16.92,29.38,18.98,33.8,5.98,68.5-30.47,77.5-81.41,9.01-50.94-11.09-97.07-44.89-103.05-11.62-2.06-23.35.91-34.11,7.75,22.56,13.66,34.77,48.56,28.09,86.3Z"/>
              <path d="M995.05,367.02c-5.91,33.42.71,64.77,15.5,84.07,25.87-5.1,49.31-33.69,55.98-71.43,6.67-37.74-5.54-72.64-28.09-86.3-20.52,13.06-37.49,40.24-43.39,73.66Z"/>
            </g>
            <path d="M978.14,513.5c-19.46,0-37.23-9.87-47.54-26.39-1.59-2.55-.81-5.91,1.74-7.5,2.55-1.59,5.91-.81,7.5,1.74,8.31,13.32,22.63,21.27,38.3,21.27,10.07,0,19.6-3.25,27.55-9.39,2.38-1.83,5.79-1.4,7.63.98,1.84,2.38,1.4,5.79-.98,7.63-9.87,7.62-21.7,11.66-34.2,11.66Z"/>
            <circle class="cls-7" cx="1150.23" cy="496.14" r="49.66" transform="translate(463.8725 1544.0459) rotate(-80.1086)"/>
            <circle class="cls-7" cx="805.09" cy="432.65" r="49.66" transform="translate(368.5203 1235.6191) rotate(-89.7207)"/>
            <path d="M1030.16,47.22s-120.97,16.56-37.75,172l18.93-79.74s-6.64,82.16,105.71,89.02l33.18-81.79-120.07-99.5Z"/>
          </g>
          <circle class="cls-2" cx="1349.73" cy="451.63" r="114.65" transform="translate(75.9796 1086.6813) rotate(-45)"/>
        </g>
        <path d="M1268.84,1009.82c-.98,0-1.98-.27-2.88-.83l-104.1-65.06c-2.55-1.59-3.32-4.95-1.73-7.5,1.59-2.55,4.95-3.32,7.5-1.73l104.1,65.06c2.55,1.59,3.32,4.95,1.73,7.5-1.03,1.65-2.81,2.56-4.62,2.56Z"/>
        <path d="M1150.23,768.77c-.3,0-.61-.03-.91-.08l-85.15-14.47c-2.96-.5-4.96-3.31-4.45-6.28.5-2.96,3.3-4.95,6.28-4.45l78.8,13.39v-48.3c0-3,2.44-5.44,5.44-5.44s5.44,2.44,5.44,5.44v54.74c0,1.6-.71,3.12-1.93,4.16-.99.84-2.23,1.28-3.51,1.28Z"/>
        <path d="M854.76,768.77c-1.17,0-2.32-.38-3.28-1.1-1.36-1.03-2.16-2.64-2.16-4.34v-54.74c0-3,2.44-5.44,5.44-5.44s5.44,2.44,5.44,5.44v47.54l52.57-14.92c2.89-.82,5.9.86,6.72,3.75.82,2.89-.86,5.9-3.75,6.72l-59.5,16.89c-.49.14-.99.21-1.49.21Z"/>
        <path d="M987.86,1468.49c-2.65,0-4.98-1.94-5.37-4.65l-15.37-104.4-46.05-26.39c-2.61-1.49-3.51-4.82-2.02-7.43s4.82-3.51,7.43-2.02l48.34,27.7c1.45.83,2.43,2.28,2.68,3.93l15.76,107.01c.44,2.97-1.62,5.74-4.59,6.17-.27.04-.54.06-.8.06Z"/>
        <g>
          <path d="M589.81,1891.53c-.88,0-1.77-.21-2.59-.66l-43.42-23.61c-2.64-1.44-3.62-4.74-2.18-7.38,1.44-2.64,4.74-3.61,7.38-2.18l43.42,23.61c2.64,1.44,3.62,4.74,2.18,7.38-.99,1.81-2.86,2.84-4.78,2.84Z"/>
          <path d="M555.56,1929.98c-.88,0-1.77-.21-2.59-.66l-43.42-23.61c-2.64-1.44-3.62-4.74-2.18-7.38,1.44-2.64,4.74-3.62,7.38-2.18l43.42,23.61c2.64,1.44,3.62,4.74,2.18,7.38-.99,1.81-2.86,2.84-4.78,2.84Z"/>
        </g>
      </g>
    </g>
  </g>
</svg>